<svg width="260" height="260" xmlns="http://www.w3.org/2000/svg"><metadata>
	<dimension_matrice_cellule>6</dimension_matrice_cellule>
	<protocole>2</protocole>
</metadata>
<polygon points="-3,12 15,23 17,3" fill="#000000" stroke="black" stroke-width="1" data-i="0" data-j="0"/>
<path d="M-3,12 15,23 17,3 Z" fill="#000000" stroke="black" stroke-width="1" data-i="0" data-j="0"/>
<polygon points="26,26 41,9 22,4" fill="#000000" stroke="black" stroke-width="1" data-i="0" data-j="0"/>
<path d="M26,26 41,9 22,4 Z" fill="#000000" stroke="black" stroke-width="1" data-i="0" data-j="0"/>
<polygon points="17,44 14,22 -2,33" fill="#000000" stroke="black" stroke-width="1" data-i="0" data-j="0"/>
<path d="M17,44 14,22 -2,33 Z" fill="#000000" stroke="black" stroke-width="1" data-i="0" data-j="0"/>
<polygon points="17,29 33,44 39,25" fill="#000000" stroke="black" stroke-width="1" data-i="0" data-j="0"/>
<path d="M17,29 33,44 39,25 Z" fill="#000000" stroke="black" stroke-width="1" data-i="0" data-j="0"/>
<polygon points="57,24 54,2 37,13" fill="#ff0000" stroke="black" stroke-width="1" data-i="0" data-j="1"/>
<path d="M57,24 54,2 37,13 Z" fill="#ff0000" stroke="black" stroke-width="1" data-i="0" data-j="1"/>
<polygon points="77,2 57,13 74,24" fill="#ff0000" stroke="black" stroke-width="1" data-i="0" data-j="1"/>
<path d="M77,2 57,13 74,24 Z" fill="#ff0000" stroke="black" stroke-width="1" data-i="0" data-j="1"/>
<polygon points="63,34 44,22 42,42" fill="#ff0000" stroke="black" stroke-width="1" data-i="0" data-j="1"/>
<path d="M63,34 44,22 42,42 Z" fill="#ff0000" stroke="black" stroke-width="1" data-i="0" data-j="1"/>
<polygon points="69,20 60,40 80,39" fill="#0000ff" stroke="black" stroke-width="1" data-i="0" data-j="1"/>
<path d="M69,20 60,40 80,39 Z" fill="#0000ff" stroke="black" stroke-width="1" data-i="0" data-j="1"/>
<polygon points="93,0 78,17 98,22" fill="#ff0000" stroke="black" stroke-width="1" data-i="0" data-j="2"/>
<path d="M93,0 78,17 98,22 Z" fill="#ff0000" stroke="black" stroke-width="1" data-i="0" data-j="2"/>
<polygon points="103,1 104,23 121,14" fill="#ff0000" stroke="black" stroke-width="1" data-i="0" data-j="2"/>
<path d="M103,1 104,23 121,14 Z" fill="#ff0000" stroke="black" stroke-width="1" data-i="0" data-j="2"/>
<polygon points="103,33 83,23 83,43" fill="#ff0000" stroke="black" stroke-width="1" data-i="0" data-j="2"/>
<path d="M103,33 83,23 83,43 Z" fill="#ff0000" stroke="black" stroke-width="1" data-i="0" data-j="2"/>
<polygon points="97,27 112,45 120,26" fill="#00ff00" stroke="black" stroke-width="1" data-i="0" data-j="2"/>
<path d="M97,27 112,45 120,26 Z" fill="#00ff00" stroke="black" stroke-width="1" data-i="0" data-j="2"/>
<polygon points="143,14 124,2 122,22" fill="#0000ff" stroke="black" stroke-width="1" data-i="0" data-j="3"/>
<path d="M143,14 124,2 122,22 Z" fill="#0000ff" stroke="black" stroke-width="1" data-i="0" data-j="3"/>
<polygon points="162,8 140,6 147,25" fill="#ffff00" stroke="black" stroke-width="1" data-i="0" data-j="3"/>
<path d="M162,8 140,6 147,25 Z" fill="#ffff00" stroke="black" stroke-width="1" data-i="0" data-j="3"/>
<polygon points="116,34 137,42 135,22" fill="#0000ff" stroke="black" stroke-width="1" data-i="0" data-j="3"/>
<path d="M116,34 137,42 135,22 Z" fill="#0000ff" stroke="black" stroke-width="1" data-i="0" data-j="3"/>
<polygon points="145,46 161,30 142,23" fill="#ff0000" stroke="black" stroke-width="1" data-i="0" data-j="3"/>
<path d="M145,46 161,30 142,23 Z" fill="#ff0000" stroke="black" stroke-width="1" data-i="0" data-j="3"/>
<polygon points="169,26 180,7 160,5" fill="#00ff00" stroke="black" stroke-width="1" data-i="0" data-j="4"/>
<path d="M169,26 180,7 160,5 Z" fill="#00ff00" stroke="black" stroke-width="1" data-i="0" data-j="4"/>
<polygon points="178,19 200,19 191,1" fill="#ff0000" stroke="black" stroke-width="1" data-i="0" data-j="4"/>
<path d="M178,19 200,19 191,1 Z" fill="#ff0000" stroke="black" stroke-width="1" data-i="0" data-j="4"/>
<polygon points="174,45 177,23 158,30" fill="#ff0000" stroke="black" stroke-width="1" data-i="0" data-j="4"/>
<path d="M174,45 177,23 158,30 Z" fill="#ff0000" stroke="black" stroke-width="1" data-i="0" data-j="4"/>
<polygon points="203,33 183,23 182,43" fill="#0000ff" stroke="black" stroke-width="1" data-i="0" data-j="4"/>
<path d="M203,33 183,23 182,43 Z" fill="#0000ff" stroke="black" stroke-width="1" data-i="0" data-j="4"/>
<polygon points="201,2 206,24 221,12" fill="#000000" stroke="black" stroke-width="1" data-i="0" data-j="5"/>
<path d="M201,2 206,24 221,12 Z" fill="#000000" stroke="black" stroke-width="1" data-i="0" data-j="5"/>
<polygon points="234,0 218,15 236,23" fill="#000000" stroke="black" stroke-width="1" data-i="0" data-j="5"/>
<path d="M234,0 218,15 236,23 Z" fill="#000000" stroke="black" stroke-width="1" data-i="0" data-j="5"/>
<polygon points="201,22 206,44 221,32" fill="#000000" stroke="black" stroke-width="1" data-i="0" data-j="5"/>
<path d="M201,22 206,44 221,32 Z" fill="#000000" stroke="black" stroke-width="1" data-i="0" data-j="5"/>
<polygon points="234,20 218,36 237,43" fill="#000000" stroke="black" stroke-width="1" data-i="0" data-j="5"/>
<path d="M234,20 218,36 237,43 Z" fill="#000000" stroke="black" stroke-width="1" data-i="0" data-j="5"/>
<polygon points="23,54 4,42 2,62" fill="#00ff00" stroke="black" stroke-width="1" data-i="1" data-j="0"/>
<path d="M23,54 4,42 2,62 Z" fill="#00ff00" stroke="black" stroke-width="1" data-i="1" data-j="0"/>
<polygon points="37,42 17,53 34,64" fill="#0000ff" stroke="black" stroke-width="1" data-i="1" data-j="0"/>
<path d="M37,42 17,53 34,64 Z" fill="#0000ff" stroke="black" stroke-width="1" data-i="1" data-j="0"/>
<polygon points="21,66 0,68 9,85" fill="#ffff00" stroke="black" stroke-width="1" data-i="1" data-j="0"/>
<path d="M21,66 0,68 9,85 Z" fill="#ffff00" stroke="black" stroke-width="1" data-i="1" data-j="0"/>
<polygon points="37,84 34,62 17,73" fill="#0000ff" stroke="black" stroke-width="1" data-i="1" data-j="0"/>
<path d="M37,84 34,62 17,73 Z" fill="#0000ff" stroke="black" stroke-width="1" data-i="1" data-j="0"/>
<polygon points="62,48 40,46 47,65" fill="#00ff00" stroke="black" stroke-width="1" data-i="1" data-j="1"/>
<path d="M62,48 40,46 47,65 Z" fill="#00ff00" stroke="black" stroke-width="1" data-i="1" data-j="1"/>
<polygon points="57,50 74,64 78,45" fill="#0000ff" stroke="black" stroke-width="1" data-i="1" data-j="1"/>
<path d="M57,50 74,64 78,45 Z" fill="#0000ff" stroke="black" stroke-width="1" data-i="1" data-j="1"/>
<polygon points="56,85 55,62 38,72" fill="#ffff00" stroke="black" stroke-width="1" data-i="1" data-j="1"/>
<path d="M56,85 55,62 38,72 Z" fill="#ffff00" stroke="black" stroke-width="1" data-i="1" data-j="1"/>
<polygon points="61,83 81,74 66,61" fill="#ffff00" stroke="black" stroke-width="1" data-i="1" data-j="1"/>
<path d="M61,83 81,74 66,61 Z" fill="#ffff00" stroke="black" stroke-width="1" data-i="1" data-j="1"/>
<polygon points="103,53 83,43 83,63" fill="#00ff00" stroke="black" stroke-width="1" data-i="1" data-j="2"/>
<path d="M103,53 83,43 83,63 Z" fill="#00ff00" stroke="black" stroke-width="1" data-i="1" data-j="2"/>
<polygon points="102,42 105,64 122,53" fill="#ffff00" stroke="black" stroke-width="1" data-i="1" data-j="2"/>
<path d="M102,42 105,64 122,53 Z" fill="#ffff00" stroke="black" stroke-width="1" data-i="1" data-j="2"/>
<polygon points="95,61 78,75 96,83" fill="#ff0000" stroke="black" stroke-width="1" data-i="1" data-j="2"/>
<path d="M95,61 78,75 96,83 Z" fill="#ff0000" stroke="black" stroke-width="1" data-i="1" data-j="2"/>
<polygon points="114,86 117,63 98,70" fill="#0000ff" stroke="black" stroke-width="1" data-i="1" data-j="2"/>
<path d="M114,86 117,63 98,70 Z" fill="#0000ff" stroke="black" stroke-width="1" data-i="1" data-j="2"/>
<polygon points="121,63 141,54 126,41" fill="#ff0000" stroke="black" stroke-width="1" data-i="1" data-j="3"/>
<path d="M121,63 141,54 126,41 Z" fill="#ff0000" stroke="black" stroke-width="1" data-i="1" data-j="3"/>
<polygon points="136,54 157,62 155,42" fill="#0000ff" stroke="black" stroke-width="1" data-i="1" data-j="3"/>
<path d="M136,54 157,62 155,42 Z" fill="#0000ff" stroke="black" stroke-width="1" data-i="1" data-j="3"/>
<polygon points="122,62 125,84 142,73" fill="#ff0000" stroke="black" stroke-width="1" data-i="1" data-j="3"/>
<path d="M122,62 125,84 142,73 Z" fill="#ff0000" stroke="black" stroke-width="1" data-i="1" data-j="3"/>
<polygon points="140,82 161,76 148,61" fill="#ff0000" stroke="black" stroke-width="1" data-i="1" data-j="3"/>
<path d="M140,82 161,76 148,61 Z" fill="#ff0000" stroke="black" stroke-width="1" data-i="1" data-j="3"/>
<polygon points="179,44 158,50 171,65" fill="#00ff00" stroke="black" stroke-width="1" data-i="1" data-j="4"/>
<path d="M179,44 158,50 171,65 Z" fill="#00ff00" stroke="black" stroke-width="1" data-i="1" data-j="4"/>
<polygon points="202,56 186,41 180,61" fill="#0000ff" stroke="black" stroke-width="1" data-i="1" data-j="4"/>
<path d="M202,56 186,41 180,61 Z" fill="#0000ff" stroke="black" stroke-width="1" data-i="1" data-j="4"/>
<polygon points="156,70 174,84 178,64" fill="#ffff00" stroke="black" stroke-width="1" data-i="1" data-j="4"/>
<path d="M156,70 174,84 178,64 Z" fill="#ffff00" stroke="black" stroke-width="1" data-i="1" data-j="4"/>
<polygon points="193,60 178,77 197,82" fill="#ffff00" stroke="black" stroke-width="1" data-i="1" data-j="4"/>
<path d="M193,60 178,77 197,82 Z" fill="#ffff00" stroke="black" stroke-width="1" data-i="1" data-j="4"/>
<polygon points="200,43 207,65 221,51" fill="#00ff00" stroke="black" stroke-width="1" data-i="1" data-j="5"/>
<path d="M200,43 207,65 221,51 Z" fill="#00ff00" stroke="black" stroke-width="1" data-i="1" data-j="5"/>
<polygon points="231,66 239,45 219,47" fill="#0000ff" stroke="black" stroke-width="1" data-i="1" data-j="5"/>
<path d="M231,66 239,45 219,47 Z" fill="#0000ff" stroke="black" stroke-width="1" data-i="1" data-j="5"/>
<polygon points="210,60 199,79 219,80" fill="#ffff00" stroke="black" stroke-width="1" data-i="1" data-j="5"/>
<path d="M210,60 199,79 219,80 Z" fill="#ffff00" stroke="black" stroke-width="1" data-i="1" data-j="5"/>
<polygon points="216,70 234,84 238,64" fill="#00ff00" stroke="black" stroke-width="1" data-i="1" data-j="5"/>
<path d="M216,70 234,84 238,64 Z" fill="#00ff00" stroke="black" stroke-width="1" data-i="1" data-j="5"/>
<polygon points="7,106 21,89 1,84" fill="#00ff00" stroke="black" stroke-width="1" data-i="2" data-j="0"/>
<path d="M7,106 21,89 1,84 Z" fill="#00ff00" stroke="black" stroke-width="1" data-i="2" data-j="0"/>
<polygon points="25,105 41,90 22,83" fill="#0000ff" stroke="black" stroke-width="1" data-i="2" data-j="0"/>
<path d="M25,105 41,90 22,83 Z" fill="#0000ff" stroke="black" stroke-width="1" data-i="2" data-j="0"/>
<polygon points="23,113 3,103 3,123" fill="#ffff00" stroke="black" stroke-width="1" data-i="2" data-j="0"/>
<path d="M23,113 3,103 3,123 Z" fill="#ffff00" stroke="black" stroke-width="1" data-i="2" data-j="0"/>
<polygon points="33,100 18,117 37,122" fill="#0000ff" stroke="black" stroke-width="1" data-i="2" data-j="0"/>
<path d="M33,100 18,117 37,122 Z" fill="#0000ff" stroke="black" stroke-width="1" data-i="2" data-j="0"/>
<polygon points="62,98 47,81 40,100" fill="#ff0000" stroke="black" stroke-width="1" data-i="2" data-j="1"/>
<path d="M62,98 47,81 40,100 Z" fill="#ff0000" stroke="black" stroke-width="1" data-i="2" data-j="1"/>
<polygon points="60,103 81,95 67,81" fill="#0000ff" stroke="black" stroke-width="1" data-i="2" data-j="1"/>
<path d="M60,103 81,95 67,81 Z" fill="#0000ff" stroke="black" stroke-width="1" data-i="2" data-j="1"/>
<polygon points="62,118 47,101 40,120" fill="#ff0000" stroke="black" stroke-width="1" data-i="2" data-j="1"/>
<path d="M62,118 47,101 40,120 Z" fill="#ff0000" stroke="black" stroke-width="1" data-i="2" data-j="1"/>
<polygon points="65,100 62,122 81,116" fill="#ff0000" stroke="black" stroke-width="1" data-i="2" data-j="1"/>
<path d="M65,100 62,122 81,116 Z" fill="#ff0000" stroke="black" stroke-width="1" data-i="2" data-j="1"/>
<polygon points="85,105 101,90 82,83" fill="#00ff00" stroke="black" stroke-width="1" data-i="2" data-j="2"/>
<path d="M85,105 101,90 82,83 Z" fill="#00ff00" stroke="black" stroke-width="1" data-i="2" data-j="2"/>
<polygon points="121,100 109,81 99,98" fill="#0000ff" stroke="black" stroke-width="1" data-i="2" data-j="2"/>
<path d="M121,100 109,81 99,98 Z" fill="#0000ff" stroke="black" stroke-width="1" data-i="2" data-j="2"/>
<polygon points="80,123 101,115 87,101" fill="#ff0000" stroke="black" stroke-width="1" data-i="2" data-j="2"/>
<path d="M80,123 101,115 87,101 Z" fill="#ff0000" stroke="black" stroke-width="1" data-i="2" data-j="2"/>
<polygon points="106,126 121,109 102,104" fill="#00ff00" stroke="black" stroke-width="1" data-i="2" data-j="2"/>
<path d="M106,126 121,109 102,104 Z" fill="#00ff00" stroke="black" stroke-width="1" data-i="2" data-j="2"/>
<polygon points="119,100 141,97 129,81" fill="#00ff00" stroke="black" stroke-width="1" data-i="2" data-j="3"/>
<path d="M119,100 141,97 129,81 Z" fill="#00ff00" stroke="black" stroke-width="1" data-i="2" data-j="3"/>
<polygon points="161,100 149,81 139,98" fill="#ffff00" stroke="black" stroke-width="1" data-i="2" data-j="3"/>
<path d="M161,100 149,81 139,98 Z" fill="#ffff00" stroke="black" stroke-width="1" data-i="2" data-j="3"/>
<polygon points="132,126 138,104 118,109" fill="#00ff00" stroke="black" stroke-width="1" data-i="2" data-j="3"/>
<path d="M132,126 138,104 118,109 Z" fill="#00ff00" stroke="black" stroke-width="1" data-i="2" data-j="3"/>
<polygon points="150,100 140,120 160,120" fill="#0000ff" stroke="black" stroke-width="1" data-i="2" data-j="3"/>
<path d="M150,100 140,120 160,120 Z" fill="#0000ff" stroke="black" stroke-width="1" data-i="2" data-j="3"/>
<polygon points="176,104 175,82 157,92" fill="#ff0000" stroke="black" stroke-width="1" data-i="2" data-j="4"/>
<path d="M176,104 175,82 157,92 Z" fill="#ff0000" stroke="black" stroke-width="1" data-i="2" data-j="4"/>
<polygon points="195,81 178,95 196,103" fill="#ffff00" stroke="black" stroke-width="1" data-i="2" data-j="4"/>
<path d="M195,81 178,95 196,103 Z" fill="#ffff00" stroke="black" stroke-width="1" data-i="2" data-j="4"/>
<polygon points="159,105 169,125 181,108" fill="#ffff00" stroke="black" stroke-width="1" data-i="2" data-j="4"/>
<path d="M159,105 169,125 181,108 Z" fill="#ffff00" stroke="black" stroke-width="1" data-i="2" data-j="4"/>
<polygon points="195,101 178,115 196,123" fill="#ffff00" stroke="black" stroke-width="1" data-i="2" data-j="4"/>
<path d="M195,101 178,115 196,123 Z" fill="#ffff00" stroke="black" stroke-width="1" data-i="2" data-j="4"/>
<polygon points="205,80 203,103 221,95" fill="#00ff00" stroke="black" stroke-width="1" data-i="2" data-j="5"/>
<path d="M205,80 203,103 221,95 Z" fill="#00ff00" stroke="black" stroke-width="1" data-i="2" data-j="5"/>
<polygon points="230,80 219,99 239,100" fill="#0000ff" stroke="black" stroke-width="1" data-i="2" data-j="5"/>
<path d="M230,80 219,99 239,100 Z" fill="#0000ff" stroke="black" stroke-width="1" data-i="2" data-j="5"/>
<polygon points="203,101 204,123 221,114" fill="#ffff00" stroke="black" stroke-width="1" data-i="2" data-j="5"/>
<path d="M203,101 204,123 221,114 Z" fill="#ffff00" stroke="black" stroke-width="1" data-i="2" data-j="5"/>
<polygon points="237,102 217,113 234,124" fill="#ffff00" stroke="black" stroke-width="1" data-i="2" data-j="5"/>
<path d="M237,102 217,113 234,124 Z" fill="#ffff00" stroke="black" stroke-width="1" data-i="2" data-j="5"/>
<polygon points="15,121 -1,135 16,143" fill="#00ff00" stroke="black" stroke-width="1" data-i="3" data-j="0"/>
<path d="M15,121 -1,135 16,143 Z" fill="#00ff00" stroke="black" stroke-width="1" data-i="3" data-j="0"/>
<polygon points="20,143 41,135 27,121" fill="#0000ff" stroke="black" stroke-width="1" data-i="3" data-j="0"/>
<path d="M20,143 41,135 27,121 Z" fill="#0000ff" stroke="black" stroke-width="1" data-i="3" data-j="0"/>
<polygon points="18,163 13,141 -1,154" fill="#0000ff" stroke="black" stroke-width="1" data-i="3" data-j="0"/>
<path d="M18,163 13,141 -1,154 Z" fill="#0000ff" stroke="black" stroke-width="1" data-i="3" data-j="0"/>
<polygon points="40,160 30,141 18,157" fill="#0000ff" stroke="black" stroke-width="1" data-i="3" data-j="0"/>
<path d="M40,160 30,141 18,157 Z" fill="#0000ff" stroke="black" stroke-width="1" data-i="3" data-j="0"/>
<polygon points="37,128 52,145 59,126" fill="#00ff00" stroke="black" stroke-width="1" data-i="3" data-j="1"/>
<path d="M37,128 52,145 59,126 Z" fill="#00ff00" stroke="black" stroke-width="1" data-i="3" data-j="1"/>
<polygon points="76,121 58,134 75,143" fill="#ffff00" stroke="black" stroke-width="1" data-i="3" data-j="1"/>
<path d="M76,121 58,134 75,143 Z" fill="#ffff00" stroke="black" stroke-width="1" data-i="3" data-j="1"/>
<polygon points="40,143 47,165 61,151" fill="#00ff00" stroke="black" stroke-width="1" data-i="3" data-j="1"/>
<path d="M40,143 47,165 61,151 Z" fill="#00ff00" stroke="black" stroke-width="1" data-i="3" data-j="1"/>
<polygon points="83,150 61,144 65,164" fill="#00ff00" stroke="black" stroke-width="1" data-i="3" data-j="1"/>
<path d="M83,150 61,144 65,164 Z" fill="#00ff00" stroke="black" stroke-width="1" data-i="3" data-j="1"/>
<polygon points="102,129 80,125 86,144" fill="#ff0000" stroke="black" stroke-width="1" data-i="3" data-j="2"/>
<path d="M102,129 80,125 86,144 Z" fill="#ff0000" stroke="black" stroke-width="1" data-i="3" data-j="2"/>
<polygon points="97,130 114,144 118,125" fill="#0000ff" stroke="black" stroke-width="1" data-i="3" data-j="2"/>
<path d="M97,130 114,144 118,125 Z" fill="#0000ff" stroke="black" stroke-width="1" data-i="3" data-j="2"/>
<polygon points="98,143 78,151 93,164" fill="#ffff00" stroke="black" stroke-width="1" data-i="3" data-j="2"/>
<path d="M98,143 78,151 93,164 Z" fill="#ffff00" stroke="black" stroke-width="1" data-i="3" data-j="2"/>
<polygon points="111,140 99,159 119,160" fill="#ff0000" stroke="black" stroke-width="1" data-i="3" data-j="2"/>
<path d="M111,140 99,159 119,160 Z" fill="#ff0000" stroke="black" stroke-width="1" data-i="3" data-j="2"/>
<polygon points="137,122 117,132 134,144" fill="#00ff00" stroke="black" stroke-width="1" data-i="3" data-j="3"/>
<path d="M137,122 117,132 134,144 Z" fill="#00ff00" stroke="black" stroke-width="1" data-i="3" data-j="3"/>
<polygon points="154,120 138,135 156,143" fill="#0000ff" stroke="black" stroke-width="1" data-i="3" data-j="3"/>
<path d="M154,120 138,135 156,143 Z" fill="#0000ff" stroke="black" stroke-width="1" data-i="3" data-j="3"/>
<polygon points="130,166 139,145 119,147" fill="#ff0000" stroke="black" stroke-width="1" data-i="3" data-j="3"/>
<path d="M130,166 139,145 119,147 Z" fill="#ff0000" stroke="black" stroke-width="1" data-i="3" data-j="3"/>
<polygon points="163,152 142,143 144,163" fill="#ffff00" stroke="black" stroke-width="1" data-i="3" data-j="3"/>
<path d="M163,152 142,143 144,163 Z" fill="#ffff00" stroke="black" stroke-width="1" data-i="3" data-j="3"/>
<polygon points="156,130 174,144 178,124" fill="#00ff00" stroke="black" stroke-width="1" data-i="3" data-j="4"/>
<path d="M156,130 174,144 178,124 Z" fill="#00ff00" stroke="black" stroke-width="1" data-i="3" data-j="4"/>
<polygon points="191,146 199,125 179,127" fill="#0000ff" stroke="black" stroke-width="1" data-i="3" data-j="4"/>
<path d="M191,146 199,125 179,127 Z" fill="#0000ff" stroke="black" stroke-width="1" data-i="3" data-j="4"/>
<polygon points="172,140 158,157 178,162" fill="#ffff00" stroke="black" stroke-width="1" data-i="3" data-j="4"/>
<path d="M172,140 158,157 178,162 Z" fill="#ffff00" stroke="black" stroke-width="1" data-i="3" data-j="4"/>
<polygon points="196,165 195,142 178,152" fill="#00ff00" stroke="black" stroke-width="1" data-i="3" data-j="4"/>
<path d="M196,165 195,142 178,152 Z" fill="#00ff00" stroke="black" stroke-width="1" data-i="3" data-j="4"/>
<polygon points="204,121 203,143 221,135" fill="#00ff00" stroke="black" stroke-width="1" data-i="3" data-j="5"/>
<path d="M204,121 203,143 221,135 Z" fill="#00ff00" stroke="black" stroke-width="1" data-i="3" data-j="5"/>
<polygon points="240,125 218,129 230,145" fill="#0000ff" stroke="black" stroke-width="1" data-i="3" data-j="5"/>
<path d="M240,125 218,129 230,145 Z" fill="#0000ff" stroke="black" stroke-width="1" data-i="3" data-j="5"/>
<polygon points="221,159 208,141 199,159" fill="#00ff00" stroke="black" stroke-width="1" data-i="3" data-j="5"/>
<path d="M221,159 208,141 199,159 Z" fill="#00ff00" stroke="black" stroke-width="1" data-i="3" data-j="5"/>
<polygon points="232,166 238,145 218,148" fill="#00ff00" stroke="black" stroke-width="1" data-i="3" data-j="5"/>
<path d="M232,166 238,145 218,148 Z" fill="#00ff00" stroke="black" stroke-width="1" data-i="3" data-j="5"/>
<polygon points="20,165 -1,168 10,185" fill="#00ff00" stroke="black" stroke-width="1" data-i="4" data-j="0"/>
<path d="M20,165 -1,168 10,185 Z" fill="#00ff00" stroke="black" stroke-width="1" data-i="4" data-j="0"/>
<polygon points="16,170 34,184 38,164" fill="#ffff00" stroke="black" stroke-width="1" data-i="4" data-j="0"/>
<path d="M16,170 34,184 38,164 Z" fill="#ffff00" stroke="black" stroke-width="1" data-i="4" data-j="0"/>
<polygon points="14,205 16,183 -1,190" fill="#00ff00" stroke="black" stroke-width="1" data-i="4" data-j="0"/>
<path d="M14,205 16,183 -1,190 Z" fill="#00ff00" stroke="black" stroke-width="1" data-i="4" data-j="0"/>
<polygon points="18,200 40,198 30,181" fill="#ff0000" stroke="black" stroke-width="1" data-i="4" data-j="0"/>
<path d="M18,200 40,198 30,181 Z" fill="#ff0000" stroke="black" stroke-width="1" data-i="4" data-j="0"/>
<polygon points="39,164 48,185 61,170" fill="#00ff00" stroke="black" stroke-width="1" data-i="4" data-j="1"/>
<path d="M39,164 48,185 61,170 Z" fill="#00ff00" stroke="black" stroke-width="1" data-i="4" data-j="1"/>
<polygon points="80,164 58,170 71,185" fill="#0000ff" stroke="black" stroke-width="1" data-i="4" data-j="1"/>
<path d="M80,164 58,170 71,185 Z" fill="#0000ff" stroke="black" stroke-width="1" data-i="4" data-j="1"/>
<polygon points="61,199 48,181 39,199" fill="#ff0000" stroke="black" stroke-width="1" data-i="4" data-j="1"/>
<path d="M61,199 48,181 39,199 Z" fill="#ff0000" stroke="black" stroke-width="1" data-i="4" data-j="1"/>
<polygon points="72,206 78,184 58,189" fill="#ffff00" stroke="black" stroke-width="1" data-i="4" data-j="1"/>
<path d="M72,206 78,184 58,189 Z" fill="#ffff00" stroke="black" stroke-width="1" data-i="4" data-j="1"/>
<polygon points="93,160 78,176 97,182" fill="#ff0000" stroke="black" stroke-width="1" data-i="4" data-j="2"/>
<path d="M93,160 78,176 97,182 Z" fill="#ff0000" stroke="black" stroke-width="1" data-i="4" data-j="2"/>
<polygon points="122,178 108,161 99,179" fill="#0000ff" stroke="black" stroke-width="1" data-i="4" data-j="2"/>
<path d="M122,178 108,161 99,179 Z" fill="#0000ff" stroke="black" stroke-width="1" data-i="4" data-j="2"/>
<polygon points="83,181 84,203 101,194" fill="#ff0000" stroke="black" stroke-width="1" data-i="4" data-j="2"/>
<path d="M83,181 84,203 101,194 Z" fill="#ff0000" stroke="black" stroke-width="1" data-i="4" data-j="2"/>
<polygon points="121,200 110,181 98,197" fill="#ff0000" stroke="black" stroke-width="1" data-i="4" data-j="2"/>
<path d="M121,200 110,181 98,197 Z" fill="#ff0000" stroke="black" stroke-width="1" data-i="4" data-j="2"/>
<polygon points="133,160 118,176 137,182" fill="#00ff00" stroke="black" stroke-width="1" data-i="4" data-j="3"/>
<path d="M133,160 118,176 137,182 Z" fill="#00ff00" stroke="black" stroke-width="1" data-i="4" data-j="3"/>
<polygon points="163,172 142,163 143,183" fill="#0000ff" stroke="black" stroke-width="1" data-i="4" data-j="3"/>
<path d="M163,172 142,163 143,183 Z" fill="#0000ff" stroke="black" stroke-width="1" data-i="4" data-j="3"/>
<polygon points="124,205 141,191 123,183" fill="#ff0000" stroke="black" stroke-width="1" data-i="4" data-j="3"/>
<path d="M124,205 141,191 123,183 Z" fill="#ff0000" stroke="black" stroke-width="1" data-i="4" data-j="3"/>
<polygon points="137,198 160,199 152,181" fill="#00ff00" stroke="black" stroke-width="1" data-i="4" data-j="3"/>
<path d="M137,198 160,199 152,181 Z" fill="#00ff00" stroke="black" stroke-width="1" data-i="4" data-j="3"/>
<polygon points="174,185 176,163 158,170" fill="#0000ff" stroke="black" stroke-width="1" data-i="4" data-j="4"/>
<path d="M174,185 176,163 158,170 Z" fill="#0000ff" stroke="black" stroke-width="1" data-i="4" data-j="4"/>
<polygon points="200,164 178,169 191,185" fill="#00ff00" stroke="black" stroke-width="1" data-i="4" data-j="4"/>
<path d="M200,164 178,169 191,185 Z" fill="#00ff00" stroke="black" stroke-width="1" data-i="4" data-j="4"/>
<polygon points="183,194 164,182 162,202" fill="#00ff00" stroke="black" stroke-width="1" data-i="4" data-j="4"/>
<path d="M183,194 164,182 162,202 Z" fill="#00ff00" stroke="black" stroke-width="1" data-i="4" data-j="4"/>
<polygon points="197,182 177,193 194,204" fill="#ff0000" stroke="black" stroke-width="1" data-i="4" data-j="4"/>
<path d="M197,182 177,193 194,204 Z" fill="#ff0000" stroke="black" stroke-width="1" data-i="4" data-j="4"/>
<polygon points="197,178 219,180 212,161" fill="#ff0000" stroke="black" stroke-width="1" data-i="4" data-j="5"/>
<path d="M197,178 219,180 212,161 Z" fill="#ff0000" stroke="black" stroke-width="1" data-i="4" data-j="5"/>
<polygon points="227,160 221,181 241,177" fill="#ff0000" stroke="black" stroke-width="1" data-i="4" data-j="5"/>
<path d="M227,160 221,181 241,177 Z" fill="#ff0000" stroke="black" stroke-width="1" data-i="4" data-j="5"/>
<polygon points="197,190 214,204 218,185" fill="#ff0000" stroke="black" stroke-width="1" data-i="4" data-j="5"/>
<path d="M197,190 214,204 218,185 Z" fill="#ff0000" stroke="black" stroke-width="1" data-i="4" data-j="5"/>
<polygon points="229,206 240,186 220,186" fill="#ff0000" stroke="black" stroke-width="1" data-i="4" data-j="5"/>
<path d="M229,206 240,186 220,186 Z" fill="#ff0000" stroke="black" stroke-width="1" data-i="4" data-j="5"/>
<polygon points="23,213 3,203 2,223" fill="#ff0000" stroke="black" stroke-width="1" data-i="5" data-j="0"/>
<path d="M23,213 3,203 2,223 Z" fill="#ff0000" stroke="black" stroke-width="1" data-i="5" data-j="0"/>
<polygon points="43,215 25,202 21,221" fill="#ff0000" stroke="black" stroke-width="1" data-i="5" data-j="0"/>
<path d="M43,215 25,202 21,221 Z" fill="#ff0000" stroke="black" stroke-width="1" data-i="5" data-j="0"/>
<polygon points="0,224 8,245 21,230" fill="#ff0000" stroke="black" stroke-width="1" data-i="5" data-j="0"/>
<path d="M0,224 8,245 21,230 Z" fill="#ff0000" stroke="black" stroke-width="1" data-i="5" data-j="0"/>
<polygon points="31,220 19,239 39,240" fill="#ff0000" stroke="black" stroke-width="1" data-i="5" data-j="0"/>
<path d="M31,220 19,239 39,240 Z" fill="#ff0000" stroke="black" stroke-width="1" data-i="5" data-j="0"/>
<polygon points="63,213 43,203 42,223" fill="#ff0000" stroke="black" stroke-width="1" data-i="5" data-j="1"/>
<path d="M63,213 43,203 42,223 Z" fill="#ff0000" stroke="black" stroke-width="1" data-i="5" data-j="1"/>
<polygon points="74,200 58,216 77,222" fill="#ff0000" stroke="black" stroke-width="1" data-i="5" data-j="1"/>
<path d="M74,200 58,216 77,222 Z" fill="#ff0000" stroke="black" stroke-width="1" data-i="5" data-j="1"/>
<polygon points="50,246 59,226 39,226" fill="#ff0000" stroke="black" stroke-width="1" data-i="5" data-j="1"/>
<path d="M50,246 59,226 39,226 Z" fill="#ff0000" stroke="black" stroke-width="1" data-i="5" data-j="1"/>
<polygon points="78,243 73,221 58,234" fill="#ff0000" stroke="black" stroke-width="1" data-i="5" data-j="1"/>
<path d="M78,243 73,221 58,234 Z" fill="#ff0000" stroke="black" stroke-width="1" data-i="5" data-j="1"/>
<polygon points="76,210 94,224 98,204" fill="#ff0000" stroke="black" stroke-width="1" data-i="5" data-j="2"/>
<path d="M76,210 94,224 98,204 Z" fill="#ff0000" stroke="black" stroke-width="1" data-i="5" data-j="2"/>
<polygon points="96,210 114,224 118,204" fill="#ff0000" stroke="black" stroke-width="1" data-i="5" data-j="2"/>
<path d="M96,210 114,224 118,204 Z" fill="#ff0000" stroke="black" stroke-width="1" data-i="5" data-j="2"/>
<polygon points="91,246 98,225 79,228" fill="#ff0000" stroke="black" stroke-width="1" data-i="5" data-j="2"/>
<path d="M91,246 98,225 79,228 Z" fill="#ff0000" stroke="black" stroke-width="1" data-i="5" data-j="2"/>
<polygon points="101,223 106,244 121,231" fill="#ff0000" stroke="black" stroke-width="1" data-i="5" data-j="2"/>
<path d="M101,223 106,244 121,231 Z" fill="#ff0000" stroke="black" stroke-width="1" data-i="5" data-j="2"/>
<polygon points="116,214 137,222 135,202" fill="#ff0000" stroke="black" stroke-width="1" data-i="5" data-j="3"/>
<path d="M116,214 137,222 135,202 Z" fill="#ff0000" stroke="black" stroke-width="1" data-i="5" data-j="3"/>
<polygon points="147,200 141,221 161,217" fill="#ff0000" stroke="black" stroke-width="1" data-i="5" data-j="3"/>
<path d="M147,200 141,221 161,217 Z" fill="#ff0000" stroke="black" stroke-width="1" data-i="5" data-j="3"/>
<polygon points="134,245 137,223 118,230" fill="#ff0000" stroke="black" stroke-width="1" data-i="5" data-j="3"/>
<path d="M134,245 137,223 118,230 Z" fill="#ff0000" stroke="black" stroke-width="1" data-i="5" data-j="3"/>
<polygon points="147,220 141,241 161,237" fill="#ff0000" stroke="black" stroke-width="1" data-i="5" data-j="3"/>
<path d="M147,220 141,241 161,237 Z" fill="#ff0000" stroke="black" stroke-width="1" data-i="5" data-j="3"/>
<polygon points="158,206 170,225 180,207" fill="#ff0000" stroke="black" stroke-width="1" data-i="5" data-j="4"/>
<path d="M158,206 170,225 180,207 Z" fill="#ff0000" stroke="black" stroke-width="1" data-i="5" data-j="4"/>
<polygon points="203,212 182,203 183,223" fill="#ff0000" stroke="black" stroke-width="1" data-i="5" data-j="4"/>
<path d="M203,212 182,203 183,223 Z" fill="#ff0000" stroke="black" stroke-width="1" data-i="5" data-j="4"/>
<polygon points="178,222 158,232 173,244" fill="#ff0000" stroke="black" stroke-width="1" data-i="5" data-j="4"/>
<path d="M178,222 158,232 173,244 Z" fill="#ff0000" stroke="black" stroke-width="1" data-i="5" data-j="4"/>
<polygon points="195,221 178,234 196,243" fill="#ff0000" stroke="black" stroke-width="1" data-i="5" data-j="4"/>
<path d="M195,221 178,234 196,243 Z" fill="#ff0000" stroke="black" stroke-width="1" data-i="5" data-j="4"/>
<polygon points="198,206 210,225 220,208" fill="#000000" stroke="black" stroke-width="1" data-i="5" data-j="5"/>
<path d="M198,206 210,225 220,208 Z" fill="#000000" stroke="black" stroke-width="1" data-i="5" data-j="5"/>
<polygon points="242,207 219,206 227,225" fill="#000000" stroke="black" stroke-width="1" data-i="5" data-j="5"/>
<path d="M242,207 219,206 227,225 Z" fill="#000000" stroke="black" stroke-width="1" data-i="5" data-j="5"/>
<polygon points="196,232 215,243 217,223" fill="#000000" stroke="black" stroke-width="1" data-i="5" data-j="5"/>
<path d="M196,232 215,243 217,223 Z" fill="#000000" stroke="black" stroke-width="1" data-i="5" data-j="5"/>
<polygon points="233,220 218,237 237,242" fill="#000000" stroke="black" stroke-width="1" data-i="5" data-j="5"/>
<path d="M233,220 218,237 237,242 Z" fill="#000000" stroke="black" stroke-width="1" data-i="5" data-j="5"/>
</svg>