<svg width="220" height="220" xmlns="http://www.w3.org/2000/svg">
<metadata>
	<dimension_matrice_cellule>5</dimension_matrice_cellule>
	<protocole>2</protocole>
</metadata>
<polygon points="-3,13 17,23 16,3" fill="#ffff00" stroke="black" stroke-width="1" data-i="0" data-j="0"/>
<path d="M-3,13 17,23 16,3 Z" fill="#ffff00" stroke="black" stroke-width="1" data-i="0" data-j="0"/>
<polygon points="39,22 32,1 18,15" fill="#ffff00" stroke="black" stroke-width="1" data-i="0" data-j="0"/>
<path d="M39,22 32,1 18,15 Z" fill="#ffff00" stroke="black" stroke-width="1" data-i="0" data-j="0"/>
<polygon points="19,23 -1,31 12,45" fill="#ffff00" stroke="black" stroke-width="1" data-i="0" data-j="0"/>
<path d="M19,23 -1,31 12,45 Z" fill="#ffff00" stroke="black" stroke-width="1" data-i="0" data-j="0"/>
<polygon points="38,23 18,31 32,44" fill="#ffff00" stroke="black" stroke-width="1" data-i="0" data-j="0"/>
<path d="M38,23 18,31 32,44 Z" fill="#ffff00" stroke="black" stroke-width="1" data-i="0" data-j="0"/>
<polygon points="42,2 45,24 62,13" fill="#ff0000" stroke="black" stroke-width="1" data-i="0" data-j="1"/>
<path d="M42,2 45,24 62,13 Z" fill="#ff0000" stroke="black" stroke-width="1" data-i="0" data-j="1"/>
<polygon points="66,26 81,9 61,4" fill="#ff0000" stroke="black" stroke-width="1" data-i="0" data-j="1"/>
<path d="M66,26 81,9 61,4 Z" fill="#ff0000" stroke="black" stroke-width="1" data-i="0" data-j="1"/>
<polygon points="45,46 61,30 42,23" fill="#ff0000" stroke="black" stroke-width="1" data-i="0" data-j="1"/>
<path d="M45,46 61,30 42,23 Z" fill="#ff0000" stroke="black" stroke-width="1" data-i="0" data-j="1"/>
<polygon points="76,21 58,34 75,44" fill="#0000ff" stroke="black" stroke-width="1" data-i="0" data-j="1"/>
<path d="M76,21 58,34 75,44 Z" fill="#0000ff" stroke="black" stroke-width="1" data-i="0" data-j="1"/>
<polygon points="99,4 78,10 91,25" fill="#ff0000" stroke="black" stroke-width="1" data-i="0" data-j="2"/>
<path d="M99,4 78,10 91,25 Z" fill="#ff0000" stroke="black" stroke-width="1" data-i="0" data-j="2"/>
<polygon points="107,0 101,21 121,17" fill="#ff0000" stroke="black" stroke-width="1" data-i="0" data-j="2"/>
<path d="M107,0 101,21 121,17 Z" fill="#ff0000" stroke="black" stroke-width="1" data-i="0" data-j="2"/>
<polygon points="91,46 99,25 79,27" fill="#ff0000" stroke="black" stroke-width="1" data-i="0" data-j="2"/>
<path d="M91,46 99,25 79,27 Z" fill="#ff0000" stroke="black" stroke-width="1" data-i="0" data-j="2"/>
<polygon points="119,42 111,21 98,36" fill="#00ff00" stroke="black" stroke-width="1" data-i="0" data-j="2"/>
<path d="M119,42 111,21 98,36 Z" fill="#00ff00" stroke="black" stroke-width="1" data-i="0" data-j="2"/>
<polygon points="116,11 135,23 137,4" fill="#00ff00" stroke="black" stroke-width="1" data-i="0" data-j="3"/>
<path d="M116,11 135,23 137,4 Z" fill="#00ff00" stroke="black" stroke-width="1" data-i="0" data-j="3"/>
<polygon points="140,3 147,25 161,11" fill="#0000ff" stroke="black" stroke-width="1" data-i="0" data-j="3"/>
<path d="M140,3 147,25 161,11 Z" fill="#0000ff" stroke="black" stroke-width="1" data-i="0" data-j="3"/>
<polygon points="127,46 141,28 121,24" fill="#0000ff" stroke="black" stroke-width="1" data-i="0" data-j="3"/>
<path d="M127,46 141,28 121,24 Z" fill="#0000ff" stroke="black" stroke-width="1" data-i="0" data-j="3"/>
<polygon points="136,33 156,43 156,23" fill="#ff0000" stroke="black" stroke-width="1" data-i="0" data-j="3"/>
<path d="M136,33 156,43 156,23 Z" fill="#ff0000" stroke="black" stroke-width="1" data-i="0" data-j="3"/>
<polygon points="180,21 171,1 158,16" fill="#ffff00" stroke="black" stroke-width="1" data-i="0" data-j="4"/>
<path d="M180,21 171,1 158,16 Z" fill="#ffff00" stroke="black" stroke-width="1" data-i="0" data-j="4"/>
<polygon points="202,8 180,6 186,24" fill="#ffff00" stroke="black" stroke-width="1" data-i="0" data-j="4"/>
<path d="M202,8 180,6 186,24 Z" fill="#ffff00" stroke="black" stroke-width="1" data-i="0" data-j="4"/>
<polygon points="168,46 180,28 161,25" fill="#ffff00" stroke="black" stroke-width="1" data-i="0" data-j="4"/>
<path d="M168,46 180,28 161,25 Z" fill="#ffff00" stroke="black" stroke-width="1" data-i="0" data-j="4"/>
<polygon points="184,21 183,43 201,34" fill="#ffff00" stroke="black" stroke-width="1" data-i="0" data-j="4"/>
<path d="M184,21 183,43 201,34 Z" fill="#ffff00" stroke="black" stroke-width="1" data-i="0" data-j="4"/>
<polygon points="-3,52 16,63 17,43" fill="#00ff00" stroke="black" stroke-width="1" data-i="1" data-j="0"/>
<path d="M-3,52 16,63 17,43 Z" fill="#00ff00" stroke="black" stroke-width="1" data-i="1" data-j="0"/>
<polygon points="23,41 24,64 42,53" fill="#ff0000" stroke="black" stroke-width="1" data-i="1" data-j="0"/>
<path d="M23,41 24,64 42,53 Z" fill="#ff0000" stroke="black" stroke-width="1" data-i="1" data-j="0"/>
<polygon points="20,65 -1,68 10,85" fill="#0000ff" stroke="black" stroke-width="1" data-i="1" data-j="0"/>
<path d="M20,65 -1,68 10,85 Z" fill="#0000ff" stroke="black" stroke-width="1" data-i="1" data-j="0"/>
<polygon points="31,60 19,79 39,80" fill="#ff0000" stroke="black" stroke-width="1" data-i="1" data-j="0"/>
<path d="M31,60 19,79 39,80 Z" fill="#ff0000" stroke="black" stroke-width="1" data-i="1" data-j="0"/>
<polygon points="54,65 57,43 38,50" fill="#00ff00" stroke="black" stroke-width="1" data-i="1" data-j="1"/>
<path d="M54,65 57,43 38,50 Z" fill="#00ff00" stroke="black" stroke-width="1" data-i="1" data-j="1"/>
<polygon points="82,48 60,46 66,64" fill="#0000ff" stroke="black" stroke-width="1" data-i="1" data-j="1"/>
<path d="M82,48 60,46 66,64 Z" fill="#0000ff" stroke="black" stroke-width="1" data-i="1" data-j="1"/>
<polygon points="42,84 62,73 45,62" fill="#ffff00" stroke="black" stroke-width="1" data-i="1" data-j="1"/>
<path d="M42,84 62,73 45,62 Z" fill="#ffff00" stroke="black" stroke-width="1" data-i="1" data-j="1"/>
<polygon points="56,70 74,84 78,64" fill="#ff0000" stroke="black" stroke-width="1" data-i="1" data-j="1"/>
<path d="M56,70 74,84 78,64 Z" fill="#ff0000" stroke="black" stroke-width="1" data-i="1" data-j="1"/>
<polygon points="97,42 77,53 94,64" fill="#00ff00" stroke="black" stroke-width="1" data-i="1" data-j="2"/>
<path d="M97,42 77,53 94,64 Z" fill="#00ff00" stroke="black" stroke-width="1" data-i="1" data-j="2"/>
<polygon points="98,60 120,58 110,41" fill="#0000ff" stroke="black" stroke-width="1" data-i="1" data-j="2"/>
<path d="M98,60 120,58 110,41 Z" fill="#0000ff" stroke="black" stroke-width="1" data-i="1" data-j="2"/>
<polygon points="80,82 101,76 88,61" fill="#ffff00" stroke="black" stroke-width="1" data-i="1" data-j="2"/>
<path d="M80,82 101,76 88,61 Z" fill="#ffff00" stroke="black" stroke-width="1" data-i="1" data-j="2"/>
<polygon points="119,64 98,70 111,85" fill="#ffff00" stroke="black" stroke-width="1" data-i="1" data-j="2"/>
<path d="M119,64 98,70 111,85 Z" fill="#ffff00" stroke="black" stroke-width="1" data-i="1" data-j="2"/>
<polygon points="139,62 132,41 118,55" fill="#ff0000" stroke="black" stroke-width="1" data-i="1" data-j="3"/>
<path d="M139,62 132,41 118,55 Z" fill="#ff0000" stroke="black" stroke-width="1" data-i="1" data-j="3"/>
<polygon points="162,48 139,46 147,65" fill="#0000ff" stroke="black" stroke-width="1" data-i="1" data-j="3"/>
<path d="M162,48 139,46 147,65 Z" fill="#0000ff" stroke="black" stroke-width="1" data-i="1" data-j="3"/>
<polygon points="122,84 142,72 125,62" fill="#ff0000" stroke="black" stroke-width="1" data-i="1" data-j="3"/>
<path d="M122,84 142,72 125,62 Z" fill="#ff0000" stroke="black" stroke-width="1" data-i="1" data-j="3"/>
<polygon points="159,64 138,70 152,85" fill="#ff0000" stroke="black" stroke-width="1" data-i="1" data-j="3"/>
<path d="M159,64 138,70 152,85 Z" fill="#ff0000" stroke="black" stroke-width="1" data-i="1" data-j="3"/>
<polygon points="166,40 161,62 181,57" fill="#00ff00" stroke="black" stroke-width="1" data-i="1" data-j="4"/>
<path d="M166,40 161,62 181,57 Z" fill="#00ff00" stroke="black" stroke-width="1" data-i="1" data-j="4"/>
<polygon points="186,40 182,62 201,57" fill="#0000ff" stroke="black" stroke-width="1" data-i="1" data-j="4"/>
<path d="M186,40 182,62 201,57 Z" fill="#0000ff" stroke="black" stroke-width="1" data-i="1" data-j="4"/>
<polygon points="164,85 181,71 163,63" fill="#ffff00" stroke="black" stroke-width="1" data-i="1" data-j="4"/>
<path d="M164,85 181,71 163,63 Z" fill="#ffff00" stroke="black" stroke-width="1" data-i="1" data-j="4"/>
<polygon points="177,68 192,85 200,66" fill="#ffff00" stroke="black" stroke-width="1" data-i="1" data-j="4"/>
<path d="M177,68 192,85 200,66 Z" fill="#ffff00" stroke="black" stroke-width="1" data-i="1" data-j="4"/>
<polygon points="14,105 16,83 -1,90" fill="#00ff00" stroke="black" stroke-width="1" data-i="2" data-j="0"/>
<path d="M14,105 16,83 -1,90 Z" fill="#00ff00" stroke="black" stroke-width="1" data-i="2" data-j="0"/>
<polygon points="40,84 18,89 31,105" fill="#0000ff" stroke="black" stroke-width="1" data-i="2" data-j="0"/>
<path d="M40,84 18,89 31,105 Z" fill="#0000ff" stroke="black" stroke-width="1" data-i="2" data-j="0"/>
<polygon points="13,100 -1,117 18,122" fill="#ffff00" stroke="black" stroke-width="1" data-i="2" data-j="0"/>
<path d="M13,100 -1,117 18,122 Z" fill="#ffff00" stroke="black" stroke-width="1" data-i="2" data-j="0"/>
<polygon points="43,113 23,103 22,123" fill="#ff0000" stroke="black" stroke-width="1" data-i="2" data-j="0"/>
<path d="M43,113 23,103 22,123 Z" fill="#ff0000" stroke="black" stroke-width="1" data-i="2" data-j="0"/>
<polygon points="54,80 38,95 56,103" fill="#ff0000" stroke="black" stroke-width="1" data-i="2" data-j="1"/>
<path d="M54,80 38,95 56,103 Z" fill="#ff0000" stroke="black" stroke-width="1" data-i="2" data-j="1"/>
<polygon points="62,82 65,104 82,93" fill="#0000ff" stroke="black" stroke-width="1" data-i="2" data-j="1"/>
<path d="M62,82 65,104 82,93 Z" fill="#0000ff" stroke="black" stroke-width="1" data-i="2" data-j="1"/>
<polygon points="48,100 40,121 60,118" fill="#ff0000" stroke="black" stroke-width="1" data-i="2" data-j="1"/>
<path d="M48,100 40,121 60,118 Z" fill="#ff0000" stroke="black" stroke-width="1" data-i="2" data-j="1"/>
<polygon points="63,124 81,112 64,102" fill="#00ff00" stroke="black" stroke-width="1" data-i="2" data-j="1"/>
<path d="M63,124 81,112 64,102 Z" fill="#00ff00" stroke="black" stroke-width="1" data-i="2" data-j="1"/>
<polygon points="79,101 101,97 89,81" fill="#00ff00" stroke="black" stroke-width="1" data-i="2" data-j="2"/>
<path d="M79,101 101,97 89,81 Z" fill="#00ff00" stroke="black" stroke-width="1" data-i="2" data-j="2"/>
<polygon points="115,81 98,95 116,103" fill="#0000ff" stroke="black" stroke-width="1" data-i="2" data-j="2"/>
<path d="M115,81 98,95 116,103 Z" fill="#0000ff" stroke="black" stroke-width="1" data-i="2" data-j="2"/>
<polygon points="96,124 95,102 78,112" fill="#00ff00" stroke="black" stroke-width="1" data-i="2" data-j="2"/>
<path d="M96,124 95,102 78,112 Z" fill="#00ff00" stroke="black" stroke-width="1" data-i="2" data-j="2"/>
<polygon points="106,126 121,109 102,104" fill="#00ff00" stroke="black" stroke-width="1" data-i="2" data-j="2"/>
<path d="M106,126 121,109 102,104 Z" fill="#00ff00" stroke="black" stroke-width="1" data-i="2" data-j="2"/>
<polygon points="130,106 139,85 119,87" fill="#00ff00" stroke="black" stroke-width="1" data-i="2" data-j="3"/>
<path d="M130,106 139,85 119,87 Z" fill="#00ff00" stroke="black" stroke-width="1" data-i="2" data-j="3"/>
<polygon points="143,104 162,92 144,82" fill="#0000ff" stroke="black" stroke-width="1" data-i="2" data-j="3"/>
<path d="M143,104 162,92 144,82 Z" fill="#0000ff" stroke="black" stroke-width="1" data-i="2" data-j="3"/>
<polygon points="117,108 132,125 139,106" fill="#ffff00" stroke="black" stroke-width="1" data-i="2" data-j="3"/>
<path d="M117,108 132,125 139,106 Z" fill="#ffff00" stroke="black" stroke-width="1" data-i="2" data-j="3"/>
<polygon points="143,124 162,112 144,102" fill="#ff0000" stroke="black" stroke-width="1" data-i="2" data-j="3"/>
<path d="M143,124 162,112 144,102 Z" fill="#ff0000" stroke="black" stroke-width="1" data-i="2" data-j="3"/>
<polygon points="173,80 158,97 178,102" fill="#ff0000" stroke="black" stroke-width="1" data-i="2" data-j="4"/>
<path d="M173,80 158,97 178,102 Z" fill="#ff0000" stroke="black" stroke-width="1" data-i="2" data-j="4"/>
<polygon points="196,105 195,82 178,91" fill="#0000ff" stroke="black" stroke-width="1" data-i="2" data-j="4"/>
<path d="M196,105 195,82 178,91 Z" fill="#0000ff" stroke="black" stroke-width="1" data-i="2" data-j="4"/>
<polygon points="161,123 181,114 166,101" fill="#ffff00" stroke="black" stroke-width="1" data-i="2" data-j="4"/>
<path d="M161,123 181,114 166,101 Z" fill="#ffff00" stroke="black" stroke-width="1" data-i="2" data-j="4"/>
<polygon points="191,100 179,119 199,120" fill="#ff0000" stroke="black" stroke-width="1" data-i="2" data-j="4"/>
<path d="M191,100 179,119 199,120 Z" fill="#ff0000" stroke="black" stroke-width="1" data-i="2" data-j="4"/>
<polygon points="2,122 5,144 22,133" fill="#00ff00" stroke="black" stroke-width="1" data-i="3" data-j="0"/>
<path d="M2,122 5,144 22,133 Z" fill="#00ff00" stroke="black" stroke-width="1" data-i="3" data-j="0"/>
<polygon points="37,144 34,122 17,133" fill="#ffff00" stroke="black" stroke-width="1" data-i="3" data-j="0"/>
<path d="M37,144 34,122 17,133 Z" fill="#ffff00" stroke="black" stroke-width="1" data-i="3" data-j="0"/>
<polygon points="0,144 8,165 21,150" fill="#00ff00" stroke="black" stroke-width="1" data-i="3" data-j="0"/>
<path d="M0,144 8,165 21,150 Z" fill="#00ff00" stroke="black" stroke-width="1" data-i="3" data-j="0"/>
<polygon points="39,162 31,141 18,156" fill="#ffff00" stroke="black" stroke-width="1" data-i="3" data-j="0"/>
<path d="M39,162 31,141 18,156 Z" fill="#ffff00" stroke="black" stroke-width="1" data-i="3" data-j="0"/>
<polygon points="58,122 38,132 53,144" fill="#00ff00" stroke="black" stroke-width="1" data-i="3" data-j="1"/>
<path d="M58,122 38,132 53,144 Z" fill="#00ff00" stroke="black" stroke-width="1" data-i="3" data-j="1"/>
<polygon points="60,142 81,136 68,121" fill="#ffff00" stroke="black" stroke-width="1" data-i="3" data-j="1"/>
<path d="M60,142 81,136 68,121 Z" fill="#ffff00" stroke="black" stroke-width="1" data-i="3" data-j="1"/>
<polygon points="41,163 61,154 46,141" fill="#ff0000" stroke="black" stroke-width="1" data-i="3" data-j="1"/>
<path d="M41,163 61,154 46,141 Z" fill="#ff0000" stroke="black" stroke-width="1" data-i="3" data-j="1"/>
<polygon points="63,141 64,164 82,153" fill="#0000ff" stroke="black" stroke-width="1" data-i="3" data-j="1"/>
<path d="M63,141 64,164 82,153 Z" fill="#0000ff" stroke="black" stroke-width="1" data-i="3" data-j="1"/>
<polygon points="78,126 90,145 100,127" fill="#00ff00" stroke="black" stroke-width="1" data-i="3" data-j="2"/>
<path d="M78,126 90,145 100,127 Z" fill="#00ff00" stroke="black" stroke-width="1" data-i="3" data-j="2"/>
<polygon points="97,137 119,141 113,121" fill="#0000ff" stroke="black" stroke-width="1" data-i="3" data-j="2"/>
<path d="M97,137 119,141 113,121 Z" fill="#0000ff" stroke="black" stroke-width="1" data-i="3" data-j="2"/>
<polygon points="79,161 101,156 88,141" fill="#00ff00" stroke="black" stroke-width="1" data-i="3" data-j="2"/>
<path d="M79,161 101,156 88,141 Z" fill="#00ff00" stroke="black" stroke-width="1" data-i="3" data-j="2"/>
<polygon points="122,157 106,141 100,160" fill="#ff0000" stroke="black" stroke-width="1" data-i="3" data-j="2"/>
<path d="M122,157 106,141 100,160 Z" fill="#ff0000" stroke="black" stroke-width="1" data-i="3" data-j="2"/>
<polygon points="133,120 118,137 138,142" fill="#ffff00" stroke="black" stroke-width="1" data-i="3" data-j="3"/>
<path d="M133,120 118,137 138,142 Z" fill="#ffff00" stroke="black" stroke-width="1" data-i="3" data-j="3"/>
<polygon points="138,126 150,145 160,128" fill="#0000ff" stroke="black" stroke-width="1" data-i="3" data-j="3"/>
<path d="M138,126 150,145 160,128 Z" fill="#0000ff" stroke="black" stroke-width="1" data-i="3" data-j="3"/>
<polygon points="139,162 132,141 118,155" fill="#00ff00" stroke="black" stroke-width="1" data-i="3" data-j="3"/>
<path d="M139,162 132,141 118,155 Z" fill="#00ff00" stroke="black" stroke-width="1" data-i="3" data-j="3"/>
<polygon points="163,151 142,144 144,164" fill="#ff0000" stroke="black" stroke-width="1" data-i="3" data-j="3"/>
<path d="M163,151 142,144 144,164 Z" fill="#ff0000" stroke="black" stroke-width="1" data-i="3" data-j="3"/>
<polygon points="173,120 158,136 177,142" fill="#ff0000" stroke="black" stroke-width="1" data-i="3" data-j="4"/>
<path d="M173,120 158,136 177,142 Z" fill="#ff0000" stroke="black" stroke-width="1" data-i="3" data-j="4"/>
<polygon points="199,142 191,121 178,136" fill="#ff0000" stroke="black" stroke-width="1" data-i="3" data-j="4"/>
<path d="M199,142 191,121 178,136 Z" fill="#ff0000" stroke="black" stroke-width="1" data-i="3" data-j="4"/>
<polygon points="177,142 157,153 174,164" fill="#ff0000" stroke="black" stroke-width="1" data-i="3" data-j="4"/>
<path d="M177,142 157,153 174,164 Z" fill="#ff0000" stroke="black" stroke-width="1" data-i="3" data-j="4"/>
<polygon points="190,140 179,159 199,160" fill="#ff0000" stroke="black" stroke-width="1" data-i="3" data-j="4"/>
<path d="M190,140 179,159 199,160 Z" fill="#ff0000" stroke="black" stroke-width="1" data-i="3" data-j="4"/>
<polygon points="13,186 17,164 -1,169" fill="#ff0000" stroke="black" stroke-width="1" data-i="4" data-j="0"/>
<path d="M13,186 17,164 -1,169 Z" fill="#ff0000" stroke="black" stroke-width="1" data-i="4" data-j="0"/>
<polygon points="16,173 36,183 36,163" fill="#ff0000" stroke="black" stroke-width="1" data-i="4" data-j="0"/>
<path d="M16,173 36,183 36,163 Z" fill="#ff0000" stroke="black" stroke-width="1" data-i="4" data-j="0"/>
<polygon points="9,206 20,187 0,186" fill="#ff0000" stroke="black" stroke-width="1" data-i="4" data-j="0"/>
<path d="M9,206 20,187 0,186 Z" fill="#ff0000" stroke="black" stroke-width="1" data-i="4" data-j="0"/>
<polygon points="35,205 36,183 18,191" fill="#ff0000" stroke="black" stroke-width="1" data-i="4" data-j="0"/>
<path d="M35,205 36,183 18,191 Z" fill="#ff0000" stroke="black" stroke-width="1" data-i="4" data-j="0"/>
<polygon points="39,164 48,185 61,169" fill="#ff0000" stroke="black" stroke-width="1" data-i="4" data-j="1"/>
<path d="M39,164 48,185 61,169 Z" fill="#ff0000" stroke="black" stroke-width="1" data-i="4" data-j="1"/>
<polygon points="77,162 57,173 74,184" fill="#ff0000" stroke="black" stroke-width="1" data-i="4" data-j="1"/>
<path d="M77,162 57,173 74,184 Z" fill="#ff0000" stroke="black" stroke-width="1" data-i="4" data-j="1"/>
<polygon points="40,184 48,205 61,190" fill="#ff0000" stroke="black" stroke-width="1" data-i="4" data-j="1"/>
<path d="M40,184 48,205 61,190 Z" fill="#ff0000" stroke="black" stroke-width="1" data-i="4" data-j="1"/>
<polygon points="65,180 62,202 81,196" fill="#ff0000" stroke="black" stroke-width="1" data-i="4" data-j="1"/>
<path d="M65,180 62,202 81,196 Z" fill="#ff0000" stroke="black" stroke-width="1" data-i="4" data-j="1"/>
<polygon points="80,163 87,185 101,171" fill="#ff0000" stroke="black" stroke-width="1" data-i="4" data-j="2"/>
<path d="M80,163 87,185 101,171 Z" fill="#ff0000" stroke="black" stroke-width="1" data-i="4" data-j="2"/>
<polygon points="105,185 121,170 103,163" fill="#ff0000" stroke="black" stroke-width="1" data-i="4" data-j="2"/>
<path d="M105,185 121,170 103,163 Z" fill="#ff0000" stroke="black" stroke-width="1" data-i="4" data-j="2"/>
<polygon points="76,192 96,203 97,183" fill="#ff0000" stroke="black" stroke-width="1" data-i="4" data-j="2"/>
<path d="M76,192 96,203 97,183 Z" fill="#ff0000" stroke="black" stroke-width="1" data-i="4" data-j="2"/>
<polygon points="100,202 121,195 107,181" fill="#ff0000" stroke="black" stroke-width="1" data-i="4" data-j="2"/>
<path d="M100,202 121,195 107,181 Z" fill="#ff0000" stroke="black" stroke-width="1" data-i="4" data-j="2"/>
<polygon points="130,186 139,166 119,167" fill="#ff0000" stroke="black" stroke-width="1" data-i="4" data-j="3"/>
<path d="M130,186 139,166 119,167 Z" fill="#ff0000" stroke="black" stroke-width="1" data-i="4" data-j="3"/>
<polygon points="157,162 137,172 154,184" fill="#ff0000" stroke="black" stroke-width="1" data-i="4" data-j="3"/>
<path d="M157,162 137,172 154,184 Z" fill="#ff0000" stroke="black" stroke-width="1" data-i="4" data-j="3"/>
<polygon points="141,200 129,181 119,198" fill="#ff0000" stroke="black" stroke-width="1" data-i="4" data-j="3"/>
<path d="M141,200 129,181 119,198 Z" fill="#ff0000" stroke="black" stroke-width="1" data-i="4" data-j="3"/>
<polygon points="161,199 149,181 139,198" fill="#ff0000" stroke="black" stroke-width="1" data-i="4" data-j="3"/>
<path d="M161,199 149,181 139,198 Z" fill="#ff0000" stroke="black" stroke-width="1" data-i="4" data-j="3"/>
<polygon points="174,185 177,163 158,170" fill="#ffff00" stroke="black" stroke-width="1" data-i="4" data-j="4"/>
<path d="M174,185 177,163 158,170 Z" fill="#ffff00" stroke="black" stroke-width="1" data-i="4" data-j="4"/>
<polygon points="196,184 195,162 177,172" fill="#ffff00" stroke="black" stroke-width="1" data-i="4" data-j="4"/>
<path d="M196,184 195,162 177,172 Z" fill="#ffff00" stroke="black" stroke-width="1" data-i="4" data-j="4"/>
<polygon points="159,201 181,197 169,181" fill="#ffff00" stroke="black" stroke-width="1" data-i="4" data-j="4"/>
<path d="M159,201 181,197 169,181 Z" fill="#ffff00" stroke="black" stroke-width="1" data-i="4" data-j="4"/>
<polygon points="202,190 181,185 185,204" fill="#ffff00" stroke="black" stroke-width="1" data-i="4" data-j="4"/>
<path d="M202,190 181,185 185,204 Z" fill="#ffff00" stroke="black" stroke-width="1" data-i="4" data-j="4"/>
</svg>