<svg width="460" height="460" xmlns="http://www.w3.org/2000/svg">
<metadata>
	<dimension_matrice_cellule>11</dimension_matrice_cellule>
	<protocole>1</protocole>
</metadata>
<circle cx="10" cy="10" r="9" fill="#000000" stroke="black" stroke-width="1" data-i="0" data-j="0"/>
<circle cx="30" cy="10" r="9" fill="#000000" stroke="black" stroke-width="1" data-i="0" data-j="0"/>
<circle cx="10" cy="30" r="9" fill="#000000" stroke="black" stroke-width="1" data-i="0" data-j="0"/>
<circle cx="30" cy="30" r="9" fill="#000000" stroke="black" stroke-width="1" data-i="0" data-j="0"/>
<circle cx="50" cy="10" r="9" fill="#00ff00" stroke="black" stroke-width="1" data-i="0" data-j="1"/>
<circle cx="70" cy="10" r="9" fill="#0000ff" stroke="black" stroke-width="1" data-i="0" data-j="1"/>
<circle cx="50" cy="30" r="9" fill="#00ff00" stroke="black" stroke-width="1" data-i="0" data-j="1"/>
<circle cx="70" cy="30" r="9" fill="#00ff00" stroke="black" stroke-width="1" data-i="0" data-j="1"/>
<circle cx="90" cy="10" r="9" fill="#00ff00" stroke="black" stroke-width="1" data-i="0" data-j="2"/>
<circle cx="110" cy="10" r="9" fill="#0000ff" stroke="black" stroke-width="1" data-i="0" data-j="2"/>
<circle cx="90" cy="30" r="9" fill="#ffff00" stroke="black" stroke-width="1" data-i="0" data-j="2"/>
<circle cx="110" cy="30" r="9" fill="#ff0000" stroke="black" stroke-width="1" data-i="0" data-j="2"/>
<circle cx="130" cy="10" r="9" fill="#00ff00" stroke="black" stroke-width="1" data-i="0" data-j="3"/>
<circle cx="150" cy="10" r="9" fill="#0000ff" stroke="black" stroke-width="1" data-i="0" data-j="3"/>
<circle cx="130" cy="30" r="9" fill="#ffff00" stroke="black" stroke-width="1" data-i="0" data-j="3"/>
<circle cx="150" cy="30" r="9" fill="#0000ff" stroke="black" stroke-width="1" data-i="0" data-j="3"/>
<circle cx="170" cy="10" r="9" fill="#00ff00" stroke="black" stroke-width="1" data-i="0" data-j="4"/>
<circle cx="190" cy="10" r="9" fill="#0000ff" stroke="black" stroke-width="1" data-i="0" data-j="4"/>
<circle cx="170" cy="30" r="9" fill="#ffff00" stroke="black" stroke-width="1" data-i="0" data-j="4"/>
<circle cx="190" cy="30" r="9" fill="#00ff00" stroke="black" stroke-width="1" data-i="0" data-j="4"/>
<circle cx="210" cy="10" r="9" fill="#00ff00" stroke="black" stroke-width="1" data-i="0" data-j="5"/>
<circle cx="230" cy="10" r="9" fill="#ffff00" stroke="black" stroke-width="1" data-i="0" data-j="5"/>
<circle cx="210" cy="30" r="9" fill="#00ff00" stroke="black" stroke-width="1" data-i="0" data-j="5"/>
<circle cx="230" cy="30" r="9" fill="#ff0000" stroke="black" stroke-width="1" data-i="0" data-j="5"/>
<circle cx="250" cy="10" r="9" fill="#ff0000" stroke="black" stroke-width="1" data-i="0" data-j="6"/>
<circle cx="270" cy="10" r="9" fill="#0000ff" stroke="black" stroke-width="1" data-i="0" data-j="6"/>
<circle cx="250" cy="30" r="9" fill="#00ff00" stroke="black" stroke-width="1" data-i="0" data-j="6"/>
<circle cx="270" cy="30" r="9" fill="#ffff00" stroke="black" stroke-width="1" data-i="0" data-j="6"/>
<circle cx="290" cy="10" r="9" fill="#00ff00" stroke="black" stroke-width="1" data-i="0" data-j="7"/>
<circle cx="310" cy="10" r="9" fill="#ffff00" stroke="black" stroke-width="1" data-i="0" data-j="7"/>
<circle cx="290" cy="30" r="9" fill="#0000ff" stroke="black" stroke-width="1" data-i="0" data-j="7"/>
<circle cx="310" cy="30" r="9" fill="#00ff00" stroke="black" stroke-width="1" data-i="0" data-j="7"/>
<circle cx="330" cy="10" r="9" fill="#00ff00" stroke="black" stroke-width="1" data-i="0" data-j="8"/>
<circle cx="350" cy="10" r="9" fill="#0000ff" stroke="black" stroke-width="1" data-i="0" data-j="8"/>
<circle cx="330" cy="30" r="9" fill="#ffff00" stroke="black" stroke-width="1" data-i="0" data-j="8"/>
<circle cx="350" cy="30" r="9" fill="#ffff00" stroke="black" stroke-width="1" data-i="0" data-j="8"/>
<circle cx="370" cy="10" r="9" fill="#ff0000" stroke="black" stroke-width="1" data-i="0" data-j="9"/>
<circle cx="390" cy="10" r="9" fill="#ff0000" stroke="black" stroke-width="1" data-i="0" data-j="9"/>
<circle cx="370" cy="30" r="9" fill="#ff0000" stroke="black" stroke-width="1" data-i="0" data-j="9"/>
<circle cx="390" cy="30" r="9" fill="#ff0000" stroke="black" stroke-width="1" data-i="0" data-j="9"/>
<circle cx="410" cy="10" r="9" fill="#000000" stroke="black" stroke-width="1" data-i="0" data-j="10"/>
<circle cx="430" cy="10" r="9" fill="#000000" stroke="black" stroke-width="1" data-i="0" data-j="10"/>
<circle cx="410" cy="30" r="9" fill="#000000" stroke="black" stroke-width="1" data-i="0" data-j="10"/>
<circle cx="430" cy="30" r="9" fill="#000000" stroke="black" stroke-width="1" data-i="0" data-j="10"/>
<circle cx="10" cy="50" r="9" fill="#00ff00" stroke="black" stroke-width="1" data-i="1" data-j="0"/>
<circle cx="30" cy="50" r="9" fill="#0000ff" stroke="black" stroke-width="1" data-i="1" data-j="0"/>
<circle cx="10" cy="70" r="9" fill="#00ff00" stroke="black" stroke-width="1" data-i="1" data-j="0"/>
<circle cx="30" cy="70" r="9" fill="#ffff00" stroke="black" stroke-width="1" data-i="1" data-j="0"/>
<circle cx="50" cy="50" r="9" fill="#ff0000" stroke="black" stroke-width="1" data-i="1" data-j="1"/>
<circle cx="70" cy="50" r="9" fill="#0000ff" stroke="black" stroke-width="1" data-i="1" data-j="1"/>
<circle cx="50" cy="70" r="9" fill="#ff0000" stroke="black" stroke-width="1" data-i="1" data-j="1"/>
<circle cx="70" cy="70" r="9" fill="#ff0000" stroke="black" stroke-width="1" data-i="1" data-j="1"/>
<circle cx="90" cy="50" r="9" fill="#00ff00" stroke="black" stroke-width="1" data-i="1" data-j="2"/>
<circle cx="110" cy="50" r="9" fill="#0000ff" stroke="black" stroke-width="1" data-i="1" data-j="2"/>
<circle cx="90" cy="70" r="9" fill="#0000ff" stroke="black" stroke-width="1" data-i="1" data-j="2"/>
<circle cx="110" cy="70" r="9" fill="#00ff00" stroke="black" stroke-width="1" data-i="1" data-j="2"/>
<circle cx="130" cy="50" r="9" fill="#ff0000" stroke="black" stroke-width="1" data-i="1" data-j="3"/>
<circle cx="150" cy="50" r="9" fill="#0000ff" stroke="black" stroke-width="1" data-i="1" data-j="3"/>
<circle cx="130" cy="70" r="9" fill="#ff0000" stroke="black" stroke-width="1" data-i="1" data-j="3"/>
<circle cx="150" cy="70" r="9" fill="#ff0000" stroke="black" stroke-width="1" data-i="1" data-j="3"/>
<circle cx="170" cy="50" r="9" fill="#00ff00" stroke="black" stroke-width="1" data-i="1" data-j="4"/>
<circle cx="190" cy="50" r="9" fill="#0000ff" stroke="black" stroke-width="1" data-i="1" data-j="4"/>
<circle cx="170" cy="70" r="9" fill="#ffff00" stroke="black" stroke-width="1" data-i="1" data-j="4"/>
<circle cx="190" cy="70" r="9" fill="#0000ff" stroke="black" stroke-width="1" data-i="1" data-j="4"/>
<circle cx="210" cy="50" r="9" fill="#ff0000" stroke="black" stroke-width="1" data-i="1" data-j="5"/>
<circle cx="230" cy="50" r="9" fill="#0000ff" stroke="black" stroke-width="1" data-i="1" data-j="5"/>
<circle cx="210" cy="70" r="9" fill="#ff0000" stroke="black" stroke-width="1" data-i="1" data-j="5"/>
<circle cx="230" cy="70" r="9" fill="#ff0000" stroke="black" stroke-width="1" data-i="1" data-j="5"/>
<circle cx="250" cy="50" r="9" fill="#00ff00" stroke="black" stroke-width="1" data-i="1" data-j="6"/>
<circle cx="270" cy="50" r="9" fill="#0000ff" stroke="black" stroke-width="1" data-i="1" data-j="6"/>
<circle cx="250" cy="70" r="9" fill="#ffff00" stroke="black" stroke-width="1" data-i="1" data-j="6"/>
<circle cx="270" cy="70" r="9" fill="#ff0000" stroke="black" stroke-width="1" data-i="1" data-j="6"/>
<circle cx="290" cy="50" r="9" fill="#00ff00" stroke="black" stroke-width="1" data-i="1" data-j="7"/>
<circle cx="310" cy="50" r="9" fill="#ffff00" stroke="black" stroke-width="1" data-i="1" data-j="7"/>
<circle cx="290" cy="70" r="9" fill="#00ff00" stroke="black" stroke-width="1" data-i="1" data-j="7"/>
<circle cx="310" cy="70" r="9" fill="#0000ff" stroke="black" stroke-width="1" data-i="1" data-j="7"/>
<circle cx="330" cy="50" r="9" fill="#00ff00" stroke="black" stroke-width="1" data-i="1" data-j="8"/>
<circle cx="350" cy="50" r="9" fill="#00ff00" stroke="black" stroke-width="1" data-i="1" data-j="8"/>
<circle cx="330" cy="70" r="9" fill="#ff0000" stroke="black" stroke-width="1" data-i="1" data-j="8"/>
<circle cx="350" cy="70" r="9" fill="#0000ff" stroke="black" stroke-width="1" data-i="1" data-j="8"/>
<circle cx="370" cy="50" r="9" fill="#ff0000" stroke="black" stroke-width="1" data-i="1" data-j="9"/>
<circle cx="390" cy="50" r="9" fill="#ff0000" stroke="black" stroke-width="1" data-i="1" data-j="9"/>
<circle cx="370" cy="70" r="9" fill="#ff0000" stroke="black" stroke-width="1" data-i="1" data-j="9"/>
<circle cx="390" cy="70" r="9" fill="#ff0000" stroke="black" stroke-width="1" data-i="1" data-j="9"/>
<circle cx="410" cy="50" r="9" fill="#ff0000" stroke="black" stroke-width="1" data-i="1" data-j="10"/>
<circle cx="430" cy="50" r="9" fill="#ff0000" stroke="black" stroke-width="1" data-i="1" data-j="10"/>
<circle cx="410" cy="70" r="9" fill="#ff0000" stroke="black" stroke-width="1" data-i="1" data-j="10"/>
<circle cx="430" cy="70" r="9" fill="#ff0000" stroke="black" stroke-width="1" data-i="1" data-j="10"/>
<circle cx="10" cy="90" r="9" fill="#00ff00" stroke="black" stroke-width="1" data-i="2" data-j="0"/>
<circle cx="30" cy="90" r="9" fill="#ffff00" stroke="black" stroke-width="1" data-i="2" data-j="0"/>
<circle cx="10" cy="110" r="9" fill="#ff0000" stroke="black" stroke-width="1" data-i="2" data-j="0"/>
<circle cx="30" cy="110" r="9" fill="#ffff00" stroke="black" stroke-width="1" data-i="2" data-j="0"/>
<circle cx="50" cy="90" r="9" fill="#00ff00" stroke="black" stroke-width="1" data-i="2" data-j="1"/>
<circle cx="70" cy="90" r="9" fill="#ffff00" stroke="black" stroke-width="1" data-i="2" data-j="1"/>
<circle cx="50" cy="110" r="9" fill="#ff0000" stroke="black" stroke-width="1" data-i="2" data-j="1"/>
<circle cx="70" cy="110" r="9" fill="#0000ff" stroke="black" stroke-width="1" data-i="2" data-j="1"/>
<circle cx="90" cy="90" r="9" fill="#ff0000" stroke="black" stroke-width="1" data-i="2" data-j="2"/>
<circle cx="110" cy="90" r="9" fill="#0000ff" stroke="black" stroke-width="1" data-i="2" data-j="2"/>
<circle cx="90" cy="110" r="9" fill="#ff0000" stroke="black" stroke-width="1" data-i="2" data-j="2"/>
<circle cx="110" cy="110" r="9" fill="#ff0000" stroke="black" stroke-width="1" data-i="2" data-j="2"/>
<circle cx="130" cy="90" r="9" fill="#00ff00" stroke="black" stroke-width="1" data-i="2" data-j="3"/>
<circle cx="150" cy="90" r="9" fill="#0000ff" stroke="black" stroke-width="1" data-i="2" data-j="3"/>
<circle cx="130" cy="110" r="9" fill="#00ff00" stroke="black" stroke-width="1" data-i="2" data-j="3"/>
<circle cx="150" cy="110" r="9" fill="#00ff00" stroke="black" stroke-width="1" data-i="2" data-j="3"/>
<circle cx="170" cy="90" r="9" fill="#00ff00" stroke="black" stroke-width="1" data-i="2" data-j="4"/>
<circle cx="190" cy="90" r="9" fill="#0000ff" stroke="black" stroke-width="1" data-i="2" data-j="4"/>
<circle cx="170" cy="110" r="9" fill="#00ff00" stroke="black" stroke-width="1" data-i="2" data-j="4"/>
<circle cx="190" cy="110" r="9" fill="#ff0000" stroke="black" stroke-width="1" data-i="2" data-j="4"/>
<circle cx="210" cy="90" r="9" fill="#00ff00" stroke="black" stroke-width="1" data-i="2" data-j="5"/>
<circle cx="230" cy="90" r="9" fill="#0000ff" stroke="black" stroke-width="1" data-i="2" data-j="5"/>
<circle cx="210" cy="110" r="9" fill="#0000ff" stroke="black" stroke-width="1" data-i="2" data-j="5"/>
<circle cx="230" cy="110" r="9" fill="#00ff00" stroke="black" stroke-width="1" data-i="2" data-j="5"/>
<circle cx="250" cy="90" r="9" fill="#00ff00" stroke="black" stroke-width="1" data-i="2" data-j="6"/>
<circle cx="270" cy="90" r="9" fill="#0000ff" stroke="black" stroke-width="1" data-i="2" data-j="6"/>
<circle cx="250" cy="110" r="9" fill="#ffff00" stroke="black" stroke-width="1" data-i="2" data-j="6"/>
<circle cx="270" cy="110" r="9" fill="#00ff00" stroke="black" stroke-width="1" data-i="2" data-j="6"/>
<circle cx="290" cy="90" r="9" fill="#00ff00" stroke="black" stroke-width="1" data-i="2" data-j="7"/>
<circle cx="310" cy="90" r="9" fill="#0000ff" stroke="black" stroke-width="1" data-i="2" data-j="7"/>
<circle cx="290" cy="110" r="9" fill="#00ff00" stroke="black" stroke-width="1" data-i="2" data-j="7"/>
<circle cx="310" cy="110" r="9" fill="#00ff00" stroke="black" stroke-width="1" data-i="2" data-j="7"/>
<circle cx="330" cy="90" r="9" fill="#ff0000" stroke="black" stroke-width="1" data-i="2" data-j="8"/>
<circle cx="350" cy="90" r="9" fill="#0000ff" stroke="black" stroke-width="1" data-i="2" data-j="8"/>
<circle cx="330" cy="110" r="9" fill="#ff0000" stroke="black" stroke-width="1" data-i="2" data-j="8"/>
<circle cx="350" cy="110" r="9" fill="#ff0000" stroke="black" stroke-width="1" data-i="2" data-j="8"/>
<circle cx="370" cy="90" r="9" fill="#ff0000" stroke="black" stroke-width="1" data-i="2" data-j="9"/>
<circle cx="390" cy="90" r="9" fill="#ff0000" stroke="black" stroke-width="1" data-i="2" data-j="9"/>
<circle cx="370" cy="110" r="9" fill="#ff0000" stroke="black" stroke-width="1" data-i="2" data-j="9"/>
<circle cx="390" cy="110" r="9" fill="#ff0000" stroke="black" stroke-width="1" data-i="2" data-j="9"/>
<circle cx="410" cy="90" r="9" fill="#ff0000" stroke="black" stroke-width="1" data-i="2" data-j="10"/>
<circle cx="430" cy="90" r="9" fill="#ff0000" stroke="black" stroke-width="1" data-i="2" data-j="10"/>
<circle cx="410" cy="110" r="9" fill="#ff0000" stroke="black" stroke-width="1" data-i="2" data-j="10"/>
<circle cx="430" cy="110" r="9" fill="#ff0000" stroke="black" stroke-width="1" data-i="2" data-j="10"/>
<circle cx="10" cy="130" r="9" fill="#00ff00" stroke="black" stroke-width="1" data-i="3" data-j="0"/>
<circle cx="30" cy="130" r="9" fill="#0000ff" stroke="black" stroke-width="1" data-i="3" data-j="0"/>
<circle cx="10" cy="150" r="9" fill="#00ff00" stroke="black" stroke-width="1" data-i="3" data-j="0"/>
<circle cx="30" cy="150" r="9" fill="#00ff00" stroke="black" stroke-width="1" data-i="3" data-j="0"/>
<circle cx="50" cy="130" r="9" fill="#00ff00" stroke="black" stroke-width="1" data-i="3" data-j="1"/>
<circle cx="70" cy="130" r="9" fill="#0000ff" stroke="black" stroke-width="1" data-i="3" data-j="1"/>
<circle cx="50" cy="150" r="9" fill="#00ff00" stroke="black" stroke-width="1" data-i="3" data-j="1"/>
<circle cx="70" cy="150" r="9" fill="#00ff00" stroke="black" stroke-width="1" data-i="3" data-j="1"/>
<circle cx="90" cy="130" r="9" fill="#00ff00" stroke="black" stroke-width="1" data-i="3" data-j="2"/>
<circle cx="110" cy="130" r="9" fill="#0000ff" stroke="black" stroke-width="1" data-i="3" data-j="2"/>
<circle cx="90" cy="150" r="9" fill="#00ff00" stroke="black" stroke-width="1" data-i="3" data-j="2"/>
<circle cx="110" cy="150" r="9" fill="#00ff00" stroke="black" stroke-width="1" data-i="3" data-j="2"/>
<circle cx="130" cy="130" r="9" fill="#00ff00" stroke="black" stroke-width="1" data-i="3" data-j="3"/>
<circle cx="150" cy="130" r="9" fill="#0000ff" stroke="black" stroke-width="1" data-i="3" data-j="3"/>
<circle cx="130" cy="150" r="9" fill="#ffff00" stroke="black" stroke-width="1" data-i="3" data-j="3"/>
<circle cx="150" cy="150" r="9" fill="#ffff00" stroke="black" stroke-width="1" data-i="3" data-j="3"/>
<circle cx="170" cy="130" r="9" fill="#00ff00" stroke="black" stroke-width="1" data-i="3" data-j="4"/>
<circle cx="190" cy="130" r="9" fill="#0000ff" stroke="black" stroke-width="1" data-i="3" data-j="4"/>
<circle cx="170" cy="150" r="9" fill="#ff0000" stroke="black" stroke-width="1" data-i="3" data-j="4"/>
<circle cx="190" cy="150" r="9" fill="#ffff00" stroke="black" stroke-width="1" data-i="3" data-j="4"/>
<circle cx="210" cy="130" r="9" fill="#00ff00" stroke="black" stroke-width="1" data-i="3" data-j="5"/>
<circle cx="230" cy="130" r="9" fill="#ffff00" stroke="black" stroke-width="1" data-i="3" data-j="5"/>
<circle cx="210" cy="150" r="9" fill="#ff0000" stroke="black" stroke-width="1" data-i="3" data-j="5"/>
<circle cx="230" cy="150" r="9" fill="#0000ff" stroke="black" stroke-width="1" data-i="3" data-j="5"/>
<circle cx="250" cy="130" r="9" fill="#00ff00" stroke="black" stroke-width="1" data-i="3" data-j="6"/>
<circle cx="270" cy="130" r="9" fill="#0000ff" stroke="black" stroke-width="1" data-i="3" data-j="6"/>
<circle cx="250" cy="150" r="9" fill="#ffff00" stroke="black" stroke-width="1" data-i="3" data-j="6"/>
<circle cx="270" cy="150" r="9" fill="#ffff00" stroke="black" stroke-width="1" data-i="3" data-j="6"/>
<circle cx="290" cy="130" r="9" fill="#00ff00" stroke="black" stroke-width="1" data-i="3" data-j="7"/>
<circle cx="310" cy="130" r="9" fill="#ffff00" stroke="black" stroke-width="1" data-i="3" data-j="7"/>
<circle cx="290" cy="150" r="9" fill="#00ff00" stroke="black" stroke-width="1" data-i="3" data-j="7"/>
<circle cx="310" cy="150" r="9" fill="#ff0000" stroke="black" stroke-width="1" data-i="3" data-j="7"/>
<circle cx="330" cy="130" r="9" fill="#00ff00" stroke="black" stroke-width="1" data-i="3" data-j="8"/>
<circle cx="350" cy="130" r="9" fill="#0000ff" stroke="black" stroke-width="1" data-i="3" data-j="8"/>
<circle cx="330" cy="150" r="9" fill="#ff0000" stroke="black" stroke-width="1" data-i="3" data-j="8"/>
<circle cx="350" cy="150" r="9" fill="#00ff00" stroke="black" stroke-width="1" data-i="3" data-j="8"/>
<circle cx="370" cy="130" r="9" fill="#ff0000" stroke="black" stroke-width="1" data-i="3" data-j="9"/>
<circle cx="390" cy="130" r="9" fill="#ff0000" stroke="black" stroke-width="1" data-i="3" data-j="9"/>
<circle cx="370" cy="150" r="9" fill="#ff0000" stroke="black" stroke-width="1" data-i="3" data-j="9"/>
<circle cx="390" cy="150" r="9" fill="#ff0000" stroke="black" stroke-width="1" data-i="3" data-j="9"/>
<circle cx="410" cy="130" r="9" fill="#ff0000" stroke="black" stroke-width="1" data-i="3" data-j="10"/>
<circle cx="430" cy="130" r="9" fill="#ff0000" stroke="black" stroke-width="1" data-i="3" data-j="10"/>
<circle cx="410" cy="150" r="9" fill="#ff0000" stroke="black" stroke-width="1" data-i="3" data-j="10"/>
<circle cx="430" cy="150" r="9" fill="#ff0000" stroke="black" stroke-width="1" data-i="3" data-j="10"/>
<circle cx="10" cy="170" r="9" fill="#ff0000" stroke="black" stroke-width="1" data-i="4" data-j="0"/>
<circle cx="30" cy="170" r="9" fill="#0000ff" stroke="black" stroke-width="1" data-i="4" data-j="0"/>
<circle cx="10" cy="190" r="9" fill="#ff0000" stroke="black" stroke-width="1" data-i="4" data-j="0"/>
<circle cx="30" cy="190" r="9" fill="#ff0000" stroke="black" stroke-width="1" data-i="4" data-j="0"/>
<circle cx="50" cy="170" r="9" fill="#00ff00" stroke="black" stroke-width="1" data-i="4" data-j="1"/>
<circle cx="70" cy="170" r="9" fill="#ffff00" stroke="black" stroke-width="1" data-i="4" data-j="1"/>
<circle cx="50" cy="190" r="9" fill="#00ff00" stroke="black" stroke-width="1" data-i="4" data-j="1"/>
<circle cx="70" cy="190" r="9" fill="#ff0000" stroke="black" stroke-width="1" data-i="4" data-j="1"/>
<circle cx="90" cy="170" r="9" fill="#00ff00" stroke="black" stroke-width="1" data-i="4" data-j="2"/>
<circle cx="110" cy="170" r="9" fill="#0000ff" stroke="black" stroke-width="1" data-i="4" data-j="2"/>
<circle cx="90" cy="190" r="9" fill="#ff0000" stroke="black" stroke-width="1" data-i="4" data-j="2"/>
<circle cx="110" cy="190" r="9" fill="#00ff00" stroke="black" stroke-width="1" data-i="4" data-j="2"/>
<circle cx="130" cy="170" r="9" fill="#00ff00" stroke="black" stroke-width="1" data-i="4" data-j="3"/>
<circle cx="150" cy="170" r="9" fill="#0000ff" stroke="black" stroke-width="1" data-i="4" data-j="3"/>
<circle cx="130" cy="190" r="9" fill="#ffff00" stroke="black" stroke-width="1" data-i="4" data-j="3"/>
<circle cx="150" cy="190" r="9" fill="#0000ff" stroke="black" stroke-width="1" data-i="4" data-j="3"/>
<circle cx="170" cy="170" r="9" fill="#00ff00" stroke="black" stroke-width="1" data-i="4" data-j="4"/>
<circle cx="190" cy="170" r="9" fill="#00ff00" stroke="black" stroke-width="1" data-i="4" data-j="4"/>
<circle cx="170" cy="190" r="9" fill="#ff0000" stroke="black" stroke-width="1" data-i="4" data-j="4"/>
<circle cx="190" cy="190" r="9" fill="#00ff00" stroke="black" stroke-width="1" data-i="4" data-j="4"/>
<circle cx="210" cy="170" r="9" fill="#00ff00" stroke="black" stroke-width="1" data-i="4" data-j="5"/>
<circle cx="230" cy="170" r="9" fill="#ffff00" stroke="black" stroke-width="1" data-i="4" data-j="5"/>
<circle cx="210" cy="190" r="9" fill="#00ff00" stroke="black" stroke-width="1" data-i="4" data-j="5"/>
<circle cx="230" cy="190" r="9" fill="#00ff00" stroke="black" stroke-width="1" data-i="4" data-j="5"/>
<circle cx="250" cy="170" r="9" fill="#ff0000" stroke="black" stroke-width="1" data-i="4" data-j="6"/>
<circle cx="270" cy="170" r="9" fill="#0000ff" stroke="black" stroke-width="1" data-i="4" data-j="6"/>
<circle cx="250" cy="190" r="9" fill="#00ff00" stroke="black" stroke-width="1" data-i="4" data-j="6"/>
<circle cx="270" cy="190" r="9" fill="#ffff00" stroke="black" stroke-width="1" data-i="4" data-j="6"/>
<circle cx="290" cy="170" r="9" fill="#00ff00" stroke="black" stroke-width="1" data-i="4" data-j="7"/>
<circle cx="310" cy="170" r="9" fill="#0000ff" stroke="black" stroke-width="1" data-i="4" data-j="7"/>
<circle cx="290" cy="190" r="9" fill="#ff0000" stroke="black" stroke-width="1" data-i="4" data-j="7"/>
<circle cx="310" cy="190" r="9" fill="#00ff00" stroke="black" stroke-width="1" data-i="4" data-j="7"/>
<circle cx="330" cy="170" r="9" fill="#ff0000" stroke="black" stroke-width="1" data-i="4" data-j="8"/>
<circle cx="350" cy="170" r="9" fill="#0000ff" stroke="black" stroke-width="1" data-i="4" data-j="8"/>
<circle cx="330" cy="190" r="9" fill="#ff0000" stroke="black" stroke-width="1" data-i="4" data-j="8"/>
<circle cx="350" cy="190" r="9" fill="#ff0000" stroke="black" stroke-width="1" data-i="4" data-j="8"/>
<circle cx="370" cy="170" r="9" fill="#ff0000" stroke="black" stroke-width="1" data-i="4" data-j="9"/>
<circle cx="390" cy="170" r="9" fill="#ff0000" stroke="black" stroke-width="1" data-i="4" data-j="9"/>
<circle cx="370" cy="190" r="9" fill="#ff0000" stroke="black" stroke-width="1" data-i="4" data-j="9"/>
<circle cx="390" cy="190" r="9" fill="#ff0000" stroke="black" stroke-width="1" data-i="4" data-j="9"/>
<circle cx="410" cy="170" r="9" fill="#ff0000" stroke="black" stroke-width="1" data-i="4" data-j="10"/>
<circle cx="430" cy="170" r="9" fill="#ff0000" stroke="black" stroke-width="1" data-i="4" data-j="10"/>
<circle cx="410" cy="190" r="9" fill="#ff0000" stroke="black" stroke-width="1" data-i="4" data-j="10"/>
<circle cx="430" cy="190" r="9" fill="#ff0000" stroke="black" stroke-width="1" data-i="4" data-j="10"/>
<circle cx="10" cy="210" r="9" fill="#00ff00" stroke="black" stroke-width="1" data-i="5" data-j="0"/>
<circle cx="30" cy="210" r="9" fill="#ffff00" stroke="black" stroke-width="1" data-i="5" data-j="0"/>
<circle cx="10" cy="230" r="9" fill="#00ff00" stroke="black" stroke-width="1" data-i="5" data-j="0"/>
<circle cx="30" cy="230" r="9" fill="#00ff00" stroke="black" stroke-width="1" data-i="5" data-j="0"/>
<circle cx="50" cy="210" r="9" fill="#00ff00" stroke="black" stroke-width="1" data-i="5" data-j="1"/>
<circle cx="70" cy="210" r="9" fill="#0000ff" stroke="black" stroke-width="1" data-i="5" data-j="1"/>
<circle cx="50" cy="230" r="9" fill="#ff0000" stroke="black" stroke-width="1" data-i="5" data-j="1"/>
<circle cx="70" cy="230" r="9" fill="#00ff00" stroke="black" stroke-width="1" data-i="5" data-j="1"/>
<circle cx="90" cy="210" r="9" fill="#00ff00" stroke="black" stroke-width="1" data-i="5" data-j="2"/>
<circle cx="110" cy="210" r="9" fill="#ffff00" stroke="black" stroke-width="1" data-i="5" data-j="2"/>
<circle cx="90" cy="230" r="9" fill="#ff0000" stroke="black" stroke-width="1" data-i="5" data-j="2"/>
<circle cx="110" cy="230" r="9" fill="#0000ff" stroke="black" stroke-width="1" data-i="5" data-j="2"/>
<circle cx="130" cy="210" r="9" fill="#ff0000" stroke="black" stroke-width="1" data-i="5" data-j="3"/>
<circle cx="150" cy="210" r="9" fill="#0000ff" stroke="black" stroke-width="1" data-i="5" data-j="3"/>
<circle cx="130" cy="230" r="9" fill="#ff0000" stroke="black" stroke-width="1" data-i="5" data-j="3"/>
<circle cx="150" cy="230" r="9" fill="#ff0000" stroke="black" stroke-width="1" data-i="5" data-j="3"/>
<circle cx="170" cy="210" r="9" fill="#00ff00" stroke="black" stroke-width="1" data-i="5" data-j="4"/>
<circle cx="190" cy="210" r="9" fill="#ffff00" stroke="black" stroke-width="1" data-i="5" data-j="4"/>
<circle cx="170" cy="230" r="9" fill="#ff0000" stroke="black" stroke-width="1" data-i="5" data-j="4"/>
<circle cx="190" cy="230" r="9" fill="#0000ff" stroke="black" stroke-width="1" data-i="5" data-j="4"/>
<circle cx="210" cy="210" r="9" fill="#00ff00" stroke="black" stroke-width="1" data-i="5" data-j="5"/>
<circle cx="230" cy="210" r="9" fill="#ffff00" stroke="black" stroke-width="1" data-i="5" data-j="5"/>
<circle cx="210" cy="230" r="9" fill="#ff0000" stroke="black" stroke-width="1" data-i="5" data-j="5"/>
<circle cx="230" cy="230" r="9" fill="#ff0000" stroke="black" stroke-width="1" data-i="5" data-j="5"/>
<circle cx="250" cy="210" r="9" fill="#00ff00" stroke="black" stroke-width="1" data-i="5" data-j="6"/>
<circle cx="270" cy="210" r="9" fill="#0000ff" stroke="black" stroke-width="1" data-i="5" data-j="6"/>
<circle cx="250" cy="230" r="9" fill="#00ff00" stroke="black" stroke-width="1" data-i="5" data-j="6"/>
<circle cx="270" cy="230" r="9" fill="#00ff00" stroke="black" stroke-width="1" data-i="5" data-j="6"/>
<circle cx="290" cy="210" r="9" fill="#00ff00" stroke="black" stroke-width="1" data-i="5" data-j="7"/>
<circle cx="310" cy="210" r="9" fill="#ffff00" stroke="black" stroke-width="1" data-i="5" data-j="7"/>
<circle cx="290" cy="230" r="9" fill="#00ff00" stroke="black" stroke-width="1" data-i="5" data-j="7"/>
<circle cx="310" cy="230" r="9" fill="#00ff00" stroke="black" stroke-width="1" data-i="5" data-j="7"/>
<circle cx="330" cy="210" r="9" fill="#00ff00" stroke="black" stroke-width="1" data-i="5" data-j="8"/>
<circle cx="350" cy="210" r="9" fill="#0000ff" stroke="black" stroke-width="1" data-i="5" data-j="8"/>
<circle cx="330" cy="230" r="9" fill="#00ff00" stroke="black" stroke-width="1" data-i="5" data-j="8"/>
<circle cx="350" cy="230" r="9" fill="#ffff00" stroke="black" stroke-width="1" data-i="5" data-j="8"/>
<circle cx="370" cy="210" r="9" fill="#ff0000" stroke="black" stroke-width="1" data-i="5" data-j="9"/>
<circle cx="390" cy="210" r="9" fill="#ff0000" stroke="black" stroke-width="1" data-i="5" data-j="9"/>
<circle cx="370" cy="230" r="9" fill="#ff0000" stroke="black" stroke-width="1" data-i="5" data-j="9"/>
<circle cx="390" cy="230" r="9" fill="#ff0000" stroke="black" stroke-width="1" data-i="5" data-j="9"/>
<circle cx="410" cy="210" r="9" fill="#ff0000" stroke="black" stroke-width="1" data-i="5" data-j="10"/>
<circle cx="430" cy="210" r="9" fill="#ff0000" stroke="black" stroke-width="1" data-i="5" data-j="10"/>
<circle cx="410" cy="230" r="9" fill="#ff0000" stroke="black" stroke-width="1" data-i="5" data-j="10"/>
<circle cx="430" cy="230" r="9" fill="#ff0000" stroke="black" stroke-width="1" data-i="5" data-j="10"/>
<circle cx="10" cy="250" r="9" fill="#ffff00" stroke="black" stroke-width="1" data-i="6" data-j="0"/>
<circle cx="30" cy="250" r="9" fill="#ffff00" stroke="black" stroke-width="1" data-i="6" data-j="0"/>
<circle cx="10" cy="270" r="9" fill="#ff0000" stroke="black" stroke-width="1" data-i="6" data-j="0"/>
<circle cx="30" cy="270" r="9" fill="#ff0000" stroke="black" stroke-width="1" data-i="6" data-j="0"/>
<circle cx="50" cy="250" r="9" fill="#00ff00" stroke="black" stroke-width="1" data-i="6" data-j="1"/>
<circle cx="70" cy="250" r="9" fill="#ffff00" stroke="black" stroke-width="1" data-i="6" data-j="1"/>
<circle cx="50" cy="270" r="9" fill="#ff0000" stroke="black" stroke-width="1" data-i="6" data-j="1"/>
<circle cx="70" cy="270" r="9" fill="#0000ff" stroke="black" stroke-width="1" data-i="6" data-j="1"/>
<circle cx="90" cy="250" r="9" fill="#00ff00" stroke="black" stroke-width="1" data-i="6" data-j="2"/>
<circle cx="110" cy="250" r="9" fill="#0000ff" stroke="black" stroke-width="1" data-i="6" data-j="2"/>
<circle cx="90" cy="270" r="9" fill="#ffff00" stroke="black" stroke-width="1" data-i="6" data-j="2"/>
<circle cx="110" cy="270" r="9" fill="#0000ff" stroke="black" stroke-width="1" data-i="6" data-j="2"/>
<circle cx="130" cy="250" r="9" fill="#00ff00" stroke="black" stroke-width="1" data-i="6" data-j="3"/>
<circle cx="150" cy="250" r="9" fill="#0000ff" stroke="black" stroke-width="1" data-i="6" data-j="3"/>
<circle cx="130" cy="270" r="9" fill="#0000ff" stroke="black" stroke-width="1" data-i="6" data-j="3"/>
<circle cx="150" cy="270" r="9" fill="#00ff00" stroke="black" stroke-width="1" data-i="6" data-j="3"/>
<circle cx="170" cy="250" r="9" fill="#00ff00" stroke="black" stroke-width="1" data-i="6" data-j="4"/>
<circle cx="190" cy="250" r="9" fill="#ffff00" stroke="black" stroke-width="1" data-i="6" data-j="4"/>
<circle cx="170" cy="270" r="9" fill="#ff0000" stroke="black" stroke-width="1" data-i="6" data-j="4"/>
<circle cx="190" cy="270" r="9" fill="#ff0000" stroke="black" stroke-width="1" data-i="6" data-j="4"/>
<circle cx="210" cy="250" r="9" fill="#00ff00" stroke="black" stroke-width="1" data-i="6" data-j="5"/>
<circle cx="230" cy="250" r="9" fill="#0000ff" stroke="black" stroke-width="1" data-i="6" data-j="5"/>
<circle cx="210" cy="270" r="9" fill="#0000ff" stroke="black" stroke-width="1" data-i="6" data-j="5"/>
<circle cx="230" cy="270" r="9" fill="#00ff00" stroke="black" stroke-width="1" data-i="6" data-j="5"/>
<circle cx="250" cy="250" r="9" fill="#00ff00" stroke="black" stroke-width="1" data-i="6" data-j="6"/>
<circle cx="270" cy="250" r="9" fill="#0000ff" stroke="black" stroke-width="1" data-i="6" data-j="6"/>
<circle cx="250" cy="270" r="9" fill="#ffff00" stroke="black" stroke-width="1" data-i="6" data-j="6"/>
<circle cx="270" cy="270" r="9" fill="#ff0000" stroke="black" stroke-width="1" data-i="6" data-j="6"/>
<circle cx="290" cy="250" r="9" fill="#00ff00" stroke="black" stroke-width="1" data-i="6" data-j="7"/>
<circle cx="310" cy="250" r="9" fill="#ffff00" stroke="black" stroke-width="1" data-i="6" data-j="7"/>
<circle cx="290" cy="270" r="9" fill="#00ff00" stroke="black" stroke-width="1" data-i="6" data-j="7"/>
<circle cx="310" cy="270" r="9" fill="#0000ff" stroke="black" stroke-width="1" data-i="6" data-j="7"/>
<circle cx="330" cy="250" r="9" fill="#00ff00" stroke="black" stroke-width="1" data-i="6" data-j="8"/>
<circle cx="350" cy="250" r="9" fill="#ffff00" stroke="black" stroke-width="1" data-i="6" data-j="8"/>
<circle cx="330" cy="270" r="9" fill="#ff0000" stroke="black" stroke-width="1" data-i="6" data-j="8"/>
<circle cx="350" cy="270" r="9" fill="#ffff00" stroke="black" stroke-width="1" data-i="6" data-j="8"/>
<circle cx="370" cy="250" r="9" fill="#ff0000" stroke="black" stroke-width="1" data-i="6" data-j="9"/>
<circle cx="390" cy="250" r="9" fill="#ff0000" stroke="black" stroke-width="1" data-i="6" data-j="9"/>
<circle cx="370" cy="270" r="9" fill="#ff0000" stroke="black" stroke-width="1" data-i="6" data-j="9"/>
<circle cx="390" cy="270" r="9" fill="#ff0000" stroke="black" stroke-width="1" data-i="6" data-j="9"/>
<circle cx="410" cy="250" r="9" fill="#ff0000" stroke="black" stroke-width="1" data-i="6" data-j="10"/>
<circle cx="430" cy="250" r="9" fill="#ff0000" stroke="black" stroke-width="1" data-i="6" data-j="10"/>
<circle cx="410" cy="270" r="9" fill="#ff0000" stroke="black" stroke-width="1" data-i="6" data-j="10"/>
<circle cx="430" cy="270" r="9" fill="#ff0000" stroke="black" stroke-width="1" data-i="6" data-j="10"/>
<circle cx="10" cy="290" r="9" fill="#ff0000" stroke="black" stroke-width="1" data-i="7" data-j="0"/>
<circle cx="30" cy="290" r="9" fill="#ff0000" stroke="black" stroke-width="1" data-i="7" data-j="0"/>
<circle cx="10" cy="310" r="9" fill="#ff0000" stroke="black" stroke-width="1" data-i="7" data-j="0"/>
<circle cx="30" cy="310" r="9" fill="#0000ff" stroke="black" stroke-width="1" data-i="7" data-j="0"/>
<circle cx="50" cy="290" r="9" fill="#00ff00" stroke="black" stroke-width="1" data-i="7" data-j="1"/>
<circle cx="70" cy="290" r="9" fill="#0000ff" stroke="black" stroke-width="1" data-i="7" data-j="1"/>
<circle cx="50" cy="310" r="9" fill="#ffff00" stroke="black" stroke-width="1" data-i="7" data-j="1"/>
<circle cx="70" cy="310" r="9" fill="#ffff00" stroke="black" stroke-width="1" data-i="7" data-j="1"/>
<circle cx="90" cy="290" r="9" fill="#ff0000" stroke="black" stroke-width="1" data-i="7" data-j="2"/>
<circle cx="110" cy="290" r="9" fill="#0000ff" stroke="black" stroke-width="1" data-i="7" data-j="2"/>
<circle cx="90" cy="310" r="9" fill="#ff0000" stroke="black" stroke-width="1" data-i="7" data-j="2"/>
<circle cx="110" cy="310" r="9" fill="#ff0000" stroke="black" stroke-width="1" data-i="7" data-j="2"/>
<circle cx="130" cy="290" r="9" fill="#00ff00" stroke="black" stroke-width="1" data-i="7" data-j="3"/>
<circle cx="150" cy="290" r="9" fill="#0000ff" stroke="black" stroke-width="1" data-i="7" data-j="3"/>
<circle cx="130" cy="310" r="9" fill="#ffff00" stroke="black" stroke-width="1" data-i="7" data-j="3"/>
<circle cx="150" cy="310" r="9" fill="#ff0000" stroke="black" stroke-width="1" data-i="7" data-j="3"/>
<circle cx="170" cy="290" r="9" fill="#00ff00" stroke="black" stroke-width="1" data-i="7" data-j="4"/>
<circle cx="190" cy="290" r="9" fill="#0000ff" stroke="black" stroke-width="1" data-i="7" data-j="4"/>
<circle cx="170" cy="310" r="9" fill="#00ff00" stroke="black" stroke-width="1" data-i="7" data-j="4"/>
<circle cx="190" cy="310" r="9" fill="#00ff00" stroke="black" stroke-width="1" data-i="7" data-j="4"/>
<circle cx="210" cy="290" r="9" fill="#00ff00" stroke="black" stroke-width="1" data-i="7" data-j="5"/>
<circle cx="230" cy="290" r="9" fill="#ffff00" stroke="black" stroke-width="1" data-i="7" data-j="5"/>
<circle cx="210" cy="310" r="9" fill="#ff0000" stroke="black" stroke-width="1" data-i="7" data-j="5"/>
<circle cx="230" cy="310" r="9" fill="#00ff00" stroke="black" stroke-width="1" data-i="7" data-j="5"/>
<circle cx="250" cy="290" r="9" fill="#00ff00" stroke="black" stroke-width="1" data-i="7" data-j="6"/>
<circle cx="270" cy="290" r="9" fill="#0000ff" stroke="black" stroke-width="1" data-i="7" data-j="6"/>
<circle cx="250" cy="310" r="9" fill="#ff0000" stroke="black" stroke-width="1" data-i="7" data-j="6"/>
<circle cx="270" cy="310" r="9" fill="#00ff00" stroke="black" stroke-width="1" data-i="7" data-j="6"/>
<circle cx="290" cy="290" r="9" fill="#00ff00" stroke="black" stroke-width="1" data-i="7" data-j="7"/>
<circle cx="310" cy="290" r="9" fill="#0000ff" stroke="black" stroke-width="1" data-i="7" data-j="7"/>
<circle cx="290" cy="310" r="9" fill="#ffff00" stroke="black" stroke-width="1" data-i="7" data-j="7"/>
<circle cx="310" cy="310" r="9" fill="#0000ff" stroke="black" stroke-width="1" data-i="7" data-j="7"/>
<circle cx="330" cy="290" r="9" fill="#00ff00" stroke="black" stroke-width="1" data-i="7" data-j="8"/>
<circle cx="350" cy="290" r="9" fill="#0000ff" stroke="black" stroke-width="1" data-i="7" data-j="8"/>
<circle cx="330" cy="310" r="9" fill="#00ff00" stroke="black" stroke-width="1" data-i="7" data-j="8"/>
<circle cx="350" cy="310" r="9" fill="#00ff00" stroke="black" stroke-width="1" data-i="7" data-j="8"/>
<circle cx="370" cy="290" r="9" fill="#ff0000" stroke="black" stroke-width="1" data-i="7" data-j="9"/>
<circle cx="390" cy="290" r="9" fill="#ff0000" stroke="black" stroke-width="1" data-i="7" data-j="9"/>
<circle cx="370" cy="310" r="9" fill="#ff0000" stroke="black" stroke-width="1" data-i="7" data-j="9"/>
<circle cx="390" cy="310" r="9" fill="#ff0000" stroke="black" stroke-width="1" data-i="7" data-j="9"/>
<circle cx="410" cy="290" r="9" fill="#ff0000" stroke="black" stroke-width="1" data-i="7" data-j="10"/>
<circle cx="430" cy="290" r="9" fill="#ff0000" stroke="black" stroke-width="1" data-i="7" data-j="10"/>
<circle cx="410" cy="310" r="9" fill="#ff0000" stroke="black" stroke-width="1" data-i="7" data-j="10"/>
<circle cx="430" cy="310" r="9" fill="#ff0000" stroke="black" stroke-width="1" data-i="7" data-j="10"/>
<circle cx="10" cy="330" r="9" fill="#ff0000" stroke="black" stroke-width="1" data-i="8" data-j="0"/>
<circle cx="30" cy="330" r="9" fill="#ff0000" stroke="black" stroke-width="1" data-i="8" data-j="0"/>
<circle cx="10" cy="350" r="9" fill="#ff0000" stroke="black" stroke-width="1" data-i="8" data-j="0"/>
<circle cx="30" cy="350" r="9" fill="#0000ff" stroke="black" stroke-width="1" data-i="8" data-j="0"/>
<circle cx="50" cy="330" r="9" fill="#ff0000" stroke="black" stroke-width="1" data-i="8" data-j="1"/>
<circle cx="70" cy="330" r="9" fill="#0000ff" stroke="black" stroke-width="1" data-i="8" data-j="1"/>
<circle cx="50" cy="350" r="9" fill="#ff0000" stroke="black" stroke-width="1" data-i="8" data-j="1"/>
<circle cx="70" cy="350" r="9" fill="#ff0000" stroke="black" stroke-width="1" data-i="8" data-j="1"/>
<circle cx="90" cy="330" r="9" fill="#00ff00" stroke="black" stroke-width="1" data-i="8" data-j="2"/>
<circle cx="110" cy="330" r="9" fill="#0000ff" stroke="black" stroke-width="1" data-i="8" data-j="2"/>
<circle cx="90" cy="350" r="9" fill="#ffff00" stroke="black" stroke-width="1" data-i="8" data-j="2"/>
<circle cx="110" cy="350" r="9" fill="#ff0000" stroke="black" stroke-width="1" data-i="8" data-j="2"/>
<circle cx="130" cy="330" r="9" fill="#00ff00" stroke="black" stroke-width="1" data-i="8" data-j="3"/>
<circle cx="150" cy="330" r="9" fill="#0000ff" stroke="black" stroke-width="1" data-i="8" data-j="3"/>
<circle cx="130" cy="350" r="9" fill="#ffff00" stroke="black" stroke-width="1" data-i="8" data-j="3"/>
<circle cx="150" cy="350" r="9" fill="#ffff00" stroke="black" stroke-width="1" data-i="8" data-j="3"/>
<circle cx="170" cy="330" r="9" fill="#00ff00" stroke="black" stroke-width="1" data-i="8" data-j="4"/>
<circle cx="190" cy="330" r="9" fill="#0000ff" stroke="black" stroke-width="1" data-i="8" data-j="4"/>
<circle cx="170" cy="350" r="9" fill="#ff0000" stroke="black" stroke-width="1" data-i="8" data-j="4"/>
<circle cx="190" cy="350" r="9" fill="#00ff00" stroke="black" stroke-width="1" data-i="8" data-j="4"/>
<circle cx="210" cy="330" r="9" fill="#00ff00" stroke="black" stroke-width="1" data-i="8" data-j="5"/>
<circle cx="230" cy="330" r="9" fill="#0000ff" stroke="black" stroke-width="1" data-i="8" data-j="5"/>
<circle cx="210" cy="350" r="9" fill="#00ff00" stroke="black" stroke-width="1" data-i="8" data-j="5"/>
<circle cx="230" cy="350" r="9" fill="#00ff00" stroke="black" stroke-width="1" data-i="8" data-j="5"/>
<circle cx="250" cy="330" r="9" fill="#ff0000" stroke="black" stroke-width="1" data-i="8" data-j="6"/>
<circle cx="270" cy="330" r="9" fill="#0000ff" stroke="black" stroke-width="1" data-i="8" data-j="6"/>
<circle cx="250" cy="350" r="9" fill="#ff0000" stroke="black" stroke-width="1" data-i="8" data-j="6"/>
<circle cx="270" cy="350" r="9" fill="#ff0000" stroke="black" stroke-width="1" data-i="8" data-j="6"/>
<circle cx="290" cy="330" r="9" fill="#ff0000" stroke="black" stroke-width="1" data-i="8" data-j="7"/>
<circle cx="310" cy="330" r="9" fill="#0000ff" stroke="black" stroke-width="1" data-i="8" data-j="7"/>
<circle cx="290" cy="350" r="9" fill="#00ff00" stroke="black" stroke-width="1" data-i="8" data-j="7"/>
<circle cx="310" cy="350" r="9" fill="#ffff00" stroke="black" stroke-width="1" data-i="8" data-j="7"/>
<circle cx="330" cy="330" r="9" fill="#ff0000" stroke="black" stroke-width="1" data-i="8" data-j="8"/>
<circle cx="350" cy="330" r="9" fill="#0000ff" stroke="black" stroke-width="1" data-i="8" data-j="8"/>
<circle cx="330" cy="350" r="9" fill="#ff0000" stroke="black" stroke-width="1" data-i="8" data-j="8"/>
<circle cx="350" cy="350" r="9" fill="#ff0000" stroke="black" stroke-width="1" data-i="8" data-j="8"/>
<circle cx="370" cy="330" r="9" fill="#00ff00" stroke="black" stroke-width="1" data-i="8" data-j="9"/>
<circle cx="390" cy="330" r="9" fill="#0000ff" stroke="black" stroke-width="1" data-i="8" data-j="9"/>
<circle cx="370" cy="350" r="9" fill="#ffff00" stroke="black" stroke-width="1" data-i="8" data-j="9"/>
<circle cx="390" cy="350" r="9" fill="#ff0000" stroke="black" stroke-width="1" data-i="8" data-j="9"/>
<circle cx="410" cy="330" r="9" fill="#ff0000" stroke="black" stroke-width="1" data-i="8" data-j="10"/>
<circle cx="430" cy="330" r="9" fill="#ff0000" stroke="black" stroke-width="1" data-i="8" data-j="10"/>
<circle cx="410" cy="350" r="9" fill="#ff0000" stroke="black" stroke-width="1" data-i="8" data-j="10"/>
<circle cx="430" cy="350" r="9" fill="#ff0000" stroke="black" stroke-width="1" data-i="8" data-j="10"/>
<circle cx="10" cy="370" r="9" fill="#ff0000" stroke="black" stroke-width="1" data-i="9" data-j="0"/>
<circle cx="30" cy="370" r="9" fill="#ff0000" stroke="black" stroke-width="1" data-i="9" data-j="0"/>
<circle cx="10" cy="390" r="9" fill="#ff0000" stroke="black" stroke-width="1" data-i="9" data-j="0"/>
<circle cx="30" cy="390" r="9" fill="#00ff00" stroke="black" stroke-width="1" data-i="9" data-j="0"/>
<circle cx="50" cy="370" r="9" fill="#00ff00" stroke="black" stroke-width="1" data-i="9" data-j="1"/>
<circle cx="70" cy="370" r="9" fill="#ffff00" stroke="black" stroke-width="1" data-i="9" data-j="1"/>
<circle cx="50" cy="390" r="9" fill="#00ff00" stroke="black" stroke-width="1" data-i="9" data-j="1"/>
<circle cx="70" cy="390" r="9" fill="#00ff00" stroke="black" stroke-width="1" data-i="9" data-j="1"/>
<circle cx="90" cy="370" r="9" fill="#00ff00" stroke="black" stroke-width="1" data-i="9" data-j="2"/>
<circle cx="110" cy="370" r="9" fill="#0000ff" stroke="black" stroke-width="1" data-i="9" data-j="2"/>
<circle cx="90" cy="390" r="9" fill="#0000ff" stroke="black" stroke-width="1" data-i="9" data-j="2"/>
<circle cx="110" cy="390" r="9" fill="#00ff00" stroke="black" stroke-width="1" data-i="9" data-j="2"/>
<circle cx="130" cy="370" r="9" fill="#ff0000" stroke="black" stroke-width="1" data-i="9" data-j="3"/>
<circle cx="150" cy="370" r="9" fill="#0000ff" stroke="black" stroke-width="1" data-i="9" data-j="3"/>
<circle cx="130" cy="390" r="9" fill="#ff0000" stroke="black" stroke-width="1" data-i="9" data-j="3"/>
<circle cx="150" cy="390" r="9" fill="#ff0000" stroke="black" stroke-width="1" data-i="9" data-j="3"/>
<circle cx="170" cy="370" r="9" fill="#00ff00" stroke="black" stroke-width="1" data-i="9" data-j="4"/>
<circle cx="190" cy="370" r="9" fill="#ffff00" stroke="black" stroke-width="1" data-i="9" data-j="4"/>
<circle cx="170" cy="390" r="9" fill="#ff0000" stroke="black" stroke-width="1" data-i="9" data-j="4"/>
<circle cx="190" cy="390" r="9" fill="#ffff00" stroke="black" stroke-width="1" data-i="9" data-j="4"/>
<circle cx="210" cy="370" r="9" fill="#00ff00" stroke="black" stroke-width="1" data-i="9" data-j="5"/>
<circle cx="230" cy="370" r="9" fill="#0000ff" stroke="black" stroke-width="1" data-i="9" data-j="5"/>
<circle cx="210" cy="390" r="9" fill="#ff0000" stroke="black" stroke-width="1" data-i="9" data-j="5"/>
<circle cx="230" cy="390" r="9" fill="#00ff00" stroke="black" stroke-width="1" data-i="9" data-j="5"/>
<circle cx="250" cy="370" r="9" fill="#00ff00" stroke="black" stroke-width="1" data-i="9" data-j="6"/>
<circle cx="270" cy="370" r="9" fill="#0000ff" stroke="black" stroke-width="1" data-i="9" data-j="6"/>
<circle cx="250" cy="390" r="9" fill="#00ff00" stroke="black" stroke-width="1" data-i="9" data-j="6"/>
<circle cx="270" cy="390" r="9" fill="#ff0000" stroke="black" stroke-width="1" data-i="9" data-j="6"/>
<circle cx="290" cy="370" r="9" fill="#ff0000" stroke="black" stroke-width="1" data-i="9" data-j="7"/>
<circle cx="310" cy="370" r="9" fill="#0000ff" stroke="black" stroke-width="1" data-i="9" data-j="7"/>
<circle cx="290" cy="390" r="9" fill="#ff0000" stroke="black" stroke-width="1" data-i="9" data-j="7"/>
<circle cx="310" cy="390" r="9" fill="#ff0000" stroke="black" stroke-width="1" data-i="9" data-j="7"/>
<circle cx="330" cy="370" r="9" fill="#00ff00" stroke="black" stroke-width="1" data-i="9" data-j="8"/>
<circle cx="350" cy="370" r="9" fill="#ffff00" stroke="black" stroke-width="1" data-i="9" data-j="8"/>
<circle cx="330" cy="390" r="9" fill="#00ff00" stroke="black" stroke-width="1" data-i="9" data-j="8"/>
<circle cx="350" cy="390" r="9" fill="#00ff00" stroke="black" stroke-width="1" data-i="9" data-j="8"/>
<circle cx="370" cy="370" r="9" fill="#ff0000" stroke="black" stroke-width="1" data-i="9" data-j="9"/>
<circle cx="390" cy="370" r="9" fill="#ff0000" stroke="black" stroke-width="1" data-i="9" data-j="9"/>
<circle cx="370" cy="390" r="9" fill="#ff0000" stroke="black" stroke-width="1" data-i="9" data-j="9"/>
<circle cx="390" cy="390" r="9" fill="#00ff00" stroke="black" stroke-width="1" data-i="9" data-j="9"/>
<circle cx="410" cy="370" r="9" fill="#ff0000" stroke="black" stroke-width="1" data-i="9" data-j="10"/>
<circle cx="430" cy="370" r="9" fill="#ff0000" stroke="black" stroke-width="1" data-i="9" data-j="10"/>
<circle cx="410" cy="390" r="9" fill="#ff0000" stroke="black" stroke-width="1" data-i="9" data-j="10"/>
<circle cx="430" cy="390" r="9" fill="#ff0000" stroke="black" stroke-width="1" data-i="9" data-j="10"/>
<circle cx="10" cy="410" r="9" fill="#000000" stroke="black" stroke-width="1" data-i="10" data-j="0"/>
<circle cx="30" cy="410" r="9" fill="#000000" stroke="black" stroke-width="1" data-i="10" data-j="0"/>
<circle cx="10" cy="430" r="9" fill="#000000" stroke="black" stroke-width="1" data-i="10" data-j="0"/>
<circle cx="30" cy="430" r="9" fill="#000000" stroke="black" stroke-width="1" data-i="10" data-j="0"/>
<circle cx="50" cy="410" r="9" fill="#ff0000" stroke="black" stroke-width="1" data-i="10" data-j="1"/>
<circle cx="70" cy="410" r="9" fill="#0000ff" stroke="black" stroke-width="1" data-i="10" data-j="1"/>
<circle cx="50" cy="430" r="9" fill="#ff0000" stroke="black" stroke-width="1" data-i="10" data-j="1"/>
<circle cx="70" cy="430" r="9" fill="#ff0000" stroke="black" stroke-width="1" data-i="10" data-j="1"/>
<circle cx="90" cy="410" r="9" fill="#00ff00" stroke="black" stroke-width="1" data-i="10" data-j="2"/>
<circle cx="110" cy="410" r="9" fill="#ffff00" stroke="black" stroke-width="1" data-i="10" data-j="2"/>
<circle cx="90" cy="430" r="9" fill="#00ff00" stroke="black" stroke-width="1" data-i="10" data-j="2"/>
<circle cx="110" cy="430" r="9" fill="#ff0000" stroke="black" stroke-width="1" data-i="10" data-j="2"/>
<circle cx="130" cy="410" r="9" fill="#00ff00" stroke="black" stroke-width="1" data-i="10" data-j="3"/>
<circle cx="150" cy="410" r="9" fill="#0000ff" stroke="black" stroke-width="1" data-i="10" data-j="3"/>
<circle cx="130" cy="430" r="9" fill="#ffff00" stroke="black" stroke-width="1" data-i="10" data-j="3"/>
<circle cx="150" cy="430" r="9" fill="#ffff00" stroke="black" stroke-width="1" data-i="10" data-j="3"/>
<circle cx="170" cy="410" r="9" fill="#00ff00" stroke="black" stroke-width="1" data-i="10" data-j="4"/>
<circle cx="190" cy="410" r="9" fill="#0000ff" stroke="black" stroke-width="1" data-i="10" data-j="4"/>
<circle cx="170" cy="430" r="9" fill="#ffff00" stroke="black" stroke-width="1" data-i="10" data-j="4"/>
<circle cx="190" cy="430" r="9" fill="#00ff00" stroke="black" stroke-width="1" data-i="10" data-j="4"/>
<circle cx="210" cy="410" r="9" fill="#00ff00" stroke="black" stroke-width="1" data-i="10" data-j="5"/>
<circle cx="230" cy="410" r="9" fill="#ffff00" stroke="black" stroke-width="1" data-i="10" data-j="5"/>
<circle cx="210" cy="430" r="9" fill="#ff0000" stroke="black" stroke-width="1" data-i="10" data-j="5"/>
<circle cx="230" cy="430" r="9" fill="#ffff00" stroke="black" stroke-width="1" data-i="10" data-j="5"/>
<circle cx="250" cy="410" r="9" fill="#00ff00" stroke="black" stroke-width="1" data-i="10" data-j="6"/>
<circle cx="270" cy="410" r="9" fill="#0000ff" stroke="black" stroke-width="1" data-i="10" data-j="6"/>
<circle cx="250" cy="430" r="9" fill="#00ff00" stroke="black" stroke-width="1" data-i="10" data-j="6"/>
<circle cx="270" cy="430" r="9" fill="#00ff00" stroke="black" stroke-width="1" data-i="10" data-j="6"/>
<circle cx="290" cy="410" r="9" fill="#00ff00" stroke="black" stroke-width="1" data-i="10" data-j="7"/>
<circle cx="310" cy="410" r="9" fill="#ffff00" stroke="black" stroke-width="1" data-i="10" data-j="7"/>
<circle cx="290" cy="430" r="9" fill="#ff0000" stroke="black" stroke-width="1" data-i="10" data-j="7"/>
<circle cx="310" cy="430" r="9" fill="#ffff00" stroke="black" stroke-width="1" data-i="10" data-j="7"/>
<circle cx="330" cy="410" r="9" fill="#00ff00" stroke="black" stroke-width="1" data-i="10" data-j="8"/>
<circle cx="350" cy="410" r="9" fill="#ffff00" stroke="black" stroke-width="1" data-i="10" data-j="8"/>
<circle cx="330" cy="430" r="9" fill="#ff0000" stroke="black" stroke-width="1" data-i="10" data-j="8"/>
<circle cx="350" cy="430" r="9" fill="#0000ff" stroke="black" stroke-width="1" data-i="10" data-j="8"/>
<circle cx="370" cy="410" r="9" fill="#00ff00" stroke="black" stroke-width="1" data-i="10" data-j="9"/>
<circle cx="390" cy="410" r="9" fill="#0000ff" stroke="black" stroke-width="1" data-i="10" data-j="9"/>
<circle cx="370" cy="430" r="9" fill="#00ff00" stroke="black" stroke-width="1" data-i="10" data-j="9"/>
<circle cx="390" cy="430" r="9" fill="#00ff00" stroke="black" stroke-width="1" data-i="10" data-j="9"/>
<circle cx="410" cy="410" r="9" fill="#ff0000" stroke="black" stroke-width="1" data-i="10" data-j="10"/>
<circle cx="430" cy="410" r="9" fill="#ff0000" stroke="black" stroke-width="1" data-i="10" data-j="10"/>
<circle cx="410" cy="430" r="9" fill="#ff0000" stroke="black" stroke-width="1" data-i="10" data-j="10"/>
<circle cx="430" cy="430" r="9" fill="#ff0000" stroke="black" stroke-width="1" data-i="10" data-j="10"/>
</svg>