<svg width="260" height="260" xmlns="http://www.w3.org/2000/svg">
<metadata>
	<dimension_matrice_cellule>6</dimension_matrice_cellule>
	<protocole>2</protocole>
</metadata>
<polygon points="0,21 21,16 8,1" fill="#000000" stroke="black" stroke-width="1" data-i="0" data-j="0"/>
<path d="M0,21 21,16 8,1 Z" fill="#000000" stroke="black" stroke-width="1" data-i="0" data-j="0"/>
<polygon points="25,0 23,23 41,15" fill="#000000" stroke="black" stroke-width="1" data-i="0" data-j="0"/>
<path d="M25,0 23,23 41,15 Z" fill="#000000" stroke="black" stroke-width="1" data-i="0" data-j="0"/>
<polygon points="14,45 16,23 -1,30" fill="#000000" stroke="black" stroke-width="1" data-i="0" data-j="0"/>
<path d="M14,45 16,23 -1,30 Z" fill="#000000" stroke="black" stroke-width="1" data-i="0" data-j="0"/>
<polygon points="18,26 30,45 40,28" fill="#000000" stroke="black" stroke-width="1" data-i="0" data-j="0"/>
<path d="M18,26 30,45 40,28 Z" fill="#000000" stroke="black" stroke-width="1" data-i="0" data-j="0"/>
<polygon points="57,24 54,2 37,13" fill="#ff0000" stroke="black" stroke-width="1" data-i="0" data-j="1"/>
<path d="M57,24 54,2 37,13 Z" fill="#ff0000" stroke="black" stroke-width="1" data-i="0" data-j="1"/>
<polygon points="72,26 78,4 58,8" fill="#ff0000" stroke="black" stroke-width="1" data-i="0" data-j="1"/>
<path d="M72,26 78,4 58,8 Z" fill="#ff0000" stroke="black" stroke-width="1" data-i="0" data-j="1"/>
<polygon points="52,46 58,25 39,28" fill="#ff0000" stroke="black" stroke-width="1" data-i="0" data-j="1"/>
<path d="M52,46 58,25 39,28 Z" fill="#ff0000" stroke="black" stroke-width="1" data-i="0" data-j="1"/>
<polygon points="56,31 75,44 78,24" fill="#0000ff" stroke="black" stroke-width="1" data-i="0" data-j="1"/>
<path d="M56,31 75,44 78,24 Z" fill="#0000ff" stroke="black" stroke-width="1" data-i="0" data-j="1"/>
<polygon points="93,0 78,17 97,22" fill="#ff0000" stroke="black" stroke-width="1" data-i="0" data-j="2"/>
<path d="M93,0 78,17 97,22 Z" fill="#ff0000" stroke="black" stroke-width="1" data-i="0" data-j="2"/>
<polygon points="117,2 97,13 114,24" fill="#ff0000" stroke="black" stroke-width="1" data-i="0" data-j="2"/>
<path d="M117,2 97,13 114,24 Z" fill="#ff0000" stroke="black" stroke-width="1" data-i="0" data-j="2"/>
<polygon points="97,44 94,22 77,33" fill="#ff0000" stroke="black" stroke-width="1" data-i="0" data-j="2"/>
<path d="M97,44 94,22 77,33 Z" fill="#ff0000" stroke="black" stroke-width="1" data-i="0" data-j="2"/>
<polygon points="122,37 106,21 100,40" fill="#00ff00" stroke="black" stroke-width="1" data-i="0" data-j="2"/>
<path d="M122,37 106,21 100,40 Z" fill="#00ff00" stroke="black" stroke-width="1" data-i="0" data-j="2"/>
<polygon points="133,26 137,4 118,9" fill="#0000ff" stroke="black" stroke-width="1" data-i="0" data-j="3"/>
<path d="M133,26 137,4 118,9 Z" fill="#0000ff" stroke="black" stroke-width="1" data-i="0" data-j="3"/>
<polygon points="156,24 155,2 138,12" fill="#ffff00" stroke="black" stroke-width="1" data-i="0" data-j="3"/>
<path d="M156,24 155,2 138,12 Z" fill="#ffff00" stroke="black" stroke-width="1" data-i="0" data-j="3"/>
<polygon points="143,33 123,23 123,43" fill="#0000ff" stroke="black" stroke-width="1" data-i="0" data-j="3"/>
<path d="M143,33 123,23 123,43 Z" fill="#0000ff" stroke="black" stroke-width="1" data-i="0" data-j="3"/>
<polygon points="137,29 153,44 159,25" fill="#ff0000" stroke="black" stroke-width="1" data-i="0" data-j="3"/>
<path d="M137,29 153,44 159,25 Z" fill="#ff0000" stroke="black" stroke-width="1" data-i="0" data-j="3"/>
<polygon points="156,14 177,22 175,2" fill="#00ff00" stroke="black" stroke-width="1" data-i="0" data-j="4"/>
<path d="M156,14 177,22 175,2 Z" fill="#00ff00" stroke="black" stroke-width="1" data-i="0" data-j="4"/>
<polygon points="192,26 198,4 178,8" fill="#ff0000" stroke="black" stroke-width="1" data-i="0" data-j="4"/>
<path d="M192,26 198,4 178,8 Z" fill="#ff0000" stroke="black" stroke-width="1" data-i="0" data-j="4"/>
<polygon points="158,26 170,45 180,28" fill="#ff0000" stroke="black" stroke-width="1" data-i="0" data-j="4"/>
<path d="M158,26 170,45 180,28 Z" fill="#ff0000" stroke="black" stroke-width="1" data-i="0" data-j="4"/>
<polygon points="185,20 182,43 201,36" fill="#0000ff" stroke="black" stroke-width="1" data-i="0" data-j="4"/>
<path d="M185,20 182,43 201,36 Z" fill="#0000ff" stroke="black" stroke-width="1" data-i="0" data-j="4"/>
<polygon points="198,20 221,17 209,1" fill="#000000" stroke="black" stroke-width="1" data-i="0" data-j="5"/>
<path d="M198,20 221,17 209,1 Z" fill="#000000" stroke="black" stroke-width="1" data-i="0" data-j="5"/>
<polygon points="243,12 222,3 224,23" fill="#000000" stroke="black" stroke-width="1" data-i="0" data-j="5"/>
<path d="M243,12 222,3 224,23 Z" fill="#000000" stroke="black" stroke-width="1" data-i="0" data-j="5"/>
<polygon points="201,23 206,44 221,32" fill="#000000" stroke="black" stroke-width="1" data-i="0" data-j="5"/>
<path d="M201,23 206,44 221,32 Z" fill="#000000" stroke="black" stroke-width="1" data-i="0" data-j="5"/>
<polygon points="218,26 230,45 241,28" fill="#000000" stroke="black" stroke-width="1" data-i="0" data-j="5"/>
<path d="M218,26 230,45 241,28 Z" fill="#000000" stroke="black" stroke-width="1" data-i="0" data-j="5"/>
<polygon points="2,64 22,52 5,42" fill="#00ff00" stroke="black" stroke-width="1" data-i="1" data-j="0"/>
<path d="M2,64 22,52 5,42 Z" fill="#00ff00" stroke="black" stroke-width="1" data-i="1" data-j="0"/>
<polygon points="35,65 36,43 18,51" fill="#0000ff" stroke="black" stroke-width="1" data-i="1" data-j="0"/>
<path d="M35,65 36,43 18,51 Z" fill="#0000ff" stroke="black" stroke-width="1" data-i="1" data-j="0"/>
<polygon points="16,61 -1,74 15,84" fill="#ffff00" stroke="black" stroke-width="1" data-i="1" data-j="0"/>
<path d="M16,61 -1,74 15,84 Z" fill="#ffff00" stroke="black" stroke-width="1" data-i="1" data-j="0"/>
<polygon points="37,62 17,73 34,84" fill="#0000ff" stroke="black" stroke-width="1" data-i="1" data-j="0"/>
<path d="M37,62 17,73 34,84 Z" fill="#0000ff" stroke="black" stroke-width="1" data-i="1" data-j="0"/>
<polygon points="36,54 57,62 55,42" fill="#00ff00" stroke="black" stroke-width="1" data-i="1" data-j="1"/>
<path d="M36,54 57,62 55,42 Z" fill="#00ff00" stroke="black" stroke-width="1" data-i="1" data-j="1"/>
<polygon points="56,54 77,62 75,42" fill="#0000ff" stroke="black" stroke-width="1" data-i="1" data-j="1"/>
<path d="M56,54 77,62 75,42 Z" fill="#0000ff" stroke="black" stroke-width="1" data-i="1" data-j="1"/>
<polygon points="50,60 40,80 60,80" fill="#ffff00" stroke="black" stroke-width="1" data-i="1" data-j="1"/>
<path d="M50,60 40,80 60,80 Z" fill="#ffff00" stroke="black" stroke-width="1" data-i="1" data-j="1"/>
<polygon points="68,86 80,67 60,65" fill="#ffff00" stroke="black" stroke-width="1" data-i="1" data-j="1"/>
<path d="M68,86 80,67 60,65 Z" fill="#ffff00" stroke="black" stroke-width="1" data-i="1" data-j="1"/>
<polygon points="95,65 96,43 78,51" fill="#00ff00" stroke="black" stroke-width="1" data-i="1" data-j="2"/>
<path d="M95,65 96,43 78,51 Z" fill="#00ff00" stroke="black" stroke-width="1" data-i="1" data-j="2"/>
<polygon points="110,66 119,46 99,47" fill="#ffff00" stroke="black" stroke-width="1" data-i="1" data-j="2"/>
<path d="M110,66 119,46 99,47 Z" fill="#ffff00" stroke="black" stroke-width="1" data-i="1" data-j="2"/>
<polygon points="97,84 94,62 77,73" fill="#ff0000" stroke="black" stroke-width="1" data-i="1" data-j="2"/>
<path d="M97,84 94,62 77,73 Z" fill="#ff0000" stroke="black" stroke-width="1" data-i="1" data-j="2"/>
<polygon points="103,61 104,83 121,74" fill="#0000ff" stroke="black" stroke-width="1" data-i="1" data-j="2"/>
<path d="M103,61 104,83 121,74 Z" fill="#0000ff" stroke="black" stroke-width="1" data-i="1" data-j="2"/>
<polygon points="117,48 132,65 140,46" fill="#ff0000" stroke="black" stroke-width="1" data-i="1" data-j="3"/>
<path d="M117,48 132,65 140,46 Z" fill="#ff0000" stroke="black" stroke-width="1" data-i="1" data-j="3"/>
<polygon points="159,43 138,50 152,65" fill="#0000ff" stroke="black" stroke-width="1" data-i="1" data-j="3"/>
<path d="M159,43 138,50 152,65 Z" fill="#0000ff" stroke="black" stroke-width="1" data-i="1" data-j="3"/>
<polygon points="135,85 136,63 118,71" fill="#ff0000" stroke="black" stroke-width="1" data-i="1" data-j="3"/>
<path d="M135,85 136,63 118,71 Z" fill="#ff0000" stroke="black" stroke-width="1" data-i="1" data-j="3"/>
<polygon points="161,80 149,61 139,78" fill="#ff0000" stroke="black" stroke-width="1" data-i="1" data-j="3"/>
<path d="M161,80 149,61 139,78 Z" fill="#ff0000" stroke="black" stroke-width="1" data-i="1" data-j="3"/>
<polygon points="182,48 160,46 167,65" fill="#00ff00" stroke="black" stroke-width="1" data-i="1" data-j="4"/>
<path d="M182,48 160,46 167,65 Z" fill="#00ff00" stroke="black" stroke-width="1" data-i="1" data-j="4"/>
<polygon points="191,66 198,45 179,48" fill="#0000ff" stroke="black" stroke-width="1" data-i="1" data-j="4"/>
<path d="M191,66 198,45 179,48 Z" fill="#0000ff" stroke="black" stroke-width="1" data-i="1" data-j="4"/>
<polygon points="164,61 163,83 181,75" fill="#ffff00" stroke="black" stroke-width="1" data-i="1" data-j="4"/>
<path d="M164,61 163,83 181,75 Z" fill="#ffff00" stroke="black" stroke-width="1" data-i="1" data-j="4"/>
<polygon points="190,60 179,79 199,80" fill="#ffff00" stroke="black" stroke-width="1" data-i="1" data-j="4"/>
<path d="M190,60 179,79 199,80 Z" fill="#ffff00" stroke="black" stroke-width="1" data-i="1" data-j="4"/>
<polygon points="219,43 198,50 212,65" fill="#00ff00" stroke="black" stroke-width="1" data-i="1" data-j="5"/>
<path d="M219,43 198,50 212,65 Z" fill="#00ff00" stroke="black" stroke-width="1" data-i="1" data-j="5"/>
<polygon points="243,51 221,44 224,64" fill="#0000ff" stroke="black" stroke-width="1" data-i="1" data-j="5"/>
<path d="M243,51 221,44 224,64 Z" fill="#0000ff" stroke="black" stroke-width="1" data-i="1" data-j="5"/>
<polygon points="198,67 211,85 220,67" fill="#ffff00" stroke="black" stroke-width="1" data-i="1" data-j="5"/>
<path d="M198,67 211,85 220,67 Z" fill="#ffff00" stroke="black" stroke-width="1" data-i="1" data-j="5"/>
<polygon points="239,82 231,61 218,76" fill="#00ff00" stroke="black" stroke-width="1" data-i="1" data-j="5"/>
<path d="M239,82 231,61 218,76 Z" fill="#00ff00" stroke="black" stroke-width="1" data-i="1" data-j="5"/>
<polygon points="14,80 -1,95 16,103" fill="#00ff00" stroke="black" stroke-width="1" data-i="2" data-j="0"/>
<path d="M14,80 -1,95 16,103 Z" fill="#00ff00" stroke="black" stroke-width="1" data-i="2" data-j="0"/>
<polygon points="33,106 37,84 18,89" fill="#0000ff" stroke="black" stroke-width="1" data-i="2" data-j="0"/>
<path d="M33,106 37,84 18,89 Z" fill="#0000ff" stroke="black" stroke-width="1" data-i="2" data-j="0"/>
<polygon points="3,125 21,112 4,102" fill="#ffff00" stroke="black" stroke-width="1" data-i="2" data-j="0"/>
<path d="M3,125 21,112 4,102 Z" fill="#ffff00" stroke="black" stroke-width="1" data-i="2" data-j="0"/>
<polygon points="18,107 31,125 40,107" fill="#0000ff" stroke="black" stroke-width="1" data-i="2" data-j="0"/>
<path d="M18,107 31,125 40,107 Z" fill="#0000ff" stroke="black" stroke-width="1" data-i="2" data-j="0"/>
<polygon points="60,101 50,81 38,97" fill="#ff0000" stroke="black" stroke-width="1" data-i="2" data-j="1"/>
<path d="M60,101 50,81 38,97 Z" fill="#ff0000" stroke="black" stroke-width="1" data-i="2" data-j="1"/>
<polygon points="60,83 67,105 81,90" fill="#0000ff" stroke="black" stroke-width="1" data-i="2" data-j="1"/>
<path d="M60,83 67,105 81,90 Z" fill="#0000ff" stroke="black" stroke-width="1" data-i="2" data-j="1"/>
<polygon points="60,105 38,109 50,125" fill="#ff0000" stroke="black" stroke-width="1" data-i="2" data-j="1"/>
<path d="M60,105 38,109 50,125 Z" fill="#ff0000" stroke="black" stroke-width="1" data-i="2" data-j="1"/>
<polygon points="61,123 81,114 66,101" fill="#ff0000" stroke="black" stroke-width="1" data-i="2" data-j="1"/>
<path d="M61,123 81,114 66,101 Z" fill="#ff0000" stroke="black" stroke-width="1" data-i="2" data-j="1"/>
<polygon points="90,106 99,86 79,87" fill="#00ff00" stroke="black" stroke-width="1" data-i="2" data-j="2"/>
<path d="M90,106 99,86 79,87 Z" fill="#00ff00" stroke="black" stroke-width="1" data-i="2" data-j="2"/>
<polygon points="115,105 116,82 98,91" fill="#0000ff" stroke="black" stroke-width="1" data-i="2" data-j="2"/>
<path d="M115,105 116,82 98,91 Z" fill="#0000ff" stroke="black" stroke-width="1" data-i="2" data-j="2"/>
<polygon points="77,107 91,125 100,107" fill="#ff0000" stroke="black" stroke-width="1" data-i="2" data-j="2"/>
<path d="M77,107 91,125 100,107 Z" fill="#ff0000" stroke="black" stroke-width="1" data-i="2" data-j="2"/>
<polygon points="109,100 100,120 120,119" fill="#00ff00" stroke="black" stroke-width="1" data-i="2" data-j="2"/>
<path d="M109,100 100,120 120,119 Z" fill="#00ff00" stroke="black" stroke-width="1" data-i="2" data-j="2"/>
<polygon points="127,106 141,88 121,84" fill="#00ff00" stroke="black" stroke-width="1" data-i="2" data-j="3"/>
<path d="M127,106 141,88 121,84 Z" fill="#00ff00" stroke="black" stroke-width="1" data-i="2" data-j="3"/>
<polygon points="161,87 139,87 148,105" fill="#ffff00" stroke="black" stroke-width="1" data-i="2" data-j="3"/>
<path d="M161,87 139,87 148,105 Z" fill="#ffff00" stroke="black" stroke-width="1" data-i="2" data-j="3"/>
<polygon points="116,114 137,122 135,102" fill="#00ff00" stroke="black" stroke-width="1" data-i="2" data-j="3"/>
<path d="M116,114 137,122 135,102 Z" fill="#00ff00" stroke="black" stroke-width="1" data-i="2" data-j="3"/>
<polygon points="163,112 142,103 144,123" fill="#0000ff" stroke="black" stroke-width="1" data-i="2" data-j="3"/>
<path d="M163,112 142,103 144,123 Z" fill="#0000ff" stroke="black" stroke-width="1" data-i="2" data-j="3"/>
<polygon points="160,102 181,96 168,81" fill="#ff0000" stroke="black" stroke-width="1" data-i="2" data-j="4"/>
<path d="M160,102 181,96 168,81 Z" fill="#ff0000" stroke="black" stroke-width="1" data-i="2" data-j="4"/>
<polygon points="176,92 195,103 197,83" fill="#ffff00" stroke="black" stroke-width="1" data-i="2" data-j="4"/>
<path d="M176,92 195,103 197,83 Z" fill="#ffff00" stroke="black" stroke-width="1" data-i="2" data-j="4"/>
<polygon points="183,114 163,102 162,122" fill="#ffff00" stroke="black" stroke-width="1" data-i="2" data-j="4"/>
<path d="M183,114 163,102 162,122 Z" fill="#ffff00" stroke="black" stroke-width="1" data-i="2" data-j="4"/>
<polygon points="191,100 179,118 199,121" fill="#ffff00" stroke="black" stroke-width="1" data-i="2" data-j="4"/>
<path d="M191,100 179,118 199,121 Z" fill="#ffff00" stroke="black" stroke-width="1" data-i="2" data-j="4"/>
<polygon points="221,99 209,81 199,98" fill="#00ff00" stroke="black" stroke-width="1" data-i="2" data-j="5"/>
<path d="M221,99 209,81 199,98 Z" fill="#00ff00" stroke="black" stroke-width="1" data-i="2" data-j="5"/>
<polygon points="238,103 232,81 218,95" fill="#0000ff" stroke="black" stroke-width="1" data-i="2" data-j="5"/>
<path d="M238,103 232,81 218,95 Z" fill="#0000ff" stroke="black" stroke-width="1" data-i="2" data-j="5"/>
<polygon points="216,101 197,113 215,124" fill="#ffff00" stroke="black" stroke-width="1" data-i="2" data-j="5"/>
<path d="M216,101 197,113 215,124 Z" fill="#ffff00" stroke="black" stroke-width="1" data-i="2" data-j="5"/>
<polygon points="240,121 231,101 218,116" fill="#ffff00" stroke="black" stroke-width="1" data-i="2" data-j="5"/>
<path d="M240,121 231,101 218,116 Z" fill="#ffff00" stroke="black" stroke-width="1" data-i="2" data-j="5"/>
<polygon points="23,133 3,123 3,143" fill="#00ff00" stroke="black" stroke-width="1" data-i="3" data-j="0"/>
<path d="M23,133 3,123 3,143 Z" fill="#00ff00" stroke="black" stroke-width="1" data-i="3" data-j="0"/>
<polygon points="38,143 33,121 18,134" fill="#0000ff" stroke="black" stroke-width="1" data-i="3" data-j="0"/>
<path d="M38,143 33,121 18,134 Z" fill="#0000ff" stroke="black" stroke-width="1" data-i="3" data-j="0"/>
<polygon points="-1,145 9,165 21,148" fill="#0000ff" stroke="black" stroke-width="1" data-i="3" data-j="0"/>
<path d="M-1,145 9,165 21,148 Z" fill="#0000ff" stroke="black" stroke-width="1" data-i="3" data-j="0"/>
<polygon points="31,166 38,145 19,148" fill="#0000ff" stroke="black" stroke-width="1" data-i="3" data-j="0"/>
<path d="M31,166 38,145 19,148 Z" fill="#0000ff" stroke="black" stroke-width="1" data-i="3" data-j="0"/>
<polygon points="39,142 61,136 48,121" fill="#00ff00" stroke="black" stroke-width="1" data-i="3" data-j="1"/>
<path d="M39,142 61,136 48,121 Z" fill="#00ff00" stroke="black" stroke-width="1" data-i="3" data-j="1"/>
<polygon points="80,124 58,129 71,145" fill="#ffff00" stroke="black" stroke-width="1" data-i="3" data-j="1"/>
<path d="M80,124 58,129 71,145 Z" fill="#ffff00" stroke="black" stroke-width="1" data-i="3" data-j="1"/>
<polygon points="39,144 48,165 61,149" fill="#00ff00" stroke="black" stroke-width="1" data-i="3" data-j="1"/>
<path d="M39,144 48,165 61,149 Z" fill="#00ff00" stroke="black" stroke-width="1" data-i="3" data-j="1"/>
<polygon points="57,158 79,160 72,141" fill="#00ff00" stroke="black" stroke-width="1" data-i="3" data-j="1"/>
<path d="M57,158 79,160 72,141 Z" fill="#00ff00" stroke="black" stroke-width="1" data-i="3" data-j="1"/>
<polygon points="98,122 78,132 93,144" fill="#ff0000" stroke="black" stroke-width="1" data-i="3" data-j="2"/>
<path d="M98,122 78,132 93,144 Z" fill="#ff0000" stroke="black" stroke-width="1" data-i="3" data-j="2"/>
<polygon points="113,120 98,136 117,142" fill="#0000ff" stroke="black" stroke-width="1" data-i="3" data-j="2"/>
<path d="M113,120 98,136 117,142 Z" fill="#0000ff" stroke="black" stroke-width="1" data-i="3" data-j="2"/>
<polygon points="83,164 102,152 84,142" fill="#ffff00" stroke="black" stroke-width="1" data-i="3" data-j="2"/>
<path d="M83,164 102,152 84,142 Z" fill="#ffff00" stroke="black" stroke-width="1" data-i="3" data-j="2"/>
<polygon points="122,158 108,141 99,159" fill="#ff0000" stroke="black" stroke-width="1" data-i="3" data-j="2"/>
<path d="M122,158 108,141 99,159 Z" fill="#ff0000" stroke="black" stroke-width="1" data-i="3" data-j="2"/>
<polygon points="143,134 124,122 122,142" fill="#00ff00" stroke="black" stroke-width="1" data-i="3" data-j="3"/>
<path d="M143,134 124,122 122,142 Z" fill="#00ff00" stroke="black" stroke-width="1" data-i="3" data-j="3"/>
<polygon points="152,120 138,137 158,141" fill="#0000ff" stroke="black" stroke-width="1" data-i="3" data-j="3"/>
<path d="M152,120 138,137 158,141 Z" fill="#0000ff" stroke="black" stroke-width="1" data-i="3" data-j="3"/>
<polygon points="140,161 130,141 118,157" fill="#ff0000" stroke="black" stroke-width="1" data-i="3" data-j="3"/>
<path d="M140,161 130,141 118,157 Z" fill="#ff0000" stroke="black" stroke-width="1" data-i="3" data-j="3"/>
<polygon points="148,166 160,147 140,145" fill="#ffff00" stroke="black" stroke-width="1" data-i="3" data-j="3"/>
<path d="M148,166 160,147 140,145 Z" fill="#ffff00" stroke="black" stroke-width="1" data-i="3" data-j="3"/>
<polygon points="173,120 158,136 177,142" fill="#00ff00" stroke="black" stroke-width="1" data-i="3" data-j="4"/>
<path d="M173,120 158,136 177,142 Z" fill="#00ff00" stroke="black" stroke-width="1" data-i="3" data-j="4"/>
<polygon points="199,143 192,121 178,135" fill="#0000ff" stroke="black" stroke-width="1" data-i="3" data-j="4"/>
<path d="M199,143 192,121 178,135 Z" fill="#0000ff" stroke="black" stroke-width="1" data-i="3" data-j="4"/>
<polygon points="180,144 158,150 171,165" fill="#ffff00" stroke="black" stroke-width="1" data-i="3" data-j="4"/>
<path d="M180,144 158,150 171,165 Z" fill="#ffff00" stroke="black" stroke-width="1" data-i="3" data-j="4"/>
<polygon points="203,153 183,143 183,163" fill="#00ff00" stroke="black" stroke-width="1" data-i="3" data-j="4"/>
<path d="M203,153 183,143 183,163 Z" fill="#00ff00" stroke="black" stroke-width="1" data-i="3" data-j="4"/>
<polygon points="221,126 199,127 209,145" fill="#00ff00" stroke="black" stroke-width="1" data-i="3" data-j="5"/>
<path d="M221,126 199,127 209,145 Z" fill="#00ff00" stroke="black" stroke-width="1" data-i="3" data-j="5"/>
<polygon points="243,132 222,123 223,143" fill="#0000ff" stroke="black" stroke-width="1" data-i="3" data-j="5"/>
<path d="M243,132 222,123 223,143 Z" fill="#0000ff" stroke="black" stroke-width="1" data-i="3" data-j="5"/>
<polygon points="198,160 221,158 210,141" fill="#00ff00" stroke="black" stroke-width="1" data-i="3" data-j="5"/>
<path d="M198,160 221,158 210,141 Z" fill="#00ff00" stroke="black" stroke-width="1" data-i="3" data-j="5"/>
<polygon points="230,140 219,159 239,160" fill="#00ff00" stroke="black" stroke-width="1" data-i="3" data-j="5"/>
<path d="M230,140 219,159 239,160 Z" fill="#00ff00" stroke="black" stroke-width="1" data-i="3" data-j="5"/>
<polygon points="23,173 3,163 2,183" fill="#00ff00" stroke="black" stroke-width="1" data-i="4" data-j="0"/>
<path d="M23,173 3,163 2,183 Z" fill="#00ff00" stroke="black" stroke-width="1" data-i="4" data-j="0"/>
<polygon points="38,162 18,172 33,184" fill="#ffff00" stroke="black" stroke-width="1" data-i="4" data-j="0"/>
<path d="M38,162 18,172 33,184 Z" fill="#ffff00" stroke="black" stroke-width="1" data-i="4" data-j="0"/>
<polygon points="2,182 5,204 22,193" fill="#00ff00" stroke="black" stroke-width="1" data-i="4" data-j="0"/>
<path d="M2,182 5,204 22,193 Z" fill="#00ff00" stroke="black" stroke-width="1" data-i="4" data-j="0"/>
<polygon points="33,206 37,184 18,189" fill="#ff0000" stroke="black" stroke-width="1" data-i="4" data-j="0"/>
<path d="M33,206 37,184 18,189 Z" fill="#ff0000" stroke="black" stroke-width="1" data-i="4" data-j="0"/>
<polygon points="45,160 42,183 61,176" fill="#00ff00" stroke="black" stroke-width="1" data-i="4" data-j="1"/>
<path d="M45,160 42,183 61,176 Z" fill="#00ff00" stroke="black" stroke-width="1" data-i="4" data-j="1"/>
<polygon points="57,168 73,184 79,166" fill="#0000ff" stroke="black" stroke-width="1" data-i="4" data-j="1"/>
<path d="M57,168 73,184 79,166 Z" fill="#0000ff" stroke="black" stroke-width="1" data-i="4" data-j="1"/>
<polygon points="37,196 58,201 54,182" fill="#ff0000" stroke="black" stroke-width="1" data-i="4" data-j="1"/>
<path d="M37,196 58,201 54,182 Z" fill="#ff0000" stroke="black" stroke-width="1" data-i="4" data-j="1"/>
<polygon points="71,206 79,185 59,187" fill="#ffff00" stroke="black" stroke-width="1" data-i="4" data-j="1"/>
<path d="M71,206 79,185 59,187 Z" fill="#ffff00" stroke="black" stroke-width="1" data-i="4" data-j="1"/>
<polygon points="98,183 93,161 78,174" fill="#ff0000" stroke="black" stroke-width="1" data-i="4" data-j="2"/>
<path d="M98,183 93,161 78,174 Z" fill="#ff0000" stroke="black" stroke-width="1" data-i="4" data-j="2"/>
<polygon points="114,160 98,176 117,183" fill="#0000ff" stroke="black" stroke-width="1" data-i="4" data-j="2"/>
<path d="M114,160 98,176 117,183 Z" fill="#0000ff" stroke="black" stroke-width="1" data-i="4" data-j="2"/>
<polygon points="81,182 86,204 101,192" fill="#ff0000" stroke="black" stroke-width="1" data-i="4" data-j="2"/>
<path d="M81,182 86,204 101,192 Z" fill="#ff0000" stroke="black" stroke-width="1" data-i="4" data-j="2"/>
<polygon points="116,181 98,194 115,203" fill="#ff0000" stroke="black" stroke-width="1" data-i="4" data-j="2"/>
<path d="M116,181 98,194 115,203 Z" fill="#ff0000" stroke="black" stroke-width="1" data-i="4" data-j="2"/>
<polygon points="118,179 140,179 131,161" fill="#00ff00" stroke="black" stroke-width="1" data-i="4" data-j="3"/>
<path d="M118,179 140,179 131,161 Z" fill="#00ff00" stroke="black" stroke-width="1" data-i="4" data-j="3"/>
<polygon points="154,185 157,163 138,170" fill="#0000ff" stroke="black" stroke-width="1" data-i="4" data-j="3"/>
<path d="M154,185 157,163 138,170 Z" fill="#0000ff" stroke="black" stroke-width="1" data-i="4" data-j="3"/>
<polygon points="121,182 126,204 141,192" fill="#ff0000" stroke="black" stroke-width="1" data-i="4" data-j="3"/>
<path d="M121,182 126,204 141,192 Z" fill="#ff0000" stroke="black" stroke-width="1" data-i="4" data-j="3"/>
<polygon points="151,180 139,198 158,201" fill="#00ff00" stroke="black" stroke-width="1" data-i="4" data-j="3"/>
<path d="M151,180 139,198 158,201 Z" fill="#00ff00" stroke="black" stroke-width="1" data-i="4" data-j="3"/>
<polygon points="164,161 163,183 181,175" fill="#0000ff" stroke="black" stroke-width="1" data-i="4" data-j="4"/>
<path d="M164,161 163,183 181,175 Z" fill="#0000ff" stroke="black" stroke-width="1" data-i="4" data-j="4"/>
<polygon points="176,175 198,181 194,162" fill="#00ff00" stroke="black" stroke-width="1" data-i="4" data-j="4"/>
<path d="M176,175 198,181 194,162 Z" fill="#00ff00" stroke="black" stroke-width="1" data-i="4" data-j="4"/>
<polygon points="176,181 158,194 175,203" fill="#00ff00" stroke="black" stroke-width="1" data-i="4" data-j="4"/>
<path d="M176,181 158,194 175,203 Z" fill="#00ff00" stroke="black" stroke-width="1" data-i="4" data-j="4"/>
<polygon points="184,205 201,191 183,182" fill="#ff0000" stroke="black" stroke-width="1" data-i="4" data-j="4"/>
<path d="M184,205 201,191 183,182 Z" fill="#ff0000" stroke="black" stroke-width="1" data-i="4" data-j="4"/>
<polygon points="221,180 209,161 199,178" fill="#ff0000" stroke="black" stroke-width="1" data-i="4" data-j="5"/>
<path d="M221,180 209,161 199,178 Z" fill="#ff0000" stroke="black" stroke-width="1" data-i="4" data-j="5"/>
<polygon points="218,166 230,185 240,167" fill="#ff0000" stroke="black" stroke-width="1" data-i="4" data-j="5"/>
<path d="M218,166 230,185 240,167 Z" fill="#ff0000" stroke="black" stroke-width="1" data-i="4" data-j="5"/>
<polygon points="220,184 198,190 211,205" fill="#ff0000" stroke="black" stroke-width="1" data-i="4" data-j="5"/>
<path d="M220,184 198,190 211,205 Z" fill="#ff0000" stroke="black" stroke-width="1" data-i="4" data-j="5"/>
<polygon points="243,191 221,184 224,204" fill="#ff0000" stroke="black" stroke-width="1" data-i="4" data-j="5"/>
<path d="M243,191 221,184 224,204 Z" fill="#ff0000" stroke="black" stroke-width="1" data-i="4" data-j="5"/>
<polygon points="12,200 -1,217 18,222" fill="#ff0000" stroke="black" stroke-width="1" data-i="5" data-j="0"/>
<path d="M12,200 -1,217 18,222 Z" fill="#ff0000" stroke="black" stroke-width="1" data-i="5" data-j="0"/>
<polygon points="26,226 41,209 21,204" fill="#ff0000" stroke="black" stroke-width="1" data-i="5" data-j="0"/>
<path d="M26,226 41,209 21,204 Z" fill="#ff0000" stroke="black" stroke-width="1" data-i="5" data-j="0"/>
<polygon points="12,220 -1,237 18,241" fill="#ff0000" stroke="black" stroke-width="1" data-i="5" data-j="0"/>
<path d="M12,220 -1,237 18,241 Z" fill="#ff0000" stroke="black" stroke-width="1" data-i="5" data-j="0"/>
<polygon points="33,246 37,224 18,229" fill="#ff0000" stroke="black" stroke-width="1" data-i="5" data-j="0"/>
<path d="M33,246 37,224 18,229 Z" fill="#ff0000" stroke="black" stroke-width="1" data-i="5" data-j="0"/>
<polygon points="47,226 61,209 41,204" fill="#ff0000" stroke="black" stroke-width="1" data-i="5" data-j="1"/>
<path d="M47,226 61,209 41,204 Z" fill="#ff0000" stroke="black" stroke-width="1" data-i="5" data-j="1"/>
<polygon points="71,226 79,205 59,207" fill="#ff0000" stroke="black" stroke-width="1" data-i="5" data-j="1"/>
<path d="M71,226 79,205 59,207 Z" fill="#ff0000" stroke="black" stroke-width="1" data-i="5" data-j="1"/>
<polygon points="42,244 62,233 45,222" fill="#ff0000" stroke="black" stroke-width="1" data-i="5" data-j="1"/>
<path d="M42,244 62,233 45,222 Z" fill="#ff0000" stroke="black" stroke-width="1" data-i="5" data-j="1"/>
<polygon points="82,228 59,226 67,245" fill="#ff0000" stroke="black" stroke-width="1" data-i="5" data-j="1"/>
<path d="M82,228 59,226 67,245 Z" fill="#ff0000" stroke="black" stroke-width="1" data-i="5" data-j="1"/>
<polygon points="83,201 84,224 102,213" fill="#ff0000" stroke="black" stroke-width="1" data-i="5" data-j="2"/>
<path d="M83,201 84,224 102,213 Z" fill="#ff0000" stroke="black" stroke-width="1" data-i="5" data-j="2"/>
<polygon points="122,218 107,201 99,219" fill="#ff0000" stroke="black" stroke-width="1" data-i="5" data-j="2"/>
<path d="M122,218 107,201 99,219 Z" fill="#ff0000" stroke="black" stroke-width="1" data-i="5" data-j="2"/>
<polygon points="102,236 85,222 81,241" fill="#ff0000" stroke="black" stroke-width="1" data-i="5" data-j="2"/>
<path d="M102,236 85,222 81,241 Z" fill="#ff0000" stroke="black" stroke-width="1" data-i="5" data-j="2"/>
<polygon points="96,235 118,242 114,222" fill="#ff0000" stroke="black" stroke-width="1" data-i="5" data-j="2"/>
<path d="M96,235 118,242 114,222 Z" fill="#ff0000" stroke="black" stroke-width="1" data-i="5" data-j="2"/>
<polygon points="121,223 141,214 126,201" fill="#ff0000" stroke="black" stroke-width="1" data-i="5" data-j="3"/>
<path d="M121,223 141,214 126,201 Z" fill="#ff0000" stroke="black" stroke-width="1" data-i="5" data-j="3"/>
<polygon points="158,202 138,212 153,224" fill="#ff0000" stroke="black" stroke-width="1" data-i="5" data-j="3"/>
<path d="M158,202 138,212 153,224 Z" fill="#ff0000" stroke="black" stroke-width="1" data-i="5" data-j="3"/>
<polygon points="142,237 126,221 120,240" fill="#ff0000" stroke="black" stroke-width="1" data-i="5" data-j="3"/>
<path d="M142,237 126,221 120,240 Z" fill="#ff0000" stroke="black" stroke-width="1" data-i="5" data-j="3"/>
<polygon points="160,241 150,221 138,237" fill="#ff0000" stroke="black" stroke-width="1" data-i="5" data-j="3"/>
<path d="M160,241 150,221 138,237 Z" fill="#ff0000" stroke="black" stroke-width="1" data-i="5" data-j="3"/>
<polygon points="156,211 175,224 177,204" fill="#ff0000" stroke="black" stroke-width="1" data-i="5" data-j="4"/>
<path d="M156,211 175,224 177,204 Z" fill="#ff0000" stroke="black" stroke-width="1" data-i="5" data-j="4"/>
<polygon points="181,223 201,214 186,201" fill="#ff0000" stroke="black" stroke-width="1" data-i="5" data-j="4"/>
<path d="M181,223 201,214 186,201 Z" fill="#ff0000" stroke="black" stroke-width="1" data-i="5" data-j="4"/>
<polygon points="160,224 168,245 181,230" fill="#ff0000" stroke="black" stroke-width="1" data-i="5" data-j="4"/>
<path d="M160,224 168,245 181,230 Z" fill="#ff0000" stroke="black" stroke-width="1" data-i="5" data-j="4"/>
<polygon points="187,220 181,241 201,237" fill="#ff0000" stroke="black" stroke-width="1" data-i="5" data-j="4"/>
<path d="M187,220 181,241 201,237 Z" fill="#ff0000" stroke="black" stroke-width="1" data-i="5" data-j="4"/>
<polygon points="208,226 220,207 200,205" fill="#000000" stroke="black" stroke-width="1" data-i="5" data-j="5"/>
<path d="M208,226 220,207 200,205 Z" fill="#000000" stroke="black" stroke-width="1" data-i="5" data-j="5"/>
<polygon points="240,221 230,201 218,217" fill="#000000" stroke="black" stroke-width="1" data-i="5" data-j="5"/>
<path d="M240,221 230,201 218,217 Z" fill="#000000" stroke="black" stroke-width="1" data-i="5" data-j="5"/>
<polygon points="197,230 214,244 218,225" fill="#000000" stroke="black" stroke-width="1" data-i="5" data-j="5"/>
<path d="M197,230 214,244 218,225 Z" fill="#000000" stroke="black" stroke-width="1" data-i="5" data-j="5"/>
<polygon points="223,221 224,243 241,234" fill="#000000" stroke="black" stroke-width="1" data-i="5" data-j="5"/>
<path d="M223,221 224,243 241,234 Z" fill="#000000" stroke="black" stroke-width="1" data-i="5" data-j="5"/>
</svg>