<svg width="140" height="140" xmlns="http://www.w3.org/2000/svg">
<metadata>
	<dimension_matrice_cellule>3</dimension_matrice_cellule>
	<protocole>1</protocole>
</metadata>
<circle cx="10" cy="10" r="9" fill="#000000" stroke="black" stroke-width="1" data-i="0" data-j="0"/>
<circle cx="30" cy="10" r="9" fill="#000000" stroke="black" stroke-width="1" data-i="0" data-j="0"/>
<circle cx="10" cy="30" r="9" fill="#000000" stroke="black" stroke-width="1" data-i="0" data-j="0"/>
<circle cx="30" cy="30" r="9" fill="#000000" stroke="black" stroke-width="1" data-i="0" data-j="0"/>
<circle cx="50" cy="10" r="9" fill="#ff0000" stroke="black" stroke-width="1" data-i="0" data-j="1"/>
<circle cx="70" cy="10" r="9" fill="#ff0000" stroke="black" stroke-width="1" data-i="0" data-j="1"/>
<circle cx="50" cy="30" r="9" fill="#ff0000" stroke="black" stroke-width="1" data-i="0" data-j="1"/>
<circle cx="70" cy="30" r="9" fill="#00ff00" stroke="black" stroke-width="1" data-i="0" data-j="1"/>
<circle cx="90" cy="10" r="9" fill="#000000" stroke="black" stroke-width="1" data-i="0" data-j="2"/>
<circle cx="110" cy="10" r="9" fill="#000000" stroke="black" stroke-width="1" data-i="0" data-j="2"/>
<circle cx="90" cy="30" r="9" fill="#000000" stroke="black" stroke-width="1" data-i="0" data-j="2"/>
<circle cx="110" cy="30" r="9" fill="#000000" stroke="black" stroke-width="1" data-i="0" data-j="2"/>
<circle cx="10" cy="50" r="9" fill="#ff0000" stroke="black" stroke-width="1" data-i="1" data-j="0"/>
<circle cx="30" cy="50" r="9" fill="#ff0000" stroke="black" stroke-width="1" data-i="1" data-j="0"/>
<circle cx="10" cy="70" r="9" fill="#ff0000" stroke="black" stroke-width="1" data-i="1" data-j="0"/>
<circle cx="30" cy="70" r="9" fill="#00ff00" stroke="black" stroke-width="1" data-i="1" data-j="0"/>
<circle cx="50" cy="50" r="9" fill="#ff0000" stroke="black" stroke-width="1" data-i="1" data-j="1"/>
<circle cx="70" cy="50" r="9" fill="#00ff00" stroke="black" stroke-width="1" data-i="1" data-j="1"/>
<circle cx="50" cy="70" r="9" fill="#ff0000" stroke="black" stroke-width="1" data-i="1" data-j="1"/>
<circle cx="70" cy="70" r="9" fill="#ff0000" stroke="black" stroke-width="1" data-i="1" data-j="1"/>
<circle cx="90" cy="50" r="9" fill="#00ff00" stroke="black" stroke-width="1" data-i="1" data-j="2"/>
<circle cx="110" cy="50" r="9" fill="#0000ff" stroke="black" stroke-width="1" data-i="1" data-j="2"/>
<circle cx="90" cy="70" r="9" fill="#0000ff" stroke="black" stroke-width="1" data-i="1" data-j="2"/>
<circle cx="110" cy="70" r="9" fill="#ff0000" stroke="black" stroke-width="1" data-i="1" data-j="2"/>
<circle cx="10" cy="90" r="9" fill="#00ff00" stroke="black" stroke-width="1" data-i="2" data-j="0"/>
<circle cx="30" cy="90" r="9" fill="#0000ff" stroke="black" stroke-width="1" data-i="2" data-j="0"/>
<circle cx="10" cy="110" r="9" fill="#0000ff" stroke="black" stroke-width="1" data-i="2" data-j="0"/>
<circle cx="30" cy="110" r="9" fill="#00ff00" stroke="black" stroke-width="1" data-i="2" data-j="0"/>
<circle cx="50" cy="90" r="9" fill="#ff0000" stroke="black" stroke-width="1" data-i="2" data-j="1"/>
<circle cx="70" cy="90" r="9" fill="#00ff00" stroke="black" stroke-width="1" data-i="2" data-j="1"/>
<circle cx="50" cy="110" r="9" fill="#0000ff" stroke="black" stroke-width="1" data-i="2" data-j="1"/>
<circle cx="70" cy="110" r="9" fill="#00ff00" stroke="black" stroke-width="1" data-i="2" data-j="1"/>
<circle cx="90" cy="90" r="9" fill="#000000" stroke="black" stroke-width="1" data-i="2" data-j="2"/>
<circle cx="110" cy="90" r="9" fill="#000000" stroke="black" stroke-width="1" data-i="2" data-j="2"/>
<circle cx="90" cy="110" r="9" fill="#000000" stroke="black" stroke-width="1" data-i="2" data-j="2"/>
<circle cx="110" cy="110" r="9" fill="#000000" stroke="black" stroke-width="1" data-i="2" data-j="2"/>
</svg>