<svg width="260" height="260" xmlns="http://www.w3.org/2000/svg">
<metadata>
	<dimension_matrice_cellule>6</dimension_matrice_cellule>
	<protocole>2</protocole>
</metadata>
<polygon points="7,0 1,21 21,18" fill="#000000" stroke="black" stroke-width="1" data-i="0" data-j="0"/>
<path d="M7,0 1,21 21,18 Z" fill="#000000" stroke="black" stroke-width="1" data-i="0" data-j="0"/>
<polygon points="18,20 40,18 30,1" fill="#000000" stroke="black" stroke-width="1" data-i="0" data-j="0"/>
<path d="M18,20 40,18 30,1 Z" fill="#000000" stroke="black" stroke-width="1" data-i="0" data-j="0"/>
<polygon points="-3,32 15,43 17,23" fill="#000000" stroke="black" stroke-width="1" data-i="0" data-j="0"/>
<path d="M-3,32 15,43 17,23 Z" fill="#000000" stroke="black" stroke-width="1" data-i="0" data-j="0"/>
<polygon points="24,21 23,43 41,35" fill="#000000" stroke="black" stroke-width="1" data-i="0" data-j="0"/>
<path d="M24,21 23,43 41,35 Z" fill="#000000" stroke="black" stroke-width="1" data-i="0" data-j="0"/>
<polygon points="60,4 38,10 51,25" fill="#ff0000" stroke="black" stroke-width="1" data-i="0" data-j="1"/>
<path d="M60,4 38,10 51,25 Z" fill="#ff0000" stroke="black" stroke-width="1" data-i="0" data-j="1"/>
<polygon points="83,15 64,2 62,22" fill="#ff0000" stroke="black" stroke-width="1" data-i="0" data-j="1"/>
<path d="M83,15 64,2 62,22 Z" fill="#ff0000" stroke="black" stroke-width="1" data-i="0" data-j="1"/>
<polygon points="36,30 54,44 58,24" fill="#ff0000" stroke="black" stroke-width="1" data-i="0" data-j="1"/>
<path d="M36,30 54,44 58,24 Z" fill="#ff0000" stroke="black" stroke-width="1" data-i="0" data-j="1"/>
<polygon points="62,22 65,44 82,32" fill="#0000ff" stroke="black" stroke-width="1" data-i="0" data-j="1"/>
<path d="M62,22 65,44 82,32 Z" fill="#0000ff" stroke="black" stroke-width="1" data-i="0" data-j="1"/>
<polygon points="97,2 77,13 94,24" fill="#ff0000" stroke="black" stroke-width="1" data-i="0" data-j="2"/>
<path d="M97,2 77,13 94,24 Z" fill="#ff0000" stroke="black" stroke-width="1" data-i="0" data-j="2"/>
<polygon points="100,22 121,15 107,1" fill="#ff0000" stroke="black" stroke-width="1" data-i="0" data-j="2"/>
<path d="M100,22 121,15 107,1 Z" fill="#ff0000" stroke="black" stroke-width="1" data-i="0" data-j="2"/>
<polygon points="81,43 101,34 86,21" fill="#ff0000" stroke="black" stroke-width="1" data-i="0" data-j="2"/>
<path d="M81,43 101,34 86,21 Z" fill="#ff0000" stroke="black" stroke-width="1" data-i="0" data-j="2"/>
<polygon points="96,31 115,43 117,24" fill="#00ff00" stroke="black" stroke-width="1" data-i="0" data-j="2"/>
<path d="M96,31 115,43 117,24 Z" fill="#00ff00" stroke="black" stroke-width="1" data-i="0" data-j="2"/>
<polygon points="117,9 133,24 139,5" fill="#0000ff" stroke="black" stroke-width="1" data-i="0" data-j="3"/>
<path d="M117,9 133,24 139,5 Z" fill="#0000ff" stroke="black" stroke-width="1" data-i="0" data-j="3"/>
<polygon points="142,2 145,24 162,13" fill="#ffff00" stroke="black" stroke-width="1" data-i="0" data-j="3"/>
<path d="M142,2 145,24 162,13 Z" fill="#ffff00" stroke="black" stroke-width="1" data-i="0" data-j="3"/>
<polygon points="127,20 121,41 140,38" fill="#0000ff" stroke="black" stroke-width="1" data-i="0" data-j="3"/>
<path d="M127,20 121,41 140,38 Z" fill="#0000ff" stroke="black" stroke-width="1" data-i="0" data-j="3"/>
<polygon points="162,30 141,25 145,44" fill="#ff0000" stroke="black" stroke-width="1" data-i="0" data-j="3"/>
<path d="M162,30 141,25 145,44 Z" fill="#ff0000" stroke="black" stroke-width="1" data-i="0" data-j="3"/>
<polygon points="164,25 181,11 163,3" fill="#00ff00" stroke="black" stroke-width="1" data-i="0" data-j="4"/>
<path d="M164,25 181,11 163,3 Z" fill="#00ff00" stroke="black" stroke-width="1" data-i="0" data-j="4"/>
<polygon points="199,22 192,1 178,15" fill="#ff0000" stroke="black" stroke-width="1" data-i="0" data-j="4"/>
<path d="M199,22 192,1 178,15 Z" fill="#ff0000" stroke="black" stroke-width="1" data-i="0" data-j="4"/>
<polygon points="167,20 161,41 181,38" fill="#ff0000" stroke="black" stroke-width="1" data-i="0" data-j="4"/>
<path d="M167,20 161,41 181,38 Z" fill="#ff0000" stroke="black" stroke-width="1" data-i="0" data-j="4"/>
<polygon points="179,25 189,45 201,28" fill="#0000ff" stroke="black" stroke-width="1" data-i="0" data-j="4"/>
<path d="M179,25 189,45 201,28 Z" fill="#0000ff" stroke="black" stroke-width="1" data-i="0" data-j="4"/>
<polygon points="217,24 214,2 197,13" fill="#000000" stroke="black" stroke-width="1" data-i="0" data-j="5"/>
<path d="M217,24 214,2 197,13 Z" fill="#000000" stroke="black" stroke-width="1" data-i="0" data-j="5"/>
<polygon points="221,23 241,14 226,1" fill="#000000" stroke="black" stroke-width="1" data-i="0" data-j="5"/>
<path d="M221,23 241,14 226,1 Z" fill="#000000" stroke="black" stroke-width="1" data-i="0" data-j="5"/>
<polygon points="221,25 198,28 210,45" fill="#000000" stroke="black" stroke-width="1" data-i="0" data-j="5"/>
<path d="M221,25 198,28 210,45 Z" fill="#000000" stroke="black" stroke-width="1" data-i="0" data-j="5"/>
<polygon points="226,20 222,42 241,36" fill="#000000" stroke="black" stroke-width="1" data-i="0" data-j="5"/>
<path d="M226,20 222,42 241,36 Z" fill="#000000" stroke="black" stroke-width="1" data-i="0" data-j="5"/>
<polygon points="-2,58 20,59 12,41" fill="#00ff00" stroke="black" stroke-width="1" data-i="1" data-j="0"/>
<path d="M-2,58 20,59 12,41 Z" fill="#00ff00" stroke="black" stroke-width="1" data-i="1" data-j="0"/>
<polygon points="42,50 21,45 25,64" fill="#0000ff" stroke="black" stroke-width="1" data-i="1" data-j="0"/>
<path d="M42,50 21,45 25,64 Z" fill="#0000ff" stroke="black" stroke-width="1" data-i="1" data-j="0"/>
<polygon points="18,62 -1,72 13,84" fill="#ffff00" stroke="black" stroke-width="1" data-i="1" data-j="0"/>
<path d="M18,62 -1,72 13,84 Z" fill="#ffff00" stroke="black" stroke-width="1" data-i="1" data-j="0"/>
<polygon points="43,74 24,62 22,82" fill="#0000ff" stroke="black" stroke-width="1" data-i="1" data-j="0"/>
<path d="M43,74 24,62 22,82 Z" fill="#0000ff" stroke="black" stroke-width="1" data-i="1" data-j="0"/>
<polygon points="58,42 38,52 53,64" fill="#00ff00" stroke="black" stroke-width="1" data-i="1" data-j="1"/>
<path d="M58,42 38,52 53,64 Z" fill="#00ff00" stroke="black" stroke-width="1" data-i="1" data-j="1"/>
<polygon points="56,52 75,63 77,43" fill="#0000ff" stroke="black" stroke-width="1" data-i="1" data-j="1"/>
<path d="M56,52 75,63 77,43 Z" fill="#0000ff" stroke="black" stroke-width="1" data-i="1" data-j="1"/>
<polygon points="51,60 39,79 59,80" fill="#ffff00" stroke="black" stroke-width="1" data-i="1" data-j="1"/>
<path d="M51,60 39,79 59,80 Z" fill="#ffff00" stroke="black" stroke-width="1" data-i="1" data-j="1"/>
<polygon points="70,86 79,66 59,66" fill="#ffff00" stroke="black" stroke-width="1" data-i="1" data-j="1"/>
<path d="M70,86 79,66 59,66 Z" fill="#ffff00" stroke="black" stroke-width="1" data-i="1" data-j="1"/>
<polygon points="103,55 85,42 81,61" fill="#00ff00" stroke="black" stroke-width="1" data-i="1" data-j="2"/>
<path d="M103,55 85,42 81,61 Z" fill="#00ff00" stroke="black" stroke-width="1" data-i="1" data-j="2"/>
<polygon points="109,66 120,46 100,46" fill="#ffff00" stroke="black" stroke-width="1" data-i="1" data-j="2"/>
<path d="M109,66 120,46 100,46 Z" fill="#ffff00" stroke="black" stroke-width="1" data-i="1" data-j="2"/>
<polygon points="76,73 96,83 96,63" fill="#ff0000" stroke="black" stroke-width="1" data-i="1" data-j="2"/>
<path d="M76,73 96,83 96,63 Z" fill="#ff0000" stroke="black" stroke-width="1" data-i="1" data-j="2"/>
<polygon points="100,64 108,85 121,70" fill="#0000ff" stroke="black" stroke-width="1" data-i="1" data-j="2"/>
<path d="M100,64 108,85 121,70 Z" fill="#0000ff" stroke="black" stroke-width="1" data-i="1" data-j="2"/>
<polygon points="119,61 141,57 129,41" fill="#ff0000" stroke="black" stroke-width="1" data-i="1" data-j="3"/>
<path d="M119,61 141,57 129,41 Z" fill="#ff0000" stroke="black" stroke-width="1" data-i="1" data-j="3"/>
<polygon points="136,53 156,63 156,43" fill="#0000ff" stroke="black" stroke-width="1" data-i="1" data-j="3"/>
<path d="M136,53 156,63 156,43 Z" fill="#0000ff" stroke="black" stroke-width="1" data-i="1" data-j="3"/>
<polygon points="135,85 136,63 118,71" fill="#ff0000" stroke="black" stroke-width="1" data-i="1" data-j="3"/>
<path d="M135,85 136,63 118,71 Z" fill="#ff0000" stroke="black" stroke-width="1" data-i="1" data-j="3"/>
<polygon points="156,85 155,62 138,71" fill="#ff0000" stroke="black" stroke-width="1" data-i="1" data-j="3"/>
<path d="M156,85 155,62 138,71 Z" fill="#ff0000" stroke="black" stroke-width="1" data-i="1" data-j="3"/>
<polygon points="160,44 168,65 181,50" fill="#00ff00" stroke="black" stroke-width="1" data-i="1" data-j="4"/>
<path d="M160,44 168,65 181,50 Z" fill="#00ff00" stroke="black" stroke-width="1" data-i="1" data-j="4"/>
<polygon points="202,58 187,41 179,59" fill="#0000ff" stroke="black" stroke-width="1" data-i="1" data-j="4"/>
<path d="M202,58 187,41 179,59 Z" fill="#0000ff" stroke="black" stroke-width="1" data-i="1" data-j="4"/>
<polygon points="157,70 174,84 178,65" fill="#ffff00" stroke="black" stroke-width="1" data-i="1" data-j="4"/>
<path d="M157,70 174,84 178,65 Z" fill="#ffff00" stroke="black" stroke-width="1" data-i="1" data-j="4"/>
<polygon points="181,63 187,84 201,71" fill="#ffff00" stroke="black" stroke-width="1" data-i="1" data-j="4"/>
<path d="M181,63 187,84 201,71 Z" fill="#ffff00" stroke="black" stroke-width="1" data-i="1" data-j="4"/>
<polygon points="206,40 201,62 221,57" fill="#00ff00" stroke="black" stroke-width="1" data-i="1" data-j="5"/>
<path d="M206,40 201,62 221,57 Z" fill="#00ff00" stroke="black" stroke-width="1" data-i="1" data-j="5"/>
<polygon points="222,42 225,64 242,53" fill="#0000ff" stroke="black" stroke-width="1" data-i="1" data-j="5"/>
<path d="M222,42 225,64 242,53 Z" fill="#0000ff" stroke="black" stroke-width="1" data-i="1" data-j="5"/>
<polygon points="223,74 204,62 202,82" fill="#ffff00" stroke="black" stroke-width="1" data-i="1" data-j="5"/>
<path d="M223,74 204,62 202,82 Z" fill="#ffff00" stroke="black" stroke-width="1" data-i="1" data-j="5"/>
<polygon points="239,82 232,61 218,75" fill="#00ff00" stroke="black" stroke-width="1" data-i="1" data-j="5"/>
<path d="M239,82 232,61 218,75 Z" fill="#00ff00" stroke="black" stroke-width="1" data-i="1" data-j="5"/>
<polygon points="0,102 21,95 7,81" fill="#00ff00" stroke="black" stroke-width="1" data-i="2" data-j="0"/>
<path d="M0,102 21,95 7,81 Z" fill="#00ff00" stroke="black" stroke-width="1" data-i="2" data-j="0"/>
<polygon points="32,106 38,84 18,88" fill="#0000ff" stroke="black" stroke-width="1" data-i="2" data-j="0"/>
<path d="M32,106 38,84 18,88 Z" fill="#0000ff" stroke="black" stroke-width="1" data-i="2" data-j="0"/>
<polygon points="0,122 21,115 7,101" fill="#ffff00" stroke="black" stroke-width="1" data-i="2" data-j="0"/>
<path d="M0,122 21,115 7,101 Z" fill="#ffff00" stroke="black" stroke-width="1" data-i="2" data-j="0"/>
<polygon points="43,114 24,102 22,122" fill="#0000ff" stroke="black" stroke-width="1" data-i="2" data-j="0"/>
<path d="M43,114 24,102 22,122 Z" fill="#0000ff" stroke="black" stroke-width="1" data-i="2" data-j="0"/>
<polygon points="50,80 39,99 59,100" fill="#ff0000" stroke="black" stroke-width="1" data-i="2" data-j="1"/>
<path d="M50,80 39,99 59,100 Z" fill="#ff0000" stroke="black" stroke-width="1" data-i="2" data-j="1"/>
<polygon points="61,103 81,94 66,81" fill="#0000ff" stroke="black" stroke-width="1" data-i="2" data-j="1"/>
<path d="M61,103 81,94 66,81 Z" fill="#0000ff" stroke="black" stroke-width="1" data-i="2" data-j="1"/>
<polygon points="44,101 43,123 61,114" fill="#ff0000" stroke="black" stroke-width="1" data-i="2" data-j="1"/>
<path d="M44,101 43,123 61,114 Z" fill="#ff0000" stroke="black" stroke-width="1" data-i="2" data-j="1"/>
<polygon points="82,118 67,101 60,120" fill="#ff0000" stroke="black" stroke-width="1" data-i="2" data-j="1"/>
<path d="M82,118 67,101 60,120 Z" fill="#ff0000" stroke="black" stroke-width="1" data-i="2" data-j="1"/>
<polygon points="97,82 77,92 94,104" fill="#00ff00" stroke="black" stroke-width="1" data-i="2" data-j="2"/>
<path d="M97,82 77,92 94,104 Z" fill="#00ff00" stroke="black" stroke-width="1" data-i="2" data-j="2"/>
<polygon points="96,93 117,103 116,83" fill="#0000ff" stroke="black" stroke-width="1" data-i="2" data-j="2"/>
<path d="M96,93 117,103 116,83 Z" fill="#0000ff" stroke="black" stroke-width="1" data-i="2" data-j="2"/>
<polygon points="87,126 101,108 81,104" fill="#ff0000" stroke="black" stroke-width="1" data-i="2" data-j="2"/>
<path d="M87,126 101,108 81,104 Z" fill="#ff0000" stroke="black" stroke-width="1" data-i="2" data-j="2"/>
<polygon points="116,124 115,102 98,112" fill="#00ff00" stroke="black" stroke-width="1" data-i="2" data-j="2"/>
<path d="M116,124 115,102 98,112 Z" fill="#00ff00" stroke="black" stroke-width="1" data-i="2" data-j="2"/>
<polygon points="141,99 128,81 119,99" fill="#00ff00" stroke="black" stroke-width="1" data-i="2" data-j="3"/>
<path d="M141,99 128,81 119,99 Z" fill="#00ff00" stroke="black" stroke-width="1" data-i="2" data-j="3"/>
<polygon points="137,96 159,101 153,81" fill="#ffff00" stroke="black" stroke-width="1" data-i="2" data-j="3"/>
<path d="M137,96 159,101 153,81 Z" fill="#ffff00" stroke="black" stroke-width="1" data-i="2" data-j="3"/>
<polygon points="138,123 133,101 118,114" fill="#00ff00" stroke="black" stroke-width="1" data-i="2" data-j="3"/>
<path d="M138,123 133,101 118,114 Z" fill="#00ff00" stroke="black" stroke-width="1" data-i="2" data-j="3"/>
<polygon points="136,113 156,123 156,103" fill="#0000ff" stroke="black" stroke-width="1" data-i="2" data-j="3"/>
<path d="M136,113 156,123 156,103 Z" fill="#0000ff" stroke="black" stroke-width="1" data-i="2" data-j="3"/>
<polygon points="171,106 179,85 159,87" fill="#ff0000" stroke="black" stroke-width="1" data-i="2" data-j="4"/>
<path d="M171,106 179,85 159,87 Z" fill="#ff0000" stroke="black" stroke-width="1" data-i="2" data-j="4"/>
<polygon points="192,106 198,85 178,88" fill="#ffff00" stroke="black" stroke-width="1" data-i="2" data-j="4"/>
<path d="M192,106 198,85 178,88 Z" fill="#ffff00" stroke="black" stroke-width="1" data-i="2" data-j="4"/>
<polygon points="170,100 160,120 180,120" fill="#ffff00" stroke="black" stroke-width="1" data-i="2" data-j="4"/>
<path d="M170,100 160,120 180,120 Z" fill="#ffff00" stroke="black" stroke-width="1" data-i="2" data-j="4"/>
<polygon points="176,116 198,121 194,102" fill="#ffff00" stroke="black" stroke-width="1" data-i="2" data-j="4"/>
<path d="M176,116 198,121 194,102 Z" fill="#ffff00" stroke="black" stroke-width="1" data-i="2" data-j="4"/>
<polygon points="200,102 221,95 207,81" fill="#00ff00" stroke="black" stroke-width="1" data-i="2" data-j="5"/>
<path d="M200,102 221,95 207,81 Z" fill="#00ff00" stroke="black" stroke-width="1" data-i="2" data-j="5"/>
<polygon points="233,80 218,96 237,102" fill="#0000ff" stroke="black" stroke-width="1" data-i="2" data-j="5"/>
<path d="M233,80 218,96 237,102 Z" fill="#0000ff" stroke="black" stroke-width="1" data-i="2" data-j="5"/>
<polygon points="196,116 218,121 214,102" fill="#ffff00" stroke="black" stroke-width="1" data-i="2" data-j="5"/>
<path d="M196,116 218,121 214,102 Z" fill="#ffff00" stroke="black" stroke-width="1" data-i="2" data-j="5"/>
<polygon points="233,100 218,116 237,122" fill="#ffff00" stroke="black" stroke-width="1" data-i="2" data-j="5"/>
<path d="M233,100 218,116 237,122 Z" fill="#ffff00" stroke="black" stroke-width="1" data-i="2" data-j="5"/>
<polygon points="1,143 21,134 6,121" fill="#00ff00" stroke="black" stroke-width="1" data-i="3" data-j="0"/>
<path d="M1,143 21,134 6,121 Z" fill="#00ff00" stroke="black" stroke-width="1" data-i="3" data-j="0"/>
<polygon points="32,146 38,124 18,129" fill="#0000ff" stroke="black" stroke-width="1" data-i="3" data-j="0"/>
<path d="M32,146 38,124 18,129 Z" fill="#0000ff" stroke="black" stroke-width="1" data-i="3" data-j="0"/>
<polygon points="-2,149 13,164 19,145" fill="#0000ff" stroke="black" stroke-width="1" data-i="3" data-j="0"/>
<path d="M-2,149 13,164 19,145 Z" fill="#0000ff" stroke="black" stroke-width="1" data-i="3" data-j="0"/>
<polygon points="21,142 26,164 41,152" fill="#0000ff" stroke="black" stroke-width="1" data-i="3" data-j="0"/>
<path d="M21,142 26,164 41,152 Z" fill="#0000ff" stroke="black" stroke-width="1" data-i="3" data-j="0"/>
<polygon points="62,138 47,121 39,139" fill="#00ff00" stroke="black" stroke-width="1" data-i="3" data-j="1"/>
<path d="M62,138 47,121 39,139 Z" fill="#00ff00" stroke="black" stroke-width="1" data-i="3" data-j="1"/>
<polygon points="65,145 81,130 63,123" fill="#ffff00" stroke="black" stroke-width="1" data-i="3" data-j="1"/>
<path d="M65,145 81,130 63,123 Z" fill="#ffff00" stroke="black" stroke-width="1" data-i="3" data-j="1"/>
<polygon points="36,151 55,163 57,144" fill="#00ff00" stroke="black" stroke-width="1" data-i="3" data-j="1"/>
<path d="M36,151 55,163 57,144 Z" fill="#00ff00" stroke="black" stroke-width="1" data-i="3" data-j="1"/>
<polygon points="67,166 80,148 61,145" fill="#00ff00" stroke="black" stroke-width="1" data-i="3" data-j="1"/>
<path d="M67,166 80,148 61,145 Z" fill="#00ff00" stroke="black" stroke-width="1" data-i="3" data-j="1"/>
<polygon points="96,121 78,134 95,143" fill="#ff0000" stroke="black" stroke-width="1" data-i="3" data-j="2"/>
<path d="M96,121 78,134 95,143 Z" fill="#ff0000" stroke="black" stroke-width="1" data-i="3" data-j="2"/>
<polygon points="101,123 107,144 121,131" fill="#0000ff" stroke="black" stroke-width="1" data-i="3" data-j="2"/>
<path d="M101,123 107,144 121,131 Z" fill="#0000ff" stroke="black" stroke-width="1" data-i="3" data-j="2"/>
<polygon points="77,156 98,161 94,142" fill="#ffff00" stroke="black" stroke-width="1" data-i="3" data-j="2"/>
<path d="M77,156 98,161 94,142 Z" fill="#ffff00" stroke="black" stroke-width="1" data-i="3" data-j="2"/>
<polygon points="118,163 113,141 98,154" fill="#ff0000" stroke="black" stroke-width="1" data-i="3" data-j="2"/>
<path d="M118,163 113,141 98,154 Z" fill="#ff0000" stroke="black" stroke-width="1" data-i="3" data-j="2"/>
<polygon points="141,126 119,128 129,145" fill="#00ff00" stroke="black" stroke-width="1" data-i="3" data-j="3"/>
<path d="M141,126 119,128 129,145 Z" fill="#00ff00" stroke="black" stroke-width="1" data-i="3" data-j="3"/>
<polygon points="163,134 144,122 142,142" fill="#0000ff" stroke="black" stroke-width="1" data-i="3" data-j="3"/>
<path d="M163,134 144,122 142,142 Z" fill="#0000ff" stroke="black" stroke-width="1" data-i="3" data-j="3"/>
<polygon points="140,144 118,149 131,165" fill="#ff0000" stroke="black" stroke-width="1" data-i="3" data-j="3"/>
<path d="M140,144 118,149 131,165 Z" fill="#ff0000" stroke="black" stroke-width="1" data-i="3" data-j="3"/>
<polygon points="154,165 157,143 138,150" fill="#ffff00" stroke="black" stroke-width="1" data-i="3" data-j="3"/>
<path d="M154,165 157,143 138,150 Z" fill="#ffff00" stroke="black" stroke-width="1" data-i="3" data-j="3"/>
<polygon points="183,132 162,123 164,143" fill="#00ff00" stroke="black" stroke-width="1" data-i="3" data-j="4"/>
<path d="M183,132 162,123 164,143 Z" fill="#00ff00" stroke="black" stroke-width="1" data-i="3" data-j="4"/>
<polygon points="177,129 193,144 199,125" fill="#0000ff" stroke="black" stroke-width="1" data-i="3" data-j="4"/>
<path d="M177,129 193,144 199,125 Z" fill="#0000ff" stroke="black" stroke-width="1" data-i="3" data-j="4"/>
<polygon points="177,142 157,153 174,164" fill="#ffff00" stroke="black" stroke-width="1" data-i="3" data-j="4"/>
<path d="M177,142 157,153 174,164 Z" fill="#ffff00" stroke="black" stroke-width="1" data-i="3" data-j="4"/>
<polygon points="191,140 179,159 199,160" fill="#00ff00" stroke="black" stroke-width="1" data-i="3" data-j="4"/>
<path d="M191,140 179,159 199,160 Z" fill="#00ff00" stroke="black" stroke-width="1" data-i="3" data-j="4"/>
<polygon points="199,124 208,145 221,130" fill="#00ff00" stroke="black" stroke-width="1" data-i="3" data-j="5"/>
<path d="M199,124 208,145 221,130 Z" fill="#00ff00" stroke="black" stroke-width="1" data-i="3" data-j="5"/>
<polygon points="226,120 222,142 241,136" fill="#0000ff" stroke="black" stroke-width="1" data-i="3" data-j="5"/>
<path d="M226,120 222,142 241,136 Z" fill="#0000ff" stroke="black" stroke-width="1" data-i="3" data-j="5"/>
<polygon points="197,156 218,161 214,142" fill="#00ff00" stroke="black" stroke-width="1" data-i="3" data-j="5"/>
<path d="M197,156 218,161 214,142 Z" fill="#00ff00" stroke="black" stroke-width="1" data-i="3" data-j="5"/>
<polygon points="219,161 241,156 228,141" fill="#00ff00" stroke="black" stroke-width="1" data-i="3" data-j="5"/>
<path d="M219,161 241,156 228,141 Z" fill="#00ff00" stroke="black" stroke-width="1" data-i="3" data-j="5"/>
<polygon points="15,185 16,162 -1,171" fill="#00ff00" stroke="black" stroke-width="1" data-i="4" data-j="0"/>
<path d="M15,185 16,162 -1,171 Z" fill="#00ff00" stroke="black" stroke-width="1" data-i="4" data-j="0"/>
<polygon points="29,160 20,180 40,179" fill="#ffff00" stroke="black" stroke-width="1" data-i="4" data-j="0"/>
<path d="M29,160 20,180 40,179 Z" fill="#ffff00" stroke="black" stroke-width="1" data-i="4" data-j="0"/>
<polygon points="22,188 0,186 7,205" fill="#00ff00" stroke="black" stroke-width="1" data-i="4" data-j="0"/>
<path d="M22,188 0,186 7,205 Z" fill="#00ff00" stroke="black" stroke-width="1" data-i="4" data-j="0"/>
<polygon points="27,206 41,188 21,184" fill="#ff0000" stroke="black" stroke-width="1" data-i="4" data-j="0"/>
<path d="M27,206 41,188 21,184 Z" fill="#ff0000" stroke="black" stroke-width="1" data-i="4" data-j="0"/>
<polygon points="36,172 55,183 57,163" fill="#00ff00" stroke="black" stroke-width="1" data-i="4" data-j="1"/>
<path d="M36,172 55,183 57,163 Z" fill="#00ff00" stroke="black" stroke-width="1" data-i="4" data-j="1"/>
<polygon points="56,171 75,184 77,164" fill="#0000ff" stroke="black" stroke-width="1" data-i="4" data-j="1"/>
<path d="M56,171 75,184 77,164 Z" fill="#0000ff" stroke="black" stroke-width="1" data-i="4" data-j="1"/>
<polygon points="61,187 39,187 48,205" fill="#ff0000" stroke="black" stroke-width="1" data-i="4" data-j="1"/>
<path d="M61,187 39,187 48,205 Z" fill="#ff0000" stroke="black" stroke-width="1" data-i="4" data-j="1"/>
<polygon points="82,188 59,186 67,205" fill="#ffff00" stroke="black" stroke-width="1" data-i="4" data-j="1"/>
<path d="M82,188 59,186 67,205 Z" fill="#ffff00" stroke="black" stroke-width="1" data-i="4" data-j="1"/>
<polygon points="82,184 102,173 85,162" fill="#ff0000" stroke="black" stroke-width="1" data-i="4" data-j="2"/>
<path d="M82,184 102,173 85,162 Z" fill="#ff0000" stroke="black" stroke-width="1" data-i="4" data-j="2"/>
<polygon points="119,163 98,170 112,185" fill="#0000ff" stroke="black" stroke-width="1" data-i="4" data-j="2"/>
<path d="M119,163 98,170 112,185 Z" fill="#0000ff" stroke="black" stroke-width="1" data-i="4" data-j="2"/>
<polygon points="99,183 78,191 92,205" fill="#ff0000" stroke="black" stroke-width="1" data-i="4" data-j="2"/>
<path d="M99,183 78,191 92,205 Z" fill="#ff0000" stroke="black" stroke-width="1" data-i="4" data-j="2"/>
<polygon points="96,190 114,204 118,184" fill="#ff0000" stroke="black" stroke-width="1" data-i="4" data-j="2"/>
<path d="M96,190 114,204 118,184 Z" fill="#ff0000" stroke="black" stroke-width="1" data-i="4" data-j="2"/>
<polygon points="136,161 117,173 135,184" fill="#00ff00" stroke="black" stroke-width="1" data-i="4" data-j="3"/>
<path d="M136,161 117,173 135,184 Z" fill="#00ff00" stroke="black" stroke-width="1" data-i="4" data-j="3"/>
<polygon points="149,186 160,167 140,166" fill="#0000ff" stroke="black" stroke-width="1" data-i="4" data-j="3"/>
<path d="M149,186 160,167 140,166 Z" fill="#0000ff" stroke="black" stroke-width="1" data-i="4" data-j="3"/>
<polygon points="116,191 135,204 137,184" fill="#ff0000" stroke="black" stroke-width="1" data-i="4" data-j="3"/>
<path d="M116,191 135,204 137,184 Z" fill="#ff0000" stroke="black" stroke-width="1" data-i="4" data-j="3"/>
<polygon points="161,185 138,188 150,205" fill="#00ff00" stroke="black" stroke-width="1" data-i="4" data-j="3"/>
<path d="M161,185 138,188 150,205 Z" fill="#00ff00" stroke="black" stroke-width="1" data-i="4" data-j="3"/>
<polygon points="163,185 181,172 164,162" fill="#0000ff" stroke="black" stroke-width="1" data-i="4" data-j="4"/>
<path d="M163,185 181,172 164,162 Z" fill="#0000ff" stroke="black" stroke-width="1" data-i="4" data-j="4"/>
<polygon points="186,186 201,169 181,164" fill="#00ff00" stroke="black" stroke-width="1" data-i="4" data-j="4"/>
<path d="M186,186 201,169 181,164 Z" fill="#00ff00" stroke="black" stroke-width="1" data-i="4" data-j="4"/>
<polygon points="177,204 174,182 157,193" fill="#00ff00" stroke="black" stroke-width="1" data-i="4" data-j="4"/>
<path d="M177,204 174,182 157,193 Z" fill="#00ff00" stroke="black" stroke-width="1" data-i="4" data-j="4"/>
<polygon points="200,185 178,189 190,205" fill="#ff0000" stroke="black" stroke-width="1" data-i="4" data-j="4"/>
<path d="M200,185 178,189 190,205 Z" fill="#ff0000" stroke="black" stroke-width="1" data-i="4" data-j="4"/>
<polygon points="197,168 212,185 219,166" fill="#ff0000" stroke="black" stroke-width="1" data-i="4" data-j="5"/>
<path d="M197,168 212,185 219,166 Z" fill="#ff0000" stroke="black" stroke-width="1" data-i="4" data-j="5"/>
<polygon points="239,164 218,170 231,185" fill="#ff0000" stroke="black" stroke-width="1" data-i="4" data-j="5"/>
<path d="M239,164 218,170 231,185 Z" fill="#ff0000" stroke="black" stroke-width="1" data-i="4" data-j="5"/>
<polygon points="220,202 211,181 198,196" fill="#ff0000" stroke="black" stroke-width="1" data-i="4" data-j="5"/>
<path d="M220,202 211,181 198,196 Z" fill="#ff0000" stroke="black" stroke-width="1" data-i="4" data-j="5"/>
<polygon points="228,180 220,201 240,198" fill="#ff0000" stroke="black" stroke-width="1" data-i="4" data-j="5"/>
<path d="M228,180 220,201 240,198 Z" fill="#ff0000" stroke="black" stroke-width="1" data-i="4" data-j="5"/>
<polygon points="9,200 0,220 20,219" fill="#ff0000" stroke="black" stroke-width="1" data-i="5" data-j="0"/>
<path d="M9,200 0,220 20,219 Z" fill="#ff0000" stroke="black" stroke-width="1" data-i="5" data-j="0"/>
<polygon points="38,223 33,201 18,214" fill="#ff0000" stroke="black" stroke-width="1" data-i="5" data-j="0"/>
<path d="M38,223 33,201 18,214 Z" fill="#ff0000" stroke="black" stroke-width="1" data-i="5" data-j="0"/>
<polygon points="15,221 -1,235 16,243" fill="#ff0000" stroke="black" stroke-width="1" data-i="5" data-j="0"/>
<path d="M15,221 -1,235 16,243 Z" fill="#ff0000" stroke="black" stroke-width="1" data-i="5" data-j="0"/>
<polygon points="18,226 30,245 40,227" fill="#ff0000" stroke="black" stroke-width="1" data-i="5" data-j="0"/>
<path d="M18,226 30,245 40,227 Z" fill="#ff0000" stroke="black" stroke-width="1" data-i="5" data-j="0"/>
<polygon points="53,200 38,217 57,222" fill="#ff0000" stroke="black" stroke-width="1" data-i="5" data-j="1"/>
<path d="M53,200 38,217 57,222 Z" fill="#ff0000" stroke="black" stroke-width="1" data-i="5" data-j="1"/>
<polygon points="82,207 59,206 67,225" fill="#ff0000" stroke="black" stroke-width="1" data-i="5" data-j="1"/>
<path d="M82,207 59,206 67,225 Z" fill="#ff0000" stroke="black" stroke-width="1" data-i="5" data-j="1"/>
<polygon points="39,241 61,236 48,221" fill="#ff0000" stroke="black" stroke-width="1" data-i="5" data-j="1"/>
<path d="M39,241 61,236 48,221 Z" fill="#ff0000" stroke="black" stroke-width="1" data-i="5" data-j="1"/>
<polygon points="66,246 81,229 61,224" fill="#ff0000" stroke="black" stroke-width="1" data-i="5" data-j="1"/>
<path d="M66,246 81,229 61,224 Z" fill="#ff0000" stroke="black" stroke-width="1" data-i="5" data-j="1"/>
<polygon points="77,218 100,219 92,201" fill="#ff0000" stroke="black" stroke-width="1" data-i="5" data-j="2"/>
<path d="M77,218 100,219 92,201 Z" fill="#ff0000" stroke="black" stroke-width="1" data-i="5" data-j="2"/>
<polygon points="96,210 114,224 118,204" fill="#ff0000" stroke="black" stroke-width="1" data-i="5" data-j="2"/>
<path d="M96,210 114,224 118,204 Z" fill="#ff0000" stroke="black" stroke-width="1" data-i="5" data-j="2"/>
<polygon points="97,222 77,233 94,244" fill="#ff0000" stroke="black" stroke-width="1" data-i="5" data-j="2"/>
<path d="M97,222 77,233 94,244 Z" fill="#ff0000" stroke="black" stroke-width="1" data-i="5" data-j="2"/>
<polygon points="108,246 120,227 100,225" fill="#ff0000" stroke="black" stroke-width="1" data-i="5" data-j="2"/>
<path d="M108,246 120,227 100,225 Z" fill="#ff0000" stroke="black" stroke-width="1" data-i="5" data-j="2"/>
<polygon points="117,218 140,219 131,201" fill="#ff0000" stroke="black" stroke-width="1" data-i="5" data-j="3"/>
<path d="M117,218 140,219 131,201 Z" fill="#ff0000" stroke="black" stroke-width="1" data-i="5" data-j="3"/>
<polygon points="154,225 156,203 138,210" fill="#ff0000" stroke="black" stroke-width="1" data-i="5" data-j="3"/>
<path d="M154,225 156,203 138,210 Z" fill="#ff0000" stroke="black" stroke-width="1" data-i="5" data-j="3"/>
<polygon points="142,227 119,227 128,245" fill="#ff0000" stroke="black" stroke-width="1" data-i="5" data-j="3"/>
<path d="M142,227 119,227 128,245 Z" fill="#ff0000" stroke="black" stroke-width="1" data-i="5" data-j="3"/>
<polygon points="144,245 161,231 143,222" fill="#ff0000" stroke="black" stroke-width="1" data-i="5" data-j="3"/>
<path d="M144,245 161,231 143,222 Z" fill="#ff0000" stroke="black" stroke-width="1" data-i="5" data-j="3"/>
<polygon points="159,221 181,216 168,201" fill="#ff0000" stroke="black" stroke-width="1" data-i="5" data-j="4"/>
<path d="M159,221 181,216 168,201 Z" fill="#ff0000" stroke="black" stroke-width="1" data-i="5" data-j="4"/>
<polygon points="180,203 187,225 201,211" fill="#ff0000" stroke="black" stroke-width="1" data-i="5" data-j="4"/>
<path d="M180,203 187,225 201,211 Z" fill="#ff0000" stroke="black" stroke-width="1" data-i="5" data-j="4"/>
<polygon points="170,220 159,239 179,240" fill="#ff0000" stroke="black" stroke-width="1" data-i="5" data-j="4"/>
<path d="M170,220 159,239 179,240 Z" fill="#ff0000" stroke="black" stroke-width="1" data-i="5" data-j="4"/>
<polygon points="187,246 201,228 181,224" fill="#ff0000" stroke="black" stroke-width="1" data-i="5" data-j="4"/>
<path d="M187,246 201,228 181,224 Z" fill="#ff0000" stroke="black" stroke-width="1" data-i="5" data-j="4"/>
<polygon points="209,226 220,207 200,206" fill="#000000" stroke="black" stroke-width="1" data-i="5" data-j="5"/>
<path d="M209,226 220,207 200,206 Z" fill="#000000" stroke="black" stroke-width="1" data-i="5" data-j="5"/>
<polygon points="228,200 220,221 240,218" fill="#000000" stroke="black" stroke-width="1" data-i="5" data-j="5"/>
<path d="M228,200 220,221 240,218 Z" fill="#000000" stroke="black" stroke-width="1" data-i="5" data-j="5"/>
<polygon points="223,234 204,222 202,242" fill="#000000" stroke="black" stroke-width="1" data-i="5" data-j="5"/>
<path d="M223,234 204,222 202,242 Z" fill="#000000" stroke="black" stroke-width="1" data-i="5" data-j="5"/>
<polygon points="234,245 237,223 218,230" fill="#000000" stroke="black" stroke-width="1" data-i="5" data-j="5"/>
<path d="M234,245 237,223 218,230 Z" fill="#000000" stroke="black" stroke-width="1" data-i="5" data-j="5"/>
</svg>