<svg width="180" height="180" xmlns="http://www.w3.org/2000/svg">
<metadata>
	<dimension_matrice_cellule>4</dimension_matrice_cellule>
	<protocole>2</protocole>
</metadata>
<polygon points="2,24 22,13 5,2" fill="#000000" stroke="black" stroke-width="1" data-i="0" data-j="0"/>
<path d="M2,24 22,13 5,2 Z" fill="#000000" stroke="black" stroke-width="1" data-i="0" data-j="0"/>
<polygon points="21,3 26,24 41,11" fill="#000000" stroke="black" stroke-width="1" data-i="0" data-j="0"/>
<path d="M21,3 26,24 41,11 Z" fill="#000000" stroke="black" stroke-width="1" data-i="0" data-j="0"/>
<polygon points="0,25 9,45 21,29" fill="#000000" stroke="black" stroke-width="1" data-i="0" data-j="0"/>
<path d="M0,25 9,45 21,29 Z" fill="#000000" stroke="black" stroke-width="1" data-i="0" data-j="0"/>
<polygon points="39,42 32,21 18,35" fill="#000000" stroke="black" stroke-width="1" data-i="0" data-j="0"/>
<path d="M39,42 32,21 18,35 Z" fill="#000000" stroke="black" stroke-width="1" data-i="0" data-j="0"/>
<polygon points="63,15 45,2 41,22" fill="#ff0000" stroke="black" stroke-width="1" data-i="0" data-j="1"/>
<path d="M63,15 45,2 41,22 Z" fill="#ff0000" stroke="black" stroke-width="1" data-i="0" data-j="1"/>
<polygon points="82,9 60,5 66,24" fill="#ff0000" stroke="black" stroke-width="1" data-i="0" data-j="1"/>
<path d="M82,9 60,5 66,24 Z" fill="#ff0000" stroke="black" stroke-width="1" data-i="0" data-j="1"/>
<polygon points="59,24 38,30 52,45" fill="#ff0000" stroke="black" stroke-width="1" data-i="0" data-j="1"/>
<path d="M59,24 38,30 52,45 Z" fill="#ff0000" stroke="black" stroke-width="1" data-i="0" data-j="1"/>
<polygon points="59,24 68,45 81,29" fill="#0000ff" stroke="black" stroke-width="1" data-i="0" data-j="1"/>
<path d="M59,24 68,45 81,29 Z" fill="#0000ff" stroke="black" stroke-width="1" data-i="0" data-j="1"/>
<polygon points="77,8 92,25 99,6" fill="#ff0000" stroke="black" stroke-width="1" data-i="0" data-j="2"/>
<path d="M77,8 92,25 99,6 Z" fill="#ff0000" stroke="black" stroke-width="1" data-i="0" data-j="2"/>
<polygon points="105,25 121,10 103,3" fill="#ff0000" stroke="black" stroke-width="1" data-i="0" data-j="2"/>
<path d="M105,25 121,10 103,3 Z" fill="#ff0000" stroke="black" stroke-width="1" data-i="0" data-j="2"/>
<polygon points="86,46 101,29 82,24" fill="#ff0000" stroke="black" stroke-width="1" data-i="0" data-j="2"/>
<path d="M86,46 101,29 82,24 Z" fill="#ff0000" stroke="black" stroke-width="1" data-i="0" data-j="2"/>
<polygon points="121,40 109,21 98,38" fill="#00ff00" stroke="black" stroke-width="1" data-i="0" data-j="2"/>
<path d="M121,40 109,21 98,38 Z" fill="#00ff00" stroke="black" stroke-width="1" data-i="0" data-j="2"/>
<polygon points="140,21 131,1 118,16" fill="#000000" stroke="black" stroke-width="1" data-i="0" data-j="3"/>
<path d="M140,21 131,1 118,16 Z" fill="#000000" stroke="black" stroke-width="1" data-i="0" data-j="3"/>
<polygon points="143,25 161,11 144,2" fill="#000000" stroke="black" stroke-width="1" data-i="0" data-j="3"/>
<path d="M143,25 161,11 144,2 Z" fill="#000000" stroke="black" stroke-width="1" data-i="0" data-j="3"/>
<polygon points="142,37 126,21 120,41" fill="#000000" stroke="black" stroke-width="1" data-i="0" data-j="3"/>
<path d="M142,37 126,21 120,41 Z" fill="#000000" stroke="black" stroke-width="1" data-i="0" data-j="3"/>
<polygon points="137,37 159,40 153,21" fill="#000000" stroke="black" stroke-width="1" data-i="0" data-j="3"/>
<path d="M137,37 159,40 153,21 Z" fill="#000000" stroke="black" stroke-width="1" data-i="0" data-j="3"/>
<polygon points="5,65 21,50 3,43" fill="#ff0000" stroke="black" stroke-width="1" data-i="1" data-j="0"/>
<path d="M5,65 21,50 3,43 Z" fill="#ff0000" stroke="black" stroke-width="1" data-i="1" data-j="0"/>
<polygon points="37,64 34,42 17,53" fill="#0000ff" stroke="black" stroke-width="1" data-i="1" data-j="0"/>
<path d="M37,64 34,42 17,53 Z" fill="#0000ff" stroke="black" stroke-width="1" data-i="1" data-j="0"/>
<polygon points="8,86 20,68 1,65" fill="#0000ff" stroke="black" stroke-width="1" data-i="1" data-j="0"/>
<path d="M8,86 20,68 1,65 Z" fill="#0000ff" stroke="black" stroke-width="1" data-i="1" data-j="0"/>
<polygon points="43,70 21,64 25,84" fill="#ff0000" stroke="black" stroke-width="1" data-i="1" data-j="0"/>
<path d="M43,70 21,64 25,84 Z" fill="#ff0000" stroke="black" stroke-width="1" data-i="1" data-j="0"/>
<polygon points="47,40 41,61 61,57" fill="#00ff00" stroke="black" stroke-width="1" data-i="1" data-j="1"/>
<path d="M47,40 41,61 61,57 Z" fill="#00ff00" stroke="black" stroke-width="1" data-i="1" data-j="1"/>
<polygon points="79,43 58,51 72,65" fill="#0000ff" stroke="black" stroke-width="1" data-i="1" data-j="1"/>
<path d="M79,43 58,51 72,65 Z" fill="#0000ff" stroke="black" stroke-width="1" data-i="1" data-j="1"/>
<polygon points="52,86 58,64 38,68" fill="#0000ff" stroke="black" stroke-width="1" data-i="1" data-j="1"/>
<path d="M52,86 58,64 38,68 Z" fill="#0000ff" stroke="black" stroke-width="1" data-i="1" data-j="1"/>
<polygon points="57,69 73,84 79,65" fill="#ff0000" stroke="black" stroke-width="1" data-i="1" data-j="1"/>
<path d="M57,69 73,84 79,65 Z" fill="#ff0000" stroke="black" stroke-width="1" data-i="1" data-j="1"/>
<polygon points="76,52 96,63 97,43" fill="#00ff00" stroke="black" stroke-width="1" data-i="1" data-j="2"/>
<path d="M76,52 96,63 97,43 Z" fill="#00ff00" stroke="black" stroke-width="1" data-i="1" data-j="2"/>
<polygon points="122,56 105,42 101,61" fill="#0000ff" stroke="black" stroke-width="1" data-i="1" data-j="2"/>
<path d="M122,56 105,42 101,61 Z" fill="#0000ff" stroke="black" stroke-width="1" data-i="1" data-j="2"/>
<polygon points="76,74 97,82 95,62" fill="#ffff00" stroke="black" stroke-width="1" data-i="1" data-j="2"/>
<path d="M76,74 97,82 95,62 Z" fill="#ffff00" stroke="black" stroke-width="1" data-i="1" data-j="2"/>
<polygon points="96,73 116,83 116,63" fill="#ff0000" stroke="black" stroke-width="1" data-i="1" data-j="2"/>
<path d="M96,73 116,83 116,63 Z" fill="#ff0000" stroke="black" stroke-width="1" data-i="1" data-j="2"/>
<polygon points="129,66 140,47 120,46" fill="#00ff00" stroke="black" stroke-width="1" data-i="1" data-j="3"/>
<path d="M129,66 140,47 120,46 Z" fill="#00ff00" stroke="black" stroke-width="1" data-i="1" data-j="3"/>
<polygon points="143,64 162,52 144,42" fill="#0000ff" stroke="black" stroke-width="1" data-i="1" data-j="3"/>
<path d="M143,64 162,52 144,42 Z" fill="#0000ff" stroke="black" stroke-width="1" data-i="1" data-j="3"/>
<polygon points="120,82 141,75 127,61" fill="#ffff00" stroke="black" stroke-width="1" data-i="1" data-j="3"/>
<path d="M120,82 141,75 127,61 Z" fill="#ffff00" stroke="black" stroke-width="1" data-i="1" data-j="3"/>
<polygon points="136,71 155,84 157,64" fill="#ffff00" stroke="black" stroke-width="1" data-i="1" data-j="3"/>
<path d="M136,71 155,84 157,64 Z" fill="#ffff00" stroke="black" stroke-width="1" data-i="1" data-j="3"/>
<polygon points="18,82 -1,92 13,104" fill="#00ff00" stroke="black" stroke-width="1" data-i="2" data-j="0"/>
<path d="M18,82 -1,92 13,104 Z" fill="#00ff00" stroke="black" stroke-width="1" data-i="2" data-j="0"/>
<polygon points="26,80 22,102 41,96" fill="#0000ff" stroke="black" stroke-width="1" data-i="2" data-j="0"/>
<path d="M26,80 22,102 41,96 Z" fill="#0000ff" stroke="black" stroke-width="1" data-i="2" data-j="0"/>
<polygon points="12,100 -1,117 18,122" fill="#00ff00" stroke="black" stroke-width="1" data-i="2" data-j="0"/>
<path d="M12,100 -1,117 18,122 Z" fill="#00ff00" stroke="black" stroke-width="1" data-i="2" data-j="0"/>
<polygon points="39,122 31,101 18,116" fill="#00ff00" stroke="black" stroke-width="1" data-i="2" data-j="0"/>
<path d="M39,122 31,101 18,116 Z" fill="#00ff00" stroke="black" stroke-width="1" data-i="2" data-j="0"/>
<polygon points="37,97 59,100 53,81" fill="#00ff00" stroke="black" stroke-width="1" data-i="2" data-j="1"/>
<path d="M37,97 59,100 53,81 Z" fill="#00ff00" stroke="black" stroke-width="1" data-i="2" data-j="1"/>
<polygon points="81,99 69,81 59,98" fill="#0000ff" stroke="black" stroke-width="1" data-i="2" data-j="1"/>
<path d="M81,99 69,81 59,98 Z" fill="#0000ff" stroke="black" stroke-width="1" data-i="2" data-j="1"/>
<polygon points="37,108 53,124 59,106" fill="#ffff00" stroke="black" stroke-width="1" data-i="2" data-j="1"/>
<path d="M37,108 53,124 59,106 Z" fill="#ffff00" stroke="black" stroke-width="1" data-i="2" data-j="1"/>
<polygon points="58,120 81,117 69,101" fill="#ff0000" stroke="black" stroke-width="1" data-i="2" data-j="1"/>
<path d="M58,120 81,117 69,101 Z" fill="#ff0000" stroke="black" stroke-width="1" data-i="2" data-j="1"/>
<polygon points="97,82 77,93 94,104" fill="#ff0000" stroke="black" stroke-width="1" data-i="2" data-j="2"/>
<path d="M97,82 77,93 94,104 Z" fill="#ff0000" stroke="black" stroke-width="1" data-i="2" data-j="2"/>
<polygon points="113,106 117,84 98,89" fill="#ff0000" stroke="black" stroke-width="1" data-i="2" data-j="2"/>
<path d="M113,106 117,84 98,89 Z" fill="#ff0000" stroke="black" stroke-width="1" data-i="2" data-j="2"/>
<polygon points="89,126 100,107 80,105" fill="#ff0000" stroke="black" stroke-width="1" data-i="2" data-j="2"/>
<path d="M89,126 100,107 80,105 Z" fill="#ff0000" stroke="black" stroke-width="1" data-i="2" data-j="2"/>
<polygon points="123,115 105,102 101,121" fill="#ffff00" stroke="black" stroke-width="1" data-i="2" data-j="2"/>
<path d="M123,115 105,102 101,121 Z" fill="#ffff00" stroke="black" stroke-width="1" data-i="2" data-j="2"/>
<polygon points="143,93 123,83 122,103" fill="#ff0000" stroke="black" stroke-width="1" data-i="2" data-j="3"/>
<path d="M143,93 123,83 122,103 Z" fill="#ff0000" stroke="black" stroke-width="1" data-i="2" data-j="3"/>
<polygon points="158,83 138,91 153,104" fill="#ff0000" stroke="black" stroke-width="1" data-i="2" data-j="3"/>
<path d="M158,83 138,91 153,104 Z" fill="#ff0000" stroke="black" stroke-width="1" data-i="2" data-j="3"/>
<polygon points="141,120 129,101 119,118" fill="#ff0000" stroke="black" stroke-width="1" data-i="2" data-j="3"/>
<path d="M141,120 129,101 119,118 Z" fill="#ff0000" stroke="black" stroke-width="1" data-i="2" data-j="3"/>
<polygon points="154,125 157,103 138,110" fill="#ff0000" stroke="black" stroke-width="1" data-i="2" data-j="3"/>
<path d="M154,125 157,103 138,110 Z" fill="#ff0000" stroke="black" stroke-width="1" data-i="2" data-j="3"/>
<polygon points="5,145 21,130 3,123" fill="#ff0000" stroke="black" stroke-width="1" data-i="3" data-j="0"/>
<path d="M5,145 21,130 3,123 Z" fill="#ff0000" stroke="black" stroke-width="1" data-i="3" data-j="0"/>
<polygon points="43,134 23,122 22,142" fill="#ff0000" stroke="black" stroke-width="1" data-i="3" data-j="0"/>
<path d="M43,134 23,122 22,142 Z" fill="#ff0000" stroke="black" stroke-width="1" data-i="3" data-j="0"/>
<polygon points="16,141 -1,154 15,163" fill="#ff0000" stroke="black" stroke-width="1" data-i="3" data-j="0"/>
<path d="M16,141 -1,154 15,163 Z" fill="#ff0000" stroke="black" stroke-width="1" data-i="3" data-j="0"/>
<polygon points="43,154 23,142 22,162" fill="#ff0000" stroke="black" stroke-width="1" data-i="3" data-j="0"/>
<path d="M43,154 23,142 22,162 Z" fill="#ff0000" stroke="black" stroke-width="1" data-i="3" data-j="0"/>
<polygon points="47,146 61,129 41,124" fill="#ff0000" stroke="black" stroke-width="1" data-i="3" data-j="1"/>
<path d="M47,146 61,129 41,124 Z" fill="#ff0000" stroke="black" stroke-width="1" data-i="3" data-j="1"/>
<polygon points="74,120 58,136 77,142" fill="#ff0000" stroke="black" stroke-width="1" data-i="3" data-j="1"/>
<path d="M74,120 58,136 77,142 Z" fill="#ff0000" stroke="black" stroke-width="1" data-i="3" data-j="1"/>
<polygon points="51,140 39,158 58,161" fill="#ff0000" stroke="black" stroke-width="1" data-i="3" data-j="1"/>
<path d="M51,140 39,158 58,161 Z" fill="#ff0000" stroke="black" stroke-width="1" data-i="3" data-j="1"/>
<polygon points="57,157 79,160 73,141" fill="#ff0000" stroke="black" stroke-width="1" data-i="3" data-j="1"/>
<path d="M57,157 79,160 73,141 Z" fill="#ff0000" stroke="black" stroke-width="1" data-i="3" data-j="1"/>
<polygon points="92,120 78,137 98,141" fill="#ff0000" stroke="black" stroke-width="1" data-i="3" data-j="2"/>
<path d="M92,120 78,137 98,141 Z" fill="#ff0000" stroke="black" stroke-width="1" data-i="3" data-j="2"/>
<polygon points="103,144 121,132 104,122" fill="#ff0000" stroke="black" stroke-width="1" data-i="3" data-j="2"/>
<path d="M103,144 121,132 104,122 Z" fill="#ff0000" stroke="black" stroke-width="1" data-i="3" data-j="2"/>
<polygon points="90,140 79,159 99,160" fill="#ff0000" stroke="black" stroke-width="1" data-i="3" data-j="2"/>
<path d="M90,140 79,159 99,160 Z" fill="#ff0000" stroke="black" stroke-width="1" data-i="3" data-j="2"/>
<polygon points="105,140 103,163 121,155" fill="#ff0000" stroke="black" stroke-width="1" data-i="3" data-j="2"/>
<path d="M105,140 103,163 121,155 Z" fill="#ff0000" stroke="black" stroke-width="1" data-i="3" data-j="2"/>
<polygon points="139,142 132,121 118,135" fill="#000000" stroke="black" stroke-width="1" data-i="3" data-j="3"/>
<path d="M139,142 132,121 118,135 Z" fill="#000000" stroke="black" stroke-width="1" data-i="3" data-j="3"/>
<polygon points="162,128 139,126 147,145" fill="#000000" stroke="black" stroke-width="1" data-i="3" data-j="3"/>
<path d="M162,128 139,126 147,145 Z" fill="#000000" stroke="black" stroke-width="1" data-i="3" data-j="3"/>
<polygon points="121,163 141,154 126,141" fill="#000000" stroke="black" stroke-width="1" data-i="3" data-j="3"/>
<path d="M121,163 141,154 126,141 Z" fill="#000000" stroke="black" stroke-width="1" data-i="3" data-j="3"/>
<polygon points="141,163 161,154 146,141" fill="#000000" stroke="black" stroke-width="1" data-i="3" data-j="3"/>
<path d="M141,163 161,154 146,141 Z" fill="#000000" stroke="black" stroke-width="1" data-i="3" data-j="3"/>
</svg>