<svg width="260" height="260" xmlns="http://www.w3.org/2000/svg">
<metadata>
	<dimension_matrice_cellule>6</dimension_matrice_cellule>
	<protocole>2</protocole>
</metadata>
<polygon points="19,4 -1,10 12,25" fill="#000000" stroke="black" stroke-width="1" data-i="0" data-j="0"/>
<path d="M19,4 -1,10 12,25 Z" fill="#000000" stroke="black" stroke-width="1" data-i="0" data-j="0"/>
<polygon points="42,9 20,5 26,24" fill="#000000" stroke="black" stroke-width="1" data-i="0" data-j="0"/>
<path d="M42,9 20,5 26,24 Z" fill="#000000" stroke="black" stroke-width="1" data-i="0" data-j="0"/>
<polygon points="23,35 5,22 1,42" fill="#000000" stroke="black" stroke-width="1" data-i="0" data-j="0"/>
<path d="M23,35 5,22 1,42 Z" fill="#000000" stroke="black" stroke-width="1" data-i="0" data-j="0"/>
<polygon points="22,22 25,44 42,33" fill="#000000" stroke="black" stroke-width="1" data-i="0" data-j="0"/>
<path d="M22,22 25,44 42,33 Z" fill="#000000" stroke="black" stroke-width="1" data-i="0" data-j="0"/>
<polygon points="46,26 61,9 42,4" fill="#ff0000" stroke="black" stroke-width="1" data-i="0" data-j="1"/>
<path d="M46,26 61,9 42,4 Z" fill="#ff0000" stroke="black" stroke-width="1" data-i="0" data-j="1"/>
<polygon points="82,16 66,1 60,21" fill="#ff0000" stroke="black" stroke-width="1" data-i="0" data-j="1"/>
<path d="M82,16 66,1 60,21 Z" fill="#ff0000" stroke="black" stroke-width="1" data-i="0" data-j="1"/>
<polygon points="36,34 57,42 56,22" fill="#ff0000" stroke="black" stroke-width="1" data-i="0" data-j="1"/>
<path d="M36,34 57,42 56,22 Z" fill="#ff0000" stroke="black" stroke-width="1" data-i="0" data-j="1"/>
<polygon points="69,46 80,26 60,26" fill="#0000ff" stroke="black" stroke-width="1" data-i="0" data-j="1"/>
<path d="M69,46 80,26 60,26 Z" fill="#0000ff" stroke="black" stroke-width="1" data-i="0" data-j="1"/>
<polygon points="79,21 101,17 89,1" fill="#ff0000" stroke="black" stroke-width="1" data-i="0" data-j="2"/>
<path d="M79,21 101,17 89,1 Z" fill="#ff0000" stroke="black" stroke-width="1" data-i="0" data-j="2"/>
<polygon points="114,0 98,15 116,23" fill="#ff0000" stroke="black" stroke-width="1" data-i="0" data-j="2"/>
<path d="M114,0 98,15 116,23 Z" fill="#ff0000" stroke="black" stroke-width="1" data-i="0" data-j="2"/>
<polygon points="84,21 83,43 101,35" fill="#ff0000" stroke="black" stroke-width="1" data-i="0" data-j="2"/>
<path d="M84,21 83,43 101,35 Z" fill="#ff0000" stroke="black" stroke-width="1" data-i="0" data-j="2"/>
<polygon points="102,22 105,44 122,33" fill="#00ff00" stroke="black" stroke-width="1" data-i="0" data-j="2"/>
<path d="M102,22 105,44 122,33 Z" fill="#00ff00" stroke="black" stroke-width="1" data-i="0" data-j="2"/>
<polygon points="123,1 124,23 141,14" fill="#0000ff" stroke="black" stroke-width="1" data-i="0" data-j="3"/>
<path d="M123,1 124,23 141,14 Z" fill="#0000ff" stroke="black" stroke-width="1" data-i="0" data-j="3"/>
<polygon points="162,16 145,2 141,21" fill="#ffff00" stroke="black" stroke-width="1" data-i="0" data-j="3"/>
<path d="M162,16 145,2 141,21 Z" fill="#ffff00" stroke="black" stroke-width="1" data-i="0" data-j="3"/>
<polygon points="141,40 129,21 118,38" fill="#0000ff" stroke="black" stroke-width="1" data-i="0" data-j="3"/>
<path d="M141,40 129,21 118,38 Z" fill="#0000ff" stroke="black" stroke-width="1" data-i="0" data-j="3"/>
<polygon points="147,46 161,28 141,24" fill="#ff0000" stroke="black" stroke-width="1" data-i="0" data-j="3"/>
<path d="M147,46 161,28 141,24 Z" fill="#ff0000" stroke="black" stroke-width="1" data-i="0" data-j="3"/>
<polygon points="173,26 177,4 158,9" fill="#00ff00" stroke="black" stroke-width="1" data-i="0" data-j="4"/>
<path d="M173,26 177,4 158,9 Z" fill="#00ff00" stroke="black" stroke-width="1" data-i="0" data-j="4"/>
<polygon points="180,22 201,16 188,1" fill="#ff0000" stroke="black" stroke-width="1" data-i="0" data-j="4"/>
<path d="M180,22 201,16 188,1 Z" fill="#ff0000" stroke="black" stroke-width="1" data-i="0" data-j="4"/>
<polygon points="182,38 167,21 159,39" fill="#ff0000" stroke="black" stroke-width="1" data-i="0" data-j="4"/>
<path d="M182,38 167,21 159,39 Z" fill="#ff0000" stroke="black" stroke-width="1" data-i="0" data-j="4"/>
<polygon points="185,20 182,42 201,36" fill="#0000ff" stroke="black" stroke-width="1" data-i="0" data-j="4"/>
<path d="M185,20 182,42 201,36 Z" fill="#0000ff" stroke="black" stroke-width="1" data-i="0" data-j="4"/>
<polygon points="210,0 199,19 219,20" fill="#000000" stroke="black" stroke-width="1" data-i="0" data-j="5"/>
<path d="M210,0 199,19 219,20 Z" fill="#000000" stroke="black" stroke-width="1" data-i="0" data-j="5"/>
<polygon points="221,3 227,24 241,11" fill="#000000" stroke="black" stroke-width="1" data-i="0" data-j="5"/>
<path d="M221,3 227,24 241,11 Z" fill="#000000" stroke="black" stroke-width="1" data-i="0" data-j="5"/>
<polygon points="197,29 213,44 219,25" fill="#000000" stroke="black" stroke-width="1" data-i="0" data-j="5"/>
<path d="M197,29 213,44 219,25 Z" fill="#000000" stroke="black" stroke-width="1" data-i="0" data-j="5"/>
<polygon points="239,42 231,21 218,36" fill="#000000" stroke="black" stroke-width="1" data-i="0" data-j="5"/>
<path d="M239,42 231,21 218,36 Z" fill="#000000" stroke="black" stroke-width="1" data-i="0" data-j="5"/>
<polygon points="22,48 0,46 7,65" fill="#00ff00" stroke="black" stroke-width="1" data-i="1" data-j="0"/>
<path d="M22,48 0,46 7,65 Z" fill="#00ff00" stroke="black" stroke-width="1" data-i="1" data-j="0"/>
<polygon points="42,58 27,41 20,60" fill="#0000ff" stroke="black" stroke-width="1" data-i="1" data-j="0"/>
<path d="M42,58 27,41 20,60 Z" fill="#0000ff" stroke="black" stroke-width="1" data-i="1" data-j="0"/>
<polygon points="-2,78 20,79 11,61" fill="#ffff00" stroke="black" stroke-width="1" data-i="1" data-j="0"/>
<path d="M-2,78 20,79 11,61 Z" fill="#ffff00" stroke="black" stroke-width="1" data-i="1" data-j="0"/>
<polygon points="18,80 41,78 30,61" fill="#0000ff" stroke="black" stroke-width="1" data-i="1" data-j="0"/>
<path d="M18,80 41,78 30,61 Z" fill="#0000ff" stroke="black" stroke-width="1" data-i="1" data-j="0"/>
<polygon points="61,59 48,41 39,59" fill="#00ff00" stroke="black" stroke-width="1" data-i="1" data-j="1"/>
<path d="M61,59 48,41 39,59 Z" fill="#00ff00" stroke="black" stroke-width="1" data-i="1" data-j="1"/>
<polygon points="56,51 75,64 78,44" fill="#0000ff" stroke="black" stroke-width="1" data-i="1" data-j="1"/>
<path d="M56,51 75,64 78,44 Z" fill="#0000ff" stroke="black" stroke-width="1" data-i="1" data-j="1"/>
<polygon points="46,86 61,69 42,64" fill="#ffff00" stroke="black" stroke-width="1" data-i="1" data-j="1"/>
<path d="M46,86 61,69 42,64 Z" fill="#ffff00" stroke="black" stroke-width="1" data-i="1" data-j="1"/>
<polygon points="58,80 80,78 70,61" fill="#ffff00" stroke="black" stroke-width="1" data-i="1" data-j="1"/>
<path d="M58,80 80,78 70,61 Z" fill="#ffff00" stroke="black" stroke-width="1" data-i="1" data-j="1"/>
<polygon points="102,58 87,41 80,60" fill="#00ff00" stroke="black" stroke-width="1" data-i="1" data-j="2"/>
<path d="M102,58 87,41 80,60 Z" fill="#00ff00" stroke="black" stroke-width="1" data-i="1" data-j="2"/>
<polygon points="97,48 112,65 119,46" fill="#ffff00" stroke="black" stroke-width="1" data-i="1" data-j="2"/>
<path d="M97,48 112,65 119,46 Z" fill="#ffff00" stroke="black" stroke-width="1" data-i="1" data-j="2"/>
<polygon points="99,82 91,61 78,76" fill="#ff0000" stroke="black" stroke-width="1" data-i="1" data-j="2"/>
<path d="M99,82 91,61 78,76 Z" fill="#ff0000" stroke="black" stroke-width="1" data-i="1" data-j="2"/>
<polygon points="119,63 98,70 112,85" fill="#0000ff" stroke="black" stroke-width="1" data-i="1" data-j="2"/>
<path d="M119,63 98,70 112,85 Z" fill="#0000ff" stroke="black" stroke-width="1" data-i="1" data-j="2"/>
<polygon points="117,48 132,65 139,46" fill="#ff0000" stroke="black" stroke-width="1" data-i="1" data-j="3"/>
<path d="M117,48 132,65 139,46 Z" fill="#ff0000" stroke="black" stroke-width="1" data-i="1" data-j="3"/>
<polygon points="140,62 161,55 147,41" fill="#0000ff" stroke="black" stroke-width="1" data-i="1" data-j="3"/>
<path d="M140,62 161,55 147,41 Z" fill="#0000ff" stroke="black" stroke-width="1" data-i="1" data-j="3"/>
<polygon points="143,74 124,62 122,82" fill="#ff0000" stroke="black" stroke-width="1" data-i="1" data-j="3"/>
<path d="M143,74 124,62 122,82 Z" fill="#ff0000" stroke="black" stroke-width="1" data-i="1" data-j="3"/>
<polygon points="163,74 144,62 142,82" fill="#ff0000" stroke="black" stroke-width="1" data-i="1" data-j="3"/>
<path d="M163,74 144,62 142,82 Z" fill="#ff0000" stroke="black" stroke-width="1" data-i="1" data-j="3"/>
<polygon points="183,54 164,42 162,62" fill="#00ff00" stroke="black" stroke-width="1" data-i="1" data-j="4"/>
<path d="M183,54 164,42 162,62 Z" fill="#00ff00" stroke="black" stroke-width="1" data-i="1" data-j="4"/>
<polygon points="203,51 182,44 184,64" fill="#0000ff" stroke="black" stroke-width="1" data-i="1" data-j="4"/>
<path d="M203,51 182,44 184,64 Z" fill="#0000ff" stroke="black" stroke-width="1" data-i="1" data-j="4"/>
<polygon points="160,82 181,76 168,61" fill="#ffff00" stroke="black" stroke-width="1" data-i="1" data-j="4"/>
<path d="M160,82 181,76 168,61 Z" fill="#ffff00" stroke="black" stroke-width="1" data-i="1" data-j="4"/>
<polygon points="182,84 202,73 185,62" fill="#ffff00" stroke="black" stroke-width="1" data-i="1" data-j="4"/>
<path d="M182,84 202,73 185,62 Z" fill="#ffff00" stroke="black" stroke-width="1" data-i="1" data-j="4"/>
<polygon points="220,44 198,49 211,65" fill="#00ff00" stroke="black" stroke-width="1" data-i="1" data-j="5"/>
<path d="M220,44 198,49 211,65 Z" fill="#00ff00" stroke="black" stroke-width="1" data-i="1" data-j="5"/>
<polygon points="218,46 230,65 240,48" fill="#0000ff" stroke="black" stroke-width="1" data-i="1" data-j="5"/>
<path d="M218,46 230,65 240,48 Z" fill="#0000ff" stroke="black" stroke-width="1" data-i="1" data-j="5"/>
<polygon points="196,71 215,84 217,64" fill="#ffff00" stroke="black" stroke-width="1" data-i="1" data-j="5"/>
<path d="M196,71 215,84 217,64 Z" fill="#ffff00" stroke="black" stroke-width="1" data-i="1" data-j="5"/>
<polygon points="230,60 219,79 239,80" fill="#00ff00" stroke="black" stroke-width="1" data-i="1" data-j="5"/>
<path d="M230,60 219,79 239,80 Z" fill="#00ff00" stroke="black" stroke-width="1" data-i="1" data-j="5"/>
<polygon points="0,85 9,105 21,89" fill="#00ff00" stroke="black" stroke-width="1" data-i="2" data-j="0"/>
<path d="M0,85 9,105 21,89 Z" fill="#00ff00" stroke="black" stroke-width="1" data-i="2" data-j="0"/>
<polygon points="43,92 22,83 24,103" fill="#0000ff" stroke="black" stroke-width="1" data-i="2" data-j="0"/>
<path d="M43,92 22,83 24,103 Z" fill="#0000ff" stroke="black" stroke-width="1" data-i="2" data-j="0"/>
<polygon points="-2,116 18,121 14,102" fill="#ffff00" stroke="black" stroke-width="1" data-i="2" data-j="0"/>
<path d="M-2,116 18,121 14,102 Z" fill="#ffff00" stroke="black" stroke-width="1" data-i="2" data-j="0"/>
<polygon points="16,110 34,124 38,104" fill="#0000ff" stroke="black" stroke-width="1" data-i="2" data-j="0"/>
<path d="M16,110 34,124 38,104 Z" fill="#0000ff" stroke="black" stroke-width="1" data-i="2" data-j="0"/>
<polygon points="43,81 44,104 61,94" fill="#ff0000" stroke="black" stroke-width="1" data-i="2" data-j="1"/>
<path d="M43,81 44,104 61,94 Z" fill="#ff0000" stroke="black" stroke-width="1" data-i="2" data-j="1"/>
<polygon points="73,80 58,96 77,102" fill="#0000ff" stroke="black" stroke-width="1" data-i="2" data-j="1"/>
<path d="M73,80 58,96 77,102 Z" fill="#0000ff" stroke="black" stroke-width="1" data-i="2" data-j="1"/>
<polygon points="63,113 43,103 43,123" fill="#ff0000" stroke="black" stroke-width="1" data-i="2" data-j="1"/>
<path d="M63,113 43,103 43,123 Z" fill="#ff0000" stroke="black" stroke-width="1" data-i="2" data-j="1"/>
<polygon points="79,122 71,101 58,116" fill="#ff0000" stroke="black" stroke-width="1" data-i="2" data-j="1"/>
<path d="M79,122 71,101 58,116 Z" fill="#ff0000" stroke="black" stroke-width="1" data-i="2" data-j="1"/>
<polygon points="88,80 80,101 100,98" fill="#00ff00" stroke="black" stroke-width="1" data-i="2" data-j="2"/>
<path d="M88,80 80,101 100,98 Z" fill="#00ff00" stroke="black" stroke-width="1" data-i="2" data-j="2"/>
<polygon points="106,80 102,102 121,97" fill="#0000ff" stroke="black" stroke-width="1" data-i="2" data-j="2"/>
<path d="M106,80 102,102 121,97 Z" fill="#0000ff" stroke="black" stroke-width="1" data-i="2" data-j="2"/>
<polygon points="81,102 86,124 101,112" fill="#ff0000" stroke="black" stroke-width="1" data-i="2" data-j="2"/>
<path d="M81,102 86,124 101,112 Z" fill="#ff0000" stroke="black" stroke-width="1" data-i="2" data-j="2"/>
<polygon points="96,113 117,123 116,103" fill="#00ff00" stroke="black" stroke-width="1" data-i="2" data-j="2"/>
<path d="M96,113 117,123 116,103 Z" fill="#00ff00" stroke="black" stroke-width="1" data-i="2" data-j="2"/>
<polygon points="142,96 125,82 121,101" fill="#00ff00" stroke="black" stroke-width="1" data-i="2" data-j="3"/>
<path d="M142,96 125,82 121,101 Z" fill="#00ff00" stroke="black" stroke-width="1" data-i="2" data-j="3"/>
<polygon points="163,93 143,83 143,103" fill="#ffff00" stroke="black" stroke-width="1" data-i="2" data-j="3"/>
<path d="M163,93 143,83 143,103 Z" fill="#ffff00" stroke="black" stroke-width="1" data-i="2" data-j="3"/>
<polygon points="143,114 124,102 122,122" fill="#00ff00" stroke="black" stroke-width="1" data-i="2" data-j="3"/>
<path d="M143,114 124,102 122,122 Z" fill="#00ff00" stroke="black" stroke-width="1" data-i="2" data-j="3"/>
<polygon points="153,126 157,104 138,109" fill="#0000ff" stroke="black" stroke-width="1" data-i="2" data-j="3"/>
<path d="M153,126 157,104 138,109 Z" fill="#0000ff" stroke="black" stroke-width="1" data-i="2" data-j="3"/>
<polygon points="170,80 160,100 180,100" fill="#ff0000" stroke="black" stroke-width="1" data-i="2" data-j="4"/>
<path d="M170,80 160,100 180,100 Z" fill="#ff0000" stroke="black" stroke-width="1" data-i="2" data-j="4"/>
<polygon points="193,80 178,97 198,102" fill="#ffff00" stroke="black" stroke-width="1" data-i="2" data-j="4"/>
<path d="M193,80 178,97 198,102 Z" fill="#ffff00" stroke="black" stroke-width="1" data-i="2" data-j="4"/>
<polygon points="158,120 181,117 169,101" fill="#ffff00" stroke="black" stroke-width="1" data-i="2" data-j="4"/>
<path d="M158,120 181,117 169,101 Z" fill="#ffff00" stroke="black" stroke-width="1" data-i="2" data-j="4"/>
<polygon points="202,109 180,105 186,124" fill="#ffff00" stroke="black" stroke-width="1" data-i="2" data-j="4"/>
<path d="M202,109 180,105 186,124 Z" fill="#ffff00" stroke="black" stroke-width="1" data-i="2" data-j="4"/>
<polygon points="217,82 197,93 214,104" fill="#00ff00" stroke="black" stroke-width="1" data-i="2" data-j="5"/>
<path d="M217,82 197,93 214,104 Z" fill="#00ff00" stroke="black" stroke-width="1" data-i="2" data-j="5"/>
<polygon points="234,106 237,83 218,90" fill="#0000ff" stroke="black" stroke-width="1" data-i="2" data-j="5"/>
<path d="M234,106 237,83 218,90 Z" fill="#0000ff" stroke="black" stroke-width="1" data-i="2" data-j="5"/>
<polygon points="216,125 215,102 198,112" fill="#ffff00" stroke="black" stroke-width="1" data-i="2" data-j="5"/>
<path d="M216,125 215,102 198,112 Z" fill="#ffff00" stroke="black" stroke-width="1" data-i="2" data-j="5"/>
<polygon points="243,111 221,104 225,124" fill="#ffff00" stroke="black" stroke-width="1" data-i="2" data-j="5"/>
<path d="M243,111 221,104 225,124 Z" fill="#ffff00" stroke="black" stroke-width="1" data-i="2" data-j="5"/>
<polygon points="-3,130 14,144 18,124" fill="#00ff00" stroke="black" stroke-width="1" data-i="3" data-j="0"/>
<path d="M-3,130 14,144 18,124 Z" fill="#00ff00" stroke="black" stroke-width="1" data-i="3" data-j="0"/>
<polygon points="37,122 17,133 34,144" fill="#0000ff" stroke="black" stroke-width="1" data-i="3" data-j="0"/>
<path d="M37,122 17,133 34,144 Z" fill="#0000ff" stroke="black" stroke-width="1" data-i="3" data-j="0"/>
<polygon points="9,166 20,147 0,145" fill="#0000ff" stroke="black" stroke-width="1" data-i="3" data-j="0"/>
<path d="M9,166 20,147 0,145 Z" fill="#0000ff" stroke="black" stroke-width="1" data-i="3" data-j="0"/>
<polygon points="38,163 33,141 18,154" fill="#0000ff" stroke="black" stroke-width="1" data-i="3" data-j="0"/>
<path d="M38,163 33,141 18,154 Z" fill="#0000ff" stroke="black" stroke-width="1" data-i="3" data-j="0"/>
<polygon points="46,120 42,142 61,137" fill="#00ff00" stroke="black" stroke-width="1" data-i="3" data-j="1"/>
<path d="M46,120 42,142 61,137 Z" fill="#00ff00" stroke="black" stroke-width="1" data-i="3" data-j="1"/>
<polygon points="61,143 81,134 66,121" fill="#ffff00" stroke="black" stroke-width="1" data-i="3" data-j="1"/>
<path d="M61,143 81,134 66,121 Z" fill="#ffff00" stroke="black" stroke-width="1" data-i="3" data-j="1"/>
<polygon points="47,140 41,162 61,157" fill="#00ff00" stroke="black" stroke-width="1" data-i="3" data-j="1"/>
<path d="M47,140 41,162 61,157 Z" fill="#00ff00" stroke="black" stroke-width="1" data-i="3" data-j="1"/>
<polygon points="79,162 71,141 58,156" fill="#00ff00" stroke="black" stroke-width="1" data-i="3" data-j="1"/>
<path d="M79,162 71,141 58,156 Z" fill="#00ff00" stroke="black" stroke-width="1" data-i="3" data-j="1"/>
<polygon points="103,136 85,122 81,141" fill="#ff0000" stroke="black" stroke-width="1" data-i="3" data-j="2"/>
<path d="M103,136 85,122 81,141 Z" fill="#ff0000" stroke="black" stroke-width="1" data-i="3" data-j="2"/>
<polygon points="108,146 120,127 100,125" fill="#0000ff" stroke="black" stroke-width="1" data-i="3" data-j="2"/>
<path d="M108,146 120,127 100,125 Z" fill="#0000ff" stroke="black" stroke-width="1" data-i="3" data-j="2"/>
<polygon points="90,166 99,146 79,146" fill="#ffff00" stroke="black" stroke-width="1" data-i="3" data-j="2"/>
<path d="M90,166 99,146 79,146 Z" fill="#ffff00" stroke="black" stroke-width="1" data-i="3" data-j="2"/>
<polygon points="109,140 100,160 120,159" fill="#ff0000" stroke="black" stroke-width="1" data-i="3" data-j="2"/>
<path d="M109,140 100,160 120,159 Z" fill="#ff0000" stroke="black" stroke-width="1" data-i="3" data-j="2"/>
<polygon points="120,142 141,135 127,121" fill="#00ff00" stroke="black" stroke-width="1" data-i="3" data-j="3"/>
<path d="M120,142 141,135 127,121 Z" fill="#00ff00" stroke="black" stroke-width="1" data-i="3" data-j="3"/>
<polygon points="147,146 160,128 141,125" fill="#0000ff" stroke="black" stroke-width="1" data-i="3" data-j="3"/>
<path d="M147,146 160,128 141,125 Z" fill="#0000ff" stroke="black" stroke-width="1" data-i="3" data-j="3"/>
<polygon points="142,149 120,145 126,164" fill="#ff0000" stroke="black" stroke-width="1" data-i="3" data-j="3"/>
<path d="M142,149 120,145 126,164 Z" fill="#ff0000" stroke="black" stroke-width="1" data-i="3" data-j="3"/>
<polygon points="139,162 161,156 148,141" fill="#ffff00" stroke="black" stroke-width="1" data-i="3" data-j="3"/>
<path d="M139,162 161,156 148,141 Z" fill="#ffff00" stroke="black" stroke-width="1" data-i="3" data-j="3"/>
<polygon points="167,120 161,141 181,137" fill="#00ff00" stroke="black" stroke-width="1" data-i="3" data-j="4"/>
<path d="M167,120 161,141 181,137 Z" fill="#00ff00" stroke="black" stroke-width="1" data-i="3" data-j="4"/>
<polygon points="197,122 177,132 194,144" fill="#0000ff" stroke="black" stroke-width="1" data-i="3" data-j="4"/>
<path d="M197,122 177,132 194,144 Z" fill="#0000ff" stroke="black" stroke-width="1" data-i="3" data-j="4"/>
<polygon points="156,151 174,164 178,144" fill="#ffff00" stroke="black" stroke-width="1" data-i="3" data-j="4"/>
<path d="M156,151 174,164 178,144 Z" fill="#ffff00" stroke="black" stroke-width="1" data-i="3" data-j="4"/>
<polygon points="182,164 202,152 185,142" fill="#00ff00" stroke="black" stroke-width="1" data-i="3" data-j="4"/>
<path d="M182,164 202,152 185,142 Z" fill="#00ff00" stroke="black" stroke-width="1" data-i="3" data-j="4"/>
<polygon points="216,121 198,134 215,144" fill="#00ff00" stroke="black" stroke-width="1" data-i="3" data-j="5"/>
<path d="M216,121 198,134 215,144 Z" fill="#00ff00" stroke="black" stroke-width="1" data-i="3" data-j="5"/>
<polygon points="239,123 218,131 232,145" fill="#0000ff" stroke="black" stroke-width="1" data-i="3" data-j="5"/>
<path d="M239,123 218,131 232,145 Z" fill="#0000ff" stroke="black" stroke-width="1" data-i="3" data-j="5"/>
<polygon points="197,149 213,164 219,145" fill="#00ff00" stroke="black" stroke-width="1" data-i="3" data-j="5"/>
<path d="M197,149 213,164 219,145 Z" fill="#00ff00" stroke="black" stroke-width="1" data-i="3" data-j="5"/>
<polygon points="220,163 241,155 227,141" fill="#00ff00" stroke="black" stroke-width="1" data-i="3" data-j="5"/>
<path d="M220,163 241,155 227,141 Z" fill="#00ff00" stroke="black" stroke-width="1" data-i="3" data-j="5"/>
<polygon points="20,181 10,161 -1,177" fill="#00ff00" stroke="black" stroke-width="1" data-i="4" data-j="0"/>
<path d="M20,181 10,161 -1,177 Z" fill="#00ff00" stroke="black" stroke-width="1" data-i="4" data-j="0"/>
<polygon points="23,185 41,172 24,162" fill="#ffff00" stroke="black" stroke-width="1" data-i="4" data-j="0"/>
<path d="M23,185 41,172 24,162 Z" fill="#ffff00" stroke="black" stroke-width="1" data-i="4" data-j="0"/>
<polygon points="1,203 21,194 6,181" fill="#00ff00" stroke="black" stroke-width="1" data-i="4" data-j="0"/>
<path d="M1,203 21,194 6,181 Z" fill="#00ff00" stroke="black" stroke-width="1" data-i="4" data-j="0"/>
<polygon points="42,188 20,186 26,204" fill="#ff0000" stroke="black" stroke-width="1" data-i="4" data-j="0"/>
<path d="M42,188 20,186 26,204 Z" fill="#ff0000" stroke="black" stroke-width="1" data-i="4" data-j="0"/>
<polygon points="48,160 40,181 60,178" fill="#00ff00" stroke="black" stroke-width="1" data-i="4" data-j="1"/>
<path d="M48,160 40,181 60,178 Z" fill="#00ff00" stroke="black" stroke-width="1" data-i="4" data-j="1"/>
<polygon points="69,160 60,180 80,179" fill="#0000ff" stroke="black" stroke-width="1" data-i="4" data-j="1"/>
<path d="M69,160 60,180 80,179 Z" fill="#0000ff" stroke="black" stroke-width="1" data-i="4" data-j="1"/>
<polygon points="45,205 61,190 43,183" fill="#ff0000" stroke="black" stroke-width="1" data-i="4" data-j="1"/>
<path d="M45,205 61,190 43,183 Z" fill="#ff0000" stroke="black" stroke-width="1" data-i="4" data-j="1"/>
<polygon points="81,186 58,188 69,205" fill="#ffff00" stroke="black" stroke-width="1" data-i="4" data-j="1"/>
<path d="M81,186 58,188 69,205 Z" fill="#ffff00" stroke="black" stroke-width="1" data-i="4" data-j="1"/>
<polygon points="102,178 87,161 79,179" fill="#ff0000" stroke="black" stroke-width="1" data-i="4" data-j="2"/>
<path d="M102,178 87,161 79,179 Z" fill="#ff0000" stroke="black" stroke-width="1" data-i="4" data-j="2"/>
<polygon points="97,177 119,181 113,161" fill="#0000ff" stroke="black" stroke-width="1" data-i="4" data-j="2"/>
<path d="M97,177 119,181 113,161 Z" fill="#0000ff" stroke="black" stroke-width="1" data-i="4" data-j="2"/>
<polygon points="81,182 86,204 101,192" fill="#ff0000" stroke="black" stroke-width="1" data-i="4" data-j="2"/>
<path d="M81,182 86,204 101,192 Z" fill="#ff0000" stroke="black" stroke-width="1" data-i="4" data-j="2"/>
<polygon points="121,187 99,187 108,205" fill="#ff0000" stroke="black" stroke-width="1" data-i="4" data-j="2"/>
<path d="M121,187 99,187 108,205 Z" fill="#ff0000" stroke="black" stroke-width="1" data-i="4" data-j="2"/>
<polygon points="127,186 140,168 121,165" fill="#00ff00" stroke="black" stroke-width="1" data-i="4" data-j="3"/>
<path d="M127,186 140,168 121,165 Z" fill="#00ff00" stroke="black" stroke-width="1" data-i="4" data-j="3"/>
<polygon points="143,185 161,171 144,162" fill="#0000ff" stroke="black" stroke-width="1" data-i="4" data-j="3"/>
<path d="M143,185 161,171 144,162 Z" fill="#0000ff" stroke="black" stroke-width="1" data-i="4" data-j="3"/>
<polygon points="118,186 130,205 141,188" fill="#ff0000" stroke="black" stroke-width="1" data-i="4" data-j="3"/>
<path d="M118,186 130,205 141,188 Z" fill="#ff0000" stroke="black" stroke-width="1" data-i="4" data-j="3"/>
<polygon points="136,192 155,203 157,183" fill="#00ff00" stroke="black" stroke-width="1" data-i="4" data-j="3"/>
<path d="M136,192 155,203 157,183 Z" fill="#00ff00" stroke="black" stroke-width="1" data-i="4" data-j="3"/>
<polygon points="181,180 169,161 159,178" fill="#0000ff" stroke="black" stroke-width="1" data-i="4" data-j="4"/>
<path d="M181,180 169,161 159,178 Z" fill="#0000ff" stroke="black" stroke-width="1" data-i="4" data-j="4"/>
<polygon points="200,165 178,169 190,185" fill="#00ff00" stroke="black" stroke-width="1" data-i="4" data-j="4"/>
<path d="M200,165 178,169 190,185 Z" fill="#00ff00" stroke="black" stroke-width="1" data-i="4" data-j="4"/>
<polygon points="168,206 180,187 160,185" fill="#00ff00" stroke="black" stroke-width="1" data-i="4" data-j="4"/>
<path d="M168,206 180,187 160,185 Z" fill="#00ff00" stroke="black" stroke-width="1" data-i="4" data-j="4"/>
<polygon points="177,187 191,205 200,187" fill="#ff0000" stroke="black" stroke-width="1" data-i="4" data-j="4"/>
<path d="M177,187 191,205 200,187 Z" fill="#ff0000" stroke="black" stroke-width="1" data-i="4" data-j="4"/>
<polygon points="198,166 210,185 221,168" fill="#ff0000" stroke="black" stroke-width="1" data-i="4" data-j="5"/>
<path d="M198,166 210,185 221,168 Z" fill="#ff0000" stroke="black" stroke-width="1" data-i="4" data-j="5"/>
<polygon points="240,165 218,168 230,185" fill="#ff0000" stroke="black" stroke-width="1" data-i="4" data-j="5"/>
<path d="M240,165 218,168 230,185 Z" fill="#ff0000" stroke="black" stroke-width="1" data-i="4" data-j="5"/>
<polygon points="209,180 200,200 220,199" fill="#ff0000" stroke="black" stroke-width="1" data-i="4" data-j="5"/>
<path d="M209,180 200,200 220,199 Z" fill="#ff0000" stroke="black" stroke-width="1" data-i="4" data-j="5"/>
<polygon points="233,206 237,184 218,189" fill="#ff0000" stroke="black" stroke-width="1" data-i="4" data-j="5"/>
<path d="M233,206 237,184 218,189 Z" fill="#ff0000" stroke="black" stroke-width="1" data-i="4" data-j="5"/>
<polygon points="14,200 -1,215 16,223" fill="#ff0000" stroke="black" stroke-width="1" data-i="5" data-j="0"/>
<path d="M14,200 -1,215 16,223 Z" fill="#ff0000" stroke="black" stroke-width="1" data-i="5" data-j="0"/>
<polygon points="41,220 30,201 18,217" fill="#ff0000" stroke="black" stroke-width="1" data-i="5" data-j="0"/>
<path d="M41,220 30,201 18,217 Z" fill="#ff0000" stroke="black" stroke-width="1" data-i="5" data-j="0"/>
<polygon points="22,228 0,226 7,245" fill="#ff0000" stroke="black" stroke-width="1" data-i="5" data-j="0"/>
<path d="M22,228 0,226 7,245 Z" fill="#ff0000" stroke="black" stroke-width="1" data-i="5" data-j="0"/>
<polygon points="18,225 29,245 41,228" fill="#ff0000" stroke="black" stroke-width="1" data-i="5" data-j="0"/>
<path d="M18,225 29,245 41,228 Z" fill="#ff0000" stroke="black" stroke-width="1" data-i="5" data-j="0"/>
<polygon points="40,204 47,225 61,210" fill="#ff0000" stroke="black" stroke-width="1" data-i="5" data-j="1"/>
<path d="M40,204 47,225 61,210 Z" fill="#ff0000" stroke="black" stroke-width="1" data-i="5" data-j="1"/>
<polygon points="71,200 59,219 79,220" fill="#ff0000" stroke="black" stroke-width="1" data-i="5" data-j="1"/>
<path d="M71,200 59,219 79,220 Z" fill="#ff0000" stroke="black" stroke-width="1" data-i="5" data-j="1"/>
<polygon points="56,245 55,222 38,231" fill="#ff0000" stroke="black" stroke-width="1" data-i="5" data-j="1"/>
<path d="M56,245 55,222 38,231 Z" fill="#ff0000" stroke="black" stroke-width="1" data-i="5" data-j="1"/>
<polygon points="65,245 81,230 63,223" fill="#ff0000" stroke="black" stroke-width="1" data-i="5" data-j="1"/>
<path d="M65,245 81,230 63,223 Z" fill="#ff0000" stroke="black" stroke-width="1" data-i="5" data-j="1"/>
<polygon points="77,217 99,221 93,201" fill="#ff0000" stroke="black" stroke-width="1" data-i="5" data-j="2"/>
<path d="M77,217 99,221 93,201 Z" fill="#ff0000" stroke="black" stroke-width="1" data-i="5" data-j="2"/>
<polygon points="123,212 102,203 103,223" fill="#ff0000" stroke="black" stroke-width="1" data-i="5" data-j="2"/>
<path d="M123,212 102,203 103,223 Z" fill="#ff0000" stroke="black" stroke-width="1" data-i="5" data-j="2"/>
<polygon points="76,234 97,242 95,222" fill="#ff0000" stroke="black" stroke-width="1" data-i="5" data-j="2"/>
<path d="M76,234 97,242 95,222 Z" fill="#ff0000" stroke="black" stroke-width="1" data-i="5" data-j="2"/>
<polygon points="123,233 103,223 103,243" fill="#ff0000" stroke="black" stroke-width="1" data-i="5" data-j="2"/>
<path d="M123,233 103,223 103,243 Z" fill="#ff0000" stroke="black" stroke-width="1" data-i="5" data-j="2"/>
<polygon points="123,201 124,223 141,214" fill="#ff0000" stroke="black" stroke-width="1" data-i="5" data-j="3"/>
<path d="M123,201 124,223 141,214 Z" fill="#ff0000" stroke="black" stroke-width="1" data-i="5" data-j="3"/>
<polygon points="144,201 143,223 161,214" fill="#ff0000" stroke="black" stroke-width="1" data-i="5" data-j="3"/>
<path d="M144,201 143,223 161,214 Z" fill="#ff0000" stroke="black" stroke-width="1" data-i="5" data-j="3"/>
<polygon points="125,245 141,230 122,223" fill="#ff0000" stroke="black" stroke-width="1" data-i="5" data-j="3"/>
<path d="M125,245 141,230 122,223 Z" fill="#ff0000" stroke="black" stroke-width="1" data-i="5" data-j="3"/>
<polygon points="163,232 142,223 143,243" fill="#ff0000" stroke="black" stroke-width="1" data-i="5" data-j="3"/>
<path d="M163,232 142,223 143,243 Z" fill="#ff0000" stroke="black" stroke-width="1" data-i="5" data-j="3"/>
<polygon points="182,217 166,201 160,220" fill="#ff0000" stroke="black" stroke-width="1" data-i="5" data-j="4"/>
<path d="M182,217 166,201 160,220 Z" fill="#ff0000" stroke="black" stroke-width="1" data-i="5" data-j="4"/>
<polygon points="196,201 177,213 195,224" fill="#ff0000" stroke="black" stroke-width="1" data-i="5" data-j="4"/>
<path d="M196,201 177,213 195,224 Z" fill="#ff0000" stroke="black" stroke-width="1" data-i="5" data-j="4"/>
<polygon points="177,244 174,222 157,233" fill="#ff0000" stroke="black" stroke-width="1" data-i="5" data-j="4"/>
<path d="M177,244 174,222 157,233 Z" fill="#ff0000" stroke="black" stroke-width="1" data-i="5" data-j="4"/>
<polygon points="196,244 195,222 178,232" fill="#ff0000" stroke="black" stroke-width="1" data-i="5" data-j="4"/>
<path d="M196,244 195,222 178,232 Z" fill="#ff0000" stroke="black" stroke-width="1" data-i="5" data-j="4"/>
<polygon points="196,215 218,222 215,202" fill="#000000" stroke="black" stroke-width="1" data-i="5" data-j="5"/>
<path d="M196,215 218,222 215,202 Z" fill="#000000" stroke="black" stroke-width="1" data-i="5" data-j="5"/>
<polygon points="242,208 219,206 227,225" fill="#000000" stroke="black" stroke-width="1" data-i="5" data-j="5"/>
<path d="M242,208 219,206 227,225 Z" fill="#000000" stroke="black" stroke-width="1" data-i="5" data-j="5"/>
<polygon points="197,228 213,244 219,226" fill="#000000" stroke="black" stroke-width="1" data-i="5" data-j="5"/>
<path d="M197,228 213,244 219,226 Z" fill="#000000" stroke="black" stroke-width="1" data-i="5" data-j="5"/>
<polygon points="234,220 218,235 236,243" fill="#000000" stroke="black" stroke-width="1" data-i="5" data-j="5"/>
<path d="M234,220 218,235 236,243 Z" fill="#000000" stroke="black" stroke-width="1" data-i="5" data-j="5"/>
</svg>