<svg width="200" height="200" xmlns="http://www.w3.org/2000/svg">
<metadata>
	<dimension_matrice_cellule>3</dimension_matrice_cellule>
	<protocole>0</protocole>
</metadata>
<rect x="0" y="0" width="20" height="20" fill="#000000" stroke="black" stroke-width="1" data-i="0" data-j="0"/>
<rect x="20" y="0" width="20" height="20" fill="#000000" stroke="black" stroke-width="1" data-i="0" data-j="0"/>
<rect x="40" y="0" width="20" height="20" fill="#000000" stroke="black" stroke-width="1" data-i="0" data-j="0"/>
<rect x="0" y="20" width="20" height="20" fill="#000000" stroke="black" stroke-width="1" data-i="0" data-j="0"/>
<rect x="20" y="20" width="20" height="20" fill="#000000" stroke="black" stroke-width="1" data-i="0" data-j="0"/>
<rect x="40" y="20" width="20" height="20" fill="#000000" stroke="black" stroke-width="1" data-i="0" data-j="0"/>
<rect x="0" y="40" width="20" height="20" fill="#000000" stroke="black" stroke-width="1" data-i="0" data-j="0"/>
<rect x="20" y="40" width="20" height="20" fill="#000000" stroke="black" stroke-width="1" data-i="0" data-j="0"/>
<rect x="40" y="40" width="20" height="20" fill="#000000" stroke="black" stroke-width="1" data-i="0" data-j="0"/>
<rect x="60" y="0" width="20" height="20" fill="#ffffff" stroke="black" stroke-width="1" data-i="0" data-j="1"/>
<rect x="80" y="0" width="20" height="20" fill="#ffffff" stroke="black" stroke-width="1" data-i="0" data-j="1"/>
<rect x="100" y="0" width="20" height="20" fill="#ffffff" stroke="black" stroke-width="1" data-i="0" data-j="1"/>
<rect x="60" y="20" width="20" height="20" fill="#ffffff" stroke="black" stroke-width="1" data-i="0" data-j="1"/>
<rect x="80" y="20" width="20" height="20" fill="#ffffff" stroke="black" stroke-width="1" data-i="0" data-j="1"/>
<rect x="100" y="20" width="20" height="20" fill="#ffffff" stroke="black" stroke-width="1" data-i="0" data-j="1"/>
<rect x="60" y="40" width="20" height="20" fill="#ffffff" stroke="black" stroke-width="1" data-i="0" data-j="1"/>
<rect x="80" y="40" width="20" height="20" fill="#ffffff" stroke="black" stroke-width="1" data-i="0" data-j="1"/>
<rect x="100" y="40" width="20" height="20" fill="#ffffff" stroke="black" stroke-width="1" data-i="0" data-j="1"/>
<rect x="120" y="0" width="20" height="20" fill="#000000" stroke="black" stroke-width="1" data-i="0" data-j="2"/>
<rect x="140" y="0" width="20" height="20" fill="#000000" stroke="black" stroke-width="1" data-i="0" data-j="2"/>
<rect x="160" y="0" width="20" height="20" fill="#000000" stroke="black" stroke-width="1" data-i="0" data-j="2"/>
<rect x="120" y="20" width="20" height="20" fill="#000000" stroke="black" stroke-width="1" data-i="0" data-j="2"/>
<rect x="140" y="20" width="20" height="20" fill="#000000" stroke="black" stroke-width="1" data-i="0" data-j="2"/>
<rect x="160" y="20" width="20" height="20" fill="#000000" stroke="black" stroke-width="1" data-i="0" data-j="2"/>
<rect x="120" y="40" width="20" height="20" fill="#000000" stroke="black" stroke-width="1" data-i="0" data-j="2"/>
<rect x="140" y="40" width="20" height="20" fill="#000000" stroke="black" stroke-width="1" data-i="0" data-j="2"/>
<rect x="160" y="40" width="20" height="20" fill="#000000" stroke="black" stroke-width="1" data-i="0" data-j="2"/>
<rect x="0" y="60" width="20" height="20" fill="#ffffff" stroke="black" stroke-width="1" data-i="1" data-j="0"/>
<rect x="20" y="60" width="20" height="20" fill="#ffffff" stroke="black" stroke-width="1" data-i="1" data-j="0"/>
<rect x="40" y="60" width="20" height="20" fill="#ffffff" stroke="black" stroke-width="1" data-i="1" data-j="0"/>
<rect x="0" y="80" width="20" height="20" fill="#ffffff" stroke="black" stroke-width="1" data-i="1" data-j="0"/>
<rect x="20" y="80" width="20" height="20" fill="#ffffff" stroke="black" stroke-width="1" data-i="1" data-j="0"/>
<rect x="40" y="80" width="20" height="20" fill="#ffffff" stroke="black" stroke-width="1" data-i="1" data-j="0"/>
<rect x="0" y="100" width="20" height="20" fill="#ffffff" stroke="black" stroke-width="1" data-i="1" data-j="0"/>
<rect x="20" y="100" width="20" height="20" fill="#000000" stroke="black" stroke-width="1" data-i="1" data-j="0"/>
<rect x="40" y="100" width="20" height="20" fill="#ffffff" stroke="black" stroke-width="1" data-i="1" data-j="0"/>
<rect x="60" y="60" width="20" height="20" fill="#ffffff" stroke="black" stroke-width="1" data-i="1" data-j="1"/>
<rect x="80" y="60" width="20" height="20" fill="#ffffff" stroke="black" stroke-width="1" data-i="1" data-j="1"/>
<rect x="100" y="60" width="20" height="20" fill="#000000" stroke="black" stroke-width="1" data-i="1" data-j="1"/>
<rect x="60" y="80" width="20" height="20" fill="#ffffff" stroke="black" stroke-width="1" data-i="1" data-j="1"/>
<rect x="80" y="80" width="20" height="20" fill="#ffffff" stroke="black" stroke-width="1" data-i="1" data-j="1"/>
<rect x="100" y="80" width="20" height="20" fill="#ffffff" stroke="black" stroke-width="1" data-i="1" data-j="1"/>
<rect x="60" y="100" width="20" height="20" fill="#ffffff" stroke="black" stroke-width="1" data-i="1" data-j="1"/>
<rect x="80" y="100" width="20" height="20" fill="#ffffff" stroke="black" stroke-width="1" data-i="1" data-j="1"/>
<rect x="100" y="100" width="20" height="20" fill="#ffffff" stroke="black" stroke-width="1" data-i="1" data-j="1"/>
<rect x="120" y="60" width="20" height="20" fill="#ffffff" stroke="black" stroke-width="1" data-i="1" data-j="2"/>
<rect x="140" y="60" width="20" height="20" fill="#000000" stroke="black" stroke-width="1" data-i="1" data-j="2"/>
<rect x="160" y="60" width="20" height="20" fill="#000000" stroke="black" stroke-width="1" data-i="1" data-j="2"/>
<rect x="120" y="80" width="20" height="20" fill="#000000" stroke="black" stroke-width="1" data-i="1" data-j="2"/>
<rect x="140" y="80" width="20" height="20" fill="#ffffff" stroke="black" stroke-width="1" data-i="1" data-j="2"/>
<rect x="160" y="80" width="20" height="20" fill="#000000" stroke="black" stroke-width="1" data-i="1" data-j="2"/>
<rect x="120" y="100" width="20" height="20" fill="#ffffff" stroke="black" stroke-width="1" data-i="1" data-j="2"/>
<rect x="140" y="100" width="20" height="20" fill="#ffffff" stroke="black" stroke-width="1" data-i="1" data-j="2"/>
<rect x="160" y="100" width="20" height="20" fill="#ffffff" stroke="black" stroke-width="1" data-i="1" data-j="2"/>
<rect x="0" y="120" width="20" height="20" fill="#ffffff" stroke="black" stroke-width="1" data-i="2" data-j="0"/>
<rect x="20" y="120" width="20" height="20" fill="#000000" stroke="black" stroke-width="1" data-i="2" data-j="0"/>
<rect x="40" y="120" width="20" height="20" fill="#000000" stroke="black" stroke-width="1" data-i="2" data-j="0"/>
<rect x="0" y="140" width="20" height="20" fill="#000000" stroke="black" stroke-width="1" data-i="2" data-j="0"/>
<rect x="20" y="140" width="20" height="20" fill="#ffffff" stroke="black" stroke-width="1" data-i="2" data-j="0"/>
<rect x="40" y="140" width="20" height="20" fill="#ffffff" stroke="black" stroke-width="1" data-i="2" data-j="0"/>
<rect x="0" y="160" width="20" height="20" fill="#000000" stroke="black" stroke-width="1" data-i="2" data-j="0"/>
<rect x="20" y="160" width="20" height="20" fill="#000000" stroke="black" stroke-width="1" data-i="2" data-j="0"/>
<rect x="40" y="160" width="20" height="20" fill="#ffffff" stroke="black" stroke-width="1" data-i="2" data-j="0"/>
<rect x="60" y="120" width="20" height="20" fill="#ffffff" stroke="black" stroke-width="1" data-i="2" data-j="1"/>
<rect x="80" y="120" width="20" height="20" fill="#000000" stroke="black" stroke-width="1" data-i="2" data-j="1"/>
<rect x="100" y="120" width="20" height="20" fill="#000000" stroke="black" stroke-width="1" data-i="2" data-j="1"/>
<rect x="60" y="140" width="20" height="20" fill="#ffffff" stroke="black" stroke-width="1" data-i="2" data-j="1"/>
<rect x="80" y="140" width="20" height="20" fill="#ffffff" stroke="black" stroke-width="1" data-i="2" data-j="1"/>
<rect x="100" y="140" width="20" height="20" fill="#000000" stroke="black" stroke-width="1" data-i="2" data-j="1"/>
<rect x="60" y="160" width="20" height="20" fill="#ffffff" stroke="black" stroke-width="1" data-i="2" data-j="1"/>
<rect x="80" y="160" width="20" height="20" fill="#000000" stroke="black" stroke-width="1" data-i="2" data-j="1"/>
<rect x="100" y="160" width="20" height="20" fill="#ffffff" stroke="black" stroke-width="1" data-i="2" data-j="1"/>
<rect x="120" y="120" width="20" height="20" fill="#000000" stroke="black" stroke-width="1" data-i="2" data-j="2"/>
<rect x="140" y="120" width="20" height="20" fill="#000000" stroke="black" stroke-width="1" data-i="2" data-j="2"/>
<rect x="160" y="120" width="20" height="20" fill="#000000" stroke="black" stroke-width="1" data-i="2" data-j="2"/>
<rect x="120" y="140" width="20" height="20" fill="#000000" stroke="black" stroke-width="1" data-i="2" data-j="2"/>
<rect x="140" y="140" width="20" height="20" fill="#000000" stroke="black" stroke-width="1" data-i="2" data-j="2"/>
<rect x="160" y="140" width="20" height="20" fill="#000000" stroke="black" stroke-width="1" data-i="2" data-j="2"/>
<rect x="120" y="160" width="20" height="20" fill="#000000" stroke="black" stroke-width="1" data-i="2" data-j="2"/>
<rect x="140" y="160" width="20" height="20" fill="#000000" stroke="black" stroke-width="1" data-i="2" data-j="2"/>
<rect x="160" y="160" width="20" height="20" fill="#000000" stroke="black" stroke-width="1" data-i="2" data-j="2"/>
</svg>