<svg width="220" height="220" xmlns="http://www.w3.org/2000/svg">
<metadata>
	<dimension_matrice_cellule>5</dimension_matrice_cellule>
	<protocole>2</protocole>
</metadata>
<polygon points="20,4 -1,10 11,25" fill="#000000" stroke="black" stroke-width="1" data-i="0" data-j="0"/>
<path d="M20,4 -1,10 11,25 Z" fill="#000000" stroke="black" stroke-width="1" data-i="0" data-j="0"/>
<polygon points="31,26 39,5 19,7" fill="#000000" stroke="black" stroke-width="1" data-i="0" data-j="0"/>
<path d="M31,26 39,5 19,7 Z" fill="#000000" stroke="black" stroke-width="1" data-i="0" data-j="0"/>
<polygon points="5,20 2,42 21,36" fill="#000000" stroke="black" stroke-width="1" data-i="0" data-j="0"/>
<path d="M5,20 2,42 21,36 Z" fill="#000000" stroke="black" stroke-width="1" data-i="0" data-j="0"/>
<polygon points="21,23 26,44 41,31" fill="#000000" stroke="black" stroke-width="1" data-i="0" data-j="0"/>
<path d="M21,23 26,44 41,31 Z" fill="#000000" stroke="black" stroke-width="1" data-i="0" data-j="0"/>
<polygon points="50,0 39,19 59,20" fill="#ff0000" stroke="black" stroke-width="1" data-i="0" data-j="1"/>
<path d="M50,0 39,19 59,20 Z" fill="#ff0000" stroke="black" stroke-width="1" data-i="0" data-j="1"/>
<polygon points="73,0 58,16 77,22" fill="#ff0000" stroke="black" stroke-width="1" data-i="0" data-j="1"/>
<path d="M73,0 58,16 77,22 Z" fill="#ff0000" stroke="black" stroke-width="1" data-i="0" data-j="1"/>
<polygon points="36,35 58,42 55,22" fill="#ff0000" stroke="black" stroke-width="1" data-i="0" data-j="1"/>
<path d="M36,35 58,42 55,22 Z" fill="#ff0000" stroke="black" stroke-width="1" data-i="0" data-j="1"/>
<polygon points="56,33 76,43 76,23" fill="#0000ff" stroke="black" stroke-width="1" data-i="0" data-j="1"/>
<path d="M56,33 76,43 76,23 Z" fill="#0000ff" stroke="black" stroke-width="1" data-i="0" data-j="1"/>
<polygon points="79,4 88,25 101,10" fill="#ff0000" stroke="black" stroke-width="1" data-i="0" data-j="2"/>
<path d="M79,4 88,25 101,10 Z" fill="#ff0000" stroke="black" stroke-width="1" data-i="0" data-j="2"/>
<polygon points="111,0 99,18 118,21" fill="#ff0000" stroke="black" stroke-width="1" data-i="0" data-j="2"/>
<path d="M111,0 99,18 118,21 Z" fill="#ff0000" stroke="black" stroke-width="1" data-i="0" data-j="2"/>
<polygon points="102,38 87,21 79,39" fill="#ff0000" stroke="black" stroke-width="1" data-i="0" data-j="2"/>
<path d="M102,38 87,21 79,39 Z" fill="#ff0000" stroke="black" stroke-width="1" data-i="0" data-j="2"/>
<polygon points="103,44 121,32 104,22" fill="#00ff00" stroke="black" stroke-width="1" data-i="0" data-j="2"/>
<path d="M103,44 121,32 104,22 Z" fill="#00ff00" stroke="black" stroke-width="1" data-i="0" data-j="2"/>
<polygon points="127,0 121,21 140,18" fill="#00ff00" stroke="black" stroke-width="1" data-i="0" data-j="3"/>
<path d="M127,0 121,21 140,18 Z" fill="#00ff00" stroke="black" stroke-width="1" data-i="0" data-j="3"/>
<polygon points="160,4 138,9 151,25" fill="#0000ff" stroke="black" stroke-width="1" data-i="0" data-j="3"/>
<path d="M160,4 138,9 151,25 Z" fill="#0000ff" stroke="black" stroke-width="1" data-i="0" data-j="3"/>
<polygon points="125,45 141,30 122,23" fill="#0000ff" stroke="black" stroke-width="1" data-i="0" data-j="3"/>
<path d="M125,45 141,30 122,23 Z" fill="#0000ff" stroke="black" stroke-width="1" data-i="0" data-j="3"/>
<polygon points="155,45 156,22 138,31" fill="#ff0000" stroke="black" stroke-width="1" data-i="0" data-j="3"/>
<path d="M155,45 156,22 138,31 Z" fill="#ff0000" stroke="black" stroke-width="1" data-i="0" data-j="3"/>
<polygon points="157,17 179,21 173,1" fill="#000000" stroke="black" stroke-width="1" data-i="0" data-j="4"/>
<path d="M157,17 179,21 173,1 Z" fill="#000000" stroke="black" stroke-width="1" data-i="0" data-j="4"/>
<polygon points="203,10 181,4 185,24" fill="#000000" stroke="black" stroke-width="1" data-i="0" data-j="4"/>
<path d="M203,10 181,4 185,24 Z" fill="#000000" stroke="black" stroke-width="1" data-i="0" data-j="4"/>
<polygon points="180,41 171,21 158,36" fill="#000000" stroke="black" stroke-width="1" data-i="0" data-j="4"/>
<path d="M180,41 171,21 158,36 Z" fill="#000000" stroke="black" stroke-width="1" data-i="0" data-j="4"/>
<polygon points="188,46 200,27 180,25" fill="#000000" stroke="black" stroke-width="1" data-i="0" data-j="4"/>
<path d="M188,46 200,27 180,25 Z" fill="#000000" stroke="black" stroke-width="1" data-i="0" data-j="4"/>
<polygon points="9,40 0,60 20,59" fill="#00ff00" stroke="black" stroke-width="1" data-i="1" data-j="0"/>
<path d="M9,40 0,60 20,59 Z" fill="#00ff00" stroke="black" stroke-width="1" data-i="1" data-j="0"/>
<polygon points="27,66 40,48 21,45" fill="#ff0000" stroke="black" stroke-width="1" data-i="1" data-j="0"/>
<path d="M27,66 40,48 21,45 Z" fill="#ff0000" stroke="black" stroke-width="1" data-i="1" data-j="0"/>
<polygon points="20,65 -1,68 10,85" fill="#0000ff" stroke="black" stroke-width="1" data-i="1" data-j="0"/>
<path d="M20,65 -1,68 10,85 Z" fill="#0000ff" stroke="black" stroke-width="1" data-i="1" data-j="0"/>
<polygon points="25,60 23,83 41,75" fill="#ff0000" stroke="black" stroke-width="1" data-i="1" data-j="0"/>
<path d="M25,60 23,83 41,75 Z" fill="#ff0000" stroke="black" stroke-width="1" data-i="1" data-j="0"/>
<polygon points="38,46 50,65 60,47" fill="#00ff00" stroke="black" stroke-width="1" data-i="1" data-j="1"/>
<path d="M38,46 50,65 60,47 Z" fill="#00ff00" stroke="black" stroke-width="1" data-i="1" data-j="1"/>
<polygon points="75,65 76,42 58,51" fill="#0000ff" stroke="black" stroke-width="1" data-i="1" data-j="1"/>
<path d="M75,65 76,42 58,51 Z" fill="#0000ff" stroke="black" stroke-width="1" data-i="1" data-j="1"/>
<polygon points="61,79 48,61 39,79" fill="#ffff00" stroke="black" stroke-width="1" data-i="1" data-j="1"/>
<path d="M61,79 48,61 39,79 Z" fill="#ffff00" stroke="black" stroke-width="1" data-i="1" data-j="1"/>
<polygon points="82,70 61,65 65,84" fill="#ff0000" stroke="black" stroke-width="1" data-i="1" data-j="1"/>
<path d="M82,70 61,65 65,84 Z" fill="#ff0000" stroke="black" stroke-width="1" data-i="1" data-j="1"/>
<polygon points="101,45 78,48 90,65" fill="#00ff00" stroke="black" stroke-width="1" data-i="1" data-j="2"/>
<path d="M101,45 78,48 90,65 Z" fill="#00ff00" stroke="black" stroke-width="1" data-i="1" data-j="2"/>
<polygon points="107,66 121,48 101,45" fill="#0000ff" stroke="black" stroke-width="1" data-i="1" data-j="2"/>
<path d="M107,66 121,48 101,45 Z" fill="#0000ff" stroke="black" stroke-width="1" data-i="1" data-j="2"/>
<polygon points="81,62 86,84 101,72" fill="#ffff00" stroke="black" stroke-width="1" data-i="1" data-j="2"/>
<path d="M81,62 86,84 101,72 Z" fill="#ffff00" stroke="black" stroke-width="1" data-i="1" data-j="2"/>
<polygon points="123,72 102,63 104,83" fill="#ffff00" stroke="black" stroke-width="1" data-i="1" data-j="2"/>
<path d="M123,72 102,63 104,83 Z" fill="#ffff00" stroke="black" stroke-width="1" data-i="1" data-j="2"/>
<polygon points="124,65 141,51 123,43" fill="#ff0000" stroke="black" stroke-width="1" data-i="1" data-j="3"/>
<path d="M124,65 141,51 123,43 Z" fill="#ff0000" stroke="black" stroke-width="1" data-i="1" data-j="3"/>
<polygon points="141,43 146,64 161,52" fill="#0000ff" stroke="black" stroke-width="1" data-i="1" data-j="3"/>
<path d="M141,43 146,64 161,52 Z" fill="#0000ff" stroke="black" stroke-width="1" data-i="1" data-j="3"/>
<polygon points="130,86 139,66 119,67" fill="#ff0000" stroke="black" stroke-width="1" data-i="1" data-j="3"/>
<path d="M130,86 139,66 119,67 Z" fill="#ff0000" stroke="black" stroke-width="1" data-i="1" data-j="3"/>
<polygon points="160,65 138,68 150,85" fill="#ff0000" stroke="black" stroke-width="1" data-i="1" data-j="3"/>
<path d="M160,65 138,68 150,85 Z" fill="#ff0000" stroke="black" stroke-width="1" data-i="1" data-j="3"/>
<polygon points="159,44 168,65 181,49" fill="#00ff00" stroke="black" stroke-width="1" data-i="1" data-j="4"/>
<path d="M159,44 168,65 181,49 Z" fill="#00ff00" stroke="black" stroke-width="1" data-i="1" data-j="4"/>
<polygon points="202,48 180,46 187,65" fill="#0000ff" stroke="black" stroke-width="1" data-i="1" data-j="4"/>
<path d="M202,48 180,46 187,65 Z" fill="#0000ff" stroke="black" stroke-width="1" data-i="1" data-j="4"/>
<polygon points="183,75 164,62 162,82" fill="#ffff00" stroke="black" stroke-width="1" data-i="1" data-j="4"/>
<path d="M183,75 164,62 162,82 Z" fill="#ffff00" stroke="black" stroke-width="1" data-i="1" data-j="4"/>
<polygon points="200,81 191,61 178,76" fill="#ffff00" stroke="black" stroke-width="1" data-i="1" data-j="4"/>
<path d="M200,81 191,61 178,76 Z" fill="#ffff00" stroke="black" stroke-width="1" data-i="1" data-j="4"/>
<polygon points="10,106 19,86 0,87" fill="#00ff00" stroke="black" stroke-width="1" data-i="2" data-j="0"/>
<path d="M10,106 19,86 0,87 Z" fill="#00ff00" stroke="black" stroke-width="1" data-i="2" data-j="0"/>
<polygon points="23,104 42,92 24,82" fill="#0000ff" stroke="black" stroke-width="1" data-i="2" data-j="0"/>
<path d="M23,104 42,92 24,82 Z" fill="#0000ff" stroke="black" stroke-width="1" data-i="2" data-j="0"/>
<polygon points="19,103 -1,110 12,125" fill="#ffff00" stroke="black" stroke-width="1" data-i="2" data-j="0"/>
<path d="M19,103 -1,110 12,125 Z" fill="#ffff00" stroke="black" stroke-width="1" data-i="2" data-j="0"/>
<polygon points="38,123 33,101 18,114" fill="#ff0000" stroke="black" stroke-width="1" data-i="2" data-j="0"/>
<path d="M38,123 33,101 18,114 Z" fill="#ff0000" stroke="black" stroke-width="1" data-i="2" data-j="0"/>
<polygon points="37,90 54,104 58,85" fill="#ff0000" stroke="black" stroke-width="1" data-i="2" data-j="1"/>
<path d="M37,90 54,104 58,85 Z" fill="#ff0000" stroke="black" stroke-width="1" data-i="2" data-j="1"/>
<polygon points="76,81 57,93 75,104" fill="#0000ff" stroke="black" stroke-width="1" data-i="2" data-j="1"/>
<path d="M76,81 57,93 75,104 Z" fill="#0000ff" stroke="black" stroke-width="1" data-i="2" data-j="1"/>
<polygon points="63,110 41,104 45,124" fill="#ff0000" stroke="black" stroke-width="1" data-i="2" data-j="1"/>
<path d="M63,110 41,104 45,124 Z" fill="#ff0000" stroke="black" stroke-width="1" data-i="2" data-j="1"/>
<polygon points="83,115 65,102 61,121" fill="#00ff00" stroke="black" stroke-width="1" data-i="2" data-j="1"/>
<path d="M83,115 65,102 61,121 Z" fill="#00ff00" stroke="black" stroke-width="1" data-i="2" data-j="1"/>
<polygon points="100,84 78,89 91,105" fill="#00ff00" stroke="black" stroke-width="1" data-i="2" data-j="2"/>
<path d="M100,84 78,89 91,105 Z" fill="#00ff00" stroke="black" stroke-width="1" data-i="2" data-j="2"/>
<polygon points="96,92 115,103 117,83" fill="#0000ff" stroke="black" stroke-width="1" data-i="2" data-j="2"/>
<path d="M96,92 115,103 117,83 Z" fill="#0000ff" stroke="black" stroke-width="1" data-i="2" data-j="2"/>
<polygon points="83,124 102,112 84,102" fill="#00ff00" stroke="black" stroke-width="1" data-i="2" data-j="2"/>
<path d="M83,124 102,112 84,102 Z" fill="#00ff00" stroke="black" stroke-width="1" data-i="2" data-j="2"/>
<polygon points="98,119 120,119 111,101" fill="#00ff00" stroke="black" stroke-width="1" data-i="2" data-j="2"/>
<path d="M98,119 120,119 111,101 Z" fill="#00ff00" stroke="black" stroke-width="1" data-i="2" data-j="2"/>
<polygon points="122,82 125,104 142,93" fill="#00ff00" stroke="black" stroke-width="1" data-i="2" data-j="3"/>
<path d="M122,82 125,104 142,93 Z" fill="#00ff00" stroke="black" stroke-width="1" data-i="2" data-j="3"/>
<polygon points="160,85 138,88 150,105" fill="#0000ff" stroke="black" stroke-width="1" data-i="2" data-j="3"/>
<path d="M160,85 138,88 150,105 Z" fill="#0000ff" stroke="black" stroke-width="1" data-i="2" data-j="3"/>
<polygon points="142,118 127,101 120,120" fill="#ffff00" stroke="black" stroke-width="1" data-i="2" data-j="3"/>
<path d="M142,118 127,101 120,120 Z" fill="#ffff00" stroke="black" stroke-width="1" data-i="2" data-j="3"/>
<polygon points="151,100 139,118 159,121" fill="#ff0000" stroke="black" stroke-width="1" data-i="2" data-j="3"/>
<path d="M151,100 139,118 159,121 Z" fill="#ff0000" stroke="black" stroke-width="1" data-i="2" data-j="3"/>
<polygon points="171,80 159,98 179,101" fill="#ff0000" stroke="black" stroke-width="1" data-i="2" data-j="4"/>
<path d="M171,80 159,98 179,101 Z" fill="#ff0000" stroke="black" stroke-width="1" data-i="2" data-j="4"/>
<polygon points="178,100 200,98 190,81" fill="#0000ff" stroke="black" stroke-width="1" data-i="2" data-j="4"/>
<path d="M178,100 200,98 190,81 Z" fill="#0000ff" stroke="black" stroke-width="1" data-i="2" data-j="4"/>
<polygon points="167,100 161,121 181,117" fill="#ffff00" stroke="black" stroke-width="1" data-i="2" data-j="4"/>
<path d="M167,100 161,121 181,117 Z" fill="#ffff00" stroke="black" stroke-width="1" data-i="2" data-j="4"/>
<polygon points="179,104 188,125 201,109" fill="#ff0000" stroke="black" stroke-width="1" data-i="2" data-j="4"/>
<path d="M179,104 188,125 201,109 Z" fill="#ff0000" stroke="black" stroke-width="1" data-i="2" data-j="4"/>
<polygon points="-2,137 19,140 13,121" fill="#00ff00" stroke="black" stroke-width="1" data-i="3" data-j="0"/>
<path d="M-2,137 19,140 13,121 Z" fill="#00ff00" stroke="black" stroke-width="1" data-i="3" data-j="0"/>
<polygon points="29,146 40,127 20,126" fill="#ffff00" stroke="black" stroke-width="1" data-i="3" data-j="0"/>
<path d="M29,146 40,127 20,126 Z" fill="#ffff00" stroke="black" stroke-width="1" data-i="3" data-j="0"/>
<polygon points="-2,158 20,159 12,141" fill="#00ff00" stroke="black" stroke-width="1" data-i="3" data-j="0"/>
<path d="M-2,158 20,159 12,141 Z" fill="#00ff00" stroke="black" stroke-width="1" data-i="3" data-j="0"/>
<polygon points="16,151 35,164 38,144" fill="#ffff00" stroke="black" stroke-width="1" data-i="3" data-j="0"/>
<path d="M16,151 35,164 38,144 Z" fill="#ffff00" stroke="black" stroke-width="1" data-i="3" data-j="0"/>
<polygon points="50,120 39,139 59,140" fill="#00ff00" stroke="black" stroke-width="1" data-i="3" data-j="1"/>
<path d="M50,120 39,139 59,140 Z" fill="#00ff00" stroke="black" stroke-width="1" data-i="3" data-j="1"/>
<polygon points="65,120 62,142 81,136" fill="#ffff00" stroke="black" stroke-width="1" data-i="3" data-j="1"/>
<path d="M65,120 62,142 81,136 Z" fill="#ffff00" stroke="black" stroke-width="1" data-i="3" data-j="1"/>
<polygon points="36,151 55,164 57,144" fill="#ff0000" stroke="black" stroke-width="1" data-i="3" data-j="1"/>
<path d="M36,151 55,164 57,144 Z" fill="#ff0000" stroke="black" stroke-width="1" data-i="3" data-j="1"/>
<polygon points="62,142 65,164 82,153" fill="#0000ff" stroke="black" stroke-width="1" data-i="3" data-j="1"/>
<path d="M62,142 65,164 82,153 Z" fill="#0000ff" stroke="black" stroke-width="1" data-i="3" data-j="1"/>
<polygon points="99,124 78,130 92,145" fill="#00ff00" stroke="black" stroke-width="1" data-i="3" data-j="2"/>
<path d="M99,124 78,130 92,145 Z" fill="#00ff00" stroke="black" stroke-width="1" data-i="3" data-j="2"/>
<polygon points="113,120 98,137 118,142" fill="#0000ff" stroke="black" stroke-width="1" data-i="3" data-j="2"/>
<path d="M113,120 98,137 118,142 Z" fill="#0000ff" stroke="black" stroke-width="1" data-i="3" data-j="2"/>
<polygon points="92,166 98,144 78,148" fill="#00ff00" stroke="black" stroke-width="1" data-i="3" data-j="2"/>
<path d="M92,166 98,144 78,148 Z" fill="#00ff00" stroke="black" stroke-width="1" data-i="3" data-j="2"/>
<polygon points="112,166 118,144 98,148" fill="#ff0000" stroke="black" stroke-width="1" data-i="3" data-j="2"/>
<path d="M112,166 118,144 98,148 Z" fill="#ff0000" stroke="black" stroke-width="1" data-i="3" data-j="2"/>
<polygon points="116,131 135,143 137,124" fill="#ffff00" stroke="black" stroke-width="1" data-i="3" data-j="3"/>
<path d="M116,131 135,143 137,124 Z" fill="#ffff00" stroke="black" stroke-width="1" data-i="3" data-j="3"/>
<polygon points="137,127 152,145 160,126" fill="#0000ff" stroke="black" stroke-width="1" data-i="3" data-j="3"/>
<path d="M137,127 152,145 160,126 Z" fill="#0000ff" stroke="black" stroke-width="1" data-i="3" data-j="3"/>
<polygon points="118,146 130,165 140,148" fill="#00ff00" stroke="black" stroke-width="1" data-i="3" data-j="3"/>
<path d="M118,146 130,165 140,148 Z" fill="#00ff00" stroke="black" stroke-width="1" data-i="3" data-j="3"/>
<polygon points="139,145 149,165 161,148" fill="#ff0000" stroke="black" stroke-width="1" data-i="3" data-j="3"/>
<path d="M139,145 149,165 161,148 Z" fill="#ff0000" stroke="black" stroke-width="1" data-i="3" data-j="3"/>
<polygon points="180,141 170,121 158,137" fill="#ff0000" stroke="black" stroke-width="1" data-i="3" data-j="4"/>
<path d="M180,141 170,121 158,137 Z" fill="#ff0000" stroke="black" stroke-width="1" data-i="3" data-j="4"/>
<polygon points="200,124 178,130 191,145" fill="#ff0000" stroke="black" stroke-width="1" data-i="3" data-j="4"/>
<path d="M200,124 178,130 191,145 Z" fill="#ff0000" stroke="black" stroke-width="1" data-i="3" data-j="4"/>
<polygon points="166,166 181,149 161,144" fill="#ff0000" stroke="black" stroke-width="1" data-i="3" data-j="4"/>
<path d="M166,166 181,149 161,144 Z" fill="#ff0000" stroke="black" stroke-width="1" data-i="3" data-j="4"/>
<polygon points="197,142 177,153 194,164" fill="#ff0000" stroke="black" stroke-width="1" data-i="3" data-j="4"/>
<path d="M197,142 177,153 194,164 Z" fill="#ff0000" stroke="black" stroke-width="1" data-i="3" data-j="4"/>
<polygon points="0,182 21,176 8,161" fill="#ff0000" stroke="black" stroke-width="1" data-i="4" data-j="0"/>
<path d="M0,182 21,176 8,161 Z" fill="#ff0000" stroke="black" stroke-width="1" data-i="4" data-j="0"/>
<polygon points="42,168 20,166 27,185" fill="#ff0000" stroke="black" stroke-width="1" data-i="4" data-j="0"/>
<path d="M42,168 20,166 27,185 Z" fill="#ff0000" stroke="black" stroke-width="1" data-i="4" data-j="0"/>
<polygon points="2,182 5,204 22,193" fill="#ff0000" stroke="black" stroke-width="1" data-i="4" data-j="0"/>
<path d="M2,182 5,204 22,193 Z" fill="#ff0000" stroke="black" stroke-width="1" data-i="4" data-j="0"/>
<polygon points="42,190 21,185 25,204" fill="#ff0000" stroke="black" stroke-width="1" data-i="4" data-j="0"/>
<path d="M42,190 21,185 25,204 Z" fill="#ff0000" stroke="black" stroke-width="1" data-i="4" data-j="0"/>
<polygon points="50,160 40,180 60,180" fill="#ff0000" stroke="black" stroke-width="1" data-i="4" data-j="1"/>
<path d="M50,160 40,180 60,180 Z" fill="#ff0000" stroke="black" stroke-width="1" data-i="4" data-j="1"/>
<polygon points="57,169 73,184 79,165" fill="#ff0000" stroke="black" stroke-width="1" data-i="4" data-j="1"/>
<path d="M57,169 73,184 79,165 Z" fill="#ff0000" stroke="black" stroke-width="1" data-i="4" data-j="1"/>
<polygon points="44,181 43,203 61,195" fill="#ff0000" stroke="black" stroke-width="1" data-i="4" data-j="1"/>
<path d="M44,181 43,203 61,195 Z" fill="#ff0000" stroke="black" stroke-width="1" data-i="4" data-j="1"/>
<polygon points="57,198 80,199 71,181" fill="#ff0000" stroke="black" stroke-width="1" data-i="4" data-j="1"/>
<path d="M57,198 80,199 71,181 Z" fill="#ff0000" stroke="black" stroke-width="1" data-i="4" data-j="1"/>
<polygon points="81,163 86,184 101,172" fill="#ff0000" stroke="black" stroke-width="1" data-i="4" data-j="2"/>
<path d="M81,163 86,184 101,172 Z" fill="#ff0000" stroke="black" stroke-width="1" data-i="4" data-j="2"/>
<polygon points="111,160 99,179 119,180" fill="#ff0000" stroke="black" stroke-width="1" data-i="4" data-j="2"/>
<path d="M111,160 99,179 119,180 Z" fill="#ff0000" stroke="black" stroke-width="1" data-i="4" data-j="2"/>
<polygon points="85,180 83,203 101,195" fill="#ff0000" stroke="black" stroke-width="1" data-i="4" data-j="2"/>
<path d="M85,180 83,203 101,195 Z" fill="#ff0000" stroke="black" stroke-width="1" data-i="4" data-j="2"/>
<polygon points="113,206 117,184 98,189" fill="#ff0000" stroke="black" stroke-width="1" data-i="4" data-j="2"/>
<path d="M113,206 117,184 98,189 Z" fill="#ff0000" stroke="black" stroke-width="1" data-i="4" data-j="2"/>
<polygon points="133,186 138,164 118,169" fill="#ff0000" stroke="black" stroke-width="1" data-i="4" data-j="3"/>
<path d="M133,186 138,164 118,169 Z" fill="#ff0000" stroke="black" stroke-width="1" data-i="4" data-j="3"/>
<polygon points="154,160 138,176 157,183" fill="#ff0000" stroke="black" stroke-width="1" data-i="4" data-j="3"/>
<path d="M154,160 138,176 157,183 Z" fill="#ff0000" stroke="black" stroke-width="1" data-i="4" data-j="3"/>
<polygon points="141,186 119,187 129,205" fill="#ff0000" stroke="black" stroke-width="1" data-i="4" data-j="3"/>
<path d="M141,186 119,187 129,205 Z" fill="#ff0000" stroke="black" stroke-width="1" data-i="4" data-j="3"/>
<polygon points="143,181 144,204 161,194" fill="#ff0000" stroke="black" stroke-width="1" data-i="4" data-j="3"/>
<path d="M143,181 144,204 161,194 Z" fill="#ff0000" stroke="black" stroke-width="1" data-i="4" data-j="3"/>
<polygon points="159,181 181,176 168,161" fill="#000000" stroke="black" stroke-width="1" data-i="4" data-j="4"/>
<path d="M159,181 181,176 168,161 Z" fill="#000000" stroke="black" stroke-width="1" data-i="4" data-j="4"/>
<polygon points="180,182 201,175 187,161" fill="#000000" stroke="black" stroke-width="1" data-i="4" data-j="4"/>
<path d="M180,182 201,175 187,161 Z" fill="#000000" stroke="black" stroke-width="1" data-i="4" data-j="4"/>
<polygon points="160,183 167,205 181,191" fill="#000000" stroke="black" stroke-width="1" data-i="4" data-j="4"/>
<path d="M160,183 167,205 181,191 Z" fill="#000000" stroke="black" stroke-width="1" data-i="4" data-j="4"/>
<polygon points="189,180 180,200 200,199" fill="#000000" stroke="black" stroke-width="1" data-i="4" data-j="4"/>
<path d="M189,180 180,200 200,199 Z" fill="#000000" stroke="black" stroke-width="1" data-i="4" data-j="4"/>
</svg>