<svg width="220" height="220" xmlns="http://www.w3.org/2000/svg">
<metadata>
	<dimension_matrice_cellule>5</dimension_matrice_cellule>
	<protocole>2</protocole>
</metadata>
<polygon points="-3,15 18,22 15,2" fill="#000000" stroke="black" stroke-width="1" data-i="0" data-j="0"/>
<path d="M-3,15 18,22 15,2 Z" fill="#000000" stroke="black" stroke-width="1" data-i="0" data-j="0"/>
<polygon points="33,26 37,4 18,9" fill="#000000" stroke="black" stroke-width="1" data-i="0" data-j="0"/>
<path d="M33,26 37,4 18,9 Z" fill="#000000" stroke="black" stroke-width="1" data-i="0" data-j="0"/>
<polygon points="11,20 0,38 18,41" fill="#000000" stroke="black" stroke-width="1" data-i="0" data-j="0"/>
<path d="M11,20 0,38 18,41 Z" fill="#000000" stroke="black" stroke-width="1" data-i="0" data-j="0"/>
<polygon points="35,21 18,34 36,43" fill="#000000" stroke="black" stroke-width="1" data-i="0" data-j="0"/>
<path d="M35,21 18,34 36,43 Z" fill="#000000" stroke="black" stroke-width="1" data-i="0" data-j="0"/>
<polygon points="55,25 56,3 38,11" fill="#ff0000" stroke="black" stroke-width="1" data-i="0" data-j="1"/>
<path d="M55,25 56,3 38,11 Z" fill="#ff0000" stroke="black" stroke-width="1" data-i="0" data-j="1"/>
<polygon points="73,26 77,4 58,9" fill="#ff0000" stroke="black" stroke-width="1" data-i="0" data-j="1"/>
<path d="M73,26 77,4 58,9 Z" fill="#ff0000" stroke="black" stroke-width="1" data-i="0" data-j="1"/>
<polygon points="45,45 61,30 43,23" fill="#ff0000" stroke="black" stroke-width="1" data-i="0" data-j="1"/>
<path d="M45,45 61,30 43,23 Z" fill="#ff0000" stroke="black" stroke-width="1" data-i="0" data-j="1"/>
<polygon points="58,39 80,39 71,21" fill="#0000ff" stroke="black" stroke-width="1" data-i="0" data-j="1"/>
<path d="M58,39 80,39 71,21 Z" fill="#0000ff" stroke="black" stroke-width="1" data-i="0" data-j="1"/>
<polygon points="102,8 80,6 87,25" fill="#ff0000" stroke="black" stroke-width="1" data-i="0" data-j="2"/>
<path d="M102,8 80,6 87,25 Z" fill="#ff0000" stroke="black" stroke-width="1" data-i="0" data-j="2"/>
<polygon points="120,5 98,9 110,25" fill="#ff0000" stroke="black" stroke-width="1" data-i="0" data-j="2"/>
<path d="M120,5 98,9 110,25 Z" fill="#ff0000" stroke="black" stroke-width="1" data-i="0" data-j="2"/>
<polygon points="102,37 87,21 80,40" fill="#ff0000" stroke="black" stroke-width="1" data-i="0" data-j="2"/>
<path d="M102,37 87,21 80,40 Z" fill="#ff0000" stroke="black" stroke-width="1" data-i="0" data-j="2"/>
<polygon points="120,25 98,29 110,45" fill="#00ff00" stroke="black" stroke-width="1" data-i="0" data-j="2"/>
<path d="M120,25 98,29 110,45 Z" fill="#00ff00" stroke="black" stroke-width="1" data-i="0" data-j="2"/>
<polygon points="141,20 129,1 118,18" fill="#00ff00" stroke="black" stroke-width="1" data-i="0" data-j="3"/>
<path d="M141,20 129,1 118,18 Z" fill="#00ff00" stroke="black" stroke-width="1" data-i="0" data-j="3"/>
<polygon points="163,15 144,2 142,22" fill="#0000ff" stroke="black" stroke-width="1" data-i="0" data-j="3"/>
<path d="M163,15 144,2 142,22 Z" fill="#0000ff" stroke="black" stroke-width="1" data-i="0" data-j="3"/>
<polygon points="119,24 128,45 141,29" fill="#0000ff" stroke="black" stroke-width="1" data-i="0" data-j="3"/>
<path d="M119,24 128,45 141,29 Z" fill="#0000ff" stroke="black" stroke-width="1" data-i="0" data-j="3"/>
<polygon points="160,41 150,21 138,37" fill="#ff0000" stroke="black" stroke-width="1" data-i="0" data-j="3"/>
<path d="M160,41 150,21 138,37 Z" fill="#ff0000" stroke="black" stroke-width="1" data-i="0" data-j="3"/>
<polygon points="180,5 158,9 170,25" fill="#000000" stroke="black" stroke-width="1" data-i="0" data-j="4"/>
<path d="M180,5 158,9 170,25 Z" fill="#000000" stroke="black" stroke-width="1" data-i="0" data-j="4"/>
<polygon points="196,25 195,2 178,11" fill="#000000" stroke="black" stroke-width="1" data-i="0" data-j="4"/>
<path d="M196,25 195,2 178,11 Z" fill="#000000" stroke="black" stroke-width="1" data-i="0" data-j="4"/>
<polygon points="178,22 158,32 173,44" fill="#000000" stroke="black" stroke-width="1" data-i="0" data-j="4"/>
<path d="M178,22 158,32 173,44 Z" fill="#000000" stroke="black" stroke-width="1" data-i="0" data-j="4"/>
<polygon points="197,22 177,32 194,44" fill="#000000" stroke="black" stroke-width="1" data-i="0" data-j="4"/>
<path d="M197,22 177,32 194,44 Z" fill="#000000" stroke="black" stroke-width="1" data-i="0" data-j="4"/>
<polygon points="22,49 0,45 6,64" fill="#00ff00" stroke="black" stroke-width="1" data-i="1" data-j="0"/>
<path d="M22,49 0,45 6,64 Z" fill="#00ff00" stroke="black" stroke-width="1" data-i="1" data-j="0"/>
<polygon points="20,62 41,55 27,41" fill="#ff0000" stroke="black" stroke-width="1" data-i="1" data-j="0"/>
<path d="M20,62 41,55 27,41 Z" fill="#ff0000" stroke="black" stroke-width="1" data-i="1" data-j="0"/>
<polygon points="22,69 0,65 6,84" fill="#0000ff" stroke="black" stroke-width="1" data-i="1" data-j="0"/>
<path d="M22,69 0,65 6,84 Z" fill="#0000ff" stroke="black" stroke-width="1" data-i="1" data-j="0"/>
<polygon points="38,62 18,72 33,84" fill="#ff0000" stroke="black" stroke-width="1" data-i="1" data-j="0"/>
<path d="M38,62 18,72 33,84 Z" fill="#ff0000" stroke="black" stroke-width="1" data-i="1" data-j="0"/>
<polygon points="37,57 59,60 53,41" fill="#00ff00" stroke="black" stroke-width="1" data-i="1" data-j="1"/>
<path d="M37,57 59,60 53,41 Z" fill="#00ff00" stroke="black" stroke-width="1" data-i="1" data-j="1"/>
<polygon points="58,47 71,65 80,47" fill="#0000ff" stroke="black" stroke-width="1" data-i="1" data-j="1"/>
<path d="M58,47 71,65 80,47 Z" fill="#0000ff" stroke="black" stroke-width="1" data-i="1" data-j="1"/>
<polygon points="41,62 46,84 61,72" fill="#ffff00" stroke="black" stroke-width="1" data-i="1" data-j="1"/>
<path d="M41,62 46,84 61,72 Z" fill="#ffff00" stroke="black" stroke-width="1" data-i="1" data-j="1"/>
<polygon points="66,86 81,69 61,64" fill="#ff0000" stroke="black" stroke-width="1" data-i="1" data-j="1"/>
<path d="M66,86 81,69 61,64 Z" fill="#ff0000" stroke="black" stroke-width="1" data-i="1" data-j="1"/>
<polygon points="101,46 79,48 89,65" fill="#00ff00" stroke="black" stroke-width="1" data-i="1" data-j="2"/>
<path d="M101,46 79,48 89,65 Z" fill="#00ff00" stroke="black" stroke-width="1" data-i="1" data-j="2"/>
<polygon points="97,58 119,60 112,41" fill="#0000ff" stroke="black" stroke-width="1" data-i="1" data-j="2"/>
<path d="M97,58 119,60 112,41 Z" fill="#0000ff" stroke="black" stroke-width="1" data-i="1" data-j="2"/>
<polygon points="76,72 95,83 97,63" fill="#ffff00" stroke="black" stroke-width="1" data-i="1" data-j="2"/>
<path d="M76,72 95,83 97,63 Z" fill="#ffff00" stroke="black" stroke-width="1" data-i="1" data-j="2"/>
<polygon points="121,80 109,61 98,78" fill="#ffff00" stroke="black" stroke-width="1" data-i="1" data-j="2"/>
<path d="M121,80 109,61 98,78 Z" fill="#ffff00" stroke="black" stroke-width="1" data-i="1" data-j="2"/>
<polygon points="142,57 127,41 120,60" fill="#ff0000" stroke="black" stroke-width="1" data-i="1" data-j="3"/>
<path d="M142,57 127,41 120,60 Z" fill="#ff0000" stroke="black" stroke-width="1" data-i="1" data-j="3"/>
<polygon points="163,51 141,44 145,64" fill="#0000ff" stroke="black" stroke-width="1" data-i="1" data-j="3"/>
<path d="M163,51 141,44 145,64 Z" fill="#0000ff" stroke="black" stroke-width="1" data-i="1" data-j="3"/>
<polygon points="125,60 122,83 141,76" fill="#ff0000" stroke="black" stroke-width="1" data-i="1" data-j="3"/>
<path d="M125,60 122,83 141,76 Z" fill="#ff0000" stroke="black" stroke-width="1" data-i="1" data-j="3"/>
<polygon points="155,85 156,63 138,71" fill="#ff0000" stroke="black" stroke-width="1" data-i="1" data-j="3"/>
<path d="M155,85 156,63 138,71 Z" fill="#ff0000" stroke="black" stroke-width="1" data-i="1" data-j="3"/>
<polygon points="166,40 162,62 181,56" fill="#00ff00" stroke="black" stroke-width="1" data-i="1" data-j="4"/>
<path d="M166,40 162,62 181,56 Z" fill="#00ff00" stroke="black" stroke-width="1" data-i="1" data-j="4"/>
<polygon points="197,42 177,53 194,64" fill="#0000ff" stroke="black" stroke-width="1" data-i="1" data-j="4"/>
<path d="M197,42 177,53 194,64 Z" fill="#0000ff" stroke="black" stroke-width="1" data-i="1" data-j="4"/>
<polygon points="161,83 181,74 166,61" fill="#ffff00" stroke="black" stroke-width="1" data-i="1" data-j="4"/>
<path d="M161,83 181,74 166,61 Z" fill="#ffff00" stroke="black" stroke-width="1" data-i="1" data-j="4"/>
<polygon points="203,70 181,64 185,84" fill="#ffff00" stroke="black" stroke-width="1" data-i="1" data-j="4"/>
<path d="M203,70 181,64 185,84 Z" fill="#ffff00" stroke="black" stroke-width="1" data-i="1" data-j="4"/>
<polygon points="0,101 21,97 9,81" fill="#00ff00" stroke="black" stroke-width="1" data-i="2" data-j="0"/>
<path d="M0,101 21,97 9,81 Z" fill="#00ff00" stroke="black" stroke-width="1" data-i="2" data-j="0"/>
<polygon points="27,80 21,101 41,98" fill="#0000ff" stroke="black" stroke-width="1" data-i="2" data-j="0"/>
<path d="M27,80 21,101 41,98 Z" fill="#0000ff" stroke="black" stroke-width="1" data-i="2" data-j="0"/>
<polygon points="2,102 5,124 22,113" fill="#ffff00" stroke="black" stroke-width="1" data-i="2" data-j="0"/>
<path d="M2,102 5,124 22,113 Z" fill="#ffff00" stroke="black" stroke-width="1" data-i="2" data-j="0"/>
<polygon points="35,101 18,115 36,123" fill="#ff0000" stroke="black" stroke-width="1" data-i="2" data-j="0"/>
<path d="M35,101 18,115 36,123 Z" fill="#ff0000" stroke="black" stroke-width="1" data-i="2" data-j="0"/>
<polygon points="50,80 39,99 59,100" fill="#ff0000" stroke="black" stroke-width="1" data-i="2" data-j="1"/>
<path d="M50,80 39,99 59,100 Z" fill="#ff0000" stroke="black" stroke-width="1" data-i="2" data-j="1"/>
<polygon points="74,105 76,83 58,90" fill="#0000ff" stroke="black" stroke-width="1" data-i="2" data-j="1"/>
<path d="M74,105 76,83 58,90 Z" fill="#0000ff" stroke="black" stroke-width="1" data-i="2" data-j="1"/>
<polygon points="51,126 59,105 39,107" fill="#ff0000" stroke="black" stroke-width="1" data-i="2" data-j="1"/>
<path d="M51,126 59,105 39,107 Z" fill="#ff0000" stroke="black" stroke-width="1" data-i="2" data-j="1"/>
<polygon points="57,107 71,125 80,107" fill="#00ff00" stroke="black" stroke-width="1" data-i="2" data-j="1"/>
<path d="M57,107 71,125 80,107 Z" fill="#00ff00" stroke="black" stroke-width="1" data-i="2" data-j="1"/>
<polygon points="103,95 84,82 82,102" fill="#00ff00" stroke="black" stroke-width="1" data-i="2" data-j="2"/>
<path d="M103,95 84,82 82,102 Z" fill="#00ff00" stroke="black" stroke-width="1" data-i="2" data-j="2"/>
<polygon points="104,105 121,91 103,83" fill="#0000ff" stroke="black" stroke-width="1" data-i="2" data-j="2"/>
<path d="M104,105 121,91 103,83 Z" fill="#0000ff" stroke="black" stroke-width="1" data-i="2" data-j="2"/>
<polygon points="94,126 97,103 78,110" fill="#00ff00" stroke="black" stroke-width="1" data-i="2" data-j="2"/>
<path d="M94,126 97,103 78,110 Z" fill="#00ff00" stroke="black" stroke-width="1" data-i="2" data-j="2"/>
<polygon points="109,126 120,107 100,106" fill="#00ff00" stroke="black" stroke-width="1" data-i="2" data-j="2"/>
<path d="M109,126 120,107 100,106 Z" fill="#00ff00" stroke="black" stroke-width="1" data-i="2" data-j="2"/>
<polygon points="143,95 125,82 121,102" fill="#00ff00" stroke="black" stroke-width="1" data-i="2" data-j="3"/>
<path d="M143,95 125,82 121,102 Z" fill="#00ff00" stroke="black" stroke-width="1" data-i="2" data-j="3"/>
<polygon points="159,83 138,91 152,105" fill="#0000ff" stroke="black" stroke-width="1" data-i="2" data-j="3"/>
<path d="M159,83 138,91 152,105 Z" fill="#0000ff" stroke="black" stroke-width="1" data-i="2" data-j="3"/>
<polygon points="143,113 123,103 123,123" fill="#ffff00" stroke="black" stroke-width="1" data-i="2" data-j="3"/>
<path d="M143,113 123,103 123,123 Z" fill="#ffff00" stroke="black" stroke-width="1" data-i="2" data-j="3"/>
<polygon points="153,100 138,116 157,122" fill="#ff0000" stroke="black" stroke-width="1" data-i="2" data-j="3"/>
<path d="M153,100 138,116 157,122 Z" fill="#ff0000" stroke="black" stroke-width="1" data-i="2" data-j="3"/>
<polygon points="171,80 159,98 179,101" fill="#ff0000" stroke="black" stroke-width="1" data-i="2" data-j="4"/>
<path d="M171,80 159,98 179,101 Z" fill="#ff0000" stroke="black" stroke-width="1" data-i="2" data-j="4"/>
<polygon points="189,80 180,100 200,99" fill="#0000ff" stroke="black" stroke-width="1" data-i="2" data-j="4"/>
<path d="M189,80 180,100 200,99 Z" fill="#0000ff" stroke="black" stroke-width="1" data-i="2" data-j="4"/>
<polygon points="168,126 180,107 160,105" fill="#ffff00" stroke="black" stroke-width="1" data-i="2" data-j="4"/>
<path d="M168,126 180,107 160,105 Z" fill="#ffff00" stroke="black" stroke-width="1" data-i="2" data-j="4"/>
<polygon points="176,115 198,122 195,102" fill="#ff0000" stroke="black" stroke-width="1" data-i="2" data-j="4"/>
<path d="M176,115 198,122 195,102 Z" fill="#ff0000" stroke="black" stroke-width="1" data-i="2" data-j="4"/>
<polygon points="0,125 9,145 21,129" fill="#00ff00" stroke="black" stroke-width="1" data-i="3" data-j="0"/>
<path d="M0,125 9,145 21,129 Z" fill="#00ff00" stroke="black" stroke-width="1" data-i="3" data-j="0"/>
<polygon points="43,133 23,123 22,143" fill="#ffff00" stroke="black" stroke-width="1" data-i="3" data-j="0"/>
<path d="M43,133 23,123 22,143 Z" fill="#ffff00" stroke="black" stroke-width="1" data-i="3" data-j="0"/>
<polygon points="23,151 2,144 4,164" fill="#00ff00" stroke="black" stroke-width="1" data-i="3" data-j="0"/>
<path d="M23,151 2,144 4,164 Z" fill="#00ff00" stroke="black" stroke-width="1" data-i="3" data-j="0"/>
<polygon points="17,157 39,160 33,141" fill="#ffff00" stroke="black" stroke-width="1" data-i="3" data-j="0"/>
<path d="M17,157 39,160 33,141 Z" fill="#ffff00" stroke="black" stroke-width="1" data-i="3" data-j="0"/>
<polygon points="39,141 61,137 49,121" fill="#00ff00" stroke="black" stroke-width="1" data-i="3" data-j="1"/>
<path d="M39,141 61,137 49,121 Z" fill="#00ff00" stroke="black" stroke-width="1" data-i="3" data-j="1"/>
<polygon points="83,131 61,124 64,144" fill="#ffff00" stroke="black" stroke-width="1" data-i="3" data-j="1"/>
<path d="M83,131 61,124 64,144 Z" fill="#ffff00" stroke="black" stroke-width="1" data-i="3" data-j="1"/>
<polygon points="42,164 62,153 45,142" fill="#ff0000" stroke="black" stroke-width="1" data-i="3" data-j="1"/>
<path d="M42,164 62,153 45,142 Z" fill="#ff0000" stroke="black" stroke-width="1" data-i="3" data-j="1"/>
<polygon points="63,141 64,164 81,154" fill="#0000ff" stroke="black" stroke-width="1" data-i="3" data-j="1"/>
<path d="M63,141 64,164 81,154 Z" fill="#0000ff" stroke="black" stroke-width="1" data-i="3" data-j="1"/>
<polygon points="102,136 86,121 80,141" fill="#00ff00" stroke="black" stroke-width="1" data-i="3" data-j="2"/>
<path d="M102,136 86,121 80,141 Z" fill="#00ff00" stroke="black" stroke-width="1" data-i="3" data-j="2"/>
<polygon points="109,120 100,140 120,139" fill="#0000ff" stroke="black" stroke-width="1" data-i="3" data-j="2"/>
<path d="M109,120 100,140 120,139 Z" fill="#0000ff" stroke="black" stroke-width="1" data-i="3" data-j="2"/>
<polygon points="79,144 88,165 101,149" fill="#00ff00" stroke="black" stroke-width="1" data-i="3" data-j="2"/>
<path d="M79,144 88,165 101,149 Z" fill="#00ff00" stroke="black" stroke-width="1" data-i="3" data-j="2"/>
<polygon points="98,147 111,165 120,147" fill="#ff0000" stroke="black" stroke-width="1" data-i="3" data-j="2"/>
<path d="M98,147 111,165 120,147 Z" fill="#ff0000" stroke="black" stroke-width="1" data-i="3" data-j="2"/>
<polygon points="118,126 130,145 141,128" fill="#ffff00" stroke="black" stroke-width="1" data-i="3" data-j="3"/>
<path d="M118,126 130,145 141,128 Z" fill="#ffff00" stroke="black" stroke-width="1" data-i="3" data-j="3"/>
<polygon points="140,123 147,145 161,131" fill="#0000ff" stroke="black" stroke-width="1" data-i="3" data-j="3"/>
<path d="M140,123 147,145 161,131 Z" fill="#0000ff" stroke="black" stroke-width="1" data-i="3" data-j="3"/>
<polygon points="117,157 139,161 133,141" fill="#00ff00" stroke="black" stroke-width="1" data-i="3" data-j="3"/>
<path d="M117,157 139,161 133,141 Z" fill="#00ff00" stroke="black" stroke-width="1" data-i="3" data-j="3"/>
<polygon points="161,159 148,141 139,159" fill="#ff0000" stroke="black" stroke-width="1" data-i="3" data-j="3"/>
<path d="M161,159 148,141 139,159 Z" fill="#ff0000" stroke="black" stroke-width="1" data-i="3" data-j="3"/>
<polygon points="183,131 162,124 164,144" fill="#ff0000" stroke="black" stroke-width="1" data-i="3" data-j="4"/>
<path d="M183,131 162,124 164,144 Z" fill="#ff0000" stroke="black" stroke-width="1" data-i="3" data-j="4"/>
<polygon points="195,121 178,135 196,143" fill="#ff0000" stroke="black" stroke-width="1" data-i="3" data-j="4"/>
<path d="M195,121 178,135 196,143 Z" fill="#ff0000" stroke="black" stroke-width="1" data-i="3" data-j="4"/>
<polygon points="170,140 160,160 180,160" fill="#ff0000" stroke="black" stroke-width="1" data-i="3" data-j="4"/>
<path d="M170,140 160,160 180,160 Z" fill="#ff0000" stroke="black" stroke-width="1" data-i="3" data-j="4"/>
<polygon points="198,143 178,151 193,164" fill="#ff0000" stroke="black" stroke-width="1" data-i="3" data-j="4"/>
<path d="M198,143 178,151 193,164 Z" fill="#ff0000" stroke="black" stroke-width="1" data-i="3" data-j="4"/>
<polygon points="10,160 0,179 19,180" fill="#ff0000" stroke="black" stroke-width="1" data-i="4" data-j="0"/>
<path d="M10,160 0,179 19,180 Z" fill="#ff0000" stroke="black" stroke-width="1" data-i="4" data-j="0"/>
<polygon points="38,162 18,172 33,184" fill="#ff0000" stroke="black" stroke-width="1" data-i="4" data-j="0"/>
<path d="M38,162 18,172 33,184 Z" fill="#ff0000" stroke="black" stroke-width="1" data-i="4" data-j="0"/>
<polygon points="10,206 20,186 0,186" fill="#ff0000" stroke="black" stroke-width="1" data-i="4" data-j="0"/>
<path d="M10,206 20,186 0,186 Z" fill="#ff0000" stroke="black" stroke-width="1" data-i="4" data-j="0"/>
<polygon points="41,200 29,181 19,198" fill="#ff0000" stroke="black" stroke-width="1" data-i="4" data-j="0"/>
<path d="M41,200 29,181 19,198 Z" fill="#ff0000" stroke="black" stroke-width="1" data-i="4" data-j="0"/>
<polygon points="59,183 52,161 38,175" fill="#ff0000" stroke="black" stroke-width="1" data-i="4" data-j="1"/>
<path d="M59,183 52,161 38,175 Z" fill="#ff0000" stroke="black" stroke-width="1" data-i="4" data-j="1"/>
<polygon points="67,160 61,181 81,178" fill="#ff0000" stroke="black" stroke-width="1" data-i="4" data-j="1"/>
<path d="M67,160 61,181 81,178 Z" fill="#ff0000" stroke="black" stroke-width="1" data-i="4" data-j="1"/>
<polygon points="37,198 60,199 52,181" fill="#ff0000" stroke="black" stroke-width="1" data-i="4" data-j="1"/>
<path d="M37,198 60,199 52,181 Z" fill="#ff0000" stroke="black" stroke-width="1" data-i="4" data-j="1"/>
<polygon points="79,203 72,181 58,195" fill="#ff0000" stroke="black" stroke-width="1" data-i="4" data-j="1"/>
<path d="M79,203 72,181 58,195 Z" fill="#ff0000" stroke="black" stroke-width="1" data-i="4" data-j="1"/>
<polygon points="91,160 79,178 99,181" fill="#ff0000" stroke="black" stroke-width="1" data-i="4" data-j="2"/>
<path d="M91,160 79,178 99,181 Z" fill="#ff0000" stroke="black" stroke-width="1" data-i="4" data-j="2"/>
<polygon points="99,164 108,185 121,169" fill="#ff0000" stroke="black" stroke-width="1" data-i="4" data-j="2"/>
<path d="M99,164 108,185 121,169 Z" fill="#ff0000" stroke="black" stroke-width="1" data-i="4" data-j="2"/>
<polygon points="102,197 87,181 80,200" fill="#ff0000" stroke="black" stroke-width="1" data-i="4" data-j="2"/>
<path d="M102,197 87,181 80,200 Z" fill="#ff0000" stroke="black" stroke-width="1" data-i="4" data-j="2"/>
<polygon points="114,180 98,195 116,203" fill="#ff0000" stroke="black" stroke-width="1" data-i="4" data-j="2"/>
<path d="M114,180 98,195 116,203 Z" fill="#ff0000" stroke="black" stroke-width="1" data-i="4" data-j="2"/>
<polygon points="121,183 141,174 126,161" fill="#ff0000" stroke="black" stroke-width="1" data-i="4" data-j="3"/>
<path d="M121,183 141,174 126,161 Z" fill="#ff0000" stroke="black" stroke-width="1" data-i="4" data-j="3"/>
<polygon points="153,186 158,164 138,169" fill="#ff0000" stroke="black" stroke-width="1" data-i="4" data-j="3"/>
<path d="M153,186 158,164 138,169 Z" fill="#ff0000" stroke="black" stroke-width="1" data-i="4" data-j="3"/>
<polygon points="124,181 123,203 141,195" fill="#ff0000" stroke="black" stroke-width="1" data-i="4" data-j="3"/>
<path d="M124,181 123,203 141,195 Z" fill="#ff0000" stroke="black" stroke-width="1" data-i="4" data-j="3"/>
<polygon points="156,204 155,182 138,192" fill="#ff0000" stroke="black" stroke-width="1" data-i="4" data-j="3"/>
<path d="M156,204 155,182 138,192 Z" fill="#ff0000" stroke="black" stroke-width="1" data-i="4" data-j="3"/>
<polygon points="170,160 159,179 179,180" fill="#000000" stroke="black" stroke-width="1" data-i="4" data-j="4"/>
<path d="M170,160 159,179 179,180 Z" fill="#000000" stroke="black" stroke-width="1" data-i="4" data-j="4"/>
<polygon points="177,177 199,180 193,161" fill="#000000" stroke="black" stroke-width="1" data-i="4" data-j="4"/>
<path d="M177,177 199,180 193,161 Z" fill="#000000" stroke="black" stroke-width="1" data-i="4" data-j="4"/>
<polygon points="158,186 170,205 180,187" fill="#000000" stroke="black" stroke-width="1" data-i="4" data-j="4"/>
<path d="M158,186 170,205 180,187 Z" fill="#000000" stroke="black" stroke-width="1" data-i="4" data-j="4"/>
<polygon points="200,202 191,181 178,196" fill="#000000" stroke="black" stroke-width="1" data-i="4" data-j="4"/>
<path d="M200,202 191,181 178,196 Z" fill="#000000" stroke="black" stroke-width="1" data-i="4" data-j="4"/>
</svg>