<svg width="220" height="220" xmlns="http://www.w3.org/2000/svg">
<metadata>
	<dimension_matrice_cellule>5</dimension_matrice_cellule>
	<protocole>2</protocole>
</metadata>
<polygon points="14,25 16,3 -1,10" fill="#000000" stroke="black" stroke-width="1" data-i="0" data-j="0"/>
<path d="M14,25 16,3 -1,10 Z" fill="#000000" stroke="black" stroke-width="1" data-i="0" data-j="0"/>
<polygon points="42,10 21,5 25,24" fill="#000000" stroke="black" stroke-width="1" data-i="0" data-j="0"/>
<path d="M42,10 21,5 25,24 Z" fill="#000000" stroke="black" stroke-width="1" data-i="0" data-j="0"/>
<polygon points="20,25 -1,29 10,45" fill="#000000" stroke="black" stroke-width="1" data-i="0" data-j="0"/>
<path d="M20,25 -1,29 10,45 Z" fill="#000000" stroke="black" stroke-width="1" data-i="0" data-j="0"/>
<polygon points="28,20 20,40 40,39" fill="#000000" stroke="black" stroke-width="1" data-i="0" data-j="0"/>
<path d="M28,20 20,40 40,39 Z" fill="#000000" stroke="black" stroke-width="1" data-i="0" data-j="0"/>
<polygon points="37,18 60,19 52,1" fill="#ff0000" stroke="black" stroke-width="1" data-i="0" data-j="1"/>
<path d="M37,18 60,19 52,1 Z" fill="#ff0000" stroke="black" stroke-width="1" data-i="0" data-j="1"/>
<polygon points="79,4 58,10 71,25" fill="#ff0000" stroke="black" stroke-width="1" data-i="0" data-j="1"/>
<path d="M79,4 58,10 71,25 Z" fill="#ff0000" stroke="black" stroke-width="1" data-i="0" data-j="1"/>
<polygon points="60,41 50,21 38,37" fill="#ff0000" stroke="black" stroke-width="1" data-i="0" data-j="1"/>
<path d="M60,41 50,21 38,37 Z" fill="#ff0000" stroke="black" stroke-width="1" data-i="0" data-j="1"/>
<polygon points="73,20 58,36 77,42" fill="#0000ff" stroke="black" stroke-width="1" data-i="0" data-j="1"/>
<path d="M73,20 58,36 77,42 Z" fill="#0000ff" stroke="black" stroke-width="1" data-i="0" data-j="1"/>
<polygon points="92,0 78,18 98,21" fill="#ff0000" stroke="black" stroke-width="1" data-i="0" data-j="2"/>
<path d="M92,0 78,18 98,21 Z" fill="#ff0000" stroke="black" stroke-width="1" data-i="0" data-j="2"/>
<polygon points="109,0 100,20 120,19" fill="#ff0000" stroke="black" stroke-width="1" data-i="0" data-j="2"/>
<path d="M109,0 100,20 120,19 Z" fill="#ff0000" stroke="black" stroke-width="1" data-i="0" data-j="2"/>
<polygon points="90,46 99,25 79,27" fill="#ff0000" stroke="black" stroke-width="1" data-i="0" data-j="2"/>
<path d="M90,46 99,25 79,27 Z" fill="#ff0000" stroke="black" stroke-width="1" data-i="0" data-j="2"/>
<polygon points="123,31 102,24 104,44" fill="#00ff00" stroke="black" stroke-width="1" data-i="0" data-j="2"/>
<path d="M123,31 102,24 104,44 Z" fill="#00ff00" stroke="black" stroke-width="1" data-i="0" data-j="2"/>
<polygon points="124,1 123,23 141,15" fill="#00ff00" stroke="black" stroke-width="1" data-i="0" data-j="3"/>
<path d="M124,1 123,23 141,15 Z" fill="#00ff00" stroke="black" stroke-width="1" data-i="0" data-j="3"/>
<polygon points="148,0 140,21 160,18" fill="#0000ff" stroke="black" stroke-width="1" data-i="0" data-j="3"/>
<path d="M148,0 140,21 160,18 Z" fill="#0000ff" stroke="black" stroke-width="1" data-i="0" data-j="3"/>
<polygon points="137,22 117,33 134,44" fill="#0000ff" stroke="black" stroke-width="1" data-i="0" data-j="3"/>
<path d="M137,22 117,33 134,44 Z" fill="#0000ff" stroke="black" stroke-width="1" data-i="0" data-j="3"/>
<polygon points="143,21 144,43 161,34" fill="#ff0000" stroke="black" stroke-width="1" data-i="0" data-j="3"/>
<path d="M143,21 144,43 161,34 Z" fill="#ff0000" stroke="black" stroke-width="1" data-i="0" data-j="3"/>
<polygon points="156,15 178,22 175,2" fill="#000000" stroke="black" stroke-width="1" data-i="0" data-j="4"/>
<path d="M156,15 178,22 175,2 Z" fill="#000000" stroke="black" stroke-width="1" data-i="0" data-j="4"/>
<polygon points="177,7 192,25 200,6" fill="#000000" stroke="black" stroke-width="1" data-i="0" data-j="4"/>
<path d="M177,7 192,25 200,6 Z" fill="#000000" stroke="black" stroke-width="1" data-i="0" data-j="4"/>
<polygon points="156,33 177,43 176,23" fill="#000000" stroke="black" stroke-width="1" data-i="0" data-j="4"/>
<path d="M156,33 177,43 176,23 Z" fill="#000000" stroke="black" stroke-width="1" data-i="0" data-j="4"/>
<polygon points="186,20 182,42 201,37" fill="#000000" stroke="black" stroke-width="1" data-i="0" data-j="4"/>
<path d="M186,20 182,42 201,37 Z" fill="#000000" stroke="black" stroke-width="1" data-i="0" data-j="4"/>
<polygon points="2,42 5,64 22,53" fill="#00ff00" stroke="black" stroke-width="1" data-i="1" data-j="0"/>
<path d="M2,42 5,64 22,53 Z" fill="#00ff00" stroke="black" stroke-width="1" data-i="1" data-j="0"/>
<polygon points="17,57 39,61 33,41" fill="#ff0000" stroke="black" stroke-width="1" data-i="1" data-j="0"/>
<path d="M17,57 39,61 33,41 Z" fill="#ff0000" stroke="black" stroke-width="1" data-i="1" data-j="0"/>
<polygon points="13,86 17,64 -1,69" fill="#0000ff" stroke="black" stroke-width="1" data-i="1" data-j="0"/>
<path d="M13,86 17,64 -1,69 Z" fill="#0000ff" stroke="black" stroke-width="1" data-i="1" data-j="0"/>
<polygon points="21,62 26,84 41,72" fill="#ff0000" stroke="black" stroke-width="1" data-i="1" data-j="0"/>
<path d="M21,62 26,84 41,72 Z" fill="#ff0000" stroke="black" stroke-width="1" data-i="1" data-j="0"/>
<polygon points="63,51 41,44 45,64" fill="#00ff00" stroke="black" stroke-width="1" data-i="1" data-j="1"/>
<path d="M63,51 41,44 45,64 Z" fill="#00ff00" stroke="black" stroke-width="1" data-i="1" data-j="1"/>
<polygon points="56,53 76,63 76,43" fill="#0000ff" stroke="black" stroke-width="1" data-i="1" data-j="1"/>
<path d="M56,53 76,63 76,43 Z" fill="#0000ff" stroke="black" stroke-width="1" data-i="1" data-j="1"/>
<polygon points="54,60 38,76 57,83" fill="#ffff00" stroke="black" stroke-width="1" data-i="1" data-j="1"/>
<path d="M54,60 38,76 57,83 Z" fill="#ffff00" stroke="black" stroke-width="1" data-i="1" data-j="1"/>
<polygon points="67,86 81,69 61,64" fill="#ff0000" stroke="black" stroke-width="1" data-i="1" data-j="1"/>
<path d="M67,86 81,69 61,64 Z" fill="#ff0000" stroke="black" stroke-width="1" data-i="1" data-j="1"/>
<polygon points="96,64 95,42 77,52" fill="#00ff00" stroke="black" stroke-width="1" data-i="1" data-j="2"/>
<path d="M96,64 95,42 77,52 Z" fill="#00ff00" stroke="black" stroke-width="1" data-i="1" data-j="2"/>
<polygon points="104,41 103,63 121,55" fill="#0000ff" stroke="black" stroke-width="1" data-i="1" data-j="2"/>
<path d="M104,41 103,63 121,55 Z" fill="#0000ff" stroke="black" stroke-width="1" data-i="1" data-j="2"/>
<polygon points="100,65 78,69 90,85" fill="#ffff00" stroke="black" stroke-width="1" data-i="1" data-j="2"/>
<path d="M100,65 78,69 90,85 Z" fill="#ffff00" stroke="black" stroke-width="1" data-i="1" data-j="2"/>
<polygon points="116,84 115,62 97,72" fill="#ffff00" stroke="black" stroke-width="1" data-i="1" data-j="2"/>
<path d="M116,84 115,62 97,72 Z" fill="#ffff00" stroke="black" stroke-width="1" data-i="1" data-j="2"/>
<polygon points="119,61 141,57 129,41" fill="#ff0000" stroke="black" stroke-width="1" data-i="1" data-j="3"/>
<path d="M119,61 141,57 129,41 Z" fill="#ff0000" stroke="black" stroke-width="1" data-i="1" data-j="3"/>
<polygon points="161,46 139,48 149,65" fill="#0000ff" stroke="black" stroke-width="1" data-i="1" data-j="3"/>
<path d="M161,46 139,48 149,65 Z" fill="#0000ff" stroke="black" stroke-width="1" data-i="1" data-j="3"/>
<polygon points="116,74 137,82 135,62" fill="#ff0000" stroke="black" stroke-width="1" data-i="1" data-j="3"/>
<path d="M116,74 137,82 135,62 Z" fill="#ff0000" stroke="black" stroke-width="1" data-i="1" data-j="3"/>
<polygon points="156,61 138,74 155,83" fill="#ff0000" stroke="black" stroke-width="1" data-i="1" data-j="3"/>
<path d="M156,61 138,74 155,83 Z" fill="#ff0000" stroke="black" stroke-width="1" data-i="1" data-j="3"/>
<polygon points="172,66 178,44 158,48" fill="#00ff00" stroke="black" stroke-width="1" data-i="1" data-j="4"/>
<path d="M172,66 178,44 158,48 Z" fill="#00ff00" stroke="black" stroke-width="1" data-i="1" data-j="4"/>
<polygon points="180,63 201,55 187,41" fill="#0000ff" stroke="black" stroke-width="1" data-i="1" data-j="4"/>
<path d="M180,63 201,55 187,41 Z" fill="#0000ff" stroke="black" stroke-width="1" data-i="1" data-j="4"/>
<polygon points="157,67 172,85 180,66" fill="#ffff00" stroke="black" stroke-width="1" data-i="1" data-j="4"/>
<path d="M157,67 172,85 180,66 Z" fill="#ffff00" stroke="black" stroke-width="1" data-i="1" data-j="4"/>
<polygon points="190,60 179,79 199,80" fill="#ffff00" stroke="black" stroke-width="1" data-i="1" data-j="4"/>
<path d="M190,60 179,79 199,80 Z" fill="#ffff00" stroke="black" stroke-width="1" data-i="1" data-j="4"/>
<polygon points="0,84 8,105 21,90" fill="#00ff00" stroke="black" stroke-width="1" data-i="2" data-j="0"/>
<path d="M0,84 8,105 21,90 Z" fill="#00ff00" stroke="black" stroke-width="1" data-i="2" data-j="0"/>
<polygon points="42,88 19,86 27,105" fill="#0000ff" stroke="black" stroke-width="1" data-i="2" data-j="0"/>
<path d="M42,88 19,86 27,105 Z" fill="#0000ff" stroke="black" stroke-width="1" data-i="2" data-j="0"/>
<polygon points="13,100 -1,116 17,122" fill="#ffff00" stroke="black" stroke-width="1" data-i="2" data-j="0"/>
<path d="M13,100 -1,116 17,122 Z" fill="#ffff00" stroke="black" stroke-width="1" data-i="2" data-j="0"/>
<polygon points="33,126 37,104 18,109" fill="#ff0000" stroke="black" stroke-width="1" data-i="2" data-j="0"/>
<path d="M33,126 37,104 18,109 Z" fill="#ff0000" stroke="black" stroke-width="1" data-i="2" data-j="0"/>
<polygon points="43,104 61,92 44,82" fill="#ff0000" stroke="black" stroke-width="1" data-i="2" data-j="1"/>
<path d="M43,104 61,92 44,82 Z" fill="#ff0000" stroke="black" stroke-width="1" data-i="2" data-j="1"/>
<polygon points="78,82 58,92 73,104" fill="#0000ff" stroke="black" stroke-width="1" data-i="2" data-j="1"/>
<path d="M78,82 58,92 73,104 Z" fill="#0000ff" stroke="black" stroke-width="1" data-i="2" data-j="1"/>
<polygon points="36,112 56,123 57,103" fill="#ff0000" stroke="black" stroke-width="1" data-i="2" data-j="1"/>
<path d="M36,112 56,123 57,103 Z" fill="#ff0000" stroke="black" stroke-width="1" data-i="2" data-j="1"/>
<polygon points="57,108 72,125 79,106" fill="#00ff00" stroke="black" stroke-width="1" data-i="2" data-j="1"/>
<path d="M57,108 72,125 79,106 Z" fill="#00ff00" stroke="black" stroke-width="1" data-i="2" data-j="1"/>
<polygon points="85,105 101,90 83,83" fill="#00ff00" stroke="black" stroke-width="1" data-i="2" data-j="2"/>
<path d="M85,105 101,90 83,83 Z" fill="#00ff00" stroke="black" stroke-width="1" data-i="2" data-j="2"/>
<polygon points="121,86 98,88 109,105" fill="#0000ff" stroke="black" stroke-width="1" data-i="2" data-j="2"/>
<path d="M121,86 98,88 109,105 Z" fill="#0000ff" stroke="black" stroke-width="1" data-i="2" data-j="2"/>
<polygon points="85,126 101,110 82,103" fill="#00ff00" stroke="black" stroke-width="1" data-i="2" data-j="2"/>
<path d="M85,126 101,110 82,103 Z" fill="#00ff00" stroke="black" stroke-width="1" data-i="2" data-j="2"/>
<polygon points="117,124 114,102 97,113" fill="#00ff00" stroke="black" stroke-width="1" data-i="2" data-j="2"/>
<path d="M117,124 114,102 97,113 Z" fill="#00ff00" stroke="black" stroke-width="1" data-i="2" data-j="2"/>
<polygon points="140,85 118,89 130,105" fill="#00ff00" stroke="black" stroke-width="1" data-i="2" data-j="3"/>
<path d="M140,85 118,89 130,105 Z" fill="#00ff00" stroke="black" stroke-width="1" data-i="2" data-j="3"/>
<polygon points="152,80 138,97 158,101" fill="#0000ff" stroke="black" stroke-width="1" data-i="2" data-j="3"/>
<path d="M152,80 138,97 158,101 Z" fill="#0000ff" stroke="black" stroke-width="1" data-i="2" data-j="3"/>
<polygon points="116,113 136,123 136,103" fill="#ffff00" stroke="black" stroke-width="1" data-i="2" data-j="3"/>
<path d="M116,113 136,123 136,103 Z" fill="#ffff00" stroke="black" stroke-width="1" data-i="2" data-j="3"/>
<polygon points="155,125 156,103 138,111" fill="#ff0000" stroke="black" stroke-width="1" data-i="2" data-j="3"/>
<path d="M155,125 156,103 138,111 Z" fill="#ff0000" stroke="black" stroke-width="1" data-i="2" data-j="3"/>
<polygon points="183,91 162,84 164,104" fill="#ff0000" stroke="black" stroke-width="1" data-i="2" data-j="4"/>
<path d="M183,91 162,84 164,104 Z" fill="#ff0000" stroke="black" stroke-width="1" data-i="2" data-j="4"/>
<polygon points="178,86 190,105 200,87" fill="#0000ff" stroke="black" stroke-width="1" data-i="2" data-j="4"/>
<path d="M178,86 190,105 200,87 Z" fill="#0000ff" stroke="black" stroke-width="1" data-i="2" data-j="4"/>
<polygon points="183,113 163,103 162,123" fill="#ffff00" stroke="black" stroke-width="1" data-i="2" data-j="4"/>
<path d="M183,113 163,103 162,123 Z" fill="#ffff00" stroke="black" stroke-width="1" data-i="2" data-j="4"/>
<polygon points="193,126 197,104 178,109" fill="#ff0000" stroke="black" stroke-width="1" data-i="2" data-j="4"/>
<path d="M193,126 197,104 178,109 Z" fill="#ff0000" stroke="black" stroke-width="1" data-i="2" data-j="4"/>
<polygon points="1,123 6,144 21,131" fill="#00ff00" stroke="black" stroke-width="1" data-i="3" data-j="0"/>
<path d="M1,123 6,144 21,131 Z" fill="#00ff00" stroke="black" stroke-width="1" data-i="3" data-j="0"/>
<polygon points="25,145 41,130 22,123" fill="#ffff00" stroke="black" stroke-width="1" data-i="3" data-j="0"/>
<path d="M25,145 41,130 22,123 Z" fill="#ffff00" stroke="black" stroke-width="1" data-i="3" data-j="0"/>
<polygon points="23,155 4,142 1,162" fill="#00ff00" stroke="black" stroke-width="1" data-i="3" data-j="0"/>
<path d="M23,155 4,142 1,162 Z" fill="#00ff00" stroke="black" stroke-width="1" data-i="3" data-j="0"/>
<polygon points="20,162 41,155 27,141" fill="#ffff00" stroke="black" stroke-width="1" data-i="3" data-j="0"/>
<path d="M20,162 41,155 27,141 Z" fill="#ffff00" stroke="black" stroke-width="1" data-i="3" data-j="0"/>
<polygon points="61,139 49,121 39,138" fill="#00ff00" stroke="black" stroke-width="1" data-i="3" data-j="1"/>
<path d="M61,139 49,121 39,138 Z" fill="#00ff00" stroke="black" stroke-width="1" data-i="3" data-j="1"/>
<polygon points="76,121 58,134 75,143" fill="#ffff00" stroke="black" stroke-width="1" data-i="3" data-j="1"/>
<path d="M76,121 58,134 75,143 Z" fill="#ffff00" stroke="black" stroke-width="1" data-i="3" data-j="1"/>
<polygon points="41,142 46,164 61,152" fill="#ff0000" stroke="black" stroke-width="1" data-i="3" data-j="1"/>
<path d="M41,142 46,164 61,152 Z" fill="#ff0000" stroke="black" stroke-width="1" data-i="3" data-j="1"/>
<polygon points="73,140 58,156 77,162" fill="#0000ff" stroke="black" stroke-width="1" data-i="3" data-j="1"/>
<path d="M73,140 58,156 77,162 Z" fill="#0000ff" stroke="black" stroke-width="1" data-i="3" data-j="1"/>
<polygon points="103,132 82,123 83,143" fill="#00ff00" stroke="black" stroke-width="1" data-i="3" data-j="2"/>
<path d="M103,132 82,123 83,143 Z" fill="#00ff00" stroke="black" stroke-width="1" data-i="3" data-j="2"/>
<polygon points="123,133 103,123 103,143" fill="#0000ff" stroke="black" stroke-width="1" data-i="3" data-j="2"/>
<path d="M123,133 103,123 103,143 Z" fill="#0000ff" stroke="black" stroke-width="1" data-i="3" data-j="2"/>
<polygon points="103,154 83,142 82,162" fill="#00ff00" stroke="black" stroke-width="1" data-i="3" data-j="2"/>
<path d="M103,154 83,142 82,162 Z" fill="#00ff00" stroke="black" stroke-width="1" data-i="3" data-j="2"/>
<polygon points="105,165 121,150 102,143" fill="#ff0000" stroke="black" stroke-width="1" data-i="3" data-j="2"/>
<path d="M105,165 121,150 102,143 Z" fill="#ff0000" stroke="black" stroke-width="1" data-i="3" data-j="2"/>
<polygon points="128,146 140,127 120,125" fill="#ffff00" stroke="black" stroke-width="1" data-i="3" data-j="3"/>
<path d="M128,146 140,127 120,125 Z" fill="#ffff00" stroke="black" stroke-width="1" data-i="3" data-j="3"/>
<polygon points="157,122 137,132 154,144" fill="#0000ff" stroke="black" stroke-width="1" data-i="3" data-j="3"/>
<path d="M157,122 137,132 154,144 Z" fill="#0000ff" stroke="black" stroke-width="1" data-i="3" data-j="3"/>
<polygon points="116,151 135,164 137,144" fill="#00ff00" stroke="black" stroke-width="1" data-i="3" data-j="3"/>
<path d="M116,151 135,164 137,144 Z" fill="#00ff00" stroke="black" stroke-width="1" data-i="3" data-j="3"/>
<polygon points="148,140 141,161 160,158" fill="#ff0000" stroke="black" stroke-width="1" data-i="3" data-j="3"/>
<path d="M148,140 141,161 160,158 Z" fill="#ff0000" stroke="black" stroke-width="1" data-i="3" data-j="3"/>
<polygon points="182,137 166,121 160,140" fill="#ff0000" stroke="black" stroke-width="1" data-i="3" data-j="4"/>
<path d="M182,137 166,121 160,140 Z" fill="#ff0000" stroke="black" stroke-width="1" data-i="3" data-j="4"/>
<polygon points="176,134 197,142 195,122" fill="#ff0000" stroke="black" stroke-width="1" data-i="3" data-j="4"/>
<path d="M176,134 197,142 195,122 Z" fill="#ff0000" stroke="black" stroke-width="1" data-i="3" data-j="4"/>
<polygon points="175,165 176,143 158,151" fill="#ff0000" stroke="black" stroke-width="1" data-i="3" data-j="4"/>
<path d="M175,165 176,143 158,151 Z" fill="#ff0000" stroke="black" stroke-width="1" data-i="3" data-j="4"/>
<polygon points="203,151 181,144 184,164" fill="#ff0000" stroke="black" stroke-width="1" data-i="3" data-j="4"/>
<path d="M203,151 181,144 184,164 Z" fill="#ff0000" stroke="black" stroke-width="1" data-i="3" data-j="4"/>
<polygon points="8,186 20,167 0,165" fill="#ff0000" stroke="black" stroke-width="1" data-i="4" data-j="0"/>
<path d="M8,186 20,167 0,165 Z" fill="#ff0000" stroke="black" stroke-width="1" data-i="4" data-j="0"/>
<polygon points="43,174 24,162 22,182" fill="#ff0000" stroke="black" stroke-width="1" data-i="4" data-j="0"/>
<path d="M43,174 24,162 22,182 Z" fill="#ff0000" stroke="black" stroke-width="1" data-i="4" data-j="0"/>
<polygon points="18,203 13,181 -1,194" fill="#ff0000" stroke="black" stroke-width="1" data-i="4" data-j="0"/>
<path d="M18,203 13,181 -1,194 Z" fill="#ff0000" stroke="black" stroke-width="1" data-i="4" data-j="0"/>
<polygon points="43,194 24,182 22,202" fill="#ff0000" stroke="black" stroke-width="1" data-i="4" data-j="0"/>
<path d="M43,194 24,182 22,202 Z" fill="#ff0000" stroke="black" stroke-width="1" data-i="4" data-j="0"/>
<polygon points="61,166 39,168 49,185" fill="#ff0000" stroke="black" stroke-width="1" data-i="4" data-j="1"/>
<path d="M61,166 39,168 49,185 Z" fill="#ff0000" stroke="black" stroke-width="1" data-i="4" data-j="1"/>
<polygon points="62,184 82,173 65,162" fill="#ff0000" stroke="black" stroke-width="1" data-i="4" data-j="1"/>
<path d="M62,184 82,173 65,162 Z" fill="#ff0000" stroke="black" stroke-width="1" data-i="4" data-j="1"/>
<polygon points="57,182 37,193 54,204" fill="#ff0000" stroke="black" stroke-width="1" data-i="4" data-j="1"/>
<path d="M57,182 37,193 54,204 Z" fill="#ff0000" stroke="black" stroke-width="1" data-i="4" data-j="1"/>
<polygon points="78,203 73,181 58,194" fill="#ff0000" stroke="black" stroke-width="1" data-i="4" data-j="1"/>
<path d="M78,203 73,181 58,194 Z" fill="#ff0000" stroke="black" stroke-width="1" data-i="4" data-j="1"/>
<polygon points="79,165 89,185 101,168" fill="#ff0000" stroke="black" stroke-width="1" data-i="4" data-j="2"/>
<path d="M79,165 89,185 101,168 Z" fill="#ff0000" stroke="black" stroke-width="1" data-i="4" data-j="2"/>
<polygon points="115,185 116,162 98,171" fill="#ff0000" stroke="black" stroke-width="1" data-i="4" data-j="2"/>
<path d="M115,185 116,162 98,171 Z" fill="#ff0000" stroke="black" stroke-width="1" data-i="4" data-j="2"/>
<polygon points="79,185 89,205 101,189" fill="#ff0000" stroke="black" stroke-width="1" data-i="4" data-j="2"/>
<path d="M79,185 89,205 101,189 Z" fill="#ff0000" stroke="black" stroke-width="1" data-i="4" data-j="2"/>
<polygon points="107,180 101,201 121,197" fill="#ff0000" stroke="black" stroke-width="1" data-i="4" data-j="2"/>
<path d="M107,180 101,201 121,197 Z" fill="#ff0000" stroke="black" stroke-width="1" data-i="4" data-j="2"/>
<polygon points="140,180 130,161 118,177" fill="#ff0000" stroke="black" stroke-width="1" data-i="4" data-j="3"/>
<path d="M140,180 130,161 118,177 Z" fill="#ff0000" stroke="black" stroke-width="1" data-i="4" data-j="3"/>
<polygon points="151,186 158,165 139,168" fill="#ff0000" stroke="black" stroke-width="1" data-i="4" data-j="3"/>
<path d="M151,186 158,165 139,168 Z" fill="#ff0000" stroke="black" stroke-width="1" data-i="4" data-j="3"/>
<polygon points="138,183 118,191 133,204" fill="#ff0000" stroke="black" stroke-width="1" data-i="4" data-j="3"/>
<path d="M138,183 118,191 133,204 Z" fill="#ff0000" stroke="black" stroke-width="1" data-i="4" data-j="3"/>
<polygon points="156,181 137,193 155,204" fill="#ff0000" stroke="black" stroke-width="1" data-i="4" data-j="3"/>
<path d="M156,181 137,193 155,204 Z" fill="#ff0000" stroke="black" stroke-width="1" data-i="4" data-j="3"/>
<polygon points="182,167 159,167 168,185" fill="#000000" stroke="black" stroke-width="1" data-i="4" data-j="4"/>
<path d="M182,167 159,167 168,185 Z" fill="#000000" stroke="black" stroke-width="1" data-i="4" data-j="4"/>
<polygon points="203,175 185,162 181,181" fill="#000000" stroke="black" stroke-width="1" data-i="4" data-j="4"/>
<path d="M203,175 185,162 181,181 Z" fill="#000000" stroke="black" stroke-width="1" data-i="4" data-j="4"/>
<polygon points="159,185 169,205 181,189" fill="#000000" stroke="black" stroke-width="1" data-i="4" data-j="4"/>
<path d="M159,185 169,205 181,189 Z" fill="#000000" stroke="black" stroke-width="1" data-i="4" data-j="4"/>
<polygon points="178,200 201,197 189,181" fill="#000000" stroke="black" stroke-width="1" data-i="4" data-j="4"/>
<path d="M178,200 201,197 189,181 Z" fill="#000000" stroke="black" stroke-width="1" data-i="4" data-j="4"/>
</svg>