<svg width="140" height="140" xmlns="http://www.w3.org/2000/svg">
<metadata>
	<dimension_matrice_cellule>3</dimension_matrice_cellule>
	<protocole>2</protocole>
</metadata>
<polygon points="1,3 7,24 21,11" fill="#000000" stroke="black" stroke-width="1" data-i="0" data-j="0"/>
<path d="M1,3 7,24 21,11 Z" fill="#000000" stroke="black" stroke-width="1" data-i="0" data-j="0"/>
<polygon points="17,18 39,20 32,1" fill="#000000" stroke="black" stroke-width="1" data-i="0" data-j="0"/>
<path d="M17,18 39,20 32,1 Z" fill="#000000" stroke="black" stroke-width="1" data-i="0" data-j="0"/>
<polygon points="5,20 3,43 21,35" fill="#000000" stroke="black" stroke-width="1" data-i="0" data-j="0"/>
<path d="M5,20 3,43 21,35 Z" fill="#000000" stroke="black" stroke-width="1" data-i="0" data-j="0"/>
<polygon points="16,30 34,44 38,24" fill="#000000" stroke="black" stroke-width="1" data-i="0" data-j="0"/>
<path d="M16,30 34,44 38,24 Z" fill="#000000" stroke="black" stroke-width="1" data-i="0" data-j="0"/>
<polygon points="48,26 60,7 40,5" fill="#ff0000" stroke="black" stroke-width="1" data-i="0" data-j="1"/>
<path d="M48,26 60,7 40,5 Z" fill="#ff0000" stroke="black" stroke-width="1" data-i="0" data-j="1"/>
<polygon points="56,12 75,23 77,3" fill="#ff0000" stroke="black" stroke-width="1" data-i="0" data-j="1"/>
<path d="M56,12 75,23 77,3 Z" fill="#ff0000" stroke="black" stroke-width="1" data-i="0" data-j="1"/>
<polygon points="44,45 61,31 43,23" fill="#ff0000" stroke="black" stroke-width="1" data-i="0" data-j="1"/>
<path d="M44,45 61,31 43,23 Z" fill="#ff0000" stroke="black" stroke-width="1" data-i="0" data-j="1"/>
<polygon points="74,45 77,23 58,30" fill="#0000ff" stroke="black" stroke-width="1" data-i="0" data-j="1"/>
<path d="M74,45 77,23 58,30 Z" fill="#0000ff" stroke="black" stroke-width="1" data-i="0" data-j="1"/>
<polygon points="93,26 97,4 78,9" fill="#000000" stroke="black" stroke-width="1" data-i="0" data-j="2"/>
<path d="M93,26 97,4 78,9 Z" fill="#000000" stroke="black" stroke-width="1" data-i="0" data-j="2"/>
<polygon points="109,26 120,7 100,6" fill="#000000" stroke="black" stroke-width="1" data-i="0" data-j="2"/>
<path d="M109,26 120,7 100,6 Z" fill="#000000" stroke="black" stroke-width="1" data-i="0" data-j="2"/>
<polygon points="102,37 87,21 80,40" fill="#000000" stroke="black" stroke-width="1" data-i="0" data-j="2"/>
<path d="M102,37 87,21 80,40 Z" fill="#000000" stroke="black" stroke-width="1" data-i="0" data-j="2"/>
<polygon points="123,30 101,24 105,44" fill="#000000" stroke="black" stroke-width="1" data-i="0" data-j="2"/>
<path d="M123,30 101,24 105,44 Z" fill="#000000" stroke="black" stroke-width="1" data-i="0" data-j="2"/>
<polygon points="20,45 -1,49 10,65" fill="#ff0000" stroke="black" stroke-width="1" data-i="1" data-j="0"/>
<path d="M20,45 -1,49 10,65 Z" fill="#ff0000" stroke="black" stroke-width="1" data-i="1" data-j="0"/>
<polygon points="18,59 40,59 31,41" fill="#ff0000" stroke="black" stroke-width="1" data-i="1" data-j="0"/>
<path d="M18,59 40,59 31,41 Z" fill="#ff0000" stroke="black" stroke-width="1" data-i="1" data-j="0"/>
<polygon points="22,78 7,61 0,80" fill="#ff0000" stroke="black" stroke-width="1" data-i="1" data-j="0"/>
<path d="M22,78 7,61 0,80 Z" fill="#ff0000" stroke="black" stroke-width="1" data-i="1" data-j="0"/>
<polygon points="27,86 41,68 21,64" fill="#00ff00" stroke="black" stroke-width="1" data-i="1" data-j="0"/>
<path d="M27,86 41,68 21,64 Z" fill="#00ff00" stroke="black" stroke-width="1" data-i="1" data-j="0"/>
<polygon points="50,40 40,60 60,60" fill="#ff0000" stroke="black" stroke-width="1" data-i="1" data-j="1"/>
<path d="M50,40 40,60 60,60 Z" fill="#ff0000" stroke="black" stroke-width="1" data-i="1" data-j="1"/>
<polygon points="83,55 64,42 62,62" fill="#00ff00" stroke="black" stroke-width="1" data-i="1" data-j="1"/>
<path d="M83,55 64,42 62,62 Z" fill="#00ff00" stroke="black" stroke-width="1" data-i="1" data-j="1"/>
<polygon points="63,73 43,63 42,83" fill="#0000ff" stroke="black" stroke-width="1" data-i="1" data-j="1"/>
<path d="M63,73 43,63 42,83 Z" fill="#0000ff" stroke="black" stroke-width="1" data-i="1" data-j="1"/>
<polygon points="81,80 69,61 59,78" fill="#ff0000" stroke="black" stroke-width="1" data-i="1" data-j="1"/>
<path d="M81,80 69,61 59,78 Z" fill="#ff0000" stroke="black" stroke-width="1" data-i="1" data-j="1"/>
<polygon points="81,43 87,64 101,51" fill="#00ff00" stroke="black" stroke-width="1" data-i="1" data-j="2"/>
<path d="M81,43 87,64 101,51 Z" fill="#00ff00" stroke="black" stroke-width="1" data-i="1" data-j="2"/>
<polygon points="97,48 113,64 119,46" fill="#00ff00" stroke="black" stroke-width="1" data-i="1" data-j="2"/>
<path d="M97,48 113,64 119,46 Z" fill="#00ff00" stroke="black" stroke-width="1" data-i="1" data-j="2"/>
<polygon points="78,65 89,85 101,68" fill="#ff0000" stroke="black" stroke-width="1" data-i="1" data-j="2"/>
<path d="M78,65 89,85 101,68 Z" fill="#ff0000" stroke="black" stroke-width="1" data-i="1" data-j="2"/>
<polygon points="104,85 121,71 103,63" fill="#ffff00" stroke="black" stroke-width="1" data-i="1" data-j="2"/>
<path d="M104,85 121,71 103,63 Z" fill="#ffff00" stroke="black" stroke-width="1" data-i="1" data-j="2"/>
<polygon points="4,81 3,103 21,95" fill="#00ff00" stroke="black" stroke-width="1" data-i="2" data-j="0"/>
<path d="M4,81 3,103 21,95 Z" fill="#00ff00" stroke="black" stroke-width="1" data-i="2" data-j="0"/>
<polygon points="18,87 31,105 40,87" fill="#00ff00" stroke="black" stroke-width="1" data-i="2" data-j="0"/>
<path d="M18,87 31,105 40,87 Z" fill="#00ff00" stroke="black" stroke-width="1" data-i="2" data-j="0"/>
<polygon points="12,126 18,104 -1,109" fill="#ff0000" stroke="black" stroke-width="1" data-i="2" data-j="0"/>
<path d="M12,126 18,104 -1,109 Z" fill="#ff0000" stroke="black" stroke-width="1" data-i="2" data-j="0"/>
<polygon points="24,101 23,123 41,115" fill="#00ff00" stroke="black" stroke-width="1" data-i="2" data-j="0"/>
<path d="M24,101 23,123 41,115 Z" fill="#00ff00" stroke="black" stroke-width="1" data-i="2" data-j="0"/>
<polygon points="45,105 61,90 42,83" fill="#00ff00" stroke="black" stroke-width="1" data-i="2" data-j="1"/>
<path d="M45,105 61,90 42,83 Z" fill="#00ff00" stroke="black" stroke-width="1" data-i="2" data-j="1"/>
<polygon points="59,101 81,97 69,81" fill="#ff0000" stroke="black" stroke-width="1" data-i="2" data-j="1"/>
<path d="M59,101 81,97 69,81 Z" fill="#ff0000" stroke="black" stroke-width="1" data-i="2" data-j="1"/>
<polygon points="37,117 59,120 52,101" fill="#00ff00" stroke="black" stroke-width="1" data-i="2" data-j="1"/>
<path d="M37,117 59,120 52,101 Z" fill="#00ff00" stroke="black" stroke-width="1" data-i="2" data-j="1"/>
<polygon points="78,102 58,112 73,124" fill="#ff0000" stroke="black" stroke-width="1" data-i="2" data-j="1"/>
<path d="M78,102 58,112 73,124 Z" fill="#ff0000" stroke="black" stroke-width="1" data-i="2" data-j="1"/>
<polygon points="77,98 99,100 92,81" fill="#000000" stroke="black" stroke-width="1" data-i="2" data-j="2"/>
<path d="M77,98 99,100 92,81 Z" fill="#000000" stroke="black" stroke-width="1" data-i="2" data-j="2"/>
<polygon points="102,104 122,92 105,82" fill="#000000" stroke="black" stroke-width="1" data-i="2" data-j="2"/>
<path d="M102,104 122,92 105,82 Z" fill="#000000" stroke="black" stroke-width="1" data-i="2" data-j="2"/>
<polygon points="78,120 101,117 89,101" fill="#000000" stroke="black" stroke-width="1" data-i="2" data-j="2"/>
<path d="M78,120 101,117 89,101 Z" fill="#000000" stroke="black" stroke-width="1" data-i="2" data-j="2"/>
<polygon points="123,110 101,104 105,124" fill="#000000" stroke="black" stroke-width="1" data-i="2" data-j="2"/>
<path d="M123,110 101,104 105,124 Z" fill="#000000" stroke="black" stroke-width="1" data-i="2" data-j="2"/>
</svg>