<svg width="220" height="220" xmlns="http://www.w3.org/2000/svg">
<metadata>
	<dimension_matrice_cellule>5</dimension_matrice_cellule>
	<protocole>2</protocole>
</metadata>
<polygon points="23,13 3,3 3,23" fill="#000000" stroke="black" stroke-width="1" data-i="0" data-j="0"/>
<path d="M23,13 3,3 3,23 Z" fill="#000000" stroke="black" stroke-width="1" data-i="0" data-j="0"/>
<polygon points="18,20 41,17 29,1" fill="#000000" stroke="black" stroke-width="1" data-i="0" data-j="0"/>
<path d="M18,20 41,17 29,1 Z" fill="#000000" stroke="black" stroke-width="1" data-i="0" data-j="0"/>
<polygon points="20,25 -1,29 10,45" fill="#000000" stroke="black" stroke-width="1" data-i="0" data-j="0"/>
<path d="M20,25 -1,29 10,45 Z" fill="#000000" stroke="black" stroke-width="1" data-i="0" data-j="0"/>
<polygon points="19,42 41,36 28,21" fill="#000000" stroke="black" stroke-width="1" data-i="0" data-j="0"/>
<path d="M19,42 41,36 28,21 Z" fill="#000000" stroke="black" stroke-width="1" data-i="0" data-j="0"/>
<polygon points="38,19 60,19 51,1" fill="#ff0000" stroke="black" stroke-width="1" data-i="0" data-j="1"/>
<path d="M38,19 60,19 51,1 Z" fill="#ff0000" stroke="black" stroke-width="1" data-i="0" data-j="1"/>
<polygon points="69,26 80,7 60,6" fill="#ff0000" stroke="black" stroke-width="1" data-i="0" data-j="1"/>
<path d="M69,26 80,7 60,6 Z" fill="#ff0000" stroke="black" stroke-width="1" data-i="0" data-j="1"/>
<polygon points="53,46 58,24 38,29" fill="#ff0000" stroke="black" stroke-width="1" data-i="0" data-j="1"/>
<path d="M53,46 58,24 38,29 Z" fill="#ff0000" stroke="black" stroke-width="1" data-i="0" data-j="1"/>
<polygon points="81,39 68,21 59,39" fill="#0000ff" stroke="black" stroke-width="1" data-i="0" data-j="1"/>
<path d="M81,39 68,21 59,39 Z" fill="#0000ff" stroke="black" stroke-width="1" data-i="0" data-j="1"/>
<polygon points="86,0 81,22 101,17" fill="#ff0000" stroke="black" stroke-width="1" data-i="0" data-j="2"/>
<path d="M86,0 81,22 101,17 Z" fill="#ff0000" stroke="black" stroke-width="1" data-i="0" data-j="2"/>
<polygon points="121,6 99,8 109,25" fill="#ff0000" stroke="black" stroke-width="1" data-i="0" data-j="2"/>
<path d="M121,6 99,8 109,25 Z" fill="#ff0000" stroke="black" stroke-width="1" data-i="0" data-j="2"/>
<polygon points="83,21 84,44 102,33" fill="#ff0000" stroke="black" stroke-width="1" data-i="0" data-j="2"/>
<path d="M83,21 84,44 102,33 Z" fill="#ff0000" stroke="black" stroke-width="1" data-i="0" data-j="2"/>
<polygon points="120,24 98,29 111,45" fill="#00ff00" stroke="black" stroke-width="1" data-i="0" data-j="2"/>
<path d="M120,24 98,29 111,45 Z" fill="#00ff00" stroke="black" stroke-width="1" data-i="0" data-j="2"/>
<polygon points="133,26 138,4 118,9" fill="#00ff00" stroke="black" stroke-width="1" data-i="0" data-j="3"/>
<path d="M133,26 138,4 118,9 Z" fill="#00ff00" stroke="black" stroke-width="1" data-i="0" data-j="3"/>
<polygon points="161,20 149,1 139,18" fill="#0000ff" stroke="black" stroke-width="1" data-i="0" data-j="3"/>
<path d="M161,20 149,1 139,18 Z" fill="#0000ff" stroke="black" stroke-width="1" data-i="0" data-j="3"/>
<polygon points="134,20 118,35 136,43" fill="#0000ff" stroke="black" stroke-width="1" data-i="0" data-j="3"/>
<path d="M134,20 118,35 136,43 Z" fill="#0000ff" stroke="black" stroke-width="1" data-i="0" data-j="3"/>
<polygon points="145,45 161,30 143,23" fill="#ff0000" stroke="black" stroke-width="1" data-i="0" data-j="3"/>
<path d="M145,45 161,30 143,23 Z" fill="#ff0000" stroke="black" stroke-width="1" data-i="0" data-j="3"/>
<polygon points="160,3 167,25 181,11" fill="#000000" stroke="black" stroke-width="1" data-i="0" data-j="4"/>
<path d="M160,3 167,25 181,11 Z" fill="#000000" stroke="black" stroke-width="1" data-i="0" data-j="4"/>
<polygon points="202,16 185,2 181,21" fill="#000000" stroke="black" stroke-width="1" data-i="0" data-j="4"/>
<path d="M202,16 185,2 181,21 Z" fill="#000000" stroke="black" stroke-width="1" data-i="0" data-j="4"/>
<polygon points="182,38 167,21 159,39" fill="#000000" stroke="black" stroke-width="1" data-i="0" data-j="4"/>
<path d="M182,38 167,21 159,39 Z" fill="#000000" stroke="black" stroke-width="1" data-i="0" data-j="4"/>
<polygon points="189,46 200,27 180,26" fill="#000000" stroke="black" stroke-width="1" data-i="0" data-j="4"/>
<path d="M189,46 200,27 180,26 Z" fill="#000000" stroke="black" stroke-width="1" data-i="0" data-j="4"/>
<polygon points="23,53 3,43 3,63" fill="#00ff00" stroke="black" stroke-width="1" data-i="1" data-j="0"/>
<path d="M23,53 3,43 3,63 Z" fill="#00ff00" stroke="black" stroke-width="1" data-i="1" data-j="0"/>
<polygon points="16,55 38,61 34,42" fill="#ff0000" stroke="black" stroke-width="1" data-i="1" data-j="0"/>
<path d="M16,55 38,61 34,42 Z" fill="#ff0000" stroke="black" stroke-width="1" data-i="1" data-j="0"/>
<polygon points="17,62 -2,73 14,84" fill="#0000ff" stroke="black" stroke-width="1" data-i="1" data-j="0"/>
<path d="M17,62 -2,73 14,84 Z" fill="#0000ff" stroke="black" stroke-width="1" data-i="1" data-j="0"/>
<polygon points="27,86 41,68 21,65" fill="#ff0000" stroke="black" stroke-width="1" data-i="1" data-j="0"/>
<path d="M27,86 41,68 21,65 Z" fill="#ff0000" stroke="black" stroke-width="1" data-i="1" data-j="0"/>
<polygon points="37,56 58,61 54,42" fill="#00ff00" stroke="black" stroke-width="1" data-i="1" data-j="1"/>
<path d="M37,56 58,61 54,42 Z" fill="#00ff00" stroke="black" stroke-width="1" data-i="1" data-j="1"/>
<polygon points="74,40 58,56 77,62" fill="#0000ff" stroke="black" stroke-width="1" data-i="1" data-j="1"/>
<path d="M74,40 58,56 77,62 Z" fill="#0000ff" stroke="black" stroke-width="1" data-i="1" data-j="1"/>
<polygon points="63,75 45,62 41,81" fill="#ffff00" stroke="black" stroke-width="1" data-i="1" data-j="1"/>
<path d="M63,75 45,62 41,81 Z" fill="#ffff00" stroke="black" stroke-width="1" data-i="1" data-j="1"/>
<polygon points="68,60 61,81 80,78" fill="#ff0000" stroke="black" stroke-width="1" data-i="1" data-j="1"/>
<path d="M68,60 61,81 80,78 Z" fill="#ff0000" stroke="black" stroke-width="1" data-i="1" data-j="1"/>
<polygon points="84,41 83,63 101,55" fill="#00ff00" stroke="black" stroke-width="1" data-i="1" data-j="2"/>
<path d="M84,41 83,63 101,55 Z" fill="#00ff00" stroke="black" stroke-width="1" data-i="1" data-j="2"/>
<polygon points="109,66 120,46 100,46" fill="#0000ff" stroke="black" stroke-width="1" data-i="1" data-j="2"/>
<path d="M109,66 120,46 100,46 Z" fill="#0000ff" stroke="black" stroke-width="1" data-i="1" data-j="2"/>
<polygon points="102,78 87,61 80,80" fill="#ffff00" stroke="black" stroke-width="1" data-i="1" data-j="2"/>
<path d="M102,78 87,61 80,80 Z" fill="#ffff00" stroke="black" stroke-width="1" data-i="1" data-j="2"/>
<polygon points="108,60 100,81 120,78" fill="#ffff00" stroke="black" stroke-width="1" data-i="1" data-j="2"/>
<path d="M108,60 100,81 120,78 Z" fill="#ffff00" stroke="black" stroke-width="1" data-i="1" data-j="2"/>
<polygon points="137,64 134,42 117,53" fill="#ff0000" stroke="black" stroke-width="1" data-i="1" data-j="3"/>
<path d="M137,64 134,42 117,53 Z" fill="#ff0000" stroke="black" stroke-width="1" data-i="1" data-j="3"/>
<polygon points="148,66 160,47 140,45" fill="#0000ff" stroke="black" stroke-width="1" data-i="1" data-j="3"/>
<path d="M148,66 160,47 140,45 Z" fill="#0000ff" stroke="black" stroke-width="1" data-i="1" data-j="3"/>
<polygon points="117,69 133,84 139,65" fill="#ff0000" stroke="black" stroke-width="1" data-i="1" data-j="3"/>
<path d="M117,69 133,84 139,65 Z" fill="#ff0000" stroke="black" stroke-width="1" data-i="1" data-j="3"/>
<polygon points="161,79 148,61 139,79" fill="#ff0000" stroke="black" stroke-width="1" data-i="1" data-j="3"/>
<path d="M161,79 148,61 139,79 Z" fill="#ff0000" stroke="black" stroke-width="1" data-i="1" data-j="3"/>
<polygon points="180,44 158,49 171,65" fill="#00ff00" stroke="black" stroke-width="1" data-i="1" data-j="4"/>
<path d="M180,44 158,49 171,65 Z" fill="#00ff00" stroke="black" stroke-width="1" data-i="1" data-j="4"/>
<polygon points="179,61 201,56 188,41" fill="#0000ff" stroke="black" stroke-width="1" data-i="1" data-j="4"/>
<path d="M179,61 201,56 188,41 Z" fill="#0000ff" stroke="black" stroke-width="1" data-i="1" data-j="4"/>
<polygon points="179,83 172,61 158,75" fill="#ffff00" stroke="black" stroke-width="1" data-i="1" data-j="4"/>
<path d="M179,83 172,61 158,75 Z" fill="#ffff00" stroke="black" stroke-width="1" data-i="1" data-j="4"/>
<polygon points="202,69 180,65 186,84" fill="#ffff00" stroke="black" stroke-width="1" data-i="1" data-j="4"/>
<path d="M202,69 180,65 186,84 Z" fill="#ffff00" stroke="black" stroke-width="1" data-i="1" data-j="4"/>
<polygon points="-1,86 10,105 20,88" fill="#00ff00" stroke="black" stroke-width="1" data-i="2" data-j="0"/>
<path d="M-1,86 10,105 20,88 Z" fill="#00ff00" stroke="black" stroke-width="1" data-i="2" data-j="0"/>
<polygon points="38,82 18,92 33,104" fill="#0000ff" stroke="black" stroke-width="1" data-i="2" data-j="0"/>
<path d="M38,82 18,92 33,104 Z" fill="#0000ff" stroke="black" stroke-width="1" data-i="2" data-j="0"/>
<polygon points="7,126 21,108 1,105" fill="#ffff00" stroke="black" stroke-width="1" data-i="2" data-j="0"/>
<path d="M7,126 21,108 1,105 Z" fill="#ffff00" stroke="black" stroke-width="1" data-i="2" data-j="0"/>
<polygon points="18,105 29,125 41,108" fill="#ff0000" stroke="black" stroke-width="1" data-i="2" data-j="0"/>
<path d="M18,105 29,125 41,108 Z" fill="#ff0000" stroke="black" stroke-width="1" data-i="2" data-j="0"/>
<polygon points="45,105 61,90 43,83" fill="#ff0000" stroke="black" stroke-width="1" data-i="2" data-j="1"/>
<path d="M45,105 61,90 43,83 Z" fill="#ff0000" stroke="black" stroke-width="1" data-i="2" data-j="1"/>
<polygon points="70,80 59,99 79,100" fill="#0000ff" stroke="black" stroke-width="1" data-i="2" data-j="1"/>
<path d="M70,80 59,99 79,100 Z" fill="#0000ff" stroke="black" stroke-width="1" data-i="2" data-j="1"/>
<polygon points="46,100 42,122 61,117" fill="#ff0000" stroke="black" stroke-width="1" data-i="2" data-j="1"/>
<path d="M46,100 42,122 61,117 Z" fill="#ff0000" stroke="black" stroke-width="1" data-i="2" data-j="1"/>
<polygon points="68,100 60,121 80,118" fill="#00ff00" stroke="black" stroke-width="1" data-i="2" data-j="1"/>
<path d="M68,100 60,121 80,118 Z" fill="#00ff00" stroke="black" stroke-width="1" data-i="2" data-j="1"/>
<polygon points="102,97 86,81 80,100" fill="#00ff00" stroke="black" stroke-width="1" data-i="2" data-j="2"/>
<path d="M102,97 86,81 80,100 Z" fill="#00ff00" stroke="black" stroke-width="1" data-i="2" data-j="2"/>
<polygon points="96,93 117,103 116,83" fill="#0000ff" stroke="black" stroke-width="1" data-i="2" data-j="2"/>
<path d="M96,93 117,103 116,83 Z" fill="#0000ff" stroke="black" stroke-width="1" data-i="2" data-j="2"/>
<polygon points="83,124 102,112 84,102" fill="#00ff00" stroke="black" stroke-width="1" data-i="2" data-j="2"/>
<path d="M83,124 102,112 84,102 Z" fill="#00ff00" stroke="black" stroke-width="1" data-i="2" data-j="2"/>
<polygon points="98,120 121,118 110,101" fill="#00ff00" stroke="black" stroke-width="1" data-i="2" data-j="2"/>
<path d="M98,120 121,118 110,101 Z" fill="#00ff00" stroke="black" stroke-width="1" data-i="2" data-j="2"/>
<polygon points="128,106 140,87 120,85" fill="#00ff00" stroke="black" stroke-width="1" data-i="2" data-j="3"/>
<path d="M128,106 140,87 120,85 Z" fill="#00ff00" stroke="black" stroke-width="1" data-i="2" data-j="3"/>
<polygon points="139,102 161,96 148,81" fill="#0000ff" stroke="black" stroke-width="1" data-i="2" data-j="3"/>
<path d="M139,102 161,96 148,81 Z" fill="#0000ff" stroke="black" stroke-width="1" data-i="2" data-j="3"/>
<polygon points="133,126 138,104 118,109" fill="#ffff00" stroke="black" stroke-width="1" data-i="2" data-j="3"/>
<path d="M133,126 138,104 118,109 Z" fill="#ffff00" stroke="black" stroke-width="1" data-i="2" data-j="3"/>
<polygon points="142,102 145,124 162,113" fill="#ff0000" stroke="black" stroke-width="1" data-i="2" data-j="3"/>
<path d="M142,102 145,124 162,113 Z" fill="#ff0000" stroke="black" stroke-width="1" data-i="2" data-j="3"/>
<polygon points="172,80 158,97 178,102" fill="#ff0000" stroke="black" stroke-width="1" data-i="2" data-j="4"/>
<path d="M172,80 158,97 178,102 Z" fill="#ff0000" stroke="black" stroke-width="1" data-i="2" data-j="4"/>
<polygon points="201,100 189,81 178,98" fill="#0000ff" stroke="black" stroke-width="1" data-i="2" data-j="4"/>
<path d="M201,100 189,81 178,98 Z" fill="#0000ff" stroke="black" stroke-width="1" data-i="2" data-j="4"/>
<polygon points="180,121 170,101 158,117" fill="#ffff00" stroke="black" stroke-width="1" data-i="2" data-j="4"/>
<path d="M180,121 170,101 158,117 Z" fill="#ffff00" stroke="black" stroke-width="1" data-i="2" data-j="4"/>
<polygon points="199,103 178,111 192,125" fill="#ff0000" stroke="black" stroke-width="1" data-i="2" data-j="4"/>
<path d="M199,103 178,111 192,125 Z" fill="#ff0000" stroke="black" stroke-width="1" data-i="2" data-j="4"/>
<polygon points="19,123 -1,130 12,145" fill="#00ff00" stroke="black" stroke-width="1" data-i="3" data-j="0"/>
<path d="M19,123 -1,130 12,145 Z" fill="#00ff00" stroke="black" stroke-width="1" data-i="3" data-j="0"/>
<polygon points="22,144 42,133 25,122" fill="#ffff00" stroke="black" stroke-width="1" data-i="3" data-j="0"/>
<path d="M22,144 42,133 25,122 Z" fill="#ffff00" stroke="black" stroke-width="1" data-i="3" data-j="0"/>
<polygon points="8,166 20,147 0,145" fill="#00ff00" stroke="black" stroke-width="1" data-i="3" data-j="0"/>
<path d="M8,166 20,147 0,145 Z" fill="#00ff00" stroke="black" stroke-width="1" data-i="3" data-j="0"/>
<polygon points="41,159 28,141 19,159" fill="#ffff00" stroke="black" stroke-width="1" data-i="3" data-j="0"/>
<path d="M41,159 28,141 19,159 Z" fill="#ffff00" stroke="black" stroke-width="1" data-i="3" data-j="0"/>
<polygon points="63,135 44,122 42,142" fill="#00ff00" stroke="black" stroke-width="1" data-i="3" data-j="1"/>
<path d="M63,135 44,122 42,142 Z" fill="#00ff00" stroke="black" stroke-width="1" data-i="3" data-j="1"/>
<polygon points="58,139 80,139 71,121" fill="#ffff00" stroke="black" stroke-width="1" data-i="3" data-j="1"/>
<path d="M58,139 80,139 71,121 Z" fill="#ffff00" stroke="black" stroke-width="1" data-i="3" data-j="1"/>
<polygon points="41,142 46,164 61,152" fill="#ff0000" stroke="black" stroke-width="1" data-i="3" data-j="1"/>
<path d="M41,142 46,164 61,152 Z" fill="#ff0000" stroke="black" stroke-width="1" data-i="3" data-j="1"/>
<polygon points="62,164 82,153 65,142" fill="#0000ff" stroke="black" stroke-width="1" data-i="3" data-j="1"/>
<path d="M62,164 82,153 65,142 Z" fill="#0000ff" stroke="black" stroke-width="1" data-i="3" data-j="1"/>
<polygon points="100,140 90,121 78,137" fill="#00ff00" stroke="black" stroke-width="1" data-i="3" data-j="2"/>
<path d="M100,140 90,121 78,137 Z" fill="#00ff00" stroke="black" stroke-width="1" data-i="3" data-j="2"/>
<polygon points="110,146 119,125 99,127" fill="#0000ff" stroke="black" stroke-width="1" data-i="3" data-j="2"/>
<path d="M110,146 119,125 99,127 Z" fill="#0000ff" stroke="black" stroke-width="1" data-i="3" data-j="2"/>
<polygon points="95,141 78,155 96,163" fill="#00ff00" stroke="black" stroke-width="1" data-i="3" data-j="2"/>
<path d="M95,141 78,155 96,163 Z" fill="#00ff00" stroke="black" stroke-width="1" data-i="3" data-j="2"/>
<polygon points="117,164 114,142 97,153" fill="#ff0000" stroke="black" stroke-width="1" data-i="3" data-j="2"/>
<path d="M117,164 114,142 97,153 Z" fill="#ff0000" stroke="black" stroke-width="1" data-i="3" data-j="2"/>
<polygon points="142,129 120,125 126,144" fill="#ffff00" stroke="black" stroke-width="1" data-i="3" data-j="3"/>
<path d="M142,129 120,125 126,144 Z" fill="#ffff00" stroke="black" stroke-width="1" data-i="3" data-j="3"/>
<polygon points="147,146 161,128 141,125" fill="#0000ff" stroke="black" stroke-width="1" data-i="3" data-j="3"/>
<path d="M147,146 161,128 141,125 Z" fill="#0000ff" stroke="black" stroke-width="1" data-i="3" data-j="3"/>
<polygon points="117,156 139,161 133,141" fill="#00ff00" stroke="black" stroke-width="1" data-i="3" data-j="3"/>
<path d="M117,156 139,161 133,141 Z" fill="#00ff00" stroke="black" stroke-width="1" data-i="3" data-j="3"/>
<polygon points="136,152 156,163 157,143" fill="#ff0000" stroke="black" stroke-width="1" data-i="3" data-j="3"/>
<path d="M136,152 156,163 157,143 Z" fill="#ff0000" stroke="black" stroke-width="1" data-i="3" data-j="3"/>
<polygon points="171,146 178,125 159,128" fill="#ff0000" stroke="black" stroke-width="1" data-i="3" data-j="4"/>
<path d="M171,146 178,125 159,128 Z" fill="#ff0000" stroke="black" stroke-width="1" data-i="3" data-j="4"/>
<polygon points="178,126 190,145 200,128" fill="#ff0000" stroke="black" stroke-width="1" data-i="3" data-j="4"/>
<path d="M178,126 190,145 200,128 Z" fill="#ff0000" stroke="black" stroke-width="1" data-i="3" data-j="4"/>
<polygon points="175,141 158,154 176,163" fill="#ff0000" stroke="black" stroke-width="1" data-i="3" data-j="4"/>
<path d="M175,141 158,154 176,163 Z" fill="#ff0000" stroke="black" stroke-width="1" data-i="3" data-j="4"/>
<polygon points="198,142 178,152 193,164" fill="#ff0000" stroke="black" stroke-width="1" data-i="3" data-j="4"/>
<path d="M198,142 178,152 193,164 Z" fill="#ff0000" stroke="black" stroke-width="1" data-i="3" data-j="4"/>
<polygon points="-1,167 11,185 20,167" fill="#ff0000" stroke="black" stroke-width="1" data-i="4" data-j="0"/>
<path d="M-1,167 11,185 20,167 Z" fill="#ff0000" stroke="black" stroke-width="1" data-i="4" data-j="0"/>
<polygon points="20,182 41,175 27,161" fill="#ff0000" stroke="black" stroke-width="1" data-i="4" data-j="0"/>
<path d="M20,182 41,175 27,161 Z" fill="#ff0000" stroke="black" stroke-width="1" data-i="4" data-j="0"/>
<polygon points="11,180 0,198 19,201" fill="#ff0000" stroke="black" stroke-width="1" data-i="4" data-j="0"/>
<path d="M11,180 0,198 19,201 Z" fill="#ff0000" stroke="black" stroke-width="1" data-i="4" data-j="0"/>
<polygon points="43,192 22,183 24,203" fill="#ff0000" stroke="black" stroke-width="1" data-i="4" data-j="0"/>
<path d="M43,192 22,183 24,203 Z" fill="#ff0000" stroke="black" stroke-width="1" data-i="4" data-j="0"/>
<polygon points="36,173 56,183 56,163" fill="#ff0000" stroke="black" stroke-width="1" data-i="4" data-j="1"/>
<path d="M36,173 56,183 56,163 Z" fill="#ff0000" stroke="black" stroke-width="1" data-i="4" data-j="1"/>
<polygon points="80,180 70,161 58,177" fill="#ff0000" stroke="black" stroke-width="1" data-i="4" data-j="1"/>
<path d="M80,180 70,161 58,177 Z" fill="#ff0000" stroke="black" stroke-width="1" data-i="4" data-j="1"/>
<polygon points="44,181 43,203 61,195" fill="#ff0000" stroke="black" stroke-width="1" data-i="4" data-j="1"/>
<path d="M44,181 43,203 61,195 Z" fill="#ff0000" stroke="black" stroke-width="1" data-i="4" data-j="1"/>
<polygon points="69,180 60,200 80,199" fill="#ff0000" stroke="black" stroke-width="1" data-i="4" data-j="1"/>
<path d="M69,180 60,200 80,199 Z" fill="#ff0000" stroke="black" stroke-width="1" data-i="4" data-j="1"/>
<polygon points="82,162 85,184 102,172" fill="#ff0000" stroke="black" stroke-width="1" data-i="4" data-j="2"/>
<path d="M82,162 85,184 102,172 Z" fill="#ff0000" stroke="black" stroke-width="1" data-i="4" data-j="2"/>
<polygon points="100,182 121,176 108,161" fill="#ff0000" stroke="black" stroke-width="1" data-i="4" data-j="2"/>
<path d="M100,182 121,176 108,161 Z" fill="#ff0000" stroke="black" stroke-width="1" data-i="4" data-j="2"/>
<polygon points="89,180 80,200 100,199" fill="#ff0000" stroke="black" stroke-width="1" data-i="4" data-j="2"/>
<path d="M89,180 80,200 100,199 Z" fill="#ff0000" stroke="black" stroke-width="1" data-i="4" data-j="2"/>
<polygon points="118,182 98,192 113,204" fill="#ff0000" stroke="black" stroke-width="1" data-i="4" data-j="2"/>
<path d="M118,182 98,192 113,204 Z" fill="#ff0000" stroke="black" stroke-width="1" data-i="4" data-j="2"/>
<polygon points="140,182 131,161 118,176" fill="#ff0000" stroke="black" stroke-width="1" data-i="4" data-j="3"/>
<path d="M140,182 131,161 118,176 Z" fill="#ff0000" stroke="black" stroke-width="1" data-i="4" data-j="3"/>
<polygon points="160,180 150,161 138,177" fill="#ff0000" stroke="black" stroke-width="1" data-i="4" data-j="3"/>
<path d="M160,180 150,161 138,177 Z" fill="#ff0000" stroke="black" stroke-width="1" data-i="4" data-j="3"/>
<polygon points="121,182 126,204 141,192" fill="#ff0000" stroke="black" stroke-width="1" data-i="4" data-j="3"/>
<path d="M121,182 126,204 141,192 Z" fill="#ff0000" stroke="black" stroke-width="1" data-i="4" data-j="3"/>
<polygon points="137,188 152,205 159,186" fill="#ff0000" stroke="black" stroke-width="1" data-i="4" data-j="3"/>
<path d="M137,188 152,205 159,186 Z" fill="#ff0000" stroke="black" stroke-width="1" data-i="4" data-j="3"/>
<polygon points="177,184 174,162 157,172" fill="#000000" stroke="black" stroke-width="1" data-i="4" data-j="4"/>
<path d="M177,184 174,162 157,172 Z" fill="#000000" stroke="black" stroke-width="1" data-i="4" data-j="4"/>
<polygon points="187,160 181,181 200,178" fill="#000000" stroke="black" stroke-width="1" data-i="4" data-j="4"/>
<path d="M187,160 181,181 200,178 Z" fill="#000000" stroke="black" stroke-width="1" data-i="4" data-j="4"/>
<polygon points="156,194 177,202 176,182" fill="#000000" stroke="black" stroke-width="1" data-i="4" data-j="4"/>
<path d="M156,194 177,202 176,182 Z" fill="#000000" stroke="black" stroke-width="1" data-i="4" data-j="4"/>
<polygon points="184,205 201,191 183,183" fill="#000000" stroke="black" stroke-width="1" data-i="4" data-j="4"/>
<path d="M184,205 201,191 183,183 Z" fill="#000000" stroke="black" stroke-width="1" data-i="4" data-j="4"/>
</svg>