<svg width="180" height="180" xmlns="http://www.w3.org/2000/svg">
<metadata>
	<dimension_matrice_cellule>4</dimension_matrice_cellule>
	<protocole>2</protocole>
</metadata>
<polygon points="9,0 0,20 20,19" fill="#000000" stroke="black" stroke-width="1" data-i="0" data-j="0"/>
<path d="M9,0 0,20 20,19 Z" fill="#000000" stroke="black" stroke-width="1" data-i="0" data-j="0"/>
<polygon points="16,12 36,23 37,3" fill="#000000" stroke="black" stroke-width="1" data-i="0" data-j="0"/>
<path d="M16,12 36,23 37,3 Z" fill="#000000" stroke="black" stroke-width="1" data-i="0" data-j="0"/>
<polygon points="18,23 -1,32 13,44" fill="#000000" stroke="black" stroke-width="1" data-i="0" data-j="0"/>
<path d="M18,23 -1,32 13,44 Z" fill="#000000" stroke="black" stroke-width="1" data-i="0" data-j="0"/>
<polygon points="20,23 27,45 41,30" fill="#000000" stroke="black" stroke-width="1" data-i="0" data-j="0"/>
<path d="M20,23 27,45 41,30 Z" fill="#000000" stroke="black" stroke-width="1" data-i="0" data-j="0"/>
<polygon points="39,21 61,17 49,1" fill="#ff0000" stroke="black" stroke-width="1" data-i="0" data-j="1"/>
<path d="M39,21 61,17 49,1 Z" fill="#ff0000" stroke="black" stroke-width="1" data-i="0" data-j="1"/>
<polygon points="76,24 75,2 58,12" fill="#ff0000" stroke="black" stroke-width="1" data-i="0" data-j="1"/>
<path d="M76,24 75,2 58,12 Z" fill="#ff0000" stroke="black" stroke-width="1" data-i="0" data-j="1"/>
<polygon points="51,46 59,25 39,27" fill="#ff0000" stroke="black" stroke-width="1" data-i="0" data-j="1"/>
<path d="M51,46 59,25 39,27 Z" fill="#ff0000" stroke="black" stroke-width="1" data-i="0" data-j="1"/>
<polygon points="82,38 67,21 60,40" fill="#0000ff" stroke="black" stroke-width="1" data-i="0" data-j="1"/>
<path d="M82,38 67,21 60,40 Z" fill="#0000ff" stroke="black" stroke-width="1" data-i="0" data-j="1"/>
<polygon points="86,26 101,9 82,4" fill="#ff0000" stroke="black" stroke-width="1" data-i="0" data-j="2"/>
<path d="M86,26 101,9 82,4 Z" fill="#ff0000" stroke="black" stroke-width="1" data-i="0" data-j="2"/>
<polygon points="108,26 120,8 101,5" fill="#ff0000" stroke="black" stroke-width="1" data-i="0" data-j="2"/>
<path d="M108,26 120,8 101,5 Z" fill="#ff0000" stroke="black" stroke-width="1" data-i="0" data-j="2"/>
<polygon points="100,25 78,29 90,45" fill="#ff0000" stroke="black" stroke-width="1" data-i="0" data-j="2"/>
<path d="M100,25 78,29 90,45 Z" fill="#ff0000" stroke="black" stroke-width="1" data-i="0" data-j="2"/>
<polygon points="106,46 121,29 102,24" fill="#00ff00" stroke="black" stroke-width="1" data-i="0" data-j="2"/>
<path d="M106,46 121,29 102,24 Z" fill="#00ff00" stroke="black" stroke-width="1" data-i="0" data-j="2"/>
<polygon points="131,26 138,5 119,8" fill="#000000" stroke="black" stroke-width="1" data-i="0" data-j="3"/>
<path d="M131,26 138,5 119,8 Z" fill="#000000" stroke="black" stroke-width="1" data-i="0" data-j="3"/>
<polygon points="159,22 152,1 138,15" fill="#000000" stroke="black" stroke-width="1" data-i="0" data-j="3"/>
<path d="M159,22 152,1 138,15 Z" fill="#000000" stroke="black" stroke-width="1" data-i="0" data-j="3"/>
<polygon points="133,20 118,37 137,42" fill="#000000" stroke="black" stroke-width="1" data-i="0" data-j="3"/>
<path d="M133,20 118,37 137,42 Z" fill="#000000" stroke="black" stroke-width="1" data-i="0" data-j="3"/>
<polygon points="161,26 139,27 149,45" fill="#000000" stroke="black" stroke-width="1" data-i="0" data-j="3"/>
<path d="M161,26 139,27 149,45 Z" fill="#000000" stroke="black" stroke-width="1" data-i="0" data-j="3"/>
<polygon points="23,51 2,44 4,64" fill="#ff0000" stroke="black" stroke-width="1" data-i="1" data-j="0"/>
<path d="M23,51 2,44 4,64 Z" fill="#ff0000" stroke="black" stroke-width="1" data-i="1" data-j="0"/>
<polygon points="38,43 18,51 32,64" fill="#0000ff" stroke="black" stroke-width="1" data-i="1" data-j="0"/>
<path d="M38,43 18,51 32,64 Z" fill="#0000ff" stroke="black" stroke-width="1" data-i="1" data-j="0"/>
<polygon points="-2,78 20,79 12,61" fill="#0000ff" stroke="black" stroke-width="1" data-i="1" data-j="0"/>
<path d="M-2,78 20,79 12,61 Z" fill="#0000ff" stroke="black" stroke-width="1" data-i="1" data-j="0"/>
<polygon points="18,66 30,85 40,68" fill="#ff0000" stroke="black" stroke-width="1" data-i="1" data-j="0"/>
<path d="M18,66 30,85 40,68 Z" fill="#ff0000" stroke="black" stroke-width="1" data-i="1" data-j="0"/>
<polygon points="60,61 50,41 38,57" fill="#00ff00" stroke="black" stroke-width="1" data-i="1" data-j="1"/>
<path d="M60,61 50,41 38,57 Z" fill="#00ff00" stroke="black" stroke-width="1" data-i="1" data-j="1"/>
<polygon points="57,49 73,64 79,45" fill="#0000ff" stroke="black" stroke-width="1" data-i="1" data-j="1"/>
<path d="M57,49 73,64 79,45 Z" fill="#0000ff" stroke="black" stroke-width="1" data-i="1" data-j="1"/>
<polygon points="60,65 38,69 50,85" fill="#0000ff" stroke="black" stroke-width="1" data-i="1" data-j="1"/>
<path d="M60,65 38,69 50,85 Z" fill="#0000ff" stroke="black" stroke-width="1" data-i="1" data-j="1"/>
<polygon points="67,60 61,81 80,78" fill="#ff0000" stroke="black" stroke-width="1" data-i="1" data-j="1"/>
<path d="M67,60 61,81 80,78 Z" fill="#ff0000" stroke="black" stroke-width="1" data-i="1" data-j="1"/>
<polygon points="82,42 85,64 102,53" fill="#00ff00" stroke="black" stroke-width="1" data-i="1" data-j="2"/>
<path d="M82,42 85,64 102,53 Z" fill="#00ff00" stroke="black" stroke-width="1" data-i="1" data-j="2"/>
<polygon points="103,41 104,63 121,54" fill="#0000ff" stroke="black" stroke-width="1" data-i="1" data-j="2"/>
<path d="M103,41 104,63 121,54 Z" fill="#0000ff" stroke="black" stroke-width="1" data-i="1" data-j="2"/>
<polygon points="91,60 79,78 99,81" fill="#ffff00" stroke="black" stroke-width="1" data-i="1" data-j="2"/>
<path d="M91,60 79,78 99,81 Z" fill="#ffff00" stroke="black" stroke-width="1" data-i="1" data-j="2"/>
<polygon points="123,73 103,63 102,83" fill="#ff0000" stroke="black" stroke-width="1" data-i="1" data-j="2"/>
<path d="M123,73 103,63 102,83 Z" fill="#ff0000" stroke="black" stroke-width="1" data-i="1" data-j="2"/>
<polygon points="124,41 123,63 141,55" fill="#00ff00" stroke="black" stroke-width="1" data-i="1" data-j="3"/>
<path d="M124,41 123,63 141,55 Z" fill="#00ff00" stroke="black" stroke-width="1" data-i="1" data-j="3"/>
<polygon points="163,51 142,44 144,64" fill="#0000ff" stroke="black" stroke-width="1" data-i="1" data-j="3"/>
<path d="M163,51 142,44 144,64 Z" fill="#0000ff" stroke="black" stroke-width="1" data-i="1" data-j="3"/>
<polygon points="135,61 118,74 136,83" fill="#ffff00" stroke="black" stroke-width="1" data-i="1" data-j="3"/>
<path d="M135,61 118,74 136,83 Z" fill="#ffff00" stroke="black" stroke-width="1" data-i="1" data-j="3"/>
<polygon points="154,60 138,75 156,83" fill="#ffff00" stroke="black" stroke-width="1" data-i="1" data-j="3"/>
<path d="M154,60 138,75 156,83 Z" fill="#ffff00" stroke="black" stroke-width="1" data-i="1" data-j="3"/>
<polygon points="8,80 0,100 20,99" fill="#00ff00" stroke="black" stroke-width="1" data-i="2" data-j="0"/>
<path d="M8,80 0,100 20,99 Z" fill="#00ff00" stroke="black" stroke-width="1" data-i="2" data-j="0"/>
<polygon points="25,80 23,103 41,95" fill="#0000ff" stroke="black" stroke-width="1" data-i="2" data-j="0"/>
<path d="M25,80 23,103 41,95 Z" fill="#0000ff" stroke="black" stroke-width="1" data-i="2" data-j="0"/>
<polygon points="-1,119 20,119 11,101" fill="#00ff00" stroke="black" stroke-width="1" data-i="2" data-j="0"/>
<path d="M-1,119 20,119 11,101 Z" fill="#00ff00" stroke="black" stroke-width="1" data-i="2" data-j="0"/>
<polygon points="37,102 17,113 34,124" fill="#00ff00" stroke="black" stroke-width="1" data-i="2" data-j="0"/>
<path d="M37,102 17,113 34,124 Z" fill="#00ff00" stroke="black" stroke-width="1" data-i="2" data-j="0"/>
<polygon points="47,106 61,89 41,84" fill="#00ff00" stroke="black" stroke-width="1" data-i="2" data-j="1"/>
<path d="M47,106 61,89 41,84 Z" fill="#00ff00" stroke="black" stroke-width="1" data-i="2" data-j="1"/>
<polygon points="72,106 78,84 58,88" fill="#0000ff" stroke="black" stroke-width="1" data-i="2" data-j="1"/>
<path d="M72,106 78,84 58,88 Z" fill="#0000ff" stroke="black" stroke-width="1" data-i="2" data-j="1"/>
<polygon points="50,100 39,119 59,120" fill="#ffff00" stroke="black" stroke-width="1" data-i="2" data-j="1"/>
<path d="M50,100 39,119 59,120 Z" fill="#ffff00" stroke="black" stroke-width="1" data-i="2" data-j="1"/>
<polygon points="83,114 63,102 62,122" fill="#ff0000" stroke="black" stroke-width="1" data-i="2" data-j="1"/>
<path d="M83,114 63,102 62,122 Z" fill="#ff0000" stroke="black" stroke-width="1" data-i="2" data-j="1"/>
<polygon points="76,95 98,101 94,82" fill="#ff0000" stroke="black" stroke-width="1" data-i="2" data-j="2"/>
<path d="M76,95 98,101 94,82 Z" fill="#ff0000" stroke="black" stroke-width="1" data-i="2" data-j="2"/>
<polygon points="101,103 121,95 107,81" fill="#ff0000" stroke="black" stroke-width="1" data-i="2" data-j="2"/>
<path d="M101,103 121,95 107,81 Z" fill="#ff0000" stroke="black" stroke-width="1" data-i="2" data-j="2"/>
<polygon points="96,101 77,113 95,124" fill="#ff0000" stroke="black" stroke-width="1" data-i="2" data-j="2"/>
<path d="M96,101 77,113 95,124 Z" fill="#ff0000" stroke="black" stroke-width="1" data-i="2" data-j="2"/>
<polygon points="99,120 121,117 109,101" fill="#ffff00" stroke="black" stroke-width="1" data-i="2" data-j="2"/>
<path d="M99,120 121,117 109,101 Z" fill="#ffff00" stroke="black" stroke-width="1" data-i="2" data-j="2"/>
<polygon points="139,84 118,90 131,105" fill="#ff0000" stroke="black" stroke-width="1" data-i="2" data-j="3"/>
<path d="M139,84 118,90 131,105 Z" fill="#ff0000" stroke="black" stroke-width="1" data-i="2" data-j="3"/>
<polygon points="138,86 150,105 160,88" fill="#ff0000" stroke="black" stroke-width="1" data-i="2" data-j="3"/>
<path d="M138,86 150,105 160,88 Z" fill="#ff0000" stroke="black" stroke-width="1" data-i="2" data-j="3"/>
<polygon points="127,126 141,109 121,104" fill="#ff0000" stroke="black" stroke-width="1" data-i="2" data-j="3"/>
<path d="M127,126 141,109 121,104 Z" fill="#ff0000" stroke="black" stroke-width="1" data-i="2" data-j="3"/>
<polygon points="160,105 138,109 150,125" fill="#ff0000" stroke="black" stroke-width="1" data-i="2" data-j="3"/>
<path d="M160,105 138,109 150,125 Z" fill="#ff0000" stroke="black" stroke-width="1" data-i="2" data-j="3"/>
<polygon points="7,146 21,128 1,124" fill="#ff0000" stroke="black" stroke-width="1" data-i="3" data-j="0"/>
<path d="M7,146 21,128 1,124 Z" fill="#ff0000" stroke="black" stroke-width="1" data-i="3" data-j="0"/>
<polygon points="19,142 41,136 28,121" fill="#ff0000" stroke="black" stroke-width="1" data-i="3" data-j="0"/>
<path d="M19,142 41,136 28,121 Z" fill="#ff0000" stroke="black" stroke-width="1" data-i="3" data-j="0"/>
<polygon points="10,140 0,159 19,160" fill="#ff0000" stroke="black" stroke-width="1" data-i="3" data-j="0"/>
<path d="M10,140 0,159 19,160 Z" fill="#ff0000" stroke="black" stroke-width="1" data-i="3" data-j="0"/>
<polygon points="28,166 40,147 20,145" fill="#ff0000" stroke="black" stroke-width="1" data-i="3" data-j="0"/>
<path d="M28,166 40,147 20,145 Z" fill="#ff0000" stroke="black" stroke-width="1" data-i="3" data-j="0"/>
<polygon points="58,123 38,131 52,144" fill="#ff0000" stroke="black" stroke-width="1" data-i="3" data-j="1"/>
<path d="M58,123 38,131 52,144 Z" fill="#ff0000" stroke="black" stroke-width="1" data-i="3" data-j="1"/>
<polygon points="65,120 62,143 81,136" fill="#ff0000" stroke="black" stroke-width="1" data-i="3" data-j="1"/>
<path d="M65,120 62,143 81,136 Z" fill="#ff0000" stroke="black" stroke-width="1" data-i="3" data-j="1"/>
<polygon points="36,155 57,162 55,142" fill="#ff0000" stroke="black" stroke-width="1" data-i="3" data-j="1"/>
<path d="M36,155 57,162 55,142 Z" fill="#ff0000" stroke="black" stroke-width="1" data-i="3" data-j="1"/>
<polygon points="83,154 63,142 62,162" fill="#ff0000" stroke="black" stroke-width="1" data-i="3" data-j="1"/>
<path d="M83,154 63,142 62,162 Z" fill="#ff0000" stroke="black" stroke-width="1" data-i="3" data-j="1"/>
<polygon points="77,128 92,145 99,126" fill="#ff0000" stroke="black" stroke-width="1" data-i="3" data-j="2"/>
<path d="M77,128 92,145 99,126 Z" fill="#ff0000" stroke="black" stroke-width="1" data-i="3" data-j="2"/>
<polygon points="122,127 99,127 108,145" fill="#ff0000" stroke="black" stroke-width="1" data-i="3" data-j="2"/>
<path d="M122,127 99,127 108,145 Z" fill="#ff0000" stroke="black" stroke-width="1" data-i="3" data-j="2"/>
<polygon points="76,153 96,163 96,143" fill="#ff0000" stroke="black" stroke-width="1" data-i="3" data-j="2"/>
<path d="M76,153 96,163 96,143 Z" fill="#ff0000" stroke="black" stroke-width="1" data-i="3" data-j="2"/>
<polygon points="112,140 98,158 118,161" fill="#ff0000" stroke="black" stroke-width="1" data-i="3" data-j="2"/>
<path d="M112,140 98,158 118,161 Z" fill="#ff0000" stroke="black" stroke-width="1" data-i="3" data-j="2"/>
<polygon points="117,137 139,140 132,121" fill="#000000" stroke="black" stroke-width="1" data-i="3" data-j="3"/>
<path d="M117,137 139,140 132,121 Z" fill="#000000" stroke="black" stroke-width="1" data-i="3" data-j="3"/>
<polygon points="136,133 156,143 156,123" fill="#000000" stroke="black" stroke-width="1" data-i="3" data-j="3"/>
<path d="M136,133 156,143 156,123 Z" fill="#000000" stroke="black" stroke-width="1" data-i="3" data-j="3"/>
<polygon points="142,156 126,141 120,161" fill="#000000" stroke="black" stroke-width="1" data-i="3" data-j="3"/>
<path d="M142,156 126,141 120,161 Z" fill="#000000" stroke="black" stroke-width="1" data-i="3" data-j="3"/>
<polygon points="141,143 146,164 161,151" fill="#000000" stroke="black" stroke-width="1" data-i="3" data-j="3"/>
<path d="M141,143 146,164 161,151 Z" fill="#000000" stroke="black" stroke-width="1" data-i="3" data-j="3"/>
</svg>